<?xml version="1.0" encoding="UTF-8" standalone="no"?>
<!-- Created with Inkscape (http://www.inkscape.org/) -->

<svg
   xmlns:dc="http://purl.org/dc/elements/1.1/"
   xmlns:cc="http://creativecommons.org/ns#"
   xmlns:rdf="http://www.w3.org/1999/02/22-rdf-syntax-ns#"
   xmlns:svg="http://www.w3.org/2000/svg"
   xmlns="http://www.w3.org/2000/svg"
   xmlns:sodipodi="http://sodipodi.sourceforge.net/DTD/sodipodi-0.dtd"
   xmlns:inkscape="http://www.inkscape.org/namespaces/inkscape"
   width="12.838915mm"
   height="12.405126mm"
   viewBox="0 0 12.838915 12.405126"
   version="1.1"
   id="svg131"
   inkscape:version="0.92.3 (2405546, 2018-03-11)"
   sodipodi:docname="hobbiesIcon.svg">
  <defs
     id="defs125" />
  <sodipodi:namedview
     id="base"
     pagecolor="#ffffff"
     bordercolor="#666666"
     borderopacity="1.0"
     inkscape:pageopacity="0.0"
     inkscape:pageshadow="2"
     inkscape:zoom="5.6"
     inkscape:cx="26.499727"
     inkscape:cy="11.067479"
     inkscape:document-units="mm"
     inkscape:current-layer="layer1"
     showgrid="false"
     fit-margin-top="0"
     fit-margin-left="0"
     fit-margin-right="0"
     fit-margin-bottom="0"
     inkscape:window-width="1920"
     inkscape:window-height="1027"
     inkscape:window-x="-8"
     inkscape:window-y="-8"
     inkscape:window-maximized="1" />
  <metadata
     id="metadata128">
    <rdf:RDF>
      <cc:Work
         rdf:about="">
        <dc:format>image/svg+xml</dc:format>
        <dc:type
           rdf:resource="http://purl.org/dc/dcmitype/StillImage" />
        <dc:title></dc:title>
      </cc:Work>
    </rdf:RDF>
  </metadata>
  <g
     inkscape:label="Ebene 1"
     inkscape:groupmode="layer"
     id="layer1"
     transform="translate(175.12757,-194.24939)">
    <g
       id="g158"
       transform="translate(24.771267,3.1924126)">
      <path
         style="fill:#cfcfcf;stroke-width:0.02582915"
         d="m -198.59936,203.3923 c -0.045,-0.0424 -0.0824,-0.11659 -0.10434,-0.20673 -0.0188,-0.0774 -0.043,-0.14674 -0.0538,-0.15419 -0.0108,-0.007 -0.0196,-0.0428 -0.0196,-0.0787 0,-0.0358 -0.011,-0.0727 -0.0244,-0.082 -0.0134,-0.009 -0.0244,-0.0462 -0.0244,-0.082 0,-0.0358 -0.011,-0.0727 -0.0244,-0.082 -0.0134,-0.009 -0.0244,-0.0523 -0.0244,-0.0957 0,-0.0433 -0.01,-0.0855 -0.0217,-0.0938 -0.0119,-0.008 -0.0279,-0.0551 -0.0354,-0.10411 -0.008,-0.049 -0.0205,-0.13214 -0.0288,-0.18476 -0.008,-0.0526 -0.0246,-0.12026 -0.0363,-0.15033 -0.0117,-0.0301 -0.0278,-0.10386 -0.0358,-0.16399 -0.008,-0.0601 -0.0256,-0.18314 -0.0391,-0.27333 -0.0551,-0.36753 -0.0735,-0.5981 -0.0866,-1.08307 l -0.0137,-0.50908 0.0885,-0.0991 c 0.1198,-0.13416 0.22309,-0.13603 0.33909,-0.006 0.0815,0.0913 0.0833,0.0982 0.0986,0.38949 0.0425,0.80947 0.10842,1.33009 0.23327,1.84086 0.0129,0.0526 0.0335,0.13871 0.0459,0.19133 0.0124,0.0526 0.0675,0.24432 0.12255,0.426 0.11111,0.36687 0.11006,0.45365 -0.007,0.59528 -0.0815,0.0985 -0.24677,0.10135 -0.34802,0.006 z m 1.61551,0.01 c -0.0276,-0.0501 0.16633,-0.53602 0.27162,-0.68055 0.0256,-0.0351 0.0685,-0.0859 0.0953,-0.11295 0.12294,-0.1238 0.19676,-0.18899 0.21405,-0.18902 0.0103,-2e-5 0.0623,-0.0308 0.11545,-0.0684 0.0532,-0.0376 0.1182,-0.0683 0.14453,-0.0683 0.0263,0 0.0547,-0.0123 0.0629,-0.0273 0.008,-0.015 0.0452,-0.0273 0.082,-0.0273 0.0368,0 0.0773,-0.0116 0.0901,-0.0258 0.0265,-0.0294 0.1992,-0.0826 0.33454,-0.1029 0.0504,-0.008 0.0978,-0.0248 0.10518,-0.0382 0.007,-0.0135 0.0491,-0.0245 0.0926,-0.0245 0.0435,0 0.0895,-0.0107 0.10229,-0.0238 0.0127,-0.0131 0.0891,-0.0449 0.16964,-0.0706 0.0805,-0.0257 0.16552,-0.0581 0.18883,-0.0718 0.0233,-0.0138 0.0645,-0.0251 0.0915,-0.0251 0.027,0 0.0491,-0.0111 0.0491,-0.0247 0,-0.0136 0.0302,-0.0376 0.0671,-0.0533 0.0892,-0.0381 0.20684,-0.11842 0.23831,-0.16264 0.0337,-0.0473 0.1095,-0.0128 0.1095,0.0499 0,0.10247 0.16289,0.40073 0.3081,0.56414 0.20192,0.22724 0.50498,0.37689 0.75365,0.37214 0.34377,-0.007 0.74172,-0.28331 0.86847,-0.60396 0.0189,-0.0478 0.0426,-0.0869 0.0528,-0.0869 0.0102,0 0.0185,-0.0239 0.0185,-0.053 0,-0.0292 0.011,-0.0607 0.0244,-0.07 0.0134,-0.009 0.0244,-0.0454 0.0244,-0.0803 0,-0.0349 0.016,-0.0782 0.0355,-0.0964 0.0285,-0.0265 0.0513,-0.0199 0.11594,0.0338 0.14236,0.11823 0.36561,0.23414 0.59299,0.30788 0.0805,0.0261 0.15744,0.0566 0.17086,0.0678 0.0134,0.0112 0.0628,0.0271 0.10984,0.0353 0.047,0.008 0.12936,0.0273 0.18306,0.0424 0.0537,0.0151 0.14706,0.0413 0.20747,0.0582 0.0604,0.0169 0.12027,0.0423 0.13302,0.0565 0.0128,0.0142 0.0533,0.0258 0.0901,0.0258 0.0368,0 0.0737,0.0123 0.082,0.0273 0.008,0.015 0.0327,0.0273 0.0543,0.0273 0.0537,0 0.22643,0.0874 0.22643,0.11459 0,0.0121 0.0137,0.0221 0.0305,0.0221 0.0472,5e-5 0.22542,0.16998 0.33234,0.31693 0.0782,0.10754 0.24958,0.51499 0.2551,0.60665 l 0.004,0.074 -3.64141,0.007 c -2.54297,0.005 -3.64623,-0.002 -3.65739,-0.022 z m 8.46348,-0.0139 c -0.11528,-0.0904 -0.16012,-0.30078 -0.0999,-0.46855 0.0151,-0.042 0.0363,-0.10105 0.0472,-0.13112 0.0294,-0.0812 0.10991,-0.36526 0.14339,-0.50566 0.0161,-0.0677 0.0396,-0.16077 0.0521,-0.20694 0.0125,-0.0462 0.0228,-0.11616 0.0228,-0.15555 0,-0.0394 0.011,-0.0792 0.0244,-0.0885 0.0134,-0.009 0.0244,-0.0691 0.0244,-0.13282 0,-0.0637 0.0101,-0.1276 0.0224,-0.14188 0.0237,-0.0276 0.0444,-0.22526 0.0656,-0.62729 0.007,-0.1353 0.0232,-0.25768 0.0357,-0.27197 0.0125,-0.0143 0.0227,-0.046 0.0227,-0.0704 0,-0.0532 0.0838,-0.14046 0.17814,-0.18543 0.0561,-0.0267 0.0821,-0.0246 0.14525,0.012 0.10323,0.0598 0.12783,0.0905 0.1651,0.20587 0.0266,0.0823 0.025,0.16131 -0.0101,0.49099 -0.0499,0.46968 -0.0942,0.76287 -0.1596,1.05576 -0.0143,0.0639 -0.0376,0.16844 -0.0519,0.23233 -0.0143,0.0639 -0.032,0.15014 -0.0394,0.19166 -0.007,0.0415 -0.0232,0.0822 -0.0351,0.0905 -0.0119,0.008 -0.0216,0.0504 -0.0216,0.0937 0,0.0433 -0.011,0.0864 -0.0244,0.0957 -0.0134,0.009 -0.0244,0.0469 -0.0244,0.0836 0,0.0367 -0.011,0.0667 -0.0244,0.0667 -0.0134,0 -0.0244,0.03 -0.0244,0.0667 0,0.0367 -0.011,0.0743 -0.0244,0.0836 -0.0134,0.009 -0.0244,0.0347 -0.0244,0.0565 0,0.0218 -0.0314,0.0764 -0.0698,0.12139 -0.0543,0.0636 -0.091,0.0817 -0.16542,0.0817 -0.0526,0 -0.12014,-0.0192 -0.15005,-0.0427 z m -5.06996,-1.79538 c -0.11356,-0.0438 -0.24322,-0.1141 -0.25222,-0.13677 -0.004,-0.0113 -0.0209,-0.0207 -0.0366,-0.0209 -0.0631,-9.1e-4 -0.45562,-0.47011 -0.45562,-0.54465 0,-0.0159 -0.011,-0.0289 -0.0244,-0.0289 -0.0134,0 -0.0244,-0.0185 -0.0244,-0.041 0,-0.0225 -0.009,-0.041 -0.0198,-0.041 -0.0109,0 -0.0349,-0.0431 -0.0534,-0.0957 -0.0184,-0.0526 -0.0404,-0.0957 -0.0488,-0.0957 -0.008,0 -0.0304,-0.043 -0.0488,-0.0957 -0.0184,-0.0526 -0.0425,-0.0957 -0.0534,-0.0957 -0.0109,0 -0.0199,-0.0246 -0.0199,-0.0547 0,-0.0301 -0.008,-0.0547 -0.0185,-0.0547 -0.0101,0 -0.0342,-0.04 -0.0535,-0.0888 -0.0193,-0.0489 -0.0855,-0.18723 -0.14723,-0.3075 -0.18868,-0.36782 -0.25902,-0.55729 -0.28142,-0.75805 -0.0219,-0.19639 0.0193,-0.35482 0.12244,-0.47028 l 0.0836,-0.0936 0.009,-0.66467 c 0.01,-0.73444 0.0129,-0.76141 0.12103,-1.02646 0.0659,-0.16162 0.33627,-0.45948 0.52749,-0.5812 0.0354,-0.0225 0.0681,-0.0502 0.0725,-0.0615 0.004,-0.0113 0.0184,-0.0205 0.031,-0.0205 0.0126,0 0.0663,-0.0307 0.11952,-0.0683 0.0532,-0.0376 0.11414,-0.0683 0.1355,-0.0683 0.0442,0 0.10858,-0.0636 0.10858,-0.10738 0,-0.0161 0.008,-0.0294 0.0183,-0.0295 0.0101,-1.1e-4 0.0433,-0.0412 0.0737,-0.0914 0.0305,-0.0501 0.0854,-0.10846 0.12204,-0.1296 0.0366,-0.0211 0.0745,-0.0508 0.084,-0.0658 0.0257,-0.0404 0.46501,-0.033 0.47723,0.008 0.005,0.0181 0.0255,0.0329 0.0447,0.0329 0.14158,0 0.63975,0.49224 0.96817,0.95665 0.30165,0.42655 0.34429,0.60646 0.33019,1.39326 l -0.01,0.55959 0.0772,0.0865 c 0.16666,0.18664 0.13038,0.52006 -0.11269,1.03563 -0.0638,0.13529 -0.15264,0.32594 -0.19745,0.42366 -0.0448,0.0977 -0.087,0.18381 -0.0937,0.19133 -0.007,0.008 -0.0391,0.0752 -0.0721,0.15033 -0.0329,0.0752 -0.0906,0.18808 -0.12814,0.25092 -0.0376,0.0628 -0.0683,0.12215 -0.0683,0.13179 0,0.01 -0.0137,0.0332 -0.0305,0.0522 -0.0168,0.0191 -0.058,0.0761 -0.0915,0.12675 -0.0884,0.13337 -0.3197,0.38129 -0.35568,0.38129 -0.0169,0 -0.0344,0.009 -0.0389,0.0205 -0.0148,0.0373 -0.16977,0.11616 -0.22835,0.11616 -0.0317,0 -0.0644,0.0123 -0.0727,0.0273 -0.0195,0.0353 -0.39257,0.0301 -0.48816,-0.007 z m 0.32547,-0.29056 c 0.021,-0.0149 -0.018,-0.0295 -0.10984,-0.0412 -0.37847,-0.048 -0.63914,-0.33785 -1.06994,-1.18987 -0.0773,-0.15278 -0.14504,-0.27265 -0.15065,-0.26636 -0.006,0.006 0.0233,0.075 0.0641,0.1526 0.0409,0.0777 0.0746,0.14986 0.0749,0.16047 3e-4,0.0106 0.022,0.05 0.0483,0.0876 0.0262,0.0376 0.048,0.0899 0.0483,0.11617 3e-4,0.0263 0.01,0.0478 0.021,0.0478 0.0113,0 0.0337,0.0324 0.0498,0.0721 0.0543,0.13344 0.27416,0.48068 0.34901,0.55122 0.0408,0.0385 0.0885,0.0859 0.10588,0.10538 0.0576,0.0646 0.26207,0.17327 0.32661,0.1737 0.0349,2.2e-4 0.08,0.0123 0.1001,0.0269 0.0451,0.0326 0.0994,0.0339 0.14241,0.003 z m 0.31798,-0.10527 c 0.125,-0.0708 0.27382,-0.22027 0.36343,-0.36497 0.0225,-0.0364 0.0606,-0.09 0.0845,-0.1191 0.024,-0.0291 0.0572,-0.0875 0.0739,-0.12983 0.0167,-0.0423 0.0366,-0.0769 0.0443,-0.0769 0.008,0 0.029,-0.043 0.0474,-0.0957 0.0184,-0.0526 0.0424,-0.0957 0.0534,-0.0957 0.0109,0 0.0199,-0.0239 0.0199,-0.0531 0,-0.0292 0.011,-0.0607 0.0244,-0.0699 0.0134,-0.009 0.0242,-0.0315 0.024,-0.0495 -2.2e-4,-0.0179 -0.0237,0.0105 -0.0522,0.0631 -0.35342,0.653 -0.58612,0.9313 -0.85841,1.02664 -0.0942,0.033 -0.0964,0.0358 -0.0291,0.0375 0.0401,10e-4 0.13209,-0.0317 0.20446,-0.0727 z m 0.78442,-1.14176 c 0,-0.0225 -0.004,-0.041 -0.01,-0.041 -0.005,0 -0.0159,0.0185 -0.0236,0.041 -0.008,0.0225 -0.003,0.041 0.01,0.041 0.013,0 0.0237,-0.0185 0.0237,-0.041 z m 0.0488,-0.0957 c 0,-0.015 -0.005,-0.0273 -0.0108,-0.0273 -0.006,0 -0.0175,0.0123 -0.0258,0.0273 -0.008,0.015 -0.003,0.0273 0.0108,0.0273 0.0142,0 0.0258,-0.0123 0.0258,-0.0273 z m 0.0441,-0.12373 c -0.008,-0.008 -0.0212,0.007 -0.0303,0.0337 -0.0132,0.0389 -0.0104,0.0421 0.0137,0.0153 0.0167,-0.0185 0.0242,-0.0406 0.0167,-0.049 z m 0.0488,-0.10933 c -0.008,-0.008 -0.0212,0.007 -0.0303,0.0337 -0.0132,0.039 -0.0104,0.0421 0.0137,0.0153 0.0167,-0.0185 0.0242,-0.0406 0.0167,-0.049 z m -2.59852,-4.5e-4 c -0.008,-0.0232 -0.0197,-0.0363 -0.0261,-0.0291 -0.006,0.007 -0.004,0.0261 0.004,0.0422 0.0241,0.0436 0.0381,0.0351 0.0216,-0.013 z m 2.64734,-0.10888 c -0.008,-0.008 -0.0212,0.007 -0.0303,0.0337 -0.0132,0.039 -0.0104,0.0421 0.0137,0.0153 0.0167,-0.0185 0.0242,-0.0406 0.0167,-0.049 z m -2.69576,7.2e-4 c -0.008,-0.0225 -0.0184,-0.041 -0.0236,-0.041 -0.005,0 -0.01,0.0185 -0.01,0.041 0,0.0225 0.0106,0.041 0.0236,0.041 0.013,0 0.0173,-0.0185 0.01,-0.041 z m 2.74457,-0.11005 c -0.008,-0.008 -0.0212,0.007 -0.0303,0.0337 -0.0132,0.0389 -0.0104,0.0421 0.0137,0.0153 0.0167,-0.0185 0.0242,-0.0406 0.0167,-0.049 z m -2.86228,-0.152 c -0.0338,-0.0814 -0.0616,-0.12986 -0.0617,-0.10776 -3e-4,0.0501 0.10708,0.30522 0.11641,0.2766 0.004,-0.0115 -0.0209,-0.0875 -0.0547,-0.16884 z m 2.91581,0.0571 c 0,-0.0301 0.011,-0.0547 0.0244,-0.0547 0.0134,0 0.0244,-0.0266 0.0244,-0.0592 0,-0.0745 -0.013,-0.06 -0.0606,0.0675 -0.0219,0.0587 -0.0274,0.10109 -0.013,0.10109 0.0136,0 0.0247,-0.0246 0.0247,-0.0547 z m 0.0973,-0.37531 c 3.2e-4,-0.0997 -0.008,-0.11793 -0.0587,-0.13225 -0.0325,-0.009 -0.0792,-0.0108 -0.10374,-0.004 -0.0311,0.009 -0.0252,0.0139 0.0195,0.0161 0.0935,0.005 0.12767,0.0659 0.11158,0.20018 -0.009,0.0745 -0.006,0.10067 0.009,0.0749 0.0123,-0.0218 0.0225,-0.0916 0.0227,-0.15522 z m -3.08464,0.0902 c -0.0253,-0.11312 0.0213,-0.19717 0.13617,-0.24523 l 0.10531,-0.0441 -0.10784,0.0149 c -0.0601,0.008 -0.12189,0.0356 -0.13957,0.0617 -0.0333,0.049 -0.045,0.22952 -0.017,0.26088 0.0304,0.0341 0.0379,0.0184 0.0229,-0.0482 z m 0.31976,-0.51407 c -0.006,-0.034 -0.0108,-0.0126 -0.0111,0.0475 -2.7e-4,0.0601 0.005,0.088 0.0106,0.0618 0.006,-0.0261 0.006,-0.0753 4.9e-4,-0.10933 z m 2.47236,-0.0208 c 0,-0.0584 0.011,-0.11371 0.0244,-0.123 0.0134,-0.009 0.0244,-0.0654 0.0244,-0.12461 v -0.10772 l -0.16475,0.001 -0.16475,0.001 0.0918,0.0367 c 0.15927,0.0636 0.17219,0.0874 0.15426,0.28345 -0.0107,0.11724 -0.008,0.16822 0.009,0.15642 0.0139,-0.01 0.0253,-0.0653 0.0253,-0.12361 z m -2.48101,-0.54332 c 0.0509,-0.0473 0.31021,-0.11267 0.44681,-0.11267 0.11562,0 0.57393,0.058 0.78939,0.1 0.12261,0.0238 0.0787,-0.0117 -0.0757,-0.0613 -0.39421,-0.12668 -0.83631,-0.13688 -1.05928,-0.0244 -0.0403,0.0203 -0.0924,0.0435 -0.11593,0.0515 -0.0362,0.0123 -0.042,0.045 -0.038,0.21357 l 0.005,0.19902 0.009,-0.16851 c 0.005,-0.0927 0.0225,-0.1814 0.0394,-0.19714 z m 1.43803,0.006 c -0.0165,-0.007 -0.0495,-0.008 -0.0732,-0.001 -0.0237,0.007 -0.0102,0.0131 0.03,0.0136 0.0403,5.6e-4 0.0597,-0.005 0.0432,-0.0126 z m 3.41195,1.58338 c -0.0441,-0.0195 -0.12599,-0.11465 -0.16614,-0.19311 -0.0231,-0.0451 -0.0305,-0.33664 -0.0305,-1.19468 0,-1.2042 -0.002,-1.17711 0.1205,-1.33248 l 0.0595,-0.0752 1.24634,6e-4 c 1.35925,6.6e-4 1.30456,-0.005 1.37774,0.15476 0.0375,0.0821 0.0382,2.41176 7.7e-4,2.5038 -0.0146,0.0358 -0.0574,0.0856 -0.0953,0.11062 -0.0618,0.0409 -0.19114,0.0453 -1.27325,0.0434 -0.66243,-0.001 -1.22028,-0.009 -1.23965,-0.0177 z m 1.02375,-1.31945 c 0,-0.39908 0.009,-0.60133 0.0255,-0.60133 0.014,0 0.0826,0.0469 0.15255,0.10428 0.16794,0.13777 0.18812,0.15022 0.18812,0.116 0,-0.0159 -0.0109,-0.029 -0.0242,-0.029 -0.022,0 -0.10328,-0.0691 -0.18475,-0.15716 -0.0174,-0.0188 -0.0434,-0.0342 -0.0578,-0.0342 -0.0144,0 -0.0262,-0.0123 -0.0262,-0.0273 0,-0.015 -0.0275,-0.0273 -0.061,-0.0273 h -0.061 v 0.62865 c 0,0.40089 0.009,0.62866 0.0244,0.62866 0.0155,0 0.0244,-0.21866 0.0244,-0.60132 z m 0.65048,0.0547 c 0.0697,-0.0853 0.0702,-0.1041 0.005,-0.16762 -0.0684,-0.0665 -0.0686,-0.0663 -0.0533,0.0393 0.0104,0.0719 -8.4e-4,0.1089 -0.0553,0.18135 -0.0646,0.086 -0.0652,0.0889 -0.0102,0.0532 0.032,-0.0208 0.0833,-0.0686 0.11401,-0.10619 z m -0.13791,-0.29774 c 0,-0.0134 -0.018,-0.0322 -0.0401,-0.0416 -0.0335,-0.0144 -0.035,-0.0104 -0.009,0.0244 0.0352,0.0474 0.0493,0.0524 0.0493,0.0172 z m -10.69073,1.39461 c -0.0604,-0.0245 -0.1135,-0.0538 -0.11797,-0.065 -0.004,-0.0113 -0.0309,-0.0205 -0.0587,-0.0205 -0.0475,0 -0.21637,-0.12235 -0.23418,-0.1697 -0.004,-0.0119 -0.0217,-0.0216 -0.0384,-0.0216 -0.0632,0 -0.32164,-0.34963 -0.43439,-0.58774 -0.1424,-0.30069 -0.1537,-0.36906 -0.1537,-0.92924 0,-0.47915 0.004,-0.53289 0.058,-0.69472 0.13012,-0.39379 0.38345,-0.76192 0.6395,-0.92929 0.15359,-0.1004 0.29153,-0.1663 0.3481,-0.1663 0.0342,0 0.0689,-0.0123 0.0772,-0.0273 0.008,-0.0154 0.12588,-0.0273 0.26849,-0.0273 0.1426,0 0.26,0.0119 0.26848,0.0273 0.008,0.015 0.042,0.0273 0.075,0.0273 0.0547,0 0.10467,0.0212 0.2057,0.087 0.0201,0.0131 0.0558,0.0311 0.0793,0.0399 0.0235,0.009 0.0427,0.0269 0.0427,0.0402 0,0.0133 0.0137,0.0242 0.0305,0.0242 0.0413,6e-5 0.28807,0.26087 0.37499,0.3963 0.0386,0.0601 0.0759,0.11548 0.0829,0.123 0.007,0.008 0.0384,0.0752 0.0699,0.15033 0.0315,0.0752 0.067,0.15802 0.079,0.18413 0.0119,0.0261 0.0217,0.0698 0.0217,0.097 0,0.0273 0.01,0.0613 0.0219,0.0755 0.0771,0.0914 0.0771,1.05382 0,1.14525 -0.0121,0.0143 -0.0219,0.0535 -0.0219,0.0872 0,0.0337 -0.011,0.0688 -0.0244,0.0781 -0.0134,0.009 -0.0244,0.0408 -0.0244,0.07 0,0.0292 -0.011,0.0531 -0.0244,0.0531 -0.0134,0 -0.0244,0.019 -0.0244,0.0422 0,0.0602 -0.2226,0.42053 -0.32042,0.51873 -0.15467,0.15528 -0.33794,0.28636 -0.40037,0.28636 -0.0175,0 -0.0354,0.009 -0.0399,0.0205 -0.004,0.0113 -0.0645,0.042 -0.13345,0.0683 -0.16226,0.0619 -0.5359,0.0602 -0.69235,-0.003 z m 0.19526,-0.46821 c -0.0336,-0.012 -0.0775,-0.0229 -0.0976,-0.0242 -0.0325,-0.002 -0.0325,6.4e-4 0,0.0242 0.0201,0.0146 0.0641,0.0255 0.0976,0.0242 l 0.061,-0.002 z m 0.40917,9.6e-4 c 0.0233,-0.0145 0.096,-0.0525 0.16163,-0.0844 0.37155,-0.1807 0.6299,-0.7082 0.62151,-1.26902 l -0.004,-0.24655 -0.0173,0.29285 c -0.0157,0.26726 -0.0261,0.31354 -0.11874,0.52967 -0.1524,0.35568 -0.46402,0.68548 -0.73532,0.77824 -0.0586,0.02 -0.0588,0.0209 -0.006,0.0232 0.0304,0.001 0.0743,-0.01 0.0976,-0.024 z m -0.67766,-0.0957 c 0,-0.007 -0.0247,-0.0261 -0.0549,-0.0425 -0.0527,-0.0286 -0.053,-0.0281 -0.008,0.0127 0.0498,0.0447 0.0625,0.0507 0.0625,0.0298 z m -0.12204,-0.0787 c 0,-0.005 -0.0235,-0.0329 -0.0523,-0.0615 -0.0521,-0.0519 -0.0521,-0.0519 -0.0185,0.009 0.0287,0.0523 0.0708,0.0833 0.0708,0.0521 z m -0.17886,-0.20863 c -0.20496,-0.27277 -0.30815,-0.8463 -0.23403,-1.30073 0.0594,-0.36391 0.27952,-0.70388 0.56081,-0.86601 0.0717,-0.0413 0.1112,-0.0752 0.0877,-0.0752 -0.052,0 -0.30399,0.17704 -0.3655,0.25674 -0.0244,0.0317 -0.0711,0.0913 -0.10373,0.13252 -0.0326,0.0412 -0.0593,0.0873 -0.0593,0.1025 0,0.0152 -0.008,0.0276 -0.0185,0.0276 -0.0216,0 -0.0892,0.17433 -0.14903,0.3846 -0.036,0.1263 -0.036,0.66249 0,0.78878 0.0553,0.19413 0.11776,0.3552 0.15527,0.40024 0.0134,0.0161 0.0519,0.0745 0.0854,0.12965 0.0336,0.0552 0.0702,0.10042 0.0815,0.10052 0.0113,1.1e-4 -0.007,-0.0364 -0.0407,-0.0812 z m 1.03111,-0.50987 c 0.006,-0.006 -0.12324,-0.0101 -0.28631,-0.0101 h -0.29648 l -0.007,-0.58082 -0.007,-0.58083 -0.006,0.60981 -0.006,0.6098 0.29899,-0.0189 c 0.16445,-0.0104 0.30358,-0.0234 0.30917,-0.029 z m 0.13628,-0.46106 c -0.0134,-0.005 -0.0751,-0.017 -0.13705,-0.0263 -0.14294,-0.0215 -0.19163,-0.062 -0.21645,-0.18002 -0.0188,-0.0894 -0.02,-0.087 -0.0223,0.0469 -0.002,0.0897 0.009,0.14625 0.028,0.155 0.0168,0.008 0.10739,0.0138 0.20136,0.0138 0.094,0 0.15988,-0.004 0.14645,-0.009 z m 0.56586,-0.31945 c -0.008,-0.0218 -0.0136,-0.0153 -0.0147,0.0165 -0.001,0.0288 0.005,0.045 0.0128,0.0359 0.008,-0.009 0.009,-0.0326 0.002,-0.0524 z m -0.0436,-0.19442 c -0.0817,-0.22465 -0.29922,-0.56577 -0.36073,-0.56577 -0.015,0 -0.0273,-0.01 -0.0273,-0.0223 0,-0.0281 -0.18718,-0.14924 -0.26849,-0.17379 -0.0336,-0.0101 -0.0885,-0.0271 -0.12204,-0.0376 -0.0336,-0.0105 0.005,0.0209 0.0854,0.0699 0.36613,0.22279 0.57181,0.45927 0.67307,0.77386 0.0185,0.0574 0.0377,0.0906 0.0427,0.0738 0.005,-0.0169 -0.005,-0.07 -0.0227,-0.11809 z m 8.39451,-0.90146 c -0.0985,-0.10894 -0.1297,-0.15331 -0.26507,-0.37653 -0.058,-0.0957 -0.13023,-0.20526 -0.1604,-0.24341 -0.0553,-0.0699 -0.0756,-0.0962 -0.26158,-0.33897 -0.056,-0.0731 -0.13908,-0.17151 -0.18458,-0.21866 -0.0455,-0.0471 -0.12333,-0.12877 -0.17295,-0.18139 -0.0496,-0.0526 -0.13776,-0.13871 -0.19587,-0.19133 -0.0581,-0.0526 -0.11954,-0.11104 -0.13651,-0.12983 -0.017,-0.0188 -0.0426,-0.0342 -0.057,-0.0342 -0.0144,0 -0.0262,-0.0104 -0.0262,-0.023 0,-0.0127 -0.0384,-0.0462 -0.0854,-0.0745 -0.047,-0.0283 -0.0854,-0.061 -0.0854,-0.0726 0,-0.0116 -0.0112,-0.0211 -0.0249,-0.0211 -0.0224,0 -0.21324,-0.12861 -0.24355,-0.16411 -0.007,-0.008 -0.0652,-0.0442 -0.13001,-0.0808 -0.22125,-0.1249 -0.30534,-0.31845 -0.22289,-0.51302 0.0483,-0.11403 0.0924,-0.1714 0.13181,-0.1714 0.0146,0 0.0462,-0.0138 0.0703,-0.0307 0.0352,-0.0246 0.0772,-0.0128 0.21323,0.0598 0.0932,0.0498 0.20338,0.1189 0.24492,0.15366 0.0415,0.0348 0.0835,0.0632 0.0933,0.0632 0.01,0 0.0331,0.0154 0.0518,0.0342 0.0599,0.0602 0.0953,0.088 0.15776,0.12407 0.0336,0.0194 0.0957,0.0686 0.13811,0.10933 0.0424,0.0408 0.13461,0.1233 0.2049,0.18343 0.16706,0.14291 0.63883,0.66256 0.80648,0.88832 0.0726,0.0977 0.13742,0.18382 0.14414,0.19133 0.0624,0.0698 0.28646,0.42884 0.36317,0.5818 0.0993,0.19794 0.0569,0.38374 -0.11842,0.51947 -0.0894,0.0692 -0.15851,0.0573 -0.24912,-0.043 z m -8.32717,-0.79283 c -0.0532,-0.0562 -0.0913,-0.12717 -0.10179,-0.18955 -0.0322,-0.19224 0.0175,-0.27985 0.40005,-0.70463 0.19632,-0.21801 0.40004,-0.43325 0.45271,-0.47833 0.0527,-0.0451 0.13101,-0.11577 0.17408,-0.15711 0.0431,-0.0413 0.0897,-0.0752 0.10356,-0.0752 0.0139,0 0.0289,-0.009 0.0334,-0.0205 0.0132,-0.0332 0.18559,-0.17083 0.21398,-0.17083 0.0143,0 0.026,-0.009 0.026,-0.0209 0,-0.0115 0.0214,-0.033 0.0475,-0.0478 0.4309,-0.2448 0.4257,-0.24244 0.51918,-0.23522 0.023,0.002 0.0807,0.0467 0.12814,0.0998 0.0768,0.086 0.0862,0.11225 0.0862,0.2402 0,0.18414 -0.0692,0.27849 -0.3051,0.41564 -0.094,0.0547 -0.18819,0.1168 -0.20939,0.13813 -0.0212,0.0213 -0.0514,0.0388 -0.0671,0.0388 -0.0157,0 -0.0286,0.0123 -0.0286,0.0273 0,0.015 -0.0146,0.0273 -0.0324,0.0273 -0.0178,0 -0.0581,0.0307 -0.0897,0.0683 -0.0315,0.0376 -0.0663,0.0683 -0.0773,0.0683 -0.0194,0 -0.0771,0.051 -0.21608,0.19133 -0.0372,0.0376 -0.13663,0.13598 -0.22086,0.21866 -0.18685,0.18342 -0.22187,0.22255 -0.37631,0.42047 -0.19928,0.25538 -0.32017,0.29364 -0.46029,0.14566 z m 2.64406,-1.02809 c -0.0978,-0.10211 -0.10212,-0.11355 -0.10212,-0.26933 0,-0.17898 0.024,-0.24068 0.15133,-0.38865 0.0894,-0.10385 0.14155,-0.13643 0.30768,-0.192 0.0745,-0.0249 0.11324,-0.0257 0.15095,-0.003 0.0279,0.0167 0.0569,0.0304 0.0645,0.0304 0.008,0 0.0138,-0.45974 0.0138,-1.02164 0,-0.78441 0.007,-1.02803 0.0305,-1.04916 0.0168,-0.0151 0.0854,-0.0419 0.15255,-0.0596 0.0671,-0.0176 0.16598,-0.0445 0.21967,-0.0598 0.0537,-0.0153 0.13608,-0.0345 0.18307,-0.0427 0.047,-0.008 0.0968,-0.0251 0.11079,-0.0376 0.0309,-0.0276 0.20968,-0.0807 0.33481,-0.0995 0.0504,-0.008 0.0977,-0.0248 0.10517,-0.0382 0.007,-0.0134 0.0506,-0.0245 0.096,-0.0245 0.0454,0 0.0885,-0.0109 0.0959,-0.0242 0.0182,-0.0329 0.3215,-0.0951 0.35402,-0.0726 0.0402,0.0278 0.0359,2.48312 -0.004,2.56398 -0.0168,0.0336 -0.083,0.11955 -0.14703,0.19096 -0.11642,0.12973 -0.11664,0.12983 -0.28491,0.12983 -0.15454,0 -0.17443,-0.007 -0.24155,-0.0819 -0.13149,-0.14725 -0.12271,-0.36865 0.0214,-0.53983 0.0746,-0.0886 0.25562,-0.19825 0.32734,-0.19825 0.0332,0 0.0379,-0.0795 0.0379,-0.64233 0,-0.54104 -0.006,-0.64232 -0.0352,-0.64232 -0.0193,0 -0.042,0.0123 -0.0503,0.0273 -0.008,0.015 -0.0452,0.0273 -0.082,0.0273 -0.0368,0 -0.0773,0.0107 -0.0901,0.0238 -0.0128,0.0131 -0.0891,0.0449 -0.16964,0.0706 -0.0805,0.0257 -0.16552,0.0581 -0.18883,0.0718 -0.0233,0.0138 -0.0632,0.0251 -0.0887,0.0251 -0.0255,0 -0.0778,0.0184 -0.11627,0.0408 -0.0385,0.0224 -0.0869,0.0409 -0.10776,0.041 -0.0208,9e-5 -0.0674,0.0155 -0.10354,0.0343 l -0.0657,0.0342 -2e-4,0.88419 c -2.2e-4,0.97153 -2e-5,0.97011 -0.15381,1.15731 -0.13192,0.16059 -0.28769,0.2408 -0.4676,0.2408 -0.14731,0 -0.16126,-0.006 -0.25786,-0.10663 z"
         id="path172"
         inkscape:connector-curvature="0" />
      <path
         style="fill:#9f9f9f;stroke-width:0.02582915"
         d="m -198.53557,203.41747 c -0.0779,-0.0474 -0.12381,-0.12601 -0.16766,-0.28708 -0.0184,-0.0677 -0.0426,-0.13468 -0.0537,-0.14896 -0.0111,-0.0143 -0.0202,-0.0483 -0.0202,-0.0755 0,-0.0273 -0.01,-0.0709 -0.0214,-0.097 -0.0253,-0.056 -0.0784,-0.26188 -0.1479,-0.57362 -0.17179,-0.77 -0.27954,-1.99739 -0.19071,-2.17229 0.0943,-0.18562 0.24649,-0.23787 0.36018,-0.12365 0.10015,0.10063 0.1182,0.17935 0.13314,0.58079 0.0217,0.58302 0.0574,0.88147 0.18217,1.52382 0.0124,0.0639 0.0336,0.15921 0.0472,0.21183 0.0135,0.0526 0.0318,0.12641 0.0405,0.164 0.009,0.0376 0.025,0.0929 0.0362,0.12299 0.0112,0.0301 0.0256,0.0793 0.0321,0.10934 0.006,0.0301 0.0404,0.14071 0.0753,0.24587 0.0769,0.23157 0.0778,0.26473 0.0116,0.39675 -0.078,0.1555 -0.1911,0.19931 -0.31683,0.12278 z m 1.57772,-0.0998 c 0.0562,-0.28664 0.3275,-0.70979 0.56059,-0.87442 0.0967,-0.0683 0.3486,-0.17994 0.53698,-0.23798 0.0537,-0.0165 0.16353,-0.0503 0.24408,-0.075 0.0805,-0.0247 0.17167,-0.0557 0.20251,-0.0691 0.0308,-0.0133 0.0777,-0.0242 0.10407,-0.0242 0.0264,0 0.0671,-0.0108 0.0904,-0.024 0.0233,-0.0132 0.10279,-0.045 0.17663,-0.0707 0.22984,-0.0798 0.46103,-0.20288 0.54425,-0.2897 0.0675,-0.0705 0.0864,-0.0669 0.11833,0.0222 0.0585,0.16337 0.084,0.21761 0.17149,0.36545 0.26202,0.44258 0.74624,0.66764 1.14488,0.53213 0.24581,-0.0835 0.42107,-0.22658 0.6083,-0.49645 0.0403,-0.0581 0.12477,-0.24911 0.1713,-0.38746 0.0164,-0.0489 0.0337,-0.0888 0.0384,-0.0888 0.005,0 0.083,0.0528 0.174,0.11722 0.16006,0.11336 0.41137,0.23146 0.55024,0.25858 0.0371,0.007 0.0734,0.024 0.0808,0.0373 0.007,0.0133 0.0396,0.0242 0.0718,0.0242 0.0321,0 0.0837,0.0109 0.1145,0.0242 0.0308,0.0133 0.12197,0.0444 0.20251,0.0691 0.0805,0.0247 0.19039,0.0584 0.24408,0.075 0.12744,0.0393 0.42103,0.15948 0.49631,0.20322 0.11372,0.0661 0.30043,0.26598 0.3905,0.41813 0.0867,0.14647 0.1166,0.21017 0.17779,0.37893 0.015,0.0413 0.0363,0.0954 0.0474,0.12005 0.0111,0.0247 0.0135,0.0524 0.005,0.0615 -0.008,0.009 -1.65044,0.0166 -3.64951,0.0166 h -3.63467 z m 8.42486,0.0157 c -0.0345,-0.0387 -0.0699,-0.1066 -0.0786,-0.15093 -0.0163,-0.0834 0.005,-0.29107 0.0353,-0.33907 0.0147,-0.0234 0.0461,-0.13076 0.14835,-0.50566 0.0496,-0.18195 0.0993,-0.41965 0.14275,-0.68333 0.0136,-0.0827 0.0365,-0.21584 0.0508,-0.29591 0.0143,-0.0801 0.0259,-0.19077 0.0258,-0.246 -1e-4,-0.0552 0.013,-0.19691 0.029,-0.31484 0.0229,-0.16832 0.0434,-0.2315 0.0954,-0.29383 0.12815,-0.15363 0.35178,-0.0736 0.39697,0.14202 0.0155,0.074 -0.0168,0.56401 -0.0575,0.8719 -0.0329,0.24882 -0.095,0.58801 -0.14778,0.80632 -0.0145,0.0601 -0.032,0.14008 -0.0388,0.17766 -0.007,0.0376 -0.0211,0.0929 -0.0318,0.123 -0.0107,0.0301 -0.0549,0.17767 -0.0982,0.328 -0.0433,0.15033 -0.10565,0.3133 -0.1386,0.36216 -0.0513,0.0761 -0.075,0.0888 -0.16516,0.0888 -0.0805,0 -0.12002,-0.0165 -0.16807,-0.0703 z m -4.98412,-1.75171 c -0.41179,-0.0988 -0.69781,-0.42223 -1.08993,-1.23243 -0.0382,-0.0789 -0.1009,-0.20807 -0.13934,-0.28699 -0.21091,-0.43308 -0.25916,-0.54201 -0.31173,-0.70371 -0.0997,-0.30671 -0.0559,-0.60683 0.10583,-0.72553 l 0.0566,-0.0415 -0.0161,-0.49987 c -0.0155,-0.48 0.009,-0.86593 0.0638,-1.01549 0.0683,-0.18574 0.10385,-0.25996 0.16705,-0.34901 0.0616,-0.0868 0.11539,-0.1419 0.32553,-0.33347 0.0908,-0.0828 0.30871,-0.22616 0.41921,-0.27585 0.0648,-0.0291 0.12888,-0.0756 0.14236,-0.10325 0.0495,-0.10139 0.2027,-0.26945 0.29244,-0.32072 0.19818,-0.11322 0.48417,-0.0507 0.76784,0.16787 0.11232,0.0865 0.50269,0.50762 0.62029,0.66909 0.19253,0.26435 0.259,0.3803 0.33613,0.58634 0.0616,0.16452 0.0785,0.36058 0.0785,0.9112 v 0.58633 l 0.0711,0.0853 c 0.16193,0.19412 0.12557,0.50196 -0.12155,1.02914 -0.07,0.14942 -0.18444,0.39467 -0.25421,0.54501 -0.40123,0.86453 -0.64816,1.16151 -1.07044,1.28742 -0.11968,0.0357 -0.33742,0.0456 -0.44334,0.0202 z m 0.40519,-0.28486 c 0.13627,-0.0486 0.19947,-0.0862 0.31116,-0.18514 0.22974,-0.20351 0.32837,-0.3641 0.65714,-1.06992 0.0875,-0.18792 0.19563,-0.41882 0.24023,-0.51312 0.0859,-0.1816 0.15586,-0.41279 0.15586,-0.51488 0,-0.10345 -0.0631,-0.14732 -0.21192,-0.14732 h -0.13522 l 0.0157,-0.1025 c 0.0215,-0.13991 0.0649,-0.36038 0.0885,-0.4489 0.0246,-0.0925 0.007,-0.0988 -0.20859,-0.0763 -0.094,0.01 -0.152,0.0197 -0.12897,0.0221 0.0762,0.008 0.21368,0.0953 0.22775,0.14499 0.008,0.0268 0.002,0.11914 -0.012,0.20508 -0.0142,0.0859 -0.0258,0.17158 -0.0258,0.19029 0,0.0649 0.0771,0.11993 0.16794,0.11993 0.13767,0 0.18456,0.0508 0.16645,0.1804 -0.0211,0.1513 -0.42638,1.04478 -0.63318,1.39607 -0.31791,0.54003 -0.55923,0.74605 -0.87455,0.74657 -0.41074,6.8e-4 -0.63386,-0.23036 -1.11562,-1.15523 -0.31052,-0.59613 -0.40652,-0.8293 -0.40739,-0.98938 l -7.3e-4,-0.13694 0.14644,-0.0822 c 0.093,-0.0522 0.14979,-0.10219 0.15561,-0.13691 0.005,-0.0301 -0.005,-0.17593 -0.0226,-0.32414 -0.0344,-0.29157 -0.0258,-0.33508 0.0772,-0.39182 0.18957,-0.10443 0.53509,-0.0979 1.1644,0.0219 0.16534,0.0315 0.30597,0.0512 0.3125,0.0439 0.0156,-0.0175 -0.31074,-0.12495 -0.63179,-0.20806 -0.22756,-0.0589 -0.68178,-0.0287 -0.82919,0.0551 -0.0233,0.0133 -0.0577,0.0241 -0.0763,0.0241 -0.0771,0 -0.0875,0.0646 -0.0621,0.38426 0.0137,0.172 0.027,0.34348 0.0296,0.38106 0.004,0.0609 -0.006,0.0693 -0.0916,0.0771 -0.053,0.005 -0.12713,0.0334 -0.16476,0.0634 -0.0597,0.0477 -0.0684,0.0723 -0.0684,0.19501 0,0.11402 0.0239,0.19469 0.12674,0.42863 0.0697,0.1585 0.13287,0.29433 0.14035,0.30185 0.007,0.008 0.0452,0.0813 0.0838,0.164 0.16537,0.35437 0.36466,0.74112 0.41797,0.81108 0.0134,0.0177 0.0684,0.0928 0.12208,0.16701 0.18009,0.24889 0.40936,0.38015 0.67368,0.38569 0.0752,0.002 0.17404,-0.0105 0.21967,-0.0267 z m 0.22332,-3.18648 c -0.0168,-0.008 -0.0442,-0.008 -0.061,0 -0.0168,0.008 -0.003,0.0138 0.0305,0.0138 0.0336,0 0.0473,-0.006 0.0305,-0.0138 z m 3.12093,1.43836 c -0.0408,-0.0457 -0.0807,-0.12256 -0.0886,-0.17083 -0.008,-0.0483 -0.0111,-0.5961 -0.007,-1.21738 l 0.007,-1.12962 0.0912,-0.0935 0.0912,-0.0935 h 1.18656 c 1.30052,0 1.2987,-2.2e-4 1.38418,0.16182 0.0375,0.071 0.0416,0.19417 0.0416,1.2309 0,1.22737 -7e-4,1.23518 -0.1204,1.34741 -0.0471,0.0442 -0.14531,0.0478 -1.28146,0.0478 h -1.23045 z m 1.35371,-0.78974 c 0.0413,-0.0386 0.11434,-0.10439 0.1623,-0.14619 0.048,-0.0418 0.12402,-0.11233 0.16899,-0.15673 0.045,-0.0444 0.09,-0.0809 0.10009,-0.0812 0.0101,-2.5e-4 0.0183,-0.0299 0.0183,-0.0659 0,-0.0721 -0.0293,-0.10684 -0.28069,-0.33257 -0.094,-0.0844 -0.19282,-0.17392 -0.21967,-0.19894 -0.16396,-0.15278 -0.1882,-0.16719 -0.23449,-0.13945 -0.0432,0.0259 -0.0462,0.0672 -0.0462,0.63977 0,0.79992 -0.004,0.79443 0.33138,0.48117 z m -0.23374,-0.43656 c 0,-0.47831 0.006,-0.60288 0.0305,-0.58694 0.0168,0.0111 0.11288,0.0872 0.21357,0.16909 0.35039,0.28492 0.39345,0.36 0.28591,0.49849 -0.0447,0.0576 -0.31418,0.32691 -0.48728,0.48703 -0.0405,0.0374 -0.0427,0.007 -0.0427,-0.56767 z m -10.10494,1.14633 c -0.0201,-0.0151 -0.0662,-0.0276 -0.10229,-0.0279 -0.0361,-2.3e-4 -0.0725,-0.0127 -0.0808,-0.0277 -0.008,-0.015 -0.0314,-0.0273 -0.0514,-0.0273 -0.0676,0 -0.31382,-0.19557 -0.46202,-0.36694 -0.29764,-0.34417 -0.44893,-0.7962 -0.44893,-1.34137 0,-0.60708 0.17638,-1.07934 0.53947,-1.44439 0.18986,-0.19091 0.39919,-0.3071 0.65794,-0.36522 0.16786,-0.0377 0.22124,-0.0392 0.35938,-0.0101 0.19612,0.0414 0.35941,0.10384 0.4467,0.17091 0.0356,0.0274 0.076,0.0498 0.0896,0.0498 0.0383,0 0.32784,0.32687 0.4117,0.46483 0.0936,0.15405 0.16005,0.31479 0.23142,0.56016 0.0472,0.16216 0.0556,0.24966 0.0556,0.57399 -5e-5,0.23917 -0.012,0.42366 -0.0318,0.492 -0.11206,0.38653 -0.23585,0.6438 -0.40112,0.83365 -0.13752,0.15797 -0.23117,0.246 -0.26172,0.246 -0.0133,0 -0.0242,0.009 -0.0242,0.0207 0,0.0248 -0.22133,0.14106 -0.34144,0.17936 -0.1212,0.0386 -0.54192,0.0527 -0.58607,0.0196 z m 0.65129,-0.51018 c 0.17144,-0.0908 0.38031,-0.30806 0.47941,-0.4986 0.13367,-0.25701 0.17513,-0.44228 0.17513,-0.7825 0,-0.33904 -0.0415,-0.52552 -0.17335,-0.77909 -0.16069,-0.30901 -0.46955,-0.55649 -0.73505,-0.58898 l -0.11674,-0.0143 0.13145,0.059 c 0.34949,0.15679 0.66526,0.49263 0.78623,0.83618 0.0792,0.22504 0.0805,0.66005 0.002,0.89719 -0.11857,0.3607 -0.45636,0.77727 -0.7082,0.87336 -0.15053,0.0574 -0.35916,0.0532 -0.52505,-0.0107 -0.44937,-0.17314 -0.6802,-0.6119 -0.68386,-1.29995 -0.003,-0.63321 0.22657,-1.03002 0.7387,-1.27476 0.17843,-0.0853 0.15493,-0.10179 -0.0485,-0.0342 -0.24347,0.0809 -0.51373,0.3463 -0.64191,0.63029 -0.13342,0.2956 -0.17565,0.68329 -0.11411,1.04761 0.05,0.29599 0.23681,0.63176 0.46066,0.82795 0.0855,0.075 0.29927,0.17947 0.39467,0.19298 0.18205,0.0258 0.44576,-0.0114 0.57806,-0.0815 z m -0.16313,-0.82926 c 0.17245,-0.0182 0.16529,-0.0196 -0.12347,-0.0238 -0.2014,-0.003 -0.32061,-0.0161 -0.34755,-0.0386 -0.0357,-0.0298 -0.0419,-0.10807 -0.0479,-0.60816 l -0.007,-0.57399 -0.006,0.63549 -0.006,0.63549 0.17695,-0.004 c 0.0973,-0.002 0.25934,-0.0123 0.36002,-0.0229 z m 0.32951,-0.46379 c -0.0268,-0.0122 -0.11925,-0.0313 -0.20533,-0.0425 -0.23378,-0.0303 -0.26983,-0.0815 -0.27351,-0.3885 -0.005,-0.43302 -0.04,-0.42666 -0.043,0.008 -0.002,0.22675 0.004,0.42047 0.0134,0.4305 0.009,0.01 0.13801,0.0174 0.28679,0.0165 0.1636,-0.001 0.25123,-0.0105 0.22171,-0.0239 z m 8.84241,-1.41098 c -0.0366,-0.0222 -0.11273,-0.11707 -0.1692,-0.21074 -0.27248,-0.45196 -0.85645,-1.17573 -1.13112,-1.4019 -0.0537,-0.0442 -0.11215,-0.0958 -0.1299,-0.11458 -0.049,-0.0519 -0.49304,-0.37539 -0.59014,-0.42993 -0.15873,-0.0892 -0.24172,-0.17672 -0.2709,-0.28578 -0.0347,-0.12982 -0.0172,-0.21748 0.0656,-0.32765 0.0531,-0.0706 0.0805,-0.0841 0.17135,-0.0841 0.0733,0 0.13928,0.022 0.20481,0.0683 0.0532,0.0376 0.10786,0.0683 0.12155,0.0683 0.0137,0 0.0249,0.0123 0.0249,0.0273 0,0.015 0.0127,0.0273 0.0282,0.0273 0.0155,0 0.0642,0.0307 0.10821,0.0683 0.044,0.0376 0.0875,0.0683 0.0967,0.0683 0.0153,0 0.25149,0.18415 0.27949,0.21792 0.007,0.008 0.0561,0.0512 0.10983,0.0958 0.39639,0.32938 0.97783,1.03613 1.30097,1.58133 0.0995,0.16782 0.1269,0.23757 0.1269,0.32252 0,0.14297 -0.0545,0.25523 -0.14979,0.30846 -0.0937,0.0523 -0.11223,0.0524 -0.19743,6e-4 z m -8.30892,-0.77625 c -0.1194,-0.056 -0.18015,-0.25718 -0.12952,-0.42898 0.0464,-0.15761 0.65928,-0.83126 1.0512,-1.15552 0.0722,-0.0598 0.14234,-0.11849 0.15576,-0.13047 0.0503,-0.0449 0.30486,-0.2268 0.31742,-0.2268 0.007,0 0.054,-0.0283 0.10411,-0.0628 0.0501,-0.0346 0.13038,-0.0758 0.17846,-0.0917 0.11864,-0.0392 0.234,0.0236 0.29761,0.16188 0.083,0.18045 0.0102,0.38075 -0.17285,0.47561 -0.12439,0.0645 -0.53761,0.35538 -0.62898,0.44283 -0.0413,0.0395 -0.11819,0.10836 -0.17086,0.15296 -0.0527,0.0446 -0.25357,0.25648 -0.44644,0.47086 -0.36269,0.40311 -0.43051,0.45096 -0.55591,0.39216 z m 2.67203,-1.01318 c -0.27937,-0.16526 -0.24383,-0.56969 0.0696,-0.79229 0.0963,-0.0684 0.13993,-0.0816 0.26882,-0.0816 h 0.15387 v -1.01036 -1.01036 l 0.0549,-0.0331 c 0.0302,-0.0182 0.0934,-0.0418 0.14035,-0.0524 0.047,-0.0106 0.15133,-0.0404 0.23187,-0.0662 0.0806,-0.0258 0.18489,-0.0568 0.23188,-0.0689 0.047,-0.0121 0.15133,-0.0429 0.23188,-0.0684 0.22217,-0.0703 0.50226,-0.15214 0.59987,-0.17521 0.048,-0.0113 0.0989,-0.0287 0.11318,-0.0385 0.0757,-0.0524 0.0821,0.0583 0.075,1.29756 l -0.007,1.23958 -0.061,0.10164 c -0.12105,0.20163 -0.38388,0.29594 -0.53892,0.19339 -0.25436,-0.16826 -0.1287,-0.60191 0.20941,-0.72266 l 0.12205,-0.0436 0.007,-0.63717 c 0.004,-0.35044 -0.002,-0.64599 -0.0122,-0.65678 -0.0167,-0.0175 -0.17929,0.0262 -0.31166,0.0838 -0.0624,0.0272 -0.40608,0.14632 -0.54918,0.19041 -0.0604,0.0186 -0.14553,0.0509 -0.18916,0.0718 l -0.0793,0.0379 v 0.90686 0.90686 l -0.0616,0.1177 c -0.096,0.18335 -0.3718,0.3675 -0.54558,0.36422 -0.0352,-6.6e-4 -0.10436,-0.0251 -0.15362,-0.0542 z"
         id="path170"
         inkscape:connector-curvature="0" />
      <path
         style="fill:#fdcb01;stroke-width:0.02582915"
         d="m -198.55141,203.3902 c -0.0714,-0.0577 -0.10271,-0.12985 -0.21041,-0.48552 -0.21108,-0.69707 -0.311,-1.2809 -0.36834,-2.15226 -0.0438,-0.66507 -0.0192,-0.7826 0.17641,-0.84544 0.0568,-0.0182 0.0917,-0.0118 0.14917,0.0273 0.11701,0.0797 0.1496,0.20371 0.14941,0.56863 -3.3e-4,0.64723 0.13142,1.45591 0.36669,2.25087 0.10964,0.37044 0.11416,0.46522 0.0282,0.59032 -0.0573,0.0833 -0.21422,0.10819 -0.29112,0.0461 z m 1.59555,-0.009 c -0.018,-0.0326 0.13349,-0.40977 0.22319,-0.55577 0.0424,-0.069 0.13109,-0.17938 0.19706,-0.24522 0.18956,-0.1892 0.36961,-0.27329 0.93161,-0.43512 0.54893,-0.15806 0.86447,-0.28884 1.06806,-0.44266 0.0997,-0.0753 0.15234,-0.0802 0.15234,-0.0141 0,0.0883 0.17501,0.40666 0.30639,0.55734 0.13736,0.15753 0.2489,0.23407 0.49172,0.33741 0.0979,0.0417 0.49076,0.044 0.52725,0.003 0.0148,-0.0165 0.0463,-0.0301 0.0701,-0.0301 0.1102,0 0.42276,-0.26386 0.52283,-0.44138 0.10259,-0.18199 0.14721,-0.27817 0.17879,-0.38544 0.0166,-0.0564 0.0382,-0.1025 0.0479,-0.1025 0.01,0 0.0556,0.0316 0.10184,0.0701 0.0941,0.0785 0.30028,0.18989 0.44935,0.2428 0.15542,0.0551 0.5294,0.17838 0.62325,0.20536 0.57058,0.16404 0.74443,0.24641 0.9413,0.44599 0.0709,0.0718 0.16635,0.19485 0.21217,0.27333 0.0895,0.15328 0.21565,0.48486 0.19728,0.51853 -0.0153,0.028 -7.22707,0.0262 -7.24251,-0.002 z m 8.4363,-0.0483 c -0.0734,-0.0648 -0.0793,-0.082 -0.0793,-0.23074 0,-0.0884 0.0123,-0.19514 0.0275,-0.23719 0.0514,-0.14305 0.0643,-0.18571 0.11904,-0.39078 0.0301,-0.11275 0.0632,-0.23575 0.0735,-0.27333 0.0104,-0.0376 0.0318,-0.14213 0.0477,-0.23233 0.0159,-0.0902 0.0384,-0.20705 0.0501,-0.25966 0.0355,-0.15968 0.068,-0.40632 0.10053,-0.76302 0.0263,-0.28805 0.0398,-0.35107 0.0892,-0.41683 0.0479,-0.0637 0.0775,-0.0775 0.16705,-0.0775 0.0881,0 0.12007,0.0143 0.16791,0.0752 0.0531,0.0675 0.0592,0.10038 0.0598,0.32343 4.2e-4,0.13655 -0.01,0.3149 -0.0222,0.39633 -0.0126,0.0814 -0.0354,0.24031 -0.0507,0.35306 -0.0534,0.39487 -0.14799,0.82224 -0.2842,1.28465 -0.083,0.28186 -0.12575,0.38674 -0.18092,0.44416 -0.0907,0.0944 -0.18153,0.0959 -0.28503,0.005 z m -4.97314,-1.77227 c -0.26031,-0.057 -0.37745,-0.12756 -0.5753,-0.34662 -0.20816,-0.23048 -0.49948,-0.76277 -0.85859,-1.56878 -0.22314,-0.50082 -0.23546,-0.75276 -0.0471,-0.96367 l 0.0851,-0.0953 0.003,-0.68681 c 0.003,-0.65146 0.006,-0.69526 0.0606,-0.85082 0.0315,-0.0902 0.0934,-0.21934 0.13754,-0.28699 0.13612,-0.20873 0.46529,-0.48659 0.72842,-0.61488 0.0883,-0.043 0.166,-0.0976 0.17272,-0.12118 0.0229,-0.0803 0.21134,-0.27963 0.31356,-0.3316 0.15807,-0.0804 0.32314,-0.0618 0.55342,0.0623 0.33114,0.1784 0.96615,0.9328 1.11422,1.32371 0.0863,0.22774 0.10763,0.4639 0.0911,1.00734 l -0.0158,0.51932 0.0886,0.10445 c 0.0836,0.0985 0.0886,0.11479 0.0886,0.28517 0,0.20544 -0.0546,0.40207 -0.19423,0.70001 -0.0503,0.10726 -0.15761,0.33647 -0.23851,0.50935 -0.28458,0.60815 -0.4397,0.87038 -0.62198,1.05154 -0.16487,0.16384 -0.36791,0.27562 -0.54584,0.30052 -0.077,0.0108 -0.15207,0.0231 -0.16675,0.0273 -0.0147,0.004 -0.0926,-0.007 -0.17313,-0.0243 z m 0.35858,-0.24704 c 0.33976,-0.0991 0.54138,-0.32167 0.84279,-0.93037 0.29156,-0.58881 0.51563,-1.10533 0.54259,-1.25079 0.0401,-0.21621 0.013,-0.26619 -0.1441,-0.26619 -0.19635,0 -0.19587,7.9e-4 -0.14694,-0.24063 0.0234,-0.1157 0.0497,-0.25519 0.0582,-0.30997 l 0.0156,-0.0996 -0.28741,-0.0153 c -0.15808,-0.008 -0.33135,-0.022 -0.38505,-0.0301 -0.0537,-0.008 0.001,0.01 0.12204,0.0395 0.26399,0.0652 0.39672,0.12725 0.41578,0.19448 0.008,0.0274 0.003,0.1202 -0.0117,0.20614 -0.0142,0.0859 -0.0258,0.17158 -0.0258,0.19029 0,0.0649 0.0771,0.11993 0.16794,0.11993 0.13767,0 0.18456,0.0508 0.16645,0.1804 -0.0211,0.1513 -0.42638,1.04478 -0.63318,1.39607 -0.31791,0.54003 -0.55923,0.74605 -0.87455,0.74657 -0.41074,6.8e-4 -0.63386,-0.23036 -1.11562,-1.15523 -0.31052,-0.59613 -0.40652,-0.8293 -0.40739,-0.98938 l -7.3e-4,-0.13694 0.14644,-0.0822 0.14645,-0.0822 -0.001,-0.15033 c -7.7e-4,-0.0827 -0.0105,-0.23356 -0.0217,-0.33528 -0.0248,-0.22552 0.002,-0.27176 0.18989,-0.3244 0.23738,-0.0666 0.55075,-0.0414 1.27027,0.10231 0.18628,0.0372 0.34258,0.0633 0.34735,0.0579 0.009,-0.01 -0.3667,-0.14109 -0.52737,-0.18457 -0.50556,-0.13679 -0.52681,-0.14039 -0.75665,-0.12815 -0.23114,0.0123 -0.51239,0.0935 -0.58108,0.16775 -0.0249,0.027 -0.0265,0.0727 -0.007,0.20962 0.0134,0.0963 0.0306,0.26431 0.0382,0.3733 l 0.0137,0.19817 -0.0795,1.1e-4 c -0.10528,1.3e-4 -0.23294,0.0902 -0.25267,0.1782 -0.0385,0.17176 0.04,0.37881 0.48137,1.26965 0.36503,0.73678 0.5386,0.94964 0.87161,1.0689 0.17083,0.0612 0.2488,0.0635 0.42359,0.0125 z m 3.40997,-1.74449 c -0.13785,-0.10381 -0.14604,-0.18672 -0.13844,-1.40111 0.006,-1.00002 0.01,-1.07233 0.0537,-1.14798 0.0893,-0.15346 0.0334,-0.14728 1.33903,-0.14821 1.08785,-7.8e-4 1.22159,0.004 1.27649,0.0441 0.12729,0.0934 0.13222,0.14335 0.13222,1.34001 0,1.19942 2e-4,1.19766 -0.13705,1.31854 -0.0637,0.0561 -0.085,0.0571 -1.25389,0.0571 h -1.18909 z m 1.17178,-0.66824 c 0.10457,-0.089 0.10393,-0.0885 0.37259,-0.33575 0.11639,-0.10714 0.21824,-0.2141 0.22632,-0.23769 0.0196,-0.0571 -0.0381,-0.15104 -0.15066,-0.24519 -0.0506,-0.0423 -0.10382,-0.0893 -0.11823,-0.10432 -0.0144,-0.015 -0.0682,-0.0642 -0.11955,-0.10933 -0.0513,-0.0451 -0.1367,-0.12197 -0.18968,-0.17083 -0.10973,-0.10118 -0.17635,-0.11244 -0.2129,-0.036 -0.0151,0.0317 -0.0253,0.28458 -0.0253,0.63045 0,0.34588 0.0101,0.5988 0.0253,0.63046 0.0346,0.0725 0.0886,0.0663 0.19211,-0.0218 z m -0.0953,-0.57866 c 0,-0.47831 0.006,-0.60288 0.0305,-0.58694 0.0168,0.0111 0.11288,0.0872 0.21357,0.16909 0.35039,0.28492 0.39345,0.36 0.28591,0.49849 -0.0447,0.0576 -0.31418,0.32691 -0.48728,0.48703 -0.0405,0.0374 -0.0427,0.007 -0.0427,-0.56767 z m -10.04392,1.14536 c -0.0268,-0.0129 -0.0737,-0.0243 -0.10403,-0.0254 -0.0304,-0.001 -0.1402,-0.0476 -0.24408,-0.10333 -0.25987,-0.13953 -0.51926,-0.42911 -0.65589,-0.73225 -0.10091,-0.22388 -0.10701,-0.24467 -0.16845,-0.57399 -0.0573,-0.30697 -0.0465,-0.50786 0.0528,-0.98399 0.0349,-0.16731 0.2098,-0.5044 0.35174,-0.67786 0.31332,-0.38292 0.73253,-0.56397 1.13005,-0.48805 0.24324,0.0465 0.3214,0.0797 0.51097,0.21727 0.38786,0.28149 0.64185,0.77034 0.6988,1.34497 0.0947,0.95503 -0.40787,1.84015 -1.14247,2.01227 -0.17877,0.0419 -0.35509,0.0461 -0.42943,0.0104 z m 0.37833,-0.41158 c 0.37894,-0.0952 0.72289,-0.47486 0.83716,-0.92419 0.0393,-0.15457 0.0491,-0.70847 0.0151,-0.85043 -0.0821,-0.34215 -0.28701,-0.66871 -0.52258,-0.83272 -0.15036,-0.10469 -0.25026,-0.14189 -0.43948,-0.16369 l -0.14645,-0.0169 0.16007,0.0626 c 0.86861,0.33958 1.18211,1.29929 0.689,2.10921 -0.13495,0.22165 -0.38293,0.46102 -0.53946,0.52075 -0.15053,0.0574 -0.35916,0.0532 -0.52505,-0.0107 -0.44937,-0.17314 -0.6802,-0.6119 -0.68386,-1.29995 -0.003,-0.63321 0.22657,-1.03002 0.7387,-1.27476 0.15538,-0.0743 0.15769,-0.0768 0.0711,-0.0775 -0.16268,-0.001 -0.45955,0.19062 -0.61175,0.39558 -0.0844,0.1137 -0.20288,0.35627 -0.2536,0.51933 -0.0663,0.21322 -0.0611,0.7105 0.01,0.94989 0.14353,0.48369 0.45129,0.80294 0.87176,0.90431 0.0888,0.0214 0.21814,0.0172 0.32951,-0.0108 z m 0.26749,-0.94954 c 0.0776,-0.0134 -0.01,-0.0233 -0.2919,-0.0329 l -0.40273,-0.0137 -0.007,-0.61155 c -0.005,-0.42811 0.002,-0.62283 0.0213,-0.64916 0.0331,-0.0447 0.15008,-0.0492 0.22487,-0.009 0.0515,0.0279 0.0517,0.0274 0.006,-0.0137 -0.0496,-0.0445 -0.17612,-0.0563 -0.22568,-0.021 -0.0662,0.0471 -0.0808,0.19049 -0.0808,0.79071 v 0.6173 l 0.3224,-0.0191 c 0.17733,-0.0105 0.37229,-0.0277 0.43325,-0.0383 z m 0.26124,-0.25836 c -0.007,-0.0188 -0.0123,-0.003 -0.0123,0.0342 0,0.0376 0.006,0.053 0.0123,0.0342 0.007,-0.0188 0.007,-0.0496 0,-0.0683 z m -0.15041,-0.18278 c -0.0268,-0.0122 -0.11925,-0.0313 -0.20533,-0.0425 -0.23378,-0.0303 -0.26983,-0.0815 -0.27351,-0.3885 -0.005,-0.44233 -0.04,-0.42128 -0.043,0.0261 l -0.003,0.4305 0.28679,-0.002 c 0.17193,-10e-4 0.26724,-0.0106 0.23798,-0.0239 z m 8.87233,-1.41407 c -0.0671,-0.0295 -0.12646,-0.10288 -0.25043,-0.30962 -0.26049,-0.43444 -0.71967,-0.99401 -1.0675,-1.3009 -0.10063,-0.0888 -0.20274,-0.18131 -0.22691,-0.20563 -0.0242,-0.0243 -0.0819,-0.0671 -0.12824,-0.0951 -0.0464,-0.028 -0.0843,-0.0603 -0.0843,-0.0719 0,-0.0116 -0.009,-0.0211 -0.0205,-0.0211 -0.0329,0 -0.42634,-0.27049 -0.47986,-0.32994 -0.0368,-0.0409 -0.0488,-0.0905 -0.0488,-0.20202 0,-0.12625 0.0104,-0.15998 0.0717,-0.23157 0.046,-0.0538 0.0958,-0.0838 0.13888,-0.0838 0.0695,0 0.2692,0.10493 0.40352,0.21204 0.0423,0.0337 0.0842,0.0613 0.0931,0.0613 0.009,0 0.10748,0.0726 0.21902,0.1614 0.56509,0.44974 1.05022,0.99382 1.46085,1.63839 0.1996,0.31331 0.24503,0.42314 0.22497,0.54391 -0.0277,0.16662 -0.18505,0.28747 -0.30546,0.23456 z m -8.40641,-0.85838 c -0.0489,-0.0651 -0.0632,-0.11396 -0.0632,-0.21621 0,-0.11268 0.014,-0.15157 0.0951,-0.2644 0.16943,-0.23575 0.64369,-0.73349 0.95496,-1.00224 0.15452,-0.13342 0.21946,-0.18237 0.24196,-0.18237 0.0143,0 0.026,-0.0123 0.026,-0.0273 0,-0.015 0.0129,-0.0273 0.0286,-0.0273 0.0157,0 0.0459,-0.0167 0.0671,-0.0371 0.10048,-0.0968 0.3778,-0.23978 0.46787,-0.24117 0.10628,-0.002 0.15484,0.0324 0.20688,0.14512 0.0815,0.17642 0.004,0.3844 -0.17914,0.47891 -0.05,0.0259 -0.14883,0.0878 -0.21957,0.13764 -0.0707,0.0498 -0.13463,0.0906 -0.14198,0.0906 -0.012,0 -0.10841,0.0772 -0.23913,0.19133 -0.21282,0.18588 -0.57856,0.55781 -0.7624,0.77532 -0.20992,0.24835 -0.2282,0.26334 -0.32124,0.26334 -0.0802,0 -0.11048,-0.0157 -0.16185,-0.0841 z m 2.74423,-0.94777 c -0.0969,-0.0545 -0.19575,-0.20381 -0.19575,-0.29556 0,-0.1041 0.0868,-0.29431 0.17385,-0.38089 0.12156,-0.12092 0.2494,-0.17766 0.40027,-0.17766 h 0.13312 l 0.006,-1.01588 0.006,-1.01589 0.0976,-0.0331 c 0.0537,-0.0182 0.14156,-0.0461 0.19526,-0.0619 0.0537,-0.0158 0.16353,-0.0486 0.24408,-0.0729 0.0805,-0.0243 0.18489,-0.0549 0.23188,-0.068 0.047,-0.0131 0.12936,-0.037 0.18306,-0.0532 0.0537,-0.0162 0.19648,-0.0593 0.3173,-0.0957 0.12082,-0.0365 0.24713,-0.0703 0.2807,-0.0753 l 0.061,-0.009 v 1.27167 1.27167 l -0.0567,0.0813 c -0.0867,0.1245 -0.23072,0.20432 -0.36856,0.20432 -0.0974,0 -0.13245,-0.0143 -0.19461,-0.0793 -0.0651,-0.0681 -0.0758,-0.0985 -0.0758,-0.21482 0,-0.11955 0.0117,-0.15039 0.0993,-0.2618 0.0705,-0.0897 0.12882,-0.13483 0.20137,-0.15581 0.0562,-0.0162 0.12132,-0.0358 0.14481,-0.0434 0.0392,-0.0127 0.0427,-0.0692 0.0427,-0.6817 v -0.66781 h -0.0599 c -0.0329,0 -0.0851,0.0116 -0.11594,0.0257 -0.0308,0.0142 -0.14943,0.0574 -0.26354,0.0961 -0.48996,0.16621 -0.62555,0.21455 -0.67732,0.2415 l -0.0549,0.0286 -6.9e-4,0.89054 c -6.7e-4,0.8738 -0.002,0.89285 -0.0567,1.01354 -0.0923,0.20285 -0.3492,0.38274 -0.54636,0.38262 -0.0371,-3e-5 -0.10573,-0.0216 -0.15244,-0.0478 z"
         id="path168"
         inkscape:connector-curvature="0" />
      <path
         style="fill:#6e6e6e;stroke-width:0.02582915"
         d="m -198.55141,203.3902 c -0.0714,-0.0577 -0.10271,-0.12985 -0.21041,-0.48552 -0.21108,-0.69707 -0.311,-1.2809 -0.36834,-2.15226 -0.0438,-0.66507 -0.0192,-0.7826 0.17641,-0.84544 0.0568,-0.0182 0.0917,-0.0118 0.14917,0.0273 0.11701,0.0797 0.1496,0.20371 0.14941,0.56863 -3.3e-4,0.64723 0.13142,1.45591 0.36669,2.25087 0.10964,0.37044 0.11416,0.46522 0.0282,0.59032 -0.0573,0.0833 -0.21422,0.10819 -0.29112,0.0461 z m 1.59555,-0.009 c -0.018,-0.0326 0.13349,-0.40977 0.22319,-0.55577 0.0424,-0.069 0.13109,-0.17938 0.19706,-0.24522 0.18956,-0.1892 0.36961,-0.27329 0.93161,-0.43512 0.54893,-0.15806 0.86447,-0.28884 1.06806,-0.44266 0.0997,-0.0753 0.15234,-0.0802 0.15234,-0.0141 0,0.0883 0.17501,0.40666 0.30639,0.55734 0.13736,0.15753 0.2489,0.23407 0.49172,0.33741 0.0979,0.0417 0.49076,0.044 0.52725,0.003 0.0148,-0.0165 0.0463,-0.0301 0.0701,-0.0301 0.1102,0 0.42276,-0.26386 0.52283,-0.44138 0.10259,-0.18199 0.14721,-0.27817 0.17879,-0.38544 0.0166,-0.0564 0.0382,-0.1025 0.0479,-0.1025 0.01,0 0.0556,0.0316 0.10184,0.0701 0.0941,0.0785 0.30028,0.18989 0.44935,0.2428 0.15542,0.0551 0.5294,0.17838 0.62325,0.20536 0.57058,0.16404 0.74443,0.24641 0.9413,0.44599 0.0709,0.0718 0.16635,0.19485 0.21217,0.27333 0.0895,0.15328 0.21565,0.48486 0.19728,0.51853 -0.0153,0.028 -7.22707,0.0262 -7.24251,-0.002 z m 8.4363,-0.0483 c -0.0734,-0.0648 -0.0793,-0.082 -0.0793,-0.23074 0,-0.0884 0.0123,-0.19514 0.0275,-0.23719 0.0514,-0.14305 0.0643,-0.18571 0.11904,-0.39078 0.0301,-0.11275 0.0632,-0.23575 0.0735,-0.27333 0.0104,-0.0376 0.0318,-0.14213 0.0477,-0.23233 0.0159,-0.0902 0.0384,-0.20705 0.0501,-0.25966 0.0355,-0.15968 0.068,-0.40632 0.10053,-0.76302 0.0263,-0.28805 0.0398,-0.35107 0.0892,-0.41683 0.0479,-0.0637 0.0775,-0.0775 0.16705,-0.0775 0.0881,0 0.12007,0.0143 0.16791,0.0752 0.0531,0.0675 0.0592,0.10038 0.0598,0.32343 4.2e-4,0.13655 -0.01,0.3149 -0.0222,0.39633 -0.0126,0.0814 -0.0354,0.24031 -0.0507,0.35306 -0.0534,0.39487 -0.14799,0.82224 -0.2842,1.28465 -0.083,0.28186 -0.12575,0.38674 -0.18092,0.44416 -0.0907,0.0944 -0.18153,0.0959 -0.28503,0.005 z m -4.97314,-1.77227 c -0.26031,-0.057 -0.37745,-0.12756 -0.5753,-0.34662 -0.20816,-0.23048 -0.49948,-0.76277 -0.85859,-1.56878 -0.22314,-0.50082 -0.23546,-0.75276 -0.0471,-0.96367 l 0.0851,-0.0953 0.003,-0.68681 c 0.003,-0.65146 0.006,-0.69526 0.0606,-0.85082 0.0315,-0.0902 0.0934,-0.21934 0.13754,-0.28699 0.13612,-0.20873 0.46529,-0.48659 0.72842,-0.61488 0.0883,-0.043 0.166,-0.0976 0.17272,-0.12118 0.0229,-0.0803 0.21134,-0.27963 0.31356,-0.3316 0.15807,-0.0804 0.32314,-0.0618 0.55342,0.0623 0.33114,0.1784 0.96615,0.9328 1.11422,1.32371 0.0863,0.22774 0.10763,0.4639 0.0911,1.00734 l -0.0158,0.51932 0.0886,0.10445 c 0.0836,0.0985 0.0886,0.11479 0.0886,0.28517 0,0.20544 -0.0546,0.40207 -0.19423,0.70001 -0.0503,0.10726 -0.15761,0.33647 -0.23851,0.50935 -0.28458,0.60815 -0.4397,0.87038 -0.62198,1.05154 -0.16487,0.16384 -0.36791,0.27562 -0.54584,0.30052 -0.077,0.0108 -0.15207,0.0231 -0.16675,0.0273 -0.0147,0.004 -0.0926,-0.007 -0.17313,-0.0243 z m 0.35858,-0.24704 c 0.33976,-0.0991 0.54138,-0.32167 0.84279,-0.93037 0.29156,-0.58881 0.51563,-1.10533 0.54259,-1.25079 0.0401,-0.21621 0.013,-0.26619 -0.1441,-0.26619 -0.19635,0 -0.19587,7.9e-4 -0.14694,-0.24063 0.0234,-0.1157 0.0499,-0.25649 0.0587,-0.31287 l 0.0161,-0.10249 h -0.22541 c -0.2609,0 -0.42588,-0.0309 -0.76533,-0.14342 -0.13424,-0.0445 -0.28252,-0.0911 -0.3295,-0.10364 -0.047,-0.0125 -0.18428,-0.0492 -0.3051,-0.0814 -0.27846,-0.0744 -0.60431,-0.0642 -0.84208,0.0265 -0.22132,0.0843 -0.22742,0.0937 -0.198,0.30456 0.0135,0.0963 0.0306,0.26431 0.0382,0.3733 l 0.0137,0.19817 -0.0795,1.1e-4 c -0.10528,1.3e-4 -0.23294,0.0902 -0.25267,0.1782 -0.0385,0.17176 0.04,0.37881 0.48136,1.26965 0.36504,0.73678 0.53861,0.94964 0.87161,1.0689 0.17084,0.0612 0.24881,0.0635 0.4236,0.0125 z m 3.40997,-1.74449 c -0.13785,-0.10381 -0.14604,-0.18672 -0.13844,-1.40111 0.006,-1.00002 0.01,-1.07233 0.0537,-1.14798 0.0893,-0.15346 0.0334,-0.14728 1.33903,-0.14821 1.08785,-7.8e-4 1.22159,0.004 1.27649,0.0441 0.12729,0.0934 0.13222,0.14335 0.13222,1.34001 0,1.19942 2e-4,1.19766 -0.13705,1.31854 -0.0637,0.0561 -0.085,0.0571 -1.25389,0.0571 h -1.18909 z m 1.17178,-0.66824 c 0.10457,-0.089 0.10393,-0.0885 0.37259,-0.33575 0.11639,-0.10714 0.21824,-0.2141 0.22632,-0.23769 0.0196,-0.0571 -0.0381,-0.15104 -0.15066,-0.24519 -0.0506,-0.0423 -0.10382,-0.0893 -0.11823,-0.10432 -0.0144,-0.015 -0.0682,-0.0642 -0.11955,-0.10933 -0.0513,-0.0451 -0.1367,-0.12197 -0.18968,-0.17083 -0.10973,-0.10118 -0.17635,-0.11244 -0.2129,-0.036 -0.0151,0.0317 -0.0253,0.28458 -0.0253,0.63045 0,0.34588 0.0101,0.5988 0.0253,0.63046 0.0346,0.0725 0.0886,0.0663 0.19211,-0.0218 z m -10.13925,0.5667 c -0.0268,-0.0129 -0.0737,-0.0243 -0.10403,-0.0254 -0.0304,-0.001 -0.1402,-0.0476 -0.24408,-0.10333 -0.25987,-0.13953 -0.51926,-0.42911 -0.65589,-0.73225 -0.10091,-0.22388 -0.10701,-0.24467 -0.16845,-0.57399 -0.0573,-0.30697 -0.0465,-0.50786 0.0528,-0.98399 0.0349,-0.16731 0.2098,-0.5044 0.35174,-0.67786 0.31332,-0.38292 0.73253,-0.56397 1.13005,-0.48805 0.24324,0.0465 0.3214,0.0797 0.51097,0.21727 0.38786,0.28149 0.64185,0.77034 0.6988,1.34497 0.0947,0.95503 -0.40787,1.84015 -1.14247,2.01227 -0.17877,0.0419 -0.35509,0.0461 -0.42943,0.0104 z m 0.37833,-0.41158 c 0.37894,-0.0952 0.72289,-0.47486 0.83716,-0.92419 0.0393,-0.15457 0.0491,-0.70847 0.0151,-0.85043 -0.10714,-0.44662 -0.39933,-0.82273 -0.74239,-0.95559 -0.14813,-0.0574 -0.51107,-0.0462 -0.64681,0.0199 -0.13045,0.0635 -0.33546,0.23296 -0.42057,0.34757 -0.0844,0.1137 -0.20288,0.35627 -0.2536,0.51933 -0.0663,0.21322 -0.0611,0.7105 0.01,0.94989 0.14353,0.48369 0.45129,0.80294 0.87176,0.90431 0.0888,0.0214 0.21814,0.0172 0.32951,-0.0108 z m -0.42308,-1.00062 c -0.031,-0.0347 -0.0187,-1.22546 0.013,-1.26096 0.036,-0.0403 0.15265,-0.0427 0.2164,-0.005 0.0436,0.0262 0.0472,0.0612 0.0472,0.46466 v 0.43637 h 0.3057 c 0.3057,0 0.30571,0 0.32951,0.0701 0.0353,0.10381 0.0289,0.22091 -0.0145,0.2696 -0.0319,0.0357 -0.1092,0.0429 -0.45969,0.0429 -0.23173,0 -0.42865,-0.008 -0.4376,-0.0182 z m 9.67373,-1.80413 c -0.0671,-0.0295 -0.12646,-0.10288 -0.25043,-0.30962 -0.26049,-0.43444 -0.71967,-0.99401 -1.0675,-1.3009 -0.10063,-0.0888 -0.20274,-0.18131 -0.22691,-0.20563 -0.0242,-0.0243 -0.0819,-0.0671 -0.12824,-0.0951 -0.0464,-0.028 -0.0843,-0.0603 -0.0843,-0.0719 0,-0.0116 -0.009,-0.0211 -0.0205,-0.0211 -0.0329,0 -0.42634,-0.27049 -0.47986,-0.32994 -0.0368,-0.0409 -0.0488,-0.0905 -0.0488,-0.20202 0,-0.12625 0.0104,-0.15998 0.0717,-0.23157 0.046,-0.0538 0.0958,-0.0838 0.13888,-0.0838 0.0695,0 0.2692,0.10493 0.40352,0.21204 0.0423,0.0337 0.0842,0.0613 0.0931,0.0613 0.009,0 0.10748,0.0726 0.21902,0.1614 0.56509,0.44974 1.05022,0.99382 1.46085,1.63839 0.1996,0.31331 0.24503,0.42314 0.22497,0.54391 -0.0277,0.16662 -0.18505,0.28747 -0.30546,0.23456 z m -8.40641,-0.85838 c -0.0489,-0.0651 -0.0632,-0.11396 -0.0632,-0.21621 0,-0.11268 0.014,-0.15157 0.0951,-0.2644 0.16943,-0.23575 0.64369,-0.73349 0.95496,-1.00224 0.15452,-0.13342 0.21946,-0.18237 0.24196,-0.18237 0.0143,0 0.026,-0.0123 0.026,-0.0273 0,-0.015 0.0129,-0.0273 0.0286,-0.0273 0.0157,0 0.0459,-0.0167 0.0671,-0.0371 0.10048,-0.0968 0.3778,-0.23978 0.46787,-0.24117 0.10628,-0.002 0.15484,0.0324 0.20688,0.14512 0.0815,0.17642 0.004,0.3844 -0.17914,0.47891 -0.05,0.0259 -0.14883,0.0878 -0.21957,0.13764 -0.0707,0.0498 -0.13463,0.0906 -0.14198,0.0906 -0.012,0 -0.10841,0.0772 -0.23913,0.19133 -0.21282,0.18588 -0.57856,0.55781 -0.7624,0.77532 -0.20992,0.24835 -0.2282,0.26334 -0.32124,0.26334 -0.0802,0 -0.11048,-0.0157 -0.16185,-0.0841 z m 2.74423,-0.94777 c -0.0969,-0.0545 -0.19575,-0.20381 -0.19575,-0.29556 0,-0.1041 0.0868,-0.29431 0.17385,-0.38089 0.12156,-0.12092 0.2494,-0.17766 0.40027,-0.17766 h 0.13312 l 0.006,-1.01588 0.006,-1.01589 0.0976,-0.0331 c 0.0537,-0.0182 0.14156,-0.0461 0.19526,-0.0619 0.0537,-0.0158 0.16353,-0.0486 0.24408,-0.0729 0.0805,-0.0243 0.18489,-0.0549 0.23188,-0.068 0.047,-0.0131 0.12936,-0.037 0.18306,-0.0532 0.0537,-0.0162 0.19648,-0.0593 0.3173,-0.0957 0.12082,-0.0365 0.24713,-0.0703 0.2807,-0.0753 l 0.061,-0.009 v 1.27167 1.27167 l -0.0567,0.0813 c -0.0867,0.1245 -0.23072,0.20432 -0.36856,0.20432 -0.0974,0 -0.13245,-0.0143 -0.19461,-0.0793 -0.0651,-0.0681 -0.0758,-0.0985 -0.0758,-0.21482 0,-0.11955 0.0117,-0.15039 0.0993,-0.2618 0.0705,-0.0897 0.12882,-0.13483 0.20137,-0.15581 0.0562,-0.0162 0.12132,-0.0358 0.14481,-0.0434 0.0392,-0.0127 0.0427,-0.0692 0.0427,-0.6817 v -0.66781 h -0.0599 c -0.0329,0 -0.0851,0.0116 -0.11594,0.0257 -0.0308,0.0142 -0.14943,0.0574 -0.26354,0.0961 -0.48996,0.16621 -0.62555,0.21455 -0.67732,0.2415 l -0.0549,0.0286 -6.9e-4,0.89054 c -6.7e-4,0.8738 -0.002,0.89285 -0.0567,1.01354 -0.0923,0.20285 -0.3492,0.38274 -0.54636,0.38262 -0.0371,-3e-5 -0.10573,-0.0216 -0.15244,-0.0478 z"
         id="path166"
         inkscape:connector-curvature="0" />
      <path
         style="fill:#4f4f4f;stroke-width:0.02582915"
         d="m -198.58341,203.3298 c -0.0339,-0.042 -0.0756,-0.12561 -0.0927,-0.18574 -0.017,-0.0601 -0.0405,-0.13393 -0.0522,-0.164 -0.0117,-0.0301 -0.045,-0.14691 -0.0741,-0.25966 -0.0291,-0.11275 -0.0622,-0.23575 -0.0736,-0.27333 -0.0501,-0.16513 -0.16969,-0.86503 -0.20555,-1.20265 -0.0215,-0.20295 -0.0415,-0.54998 -0.0443,-0.77117 l -0.005,-0.40217 0.0664,-0.0748 c 0.0968,-0.10895 0.22172,-0.10376 0.31496,0.0131 0.0667,0.0836 0.0701,0.10054 0.0701,0.34421 0,0.71765 0.15739,1.69552 0.39194,2.43512 0.0907,0.2861 0.0986,0.42499 0.03,0.52832 -0.0377,0.0567 -0.0726,0.0748 -0.15636,0.0811 -0.0919,0.007 -0.11695,-0.003 -0.16955,-0.0683 z m 1.64961,0.0474 c -0.0169,-0.0306 0.11062,-0.38504 0.18222,-0.50646 0.15225,-0.25817 0.46037,-0.49743 0.75705,-0.58786 0.0604,-0.0184 0.1373,-0.0434 0.17086,-0.0555 0.0626,-0.0225 0.27796,-0.0898 0.45155,-0.14094 0.20996,-0.0619 0.34353,-0.1081 0.38409,-0.13286 0.0233,-0.0142 0.0532,-0.0259 0.0665,-0.0259 0.0493,0 0.33553,-0.16081 0.40822,-0.22931 0.084,-0.0791 0.0983,-0.0705 0.15445,0.0926 0.0918,0.26685 0.31102,0.55197 0.53157,0.69153 0.47441,0.30017 1.00907,0.16295 1.36324,-0.34987 0.0762,-0.11029 0.17888,-0.3273 0.18031,-0.38096 4.3e-4,-0.016 0.0152,-0.0502 0.0327,-0.0761 0.0301,-0.0444 0.0348,-0.0441 0.0811,0.004 0.13306,0.13882 0.53387,0.31168 1.09363,0.47167 0.0537,0.0153 0.14193,0.0451 0.19608,0.0661 0.0541,0.021 0.12214,0.0382 0.15111,0.0382 0.029,0 0.0594,0.0123 0.0677,0.0273 0.008,0.015 0.0355,0.0273 0.0605,0.0273 0.0711,0 0.37072,0.18061 0.46476,0.28012 0.0467,0.0494 0.12415,0.145 0.1721,0.21238 0.0998,0.14028 0.25133,0.50781 0.23226,0.56347 -0.0108,0.0314 -0.58967,0.0374 -3.60011,0.0374 -2.29359,0 -3.5926,-0.01 -3.60196,-0.0265 z m 8.50577,0.007 c -0.0201,-0.008 -0.0668,-0.0464 -0.10373,-0.085 -0.0941,-0.0982 -0.0877,-0.22154 0.0324,-0.62013 0.17464,-0.57958 0.26383,-1.04323 0.32796,-1.70497 0.0426,-0.43939 0.0829,-0.52009 0.26078,-0.5218 0.12753,-0.001 0.21489,0.12742 0.21462,0.31604 -6.8e-4,0.46489 -0.17044,1.44582 -0.36648,2.11762 -0.0989,0.33889 -0.13452,0.41612 -0.21718,0.4708 -0.074,0.0489 -0.0888,0.0517 -0.14839,0.0274 z m -5.07688,-1.83621 c -0.32338,-0.0556 -0.61958,-0.33627 -0.89752,-0.85052 -0.2291,-0.4239 -0.61861,-1.26685 -0.6523,-1.41166 -0.0678,-0.29142 -0.0351,-0.48927 0.10069,-0.6089 l 0.0701,-0.0617 0.002,-0.64666 c 10e-4,-0.41083 0.0126,-0.6965 0.0316,-0.78332 0.0422,-0.19296 0.1378,-0.39036 0.25591,-0.52835 0.13363,-0.15612 0.42767,-0.3855 0.62933,-0.49092 0.11192,-0.0585 0.1774,-0.1127 0.21205,-0.17548 0.11269,-0.20418 0.28851,-0.32223 0.47991,-0.32223 0.12642,0 0.17725,0.0149 0.34212,0.10026 0.36744,0.19025 0.97931,0.92361 1.13746,1.36331 0.0563,0.15637 0.0585,0.18895 0.0584,0.8324 -1.4e-4,0.66387 3.4e-4,0.67009 0.0554,0.7199 0.19824,0.17931 0.16643,0.49365 -0.1094,1.08128 -0.30326,0.64608 -0.48241,1.00836 -0.57136,1.15546 -0.2885,0.47706 -0.7012,0.70331 -1.14409,0.62718 z m 0.40769,-0.22497 c 0.44956,-0.20047 0.5896,-0.40595 1.20637,-1.77012 0.1712,-0.37867 0.20816,-0.58398 0.11957,-0.66431 -0.0364,-0.033 -0.0952,-0.0498 -0.17468,-0.0498 -0.11109,0 -0.11903,-0.004 -0.10926,-0.0615 0.0402,-0.23488 0.0714,-0.39913 0.0869,-0.45782 0.0317,-0.12025 0.0118,-0.13449 -0.16517,-0.11794 -0.16805,0.0157 -0.47818,-0.0335 -0.73683,-0.11681 -0.0738,-0.0238 -0.16719,-0.0535 -0.20747,-0.0659 -0.0403,-0.0125 -0.13363,-0.0429 -0.20746,-0.0676 -0.25591,-0.0858 -0.35535,-0.10351 -0.64682,-0.11548 -0.18791,-0.008 -0.32789,-2.7e-4 -0.39053,0.0208 -0.17789,0.0597 -0.30653,0.11551 -0.31916,0.13839 -0.0141,0.0256 0.0307,0.63359 0.0536,0.7278 0.0139,0.0571 0.007,0.0615 -0.0941,0.0615 -0.16434,0 -0.23828,0.0876 -0.23828,0.28226 0,0.12935 0.0213,0.19476 0.16704,0.5138 0.16748,0.36655 0.20869,0.45173 0.41485,0.85758 0.22587,0.44467 0.44817,0.72758 0.64235,0.81749 0.0583,0.027 0.12247,0.0594 0.14261,0.072 0.0541,0.0339 0.37762,0.0309 0.4565,-0.004 z m 3.38446,-1.75083 c -0.11634,-0.0631 -0.11873,-0.0904 -0.11873,-1.35554 v -1.18782 l 0.0845,-0.079 0.0845,-0.079 h 1.19315 c 1.16993,0 1.19454,10e-4 1.26456,0.0569 0.13989,0.11155 0.1436,0.14606 0.1435,1.33355 -1e-4,1.05583 -10e-4,1.08554 -0.0519,1.17833 -0.0285,0.0523 -0.0696,0.11038 -0.0914,0.12896 -0.0515,0.0439 -2.42746,0.0473 -2.50814,0.004 z m 1.15198,-0.64467 c 0.026,-0.0264 0.17638,-0.16279 0.33412,-0.30313 0.37809,-0.3364 0.37801,-0.32184 0.003,-0.6623 -0.15595,-0.14167 -0.29622,-0.27102 -0.31171,-0.28743 -0.0525,-0.0557 -0.1333,-0.093 -0.16852,-0.0779 -0.0749,0.0322 -0.0905,0.14952 -0.0905,0.67894 0,0.59886 0.0173,0.69978 0.11982,0.69978 0.0364,0 0.0875,-0.0216 0.11355,-0.048 z m -10.23038,0.50161 c -0.22889,-0.0622 -0.42991,-0.19838 -0.62331,-0.42214 -0.26364,-0.30503 -0.39764,-0.62291 -0.46128,-1.09428 -0.0737,-0.54602 0.12466,-1.21555 0.47379,-1.59908 0.10932,-0.12009 0.38644,-0.32639 0.47846,-0.35619 0.21432,-0.0694 0.4101,-0.0915 0.57359,-0.0647 0.19604,0.0322 0.21657,0.0394 0.4147,0.14702 0.32804,0.17812 0.60942,0.55743 0.71784,0.9677 0.0179,0.0676 0.0448,0.1599 0.0599,0.205 0.0358,0.10726 0.0358,0.82206 0,0.92932 -0.0151,0.0451 -0.042,0.13735 -0.0599,0.205 -0.0501,0.18986 -0.17213,0.42474 -0.31541,0.60702 -0.12549,0.15965 -0.42392,0.4043 -0.49317,0.4043 -0.0185,0 -0.044,0.0106 -0.0567,0.0235 -0.0367,0.0372 -0.29904,0.0861 -0.4483,0.0835 -0.075,-0.001 -0.19205,-0.0175 -0.26022,-0.036 z m 0.45478,-0.35445 c 0.28998,-0.0679 0.52321,-0.2484 0.6917,-0.53519 0.17273,-0.29401 0.21921,-0.47719 0.21881,-0.86232 -3.7e-4,-0.34739 -0.022,-0.45659 -0.14821,-0.74681 -0.0728,-0.16752 -0.32317,-0.46263 -0.44719,-0.52717 -0.0465,-0.0242 -0.11644,-0.0611 -0.15541,-0.082 -0.0473,-0.0254 -0.15693,-0.0376 -0.32951,-0.0368 -0.2357,0.001 -0.27132,0.008 -0.40139,0.0809 -0.26374,0.14729 -0.49669,0.43924 -0.58929,0.73852 -0.0537,0.1734 -0.11005,0.46725 -0.11005,0.57335 0,0.15829 0.12161,0.68364 0.16767,0.72433 0.008,0.008 0.0319,0.0506 0.0519,0.0957 0.0588,0.1322 0.31941,0.40733 0.45161,0.47679 0.10049,0.0528 0.30212,0.11822 0.41495,0.13465 0.0134,0.002 0.0964,-0.0133 0.18437,-0.0339 z m -0.39945,-1.04614 c -0.0313,-0.035 -0.0196,-1.17103 0.0125,-1.20689 0.0161,-0.018 0.0758,-0.0328 0.13257,-0.0328 h 0.10327 l 0.008,0.43838 c 0.006,0.35317 0.0149,0.4434 0.0444,0.46424 0.0201,0.0142 0.16621,0.026 0.32462,0.0263 l 0.28801,4.2e-4 -0.007,0.15717 -0.007,0.15716 -0.44084,0.007 c -0.24247,0.004 -0.44841,-0.001 -0.45765,-0.0114 z m 9.62966,-1.80475 c -0.0172,-0.008 -0.0871,-0.10658 -0.15517,-0.21963 -0.0681,-0.11304 -0.13832,-0.22565 -0.15602,-0.25025 -0.0177,-0.0246 -0.0978,-0.13696 -0.17792,-0.24971 -0.14025,-0.19725 -0.63548,-0.75274 -0.81063,-0.90927 -0.13551,-0.12111 -0.56071,-0.44239 -0.70871,-0.5355 -0.1973,-0.12413 -0.24638,-0.19217 -0.24843,-0.34438 -0.004,-0.2772 0.17703,-0.36512 0.42364,-0.20604 0.0724,0.0467 0.15082,0.0918 0.17431,0.10024 0.0235,0.008 0.0427,0.0262 0.0427,0.0395 0,0.0133 0.0118,0.0241 0.0261,0.0241 0.0294,0 0.27262,0.18757 0.51084,0.39401 0.25982,0.22517 0.63835,0.63038 0.82987,0.88839 0.0604,0.0814 0.1214,0.1613 0.13553,0.1776 0.0587,0.0677 0.37934,0.58345 0.41632,0.66964 0.022,0.0513 0.04,0.12003 0.04,0.15266 0,0.0968 -0.0785,0.25303 -0.13588,0.27025 -0.063,0.0189 -0.16266,0.0181 -0.20665,-0.002 z m -8.26456,-0.76595 c -0.14367,-0.0429 -0.20719,-0.2941 -0.11612,-0.4593 0.0747,-0.13551 0.51997,-0.62682 0.8333,-0.91946 0.13825,-0.12912 0.4793,-0.40619 0.49998,-0.40619 0.006,0 0.0695,-0.0408 0.14026,-0.0906 0.20731,-0.14607 0.30929,-0.1903 0.40057,-0.17371 0.0925,0.0168 0.12975,0.0518 0.17378,0.16312 0.0391,0.099 0.0382,0.15985 -0.004,0.25079 -0.0388,0.0837 -0.0699,0.11028 -0.25869,0.22101 -0.12074,0.0708 -0.58146,0.41766 -0.64973,0.48913 -0.015,0.0157 -0.0859,0.0839 -0.15754,0.1516 -0.0716,0.0676 -0.25703,0.26688 -0.41202,0.44275 -0.27474,0.31173 -0.34379,0.36252 -0.44981,0.33088 z m 2.65299,-1.01974 c -0.22538,-0.11221 -0.23897,-0.42963 -0.0281,-0.65631 0.10643,-0.1144 0.17035,-0.14293 0.36224,-0.16171 l 0.15866,-0.0155 0.006,-1.01506 0.006,-1.01505 0.0546,-0.0174 c 0.0301,-0.01 0.11504,-0.0368 0.18887,-0.0604 0.0738,-0.0236 0.17269,-0.0529 0.21967,-0.065 0.0931,-0.024 0.30145,-0.0861 0.51257,-0.15276 0.0738,-0.0233 0.17269,-0.053 0.21967,-0.0659 0.047,-0.0129 0.14881,-0.044 0.22627,-0.0691 0.0774,-0.0251 0.15751,-0.0385 0.1779,-0.0297 0.0325,0.014 0.0362,0.16725 0.03,1.25536 l -0.007,1.23943 -0.0659,0.0967 c -0.0713,0.10463 -0.24965,0.21335 -0.35002,0.21335 -0.0344,0 -0.0942,-0.0184 -0.13303,-0.0409 -0.16259,-0.0942 -0.19139,-0.27292 -0.0746,-0.46302 0.076,-0.12373 0.17297,-0.18983 0.32451,-0.22124 l 0.0915,-0.019 v -0.69326 -0.69327 l -0.0793,0.0152 c -0.0436,0.008 -0.10129,0.025 -0.12814,0.037 -0.0437,0.0195 -0.36902,0.13317 -0.56139,0.1962 -0.24032,0.0787 -0.39275,0.14208 -0.40845,0.1697 -0.01,0.0174 -0.0181,0.42864 -0.0183,0.91394 -4.2e-4,0.97144 -0.003,0.99133 -0.15002,1.1433 -0.0903,0.0934 -0.18261,0.15138 -0.31584,0.19849 -0.11208,0.0396 -0.1359,0.0374 -0.25919,-0.024 z"
         id="path164"
         inkscape:connector-curvature="0" />
      <path
         style="fill:#2e2e2e;stroke-width:0.02582915"
         d="m -198.57896,203.32511 c -0.0361,-0.0432 -0.0811,-0.14242 -0.10005,-0.2204 -0.019,-0.078 -0.0433,-0.14788 -0.054,-0.15533 -0.0108,-0.007 -0.0196,-0.0428 -0.0196,-0.0786 0,-0.0358 -0.01,-0.0718 -0.0216,-0.08 -0.0119,-0.008 -0.0275,-0.0489 -0.0346,-0.0905 -0.007,-0.0415 -0.0257,-0.1247 -0.0413,-0.18483 -0.0155,-0.0601 -0.0378,-0.15853 -0.0495,-0.21866 -0.0117,-0.0601 -0.0329,-0.16468 -0.0473,-0.23233 -0.0764,-0.36069 -0.11468,-0.67782 -0.15893,-1.31494 -0.0313,-0.45099 -0.0321,-0.5528 -0.005,-0.64232 0.0414,-0.13516 0.13431,-0.19241 0.25628,-0.15791 0.14219,0.0402 0.16723,0.12576 0.1838,0.62805 0.0264,0.80077 0.13417,1.44451 0.37033,2.21239 0.0464,0.15085 0.0844,0.30885 0.0844,0.35111 0,0.23513 -0.22549,0.34953 -0.3633,0.18432 z m 1.65908,-0.0239 c 0.0535,-0.15861 0.15752,-0.4055 0.19283,-0.45763 0.0398,-0.0587 0.26755,-0.3107 0.32137,-0.35552 0.0823,-0.0686 0.33312,-0.1751 0.60642,-0.25761 0.0604,-0.0182 0.15926,-0.0508 0.21967,-0.0724 0.0604,-0.0216 0.1339,-0.0392 0.16331,-0.0391 0.0294,8e-5 0.0603,-0.0122 0.0686,-0.0272 0.008,-0.015 0.0467,-0.0273 0.0854,-0.0273 0.0387,0 0.0771,-0.0123 0.0854,-0.0273 0.008,-0.015 0.0392,-0.0274 0.0686,-0.0275 0.0294,-8e-5 0.0849,-0.0185 0.12339,-0.041 0.0385,-0.0224 0.0842,-0.0408 0.10171,-0.0408 0.0413,0 0.34905,-0.18282 0.39567,-0.23503 0.0276,-0.0309 0.0438,-0.0329 0.0699,-0.009 0.0187,0.0174 0.0339,0.0455 0.0336,0.0624 -9.1e-4,0.0733 0.14521,0.33682 0.26887,0.48488 0.14347,0.17178 0.38898,0.35226 0.47918,0.35226 0.0302,0 0.0617,0.0123 0.07,0.0273 0.008,0.0152 0.12182,0.0273 0.25629,0.0273 0.13447,0 0.24787,-0.0121 0.25628,-0.0273 0.008,-0.015 0.0366,-0.0273 0.063,-0.0273 0.0263,0 0.0914,-0.0308 0.14452,-0.0683 0.0532,-0.0376 0.10285,-0.0683 0.11042,-0.0683 0.0287,0 0.2152,-0.20955 0.27992,-0.31447 0.0927,-0.15035 0.17089,-0.30915 0.17182,-0.34919 4.3e-4,-0.0183 0.0152,-0.0545 0.0327,-0.0805 0.0298,-0.0439 0.0376,-0.0425 0.11516,0.0221 0.0759,0.0631 0.17366,0.11941 0.30288,0.17436 0.0268,0.0114 0.0904,0.0409 0.14117,0.0655 0.0508,0.0246 0.1133,0.0448 0.13891,0.0448 0.0256,0 0.0526,0.0109 0.06,0.0243 0.007,0.0134 0.0492,0.0303 0.093,0.0377 0.0438,0.007 0.13996,0.0339 0.2138,0.0591 0.17413,0.0593 0.31,0.0979 0.40906,0.11626 0.0438,0.008 0.0856,0.0256 0.093,0.039 0.007,0.0134 0.0303,0.0243 0.051,0.0243 0.0207,0 0.075,0.0185 0.1206,0.041 0.0457,0.0225 0.12421,0.0613 0.17455,0.0861 0.0503,0.0248 0.1651,0.12861 0.25501,0.2307 0.15777,0.17914 0.20409,0.26361 0.31085,0.56691 l 0.0497,0.1413 h -3.61143 -3.61143 z m 8.40978,0.0123 c -0.0596,-0.0534 -0.0701,-0.0829 -0.0717,-0.20043 -0.001,-0.0758 0.0123,-0.17978 0.0296,-0.23108 0.0173,-0.0513 0.0399,-0.11787 0.0502,-0.14793 0.0528,-0.1539 0.12278,-0.4239 0.12278,-0.47347 0,-0.031 0.01,-0.0631 0.0218,-0.0714 0.012,-0.008 0.0278,-0.0613 0.035,-0.11778 0.007,-0.0565 0.0255,-0.16417 0.0405,-0.23933 0.0529,-0.26519 0.0896,-0.54359 0.13666,-1.03789 0.0135,-0.14216 0.0324,-0.20777 0.0742,-0.2583 0.0776,-0.0936 0.20799,-0.0925 0.29294,0.003 0.0596,0.0668 0.0627,0.0845 0.0599,0.34221 -0.002,0.1495 -0.0137,0.31392 -0.0269,0.36538 -0.0132,0.0515 -0.024,0.13345 -0.024,0.18219 0,0.0487 -0.0105,0.14107 -0.0234,0.20518 -0.0129,0.0641 -0.0357,0.19036 -0.0506,0.28056 -0.0258,0.15539 -0.0511,0.27892 -0.0952,0.46466 -0.0448,0.18873 -0.0816,0.33137 -0.0987,0.38266 -0.01,0.0301 -0.0315,0.10386 -0.0477,0.164 -0.0162,0.0601 -0.0387,0.13393 -0.0502,0.16399 -0.0114,0.0301 -0.0344,0.0922 -0.051,0.13802 -0.0544,0.14992 -0.20777,0.19062 -0.32441,0.0861 z m -5.05583,-1.78661 c -0.0403,-0.007 -0.0837,-0.0247 -0.0964,-0.0386 -0.0128,-0.0139 -0.0387,-0.0252 -0.0577,-0.0252 -0.0312,0 -0.24846,-0.1625 -0.30994,-0.23177 -0.0766,-0.0864 -0.28034,-0.36329 -0.28034,-0.38112 0,-0.0115 -0.0207,-0.0536 -0.046,-0.0935 -0.0583,-0.092 -0.20607,-0.38286 -0.33546,-0.66021 -0.0386,-0.0827 -0.0763,-0.15648 -0.0837,-0.164 -0.0437,-0.0439 -0.26805,-0.61269 -0.29314,-0.74324 -0.0394,-0.20507 4.1e-4,-0.37423 0.1183,-0.50244 l 0.0844,-0.0918 0.004,-0.70472 c 0.003,-0.51849 0.0129,-0.72639 0.0368,-0.78672 0.10152,-0.25625 0.14838,-0.33352 0.29826,-0.49185 0.18533,-0.19578 0.35061,-0.32106 0.57716,-0.43749 0.1007,-0.0517 0.16956,-0.10802 0.20026,-0.16365 0.15783,-0.28598 0.41886,-0.40675 0.6592,-0.305 0.28605,0.1211 0.40413,0.2152 0.72032,0.57402 0.26881,0.30505 0.44872,0.57084 0.53491,0.79026 0.0942,0.23979 0.11461,0.45882 0.0962,1.03223 l -0.0167,0.52096 0.0785,0.0739 c 0.10797,0.10166 0.13243,0.23795 0.0869,0.48391 -0.0364,0.19643 -0.0839,0.31497 -0.37228,0.92932 -0.27807,0.59237 -0.41741,0.84746 -0.56477,1.03392 -0.081,0.10248 -0.33137,0.29708 -0.44102,0.34276 -0.0896,0.0373 -0.47249,0.063 -0.598,0.0401 z m 0.4946,-0.19729 c 0.0233,-0.0133 0.0753,-0.0407 0.1156,-0.0609 0.23137,-0.11627 0.49254,-0.44964 0.67213,-0.8579 0.0331,-0.0752 0.0656,-0.14281 0.0723,-0.15033 0.0264,-0.0296 0.40092,-0.85615 0.43965,-0.97032 0.0724,-0.21332 0.0824,-0.29283 0.0464,-0.36508 -0.0316,-0.0633 -0.0537,-0.0733 -0.17797,-0.0805 l -0.14189,-0.008 0.0128,-0.11472 c 0.007,-0.0631 0.0251,-0.17623 0.0401,-0.25139 0.0521,-0.26114 0.0541,-0.28062 0.0296,-0.29752 -0.0135,-0.009 -0.0792,-0.003 -0.14606,0.0144 -0.14293,0.037 -0.39207,-0.004 -0.85922,-0.14093 -0.0604,-0.0177 -0.1459,-0.0495 -0.18999,-0.0706 -0.0441,-0.0211 -0.10659,-0.0384 -0.13891,-0.0384 -0.0323,0 -0.0648,-0.011 -0.0722,-0.0245 -0.0238,-0.0431 -0.21194,-0.0642 -0.58739,-0.0658 -0.37285,-0.002 -0.44246,0.008 -0.60392,0.0847 -0.10561,0.05 -0.12936,0.10765 -0.0954,0.23153 0.0133,0.0486 0.0291,0.20833 0.035,0.3549 l 0.0108,0.2665 h -0.0988 c -0.15399,0 -0.21174,0.0777 -0.21174,0.28493 0,0.14462 0.0153,0.19958 0.11827,0.42573 0.40495,0.88905 0.61208,1.27676 0.80854,1.5135 0.13261,0.1598 0.29622,0.29047 0.36367,0.29047 0.027,0 0.0559,0.0123 0.0642,0.0273 0.0186,0.0337 0.43624,0.0364 0.4946,0.003 z m 3.32714,-1.80927 -0.0751,-0.0841 7.8e-4,-1.19371 c 5.8e-4,-0.89526 0.008,-1.20456 0.0305,-1.23708 0.0714,-0.10417 0.10653,-0.10697 1.34283,-0.10697 h 1.20648 l 0.0637,0.0714 c 0.0351,0.0393 0.07,0.10999 0.0777,0.15716 0.008,0.0472 0.0107,0.58835 0.007,1.20261 l -0.007,1.11683 -0.0845,0.079 -0.0845,0.079 h -1.20115 -1.20114 z m 1.18965,-0.59174 c 0.11461,-0.095 0.43634,-0.38492 0.51635,-0.46531 0.0337,-0.0338 0.0696,-0.0615 0.0798,-0.0615 0.0102,0 0.0185,-0.0395 0.0185,-0.0877 0,-0.0642 -0.0242,-0.1154 -0.0904,-0.19133 -0.0497,-0.057 -0.0991,-0.10366 -0.10984,-0.10366 -0.0107,0 -0.0395,-0.0215 -0.0639,-0.0478 -0.0244,-0.0263 -0.0868,-0.0847 -0.13856,-0.12983 -0.0518,-0.0451 -0.1059,-0.0947 -0.12031,-0.11032 -0.0144,-0.0156 -0.0669,-0.0628 -0.11671,-0.10488 l -0.0905,-0.0765 -0.062,0.0695 -0.062,0.0695 v 0.58987 c 0,0.49696 0.006,0.60047 0.0394,0.65723 0.0504,0.0862 0.0892,0.0848 0.20019,-0.007 z m -10.11267,0.51329 c -0.0268,-0.0137 -0.0792,-0.0258 -0.11627,-0.0269 -0.0371,-10e-4 -0.0865,-0.0122 -0.10984,-0.0248 -0.0233,-0.0126 -0.10449,-0.0565 -0.18041,-0.0977 -0.32532,-0.17618 -0.58638,-0.54832 -0.73199,-1.04345 -0.0472,-0.16039 -0.0556,-0.24684 -0.0555,-0.57163 9e-5,-0.38477 0.009,-0.44202 0.11358,-0.75166 0.11698,-0.34547 0.41971,-0.73908 0.6714,-0.87294 0.0639,-0.034 0.15064,-0.0802 0.19282,-0.10279 0.12147,-0.065 0.57284,-0.0612 0.76163,0.006 0.0826,0.0296 0.1502,0.063 0.1502,0.0742 0,0.0113 0.022,0.0205 0.0488,0.0205 0.0268,0 0.0488,0.0123 0.0488,0.0273 0,0.015 0.0139,0.0273 0.031,0.0273 0.0894,0 0.55478,0.60181 0.55478,0.71735 0,0.0204 0.009,0.0487 0.0202,0.063 0.0111,0.0143 0.0343,0.0813 0.0516,0.14897 0.0173,0.0676 0.0418,0.15476 0.0543,0.19358 0.0252,0.0779 0.014,0.83808 -0.0143,0.96807 -0.0548,0.25156 -0.22984,0.6002 -0.398,0.79266 -0.17425,0.19941 -0.27927,0.27855 -0.51928,0.39127 -0.13063,0.0614 -0.49679,0.1004 -0.57359,0.0612 z m 0.39053,-0.36952 c 0.23147,-0.0588 0.51367,-0.29499 0.66135,-0.55352 0.14268,-0.24976 0.20513,-0.50459 0.20513,-0.83694 0,-0.3305 -0.0422,-0.51696 -0.17935,-0.7915 -0.0871,-0.17448 -0.3166,-0.44079 -0.43224,-0.50164 -0.24211,-0.12742 -0.4166,-0.16066 -0.63463,-0.12092 -0.38883,0.0709 -0.70941,0.40544 -0.87922,0.91762 -0.0704,0.21222 -0.0829,0.51992 -0.034,0.83365 0.044,0.28252 0.25333,0.66422 0.46464,0.84733 0.0964,0.0836 0.18088,0.13666 0.2173,0.13666 0.0206,0 0.0375,0.0123 0.0375,0.0273 0,0.015 0.0357,0.0275 0.0793,0.0278 0.0436,2.2e-4 0.0958,0.0129 0.11593,0.0281 0.037,0.028 0.24328,0.0204 0.37833,-0.0139 z m -0.45155,-1.65395 v -0.60195 h 0.12143 0.12144 l 0.007,0.44416 0.007,0.44416 0.31731,0.0137 0.3173,0.0137 v 0.13666 0.13667 l -0.44544,0.007 -0.44545,0.007 z m 9.67779,-1.19641 c -0.0718,-0.0187 -0.10533,-0.0562 -0.20098,-0.22434 -0.0474,-0.0833 -0.093,-0.15767 -0.10139,-0.16518 -0.008,-0.008 -0.0775,-0.10741 -0.15362,-0.22198 -0.27782,-0.41806 -0.75482,-0.9263 -1.19793,-1.27638 -0.11761,-0.0929 -0.219,-0.16896 -0.2253,-0.16896 -0.006,0 -0.0715,-0.043 -0.145,-0.0957 -0.0735,-0.0526 -0.14426,-0.0957 -0.15735,-0.0957 -0.0576,0 -0.12499,-0.14662 -0.12499,-0.2719 0,-0.10441 0.0126,-0.14134 0.0685,-0.20131 0.0411,-0.0441 0.0959,-0.0735 0.13704,-0.0735 0.0654,0 0.31032,0.12778 0.32741,0.17083 0.004,0.0113 0.0195,0.0205 0.0333,0.0205 0.0139,0 0.0776,0.0431 0.14159,0.0957 0.064,0.0526 0.12475,0.0957 0.135,0.0957 0.0102,0 0.0655,0.043 0.12287,0.0957 0.0573,0.0526 0.11143,0.0957 0.1202,0.0957 0.009,0 0.0302,0.0154 0.0476,0.0342 0.0174,0.0188 0.0908,0.0891 0.16301,0.15628 0.31678,0.29455 0.81068,0.88309 0.98705,1.1762 0.0497,0.0827 0.10912,0.17494 0.13192,0.205 0.21023,0.27716 0.21068,0.60369 8.9e-4,0.64882 -0.0336,0.007 -0.083,0.007 -0.10984,3.7e-4 z m -8.40511,-0.8418 c -0.0785,-0.11174 -0.0875,-0.21621 -0.0301,-0.34759 0.08,-0.18311 0.69444,-0.84207 1.05178,-1.12806 0.0738,-0.0591 0.1379,-0.11688 0.14238,-0.12841 0.004,-0.0115 0.0201,-0.021 0.0347,-0.021 0.0146,0 0.0439,-0.0173 0.0651,-0.0384 0.0475,-0.0474 0.29149,-0.205 0.34973,-0.22593 0.0235,-0.008 0.0427,-0.0262 0.0427,-0.0395 0,-0.0133 0.0587,-0.0242 0.13046,-0.0242 0.13781,0 0.16832,0.0221 0.23408,0.16946 0.0273,0.0611 0.0274,0.0893 0.001,0.164 -0.046,0.13001 -0.0888,0.17724 -0.22892,0.25244 -0.12277,0.0659 -0.25932,0.15255 -0.2831,0.17968 -0.007,0.008 -0.0611,0.0494 -0.12074,0.0928 -0.0597,0.0434 -0.12011,0.0891 -0.13425,0.10154 -0.25977,0.22922 -0.39824,0.36803 -0.68299,0.68468 -0.31556,0.35091 -0.34656,0.37806 -0.43147,0.37806 -0.069,0 -0.10353,-0.0171 -0.14039,-0.0696 z m 2.71678,-0.96923 c -0.0999,-0.0554 -0.1574,-0.16309 -0.1574,-0.29475 0,-0.12817 0.21679,-0.44305 0.30502,-0.44305 0.0186,0 0.0406,-0.0123 0.0489,-0.0273 0.008,-0.015 0.0858,-0.0273 0.1723,-0.0273 h 0.15721 v -1.02498 -1.02499 h 0.0596 c 0.0328,0 0.0664,-0.0123 0.0747,-0.0273 0.008,-0.015 0.0481,-0.0273 0.0885,-0.0273 0.0404,0 0.0974,-0.0145 0.1267,-0.0321 0.0293,-0.0177 0.0972,-0.0428 0.15095,-0.0559 0.0537,-0.0131 0.13607,-0.035 0.18306,-0.0486 0.047,-0.0137 0.12936,-0.037 0.18306,-0.0519 0.19209,-0.0532 0.31807,-0.0924 0.36612,-0.1139 0.0452,-0.0202 0.0796,-0.0284 0.299,-0.0708 l 0.0793,-0.0154 v 1.23335 c 0,1.29392 2.7e-4,1.29051 -0.10983,1.40639 -0.0534,0.0562 -0.2403,0.15421 -0.2941,0.15421 -0.0771,0 -0.20667,-0.0961 -0.24197,-0.17938 -0.0542,-0.12793 -0.0241,-0.24712 0.0967,-0.38234 0.0813,-0.091 0.12606,-0.11812 0.2218,-0.13418 0.066,-0.0111 0.12802,-0.0343 0.13789,-0.0516 0.0253,-0.0444 0.0224,-1.30818 -0.003,-1.35327 -0.0231,-0.0408 -0.21035,-0.0203 -0.23583,0.0258 -0.008,0.0137 -0.0454,0.025 -0.0841,0.025 -0.0387,0 -0.0771,0.0123 -0.0854,0.0273 -0.008,0.015 -0.0452,0.0273 -0.082,0.0273 -0.0368,0 -0.0773,0.0105 -0.0901,0.0234 -0.0222,0.0224 -0.18263,0.0814 -0.38931,0.14311 -0.0537,0.016 -0.12509,0.044 -0.15865,0.0622 l -0.061,0.033 -0.0122,0.91463 c -0.0139,1.04261 -0.0157,1.05239 -0.21764,1.21673 -0.18579,0.15117 -0.36683,0.18341 -0.52806,0.094 z"
         id="path162"
         inkscape:connector-curvature="0" />
      <path
         style="fill:#000000;stroke-width:0.02582915"
         d="m -198.60703,203.24656 c -0.031,-0.0714 -0.0668,-0.16058 -0.0795,-0.19817 -0.0127,-0.0376 -0.0327,-0.0897 -0.0446,-0.11579 -0.0119,-0.0261 -0.0216,-0.0784 -0.0216,-0.11617 0,-0.0378 -0.011,-0.0687 -0.0244,-0.0687 -0.0134,0 -0.0244,-0.0362 -0.0244,-0.0804 0,-0.0442 -0.011,-0.088 -0.0244,-0.0973 -0.0134,-0.009 -0.0244,-0.0523 -0.0244,-0.0957 0,-0.0433 -0.011,-0.0864 -0.0244,-0.0957 -0.0134,-0.009 -0.0244,-0.0646 -0.0244,-0.123 0,-0.0584 -0.011,-0.11371 -0.0244,-0.123 -0.0134,-0.009 -0.0244,-0.0629 -0.0244,-0.11915 0,-0.0562 -0.01,-0.11393 -0.0222,-0.12821 -0.0221,-0.0259 -0.0408,-0.16867 -0.0661,-0.5043 -0.007,-0.0977 -0.0235,-0.18935 -0.0358,-0.20363 -0.0123,-0.0143 -0.0232,-0.20493 -0.0241,-0.42366 -9.4e-4,-0.21873 -0.0101,-0.42175 -0.0204,-0.45116 -0.0179,-0.0513 0.001,-0.15003 0.0543,-0.28136 0.0212,-0.0523 0.0439,-0.0615 0.15117,-0.0615 0.12409,0 0.12718,0.002 0.17856,0.11616 0.0451,0.10014 0.0538,0.1765 0.0635,0.55349 0.0136,0.5328 0.035,0.81147 0.0648,0.84596 0.0123,0.0143 0.0224,0.0825 0.0224,0.1517 0,0.0692 0.01,0.13742 0.0219,0.1517 0.012,0.0143 0.0281,0.0752 0.0357,0.1353 0.0292,0.2316 0.0462,0.31537 0.0671,0.32986 0.012,0.008 0.0217,0.0566 0.0217,0.10746 0,0.0508 0.011,0.10004 0.0244,0.10934 0.0134,0.009 0.0244,0.0462 0.0244,0.082 0,0.0358 0.011,0.0727 0.0244,0.082 0.0134,0.009 0.0244,0.0462 0.0244,0.082 0,0.0358 0.011,0.0727 0.0244,0.082 0.0134,0.009 0.0244,0.0462 0.0244,0.082 0,0.0358 0.011,0.0727 0.0244,0.082 0.0394,0.0272 0.0286,0.28169 -0.015,0.35629 -0.0327,0.0559 -0.0591,0.0674 -0.15526,0.0674 -0.114,0 -0.11674,-0.002 -0.17228,-0.12983 z m 1.685,0.10213 c 0,-0.0152 0.0127,-0.0552 0.0282,-0.0888 0.0592,-0.12826 0.0694,-0.15728 0.0694,-0.19742 0,-0.0228 0.011,-0.0414 0.0244,-0.0414 0.0134,0 0.0244,-0.0246 0.0244,-0.0547 0,-0.0301 0.011,-0.0547 0.0244,-0.0547 0.0134,0 0.0244,-0.0123 0.0244,-0.0273 0,-0.015 0.0439,-0.0795 0.0976,-0.14335 0.0537,-0.0638 0.0976,-0.12536 0.0976,-0.13672 0,-0.0113 0.0144,-0.0206 0.032,-0.0206 0.0176,0 0.0533,-0.0216 0.0793,-0.048 0.0755,-0.0767 0.17667,-0.14328 0.21765,-0.14328 0.0208,0 0.0569,-0.0111 0.0802,-0.0246 0.0233,-0.0135 0.10829,-0.0468 0.18883,-0.0739 0.0806,-0.0271 0.15688,-0.0591 0.16964,-0.0711 0.0128,-0.0119 0.0649,-0.0217 0.11594,-0.0217 0.051,0 0.0927,-0.0123 0.0927,-0.0273 0,-0.015 0.0372,-0.0273 0.0826,-0.0273 0.0455,0 0.1141,-0.0184 0.15256,-0.0408 0.0384,-0.0224 0.094,-0.0409 0.12338,-0.041 0.0294,-9e-5 0.0603,-0.0125 0.0686,-0.0275 0.008,-0.015 0.042,-0.0273 0.075,-0.0273 0.0329,0 0.079,-0.0109 0.1023,-0.0242 0.0233,-0.0133 0.11927,-0.0644 0.21324,-0.11362 0.094,-0.0492 0.19498,-0.11366 0.22448,-0.14323 0.0485,-0.0486 0.0573,-0.0497 0.0915,-0.0113 0.0208,0.0233 0.0379,0.0545 0.0379,0.0692 0,0.0319 0.0996,0.25113 0.13425,0.29541 0.0134,0.0172 0.0628,0.0828 0.10983,0.14585 0.12134,0.16284 0.37179,0.35593 0.46167,0.35593 0.0226,0 0.0542,0.0147 0.0702,0.0326 0.0163,0.0183 0.12471,0.0377 0.24677,0.0442 0.16769,0.009 0.23586,10e-4 0.29685,-0.0326 0.0435,-0.0243 0.0936,-0.0442 0.11116,-0.0442 0.10131,0 0.52189,-0.37204 0.52189,-0.46166 0,-0.0179 0.022,-0.059 0.0488,-0.0913 0.0268,-0.0323 0.0488,-0.081 0.0488,-0.10819 0,-0.0272 0.011,-0.0495 0.0244,-0.0495 0.0134,0 0.0248,-0.0215 0.0252,-0.0478 0.002,-0.1017 0.10156,-0.18577 0.12824,-0.10791 0.0146,0.0427 0.35491,0.23774 0.41472,0.23774 0.0231,0 0.0421,0.0123 0.0421,0.0273 0,0.015 0.0384,0.0273 0.0854,0.0273 0.047,0 0.0854,0.01 0.0854,0.0211 0,0.0236 0.18313,0.0839 0.32356,0.10655 0.0504,0.008 0.0977,0.0258 0.10517,0.0392 0.007,0.0134 0.0495,0.0244 0.0934,0.0244 0.044,0 0.087,0.008 0.0957,0.0177 0.0265,0.0296 0.26947,0.11713 0.32796,0.11808 0.0302,5e-4 0.0549,0.0132 0.0549,0.0282 0,0.015 0.0225,0.0273 0.05,0.0273 0.0599,0 0.30884,0.17365 0.36676,0.25588 0.0226,0.0322 0.0809,0.10698 0.12952,0.16629 0.0486,0.0593 0.0883,0.13004 0.0883,0.15717 0,0.0271 0.011,0.0493 0.0244,0.0493 0.0134,0 0.0244,0.0186 0.0244,0.0414 0,0.0228 0.011,0.0658 0.0244,0.0957 0.0134,0.0299 0.0354,0.0787 0.0488,0.10859 0.0134,0.0299 0.0244,0.0668 0.0244,0.082 0,0.0186 -1.18024,0.0277 -3.58798,0.0277 -2.40774,0 -3.58798,-0.009 -3.58798,-0.0277 z m 8.45795,-0.008 c -0.0265,-0.0179 -0.0619,-0.051 -0.0786,-0.0736 -0.0363,-0.0491 -0.0421,-0.31766 -0.007,-0.34166 0.0134,-0.009 0.0244,-0.0445 0.0244,-0.0781 0,-0.0337 0.009,-0.0729 0.0202,-0.0872 0.0111,-0.0143 0.0341,-0.0813 0.0512,-0.14896 0.0171,-0.0677 0.0409,-0.14436 0.0531,-0.17046 0.0121,-0.0261 0.022,-0.0777 0.022,-0.11456 0,-0.0369 0.011,-0.0747 0.0244,-0.084 0.0134,-0.009 0.0244,-0.0646 0.0244,-0.123 0,-0.0584 0.011,-0.1137 0.0244,-0.123 0.0134,-0.009 0.0244,-0.0646 0.0244,-0.12299 0,-0.0584 0.011,-0.11371 0.0244,-0.123 0.0134,-0.009 0.0244,-0.0708 0.0244,-0.13667 0,-0.0659 0.011,-0.12737 0.0244,-0.13666 0.0134,-0.009 0.0244,-0.10154 0.0244,-0.205 0,-0.10346 0.011,-0.19571 0.0244,-0.205 0.0134,-0.009 0.0244,-0.11456 0.0244,-0.23394 0,-0.12648 0.0102,-0.21705 0.0244,-0.21705 0.0134,0 0.0244,-0.014 0.0244,-0.0311 0,-0.053 0.0815,-0.10374 0.16802,-0.10465 0.0604,-6.3e-4 0.0981,0.0193 0.14032,0.0743 0.0516,0.0672 0.0577,0.10167 0.0578,0.32638 2e-5,0.13817 -0.011,0.25882 -0.0244,0.26811 -0.0134,0.009 -0.0244,0.10227 -0.0244,0.20661 0,0.10826 -0.0105,0.18972 -0.0244,0.18972 -0.0134,0 -0.0244,0.0669 -0.0244,0.14872 0,0.0818 -0.011,0.15632 -0.0244,0.16561 -0.0134,0.009 -0.0244,0.0646 -0.0244,0.123 0,0.0584 -0.011,0.11371 -0.0244,0.123 -0.0134,0.009 -0.0244,0.0646 -0.0244,0.12299 0,0.0584 -0.011,0.11371 -0.0244,0.123 -0.0134,0.009 -0.0244,0.0523 -0.0244,0.0957 0,0.0433 -0.011,0.0864 -0.0244,0.0957 -0.0134,0.009 -0.0244,0.0523 -0.0244,0.0957 0,0.0433 -0.011,0.0864 -0.0244,0.0957 -0.0134,0.009 -0.0244,0.0462 -0.0244,0.082 0,0.0358 -0.011,0.0727 -0.0244,0.082 -0.0134,0.009 -0.0244,0.0409 -0.0244,0.0703 0,0.0294 -0.0101,0.0748 -0.0224,0.10089 -0.0123,0.0261 -0.0403,0.0936 -0.0622,0.14996 -0.0219,0.0564 -0.0558,0.10249 -0.0753,0.10249 -0.0195,0 -0.0355,0.0123 -0.0355,0.0273 0,0.037 -0.0985,0.0317 -0.15809,-0.008 z m -5.16287,-1.85021 c 0,-0.015 -0.0261,-0.0273 -0.058,-0.0273 -0.0319,0 -0.0717,-0.0185 -0.0884,-0.041 -0.0167,-0.0225 -0.0399,-0.041 -0.0515,-0.041 -0.0638,0 -0.48514,-0.48783 -0.48537,-0.562 -4e-5,-0.016 -0.0197,-0.0529 -0.0437,-0.082 -0.024,-0.0291 -0.0583,-0.093 -0.0762,-0.14182 -0.0179,-0.0489 -0.0422,-0.0888 -0.054,-0.0888 -0.0118,0 -0.0214,-0.0223 -0.0214,-0.0495 0,-0.0272 -0.022,-0.0759 -0.0488,-0.10818 -0.0268,-0.0323 -0.0488,-0.0753 -0.0488,-0.0957 0,-0.0203 -0.022,-0.0634 -0.0488,-0.0957 -0.0268,-0.0323 -0.0488,-0.0838 -0.0488,-0.11448 0,-0.0307 -0.009,-0.0558 -0.0199,-0.0558 -0.0109,0 -0.0349,-0.043 -0.0534,-0.0957 -0.0184,-0.0526 -0.0424,-0.0957 -0.0534,-0.0957 -0.0109,0 -0.0199,-0.0246 -0.0199,-0.0547 0,-0.0301 -0.011,-0.0547 -0.0244,-0.0547 -0.0134,0 -0.0244,-0.0185 -0.0244,-0.041 0,-0.0225 -0.011,-0.041 -0.0244,-0.041 -0.0134,0 -0.0244,-0.0186 -0.0244,-0.0414 0,-0.0228 -0.01,-0.0627 -0.0216,-0.0888 -0.0815,-0.17946 -0.11143,-0.37118 -0.0858,-0.55033 0.0119,-0.0835 0.0424,-0.14376 0.11075,-0.21876 l 0.0943,-0.10351 v -0.67881 c 0,-0.6661 0.007,-0.74713 0.0879,-0.95603 0.0489,-0.12701 0.29695,-0.45099 0.34528,-0.45099 0.0121,0 0.0479,-0.0307 0.0794,-0.0683 0.0315,-0.0376 0.0719,-0.0683 0.0897,-0.0683 0.0178,0 0.0324,-0.0109 0.0324,-0.0241 0,-0.0133 0.0192,-0.0323 0.0427,-0.0422 0.0802,-0.0339 0.15255,-0.0833 0.15255,-0.10414 0,-0.0115 0.0203,-0.0209 0.0451,-0.0209 0.0544,0 0.19901,-0.0776 0.19901,-0.10684 0,-0.0422 0.17848,-0.27582 0.21074,-0.27582 0.0183,0 0.0333,-0.0123 0.0333,-0.0273 0,-0.015 0.0199,-0.0273 0.0442,-0.0273 0.0243,0 0.0655,-0.0181 0.0915,-0.0401 0.0613,-0.052 0.15807,-0.0524 0.24595,-10e-4 0.0385,0.0225 0.0885,0.0409 0.11119,0.041 0.0227,8e-5 0.0481,0.0125 0.0564,0.0275 0.008,0.015 0.0364,0.0273 0.0625,0.0273 0.026,0 0.0474,0.0123 0.0474,0.0273 0,0.015 0.0138,0.0273 0.0308,0.0273 0.0169,0 0.0604,0.0307 0.0966,0.0683 0.0362,0.0376 0.0773,0.0683 0.0913,0.0683 0.014,0 0.0255,0.0123 0.0255,0.0273 0,0.015 0.0165,0.0273 0.0366,0.0273 0.0201,0 0.0366,0.0113 0.0366,0.025 0,0.0138 0.0454,0.0722 0.1009,0.12983 0.24169,0.25104 0.28547,0.30699 0.437,0.55839 0.058,0.0963 0.11452,0.17917 0.12552,0.18418 0.011,0.005 0.02,0.0267 0.02,0.0482 0,0.0215 0.01,0.0605 0.0216,0.0866 0.10654,0.23453 0.11751,0.37491 0.0873,1.1173 -0.0177,0.4359 -0.0173,0.44155 0.0355,0.47323 0.0894,0.0536 0.14833,0.1917 0.14843,0.34813 5e-5,0.078 -0.0109,0.14948 -0.0243,0.15878 -0.0134,0.009 -0.0244,0.0471 -0.0244,0.084 0,0.0369 -0.01,0.0884 -0.0217,0.11455 -0.012,0.0261 -0.0472,0.10896 -0.0782,0.18413 -0.0311,0.0752 -0.0762,0.16931 -0.10031,0.20921 -0.0241,0.0399 -0.0438,0.0912 -0.0438,0.11389 0,0.0227 -0.008,0.0454 -0.0184,0.0505 -0.0101,0.005 -0.0563,0.0952 -0.10253,0.20044 -0.0463,0.10523 -0.10388,0.22398 -0.12804,0.26388 -0.0241,0.0399 -0.0439,0.0922 -0.0439,0.11617 0,0.024 -0.011,0.0436 -0.0244,0.0436 -0.0134,0 -0.0244,0.0185 -0.0244,0.041 0,0.0225 -0.011,0.041 -0.0244,0.041 -0.0134,0 -0.0244,0.0236 -0.0244,0.0524 0,0.0288 -0.009,0.0565 -0.0197,0.0615 -0.0251,0.0116 -0.17547,0.25746 -0.17576,0.28736 -1.2e-4,0.0123 -0.0352,0.0532 -0.0779,0.0907 -0.0427,0.0376 -0.10027,0.0929 -0.12792,0.123 -0.0276,0.0301 -0.0914,0.079 -0.14179,0.10872 -0.0504,0.0297 -0.0915,0.0635 -0.0915,0.0752 0,0.0116 -0.0268,0.0211 -0.0596,0.0211 -0.0328,0 -0.0664,0.0123 -0.0747,0.0273 -0.009,0.0158 -0.13857,0.0273 -0.30654,0.0273 -0.17803,0 -0.29146,-0.0106 -0.29146,-0.0273 z m 0.57503,-0.14946 c 0.0261,-0.0221 0.0666,-0.0405 0.0901,-0.041 0.0235,-4.8e-4 0.0427,-0.0102 0.0427,-0.0215 0,-0.0114 0.0305,-0.0358 0.0677,-0.0542 0.0782,-0.0388 0.21039,-0.17465 0.29839,-0.30679 0.0336,-0.0504 0.0747,-0.10726 0.0915,-0.12635 0.0168,-0.0191 0.0305,-0.0541 0.0305,-0.0777 0,-0.0236 0.009,-0.043 0.0203,-0.043 0.0112,0 0.0355,-0.0338 0.054,-0.0752 0.0186,-0.0413 0.0534,-0.10782 0.0773,-0.14772 0.024,-0.0399 0.0436,-0.0911 0.0436,-0.11389 0,-0.0227 0.008,-0.0454 0.0183,-0.0504 0.0222,-0.0111 0.12814,-0.23626 0.12814,-0.2725 0,-0.0142 0.022,-0.0523 0.0488,-0.0846 0.0269,-0.0323 0.0488,-0.0799 0.0488,-0.10591 0,-0.026 0.01,-0.0513 0.022,-0.0564 0.0492,-0.0204 0.24533,-0.53489 0.26108,-0.68501 0.0212,-0.20236 -0.01,-0.23976 -0.19908,-0.23976 h -0.13918 l 0.0175,-0.10249 c 0.01,-0.0564 0.0286,-0.15785 0.0421,-0.2255 0.0135,-0.0677 0.0263,-0.17835 0.0284,-0.246 0.004,-0.11656 5.7e-4,-0.12247 -0.0573,-0.11286 -0.16691,0.0277 -0.67888,-0.0103 -0.71881,-0.0534 -0.0128,-0.0138 -0.0567,-0.0254 -0.0976,-0.0259 -0.041,-4.8e-4 -0.0958,-0.0189 -0.12183,-0.041 -0.0261,-0.0221 -0.0776,-0.0401 -0.1145,-0.0401 -0.0369,0 -0.0739,-0.0123 -0.0822,-0.0273 -0.008,-0.015 -0.0529,-0.0273 -0.0991,-0.0273 -0.0462,0 -0.084,-0.0123 -0.084,-0.0273 0,-0.015 -0.0316,-0.0273 -0.0702,-0.0273 -0.0386,0 -0.11104,-0.0191 -0.16089,-0.0424 -0.11487,-0.0537 -0.7103,-0.0443 -0.84282,0.0134 -0.13938,0.0607 -0.18076,0.0779 -0.22578,0.094 -0.0331,0.0118 -0.0427,0.0458 -0.0427,0.15119 0,0.0747 0.011,0.14351 0.0244,0.1528 0.0134,0.009 0.0244,0.12687 0.0244,0.26128 v 0.24439 h -0.0756 c -0.26685,0 -0.31556,0.30222 -0.11893,0.73799 0.0754,0.16709 0.14955,0.31347 0.17239,0.34029 0.0121,0.0143 0.0221,0.0481 0.0221,0.0752 0,0.0271 0.009,0.0492 0.0199,0.0492 0.0109,0 0.0349,0.0431 0.0534,0.0957 0.0184,0.0526 0.0425,0.0957 0.0534,0.0957 0.0109,0 0.0198,0.0223 0.0198,0.0495 0,0.0272 0.022,0.0759 0.0488,0.10819 0.0268,0.0323 0.0488,0.0753 0.0488,0.0957 0,0.0204 0.022,0.0634 0.0488,0.0957 0.0268,0.0323 0.0488,0.0753 0.0488,0.0957 0,0.0203 0.0197,0.0608 0.0437,0.09 0.0241,0.0291 0.078,0.10834 0.1198,0.17599 0.0941,0.15212 0.28864,0.35667 0.38597,0.40579 0.0401,0.0202 0.10037,0.0529 0.13393,0.0727 0.0886,0.0521 0.48935,0.0526 0.55062,7.4e-4 z m 3.40349,-1.76088 c 0,-0.0134 -0.0247,-0.0315 -0.0549,-0.0402 -0.11045,-0.0319 -0.11594,-0.0932 -0.11594,-1.29519 0,-0.95964 0.006,-1.1424 0.0372,-1.21087 0.0205,-0.0444 0.0534,-0.0806 0.0732,-0.0806 0.0198,0 0.036,-0.0123 0.036,-0.0273 0,-0.0179 0.419,-0.0273 1.2082,-0.0273 0.78919,0 1.2082,0.009 1.2082,0.0273 0,0.015 0.0118,0.0273 0.0262,0.0273 0.0383,0 0.0959,0.0717 0.0959,0.11943 0,0.0227 0.011,0.0489 0.0244,0.0582 0.0156,0.0108 0.0244,0.40461 0.0244,1.0916 0,1.17823 -0.004,1.21366 -0.14359,1.32509 -0.07,0.0558 -0.0949,0.057 -1.24533,0.057 -0.67119,0 -1.17392,-0.0104 -1.17392,-0.0244 z m 1.08358,-0.61112 c 0.0168,-0.0188 0.0725,-0.0711 0.12366,-0.11617 0.15664,-0.13796 0.23895,-0.21533 0.31255,-0.29383 0.0388,-0.0413 0.0814,-0.0752 0.0948,-0.0752 0.0378,0 0.0936,-0.0728 0.0979,-0.12786 0.01,-0.12525 -0.007,-0.20306 -0.0465,-0.22018 -0.0235,-0.0101 -0.0667,-0.0435 -0.0961,-0.0743 -0.0294,-0.0308 -0.0878,-0.0867 -0.12974,-0.12431 -0.042,-0.0376 -0.10255,-0.096 -0.13466,-0.12984 -0.0321,-0.0338 -0.0651,-0.0615 -0.0733,-0.0615 -0.008,0 -0.0554,-0.0429 -0.10484,-0.0954 -0.0988,-0.10485 -0.18829,-0.12286 -0.23898,-0.0481 -0.0451,0.0665 -0.0484,1.26644 -0.004,1.34652 0.0345,0.0618 0.15118,0.0736 0.19902,0.0201 z m -10.15118,0.44697 c -0.1124,-0.0168 -0.16759,-0.039 -0.39986,-0.16058 -0.0841,-0.0441 -0.33774,-0.30899 -0.43767,-0.45723 -0.0304,-0.0451 -0.0833,-0.14964 -0.11746,-0.23233 -0.0342,-0.0827 -0.0722,-0.17169 -0.0845,-0.19779 -0.0123,-0.0261 -0.0223,-0.0715 -0.0223,-0.10088 0,-0.0294 -0.009,-0.06 -0.021,-0.068 -0.025,-0.0173 -0.0588,-0.32362 -0.0591,-0.53534 -2e-4,-0.14953 0.0309,-0.39052 0.0743,-0.57494 0.0747,-0.31797 0.36022,-0.77597 0.57282,-0.91903 0.0635,-0.0427 0.11567,-0.0869 0.11593,-0.0982 2.7e-4,-0.0113 0.0225,-0.0205 0.0493,-0.0205 0.0268,0 0.0488,-0.0123 0.0488,-0.0273 0,-0.015 0.0253,-0.0273 0.0561,-0.0273 0.0309,0 0.0688,-0.0142 0.0843,-0.0315 0.0395,-0.0443 0.65511,-0.0452 0.69454,-0.001 0.016,0.0179 0.0598,0.0325 0.0974,0.0325 0.0376,0 0.0683,0.0123 0.0683,0.0273 0,0.015 0.0208,0.0273 0.0462,0.0273 0.0254,0 0.0525,0.0185 0.0602,0.041 0.008,0.0225 0.0318,0.041 0.0536,0.041 0.0217,0 0.1237,0.096 0.22654,0.21325 0.19125,0.2181 0.32167,0.46485 0.39296,0.7434 0.0173,0.0677 0.0418,0.1481 0.0545,0.17877 0.0127,0.0307 0.0191,0.22132 0.0144,0.42366 -0.0109,0.46694 -0.0348,0.56471 -0.25299,1.03485 -0.0844,0.18195 -0.35636,0.45207 -0.57469,0.57087 -0.17696,0.0963 -0.23118,0.11258 -0.4113,0.12356 -0.11411,0.007 -0.26238,0.004 -0.32951,-0.006 z m 0.46986,-0.3331 c 0.0705,-0.0209 0.12814,-0.0474 0.12814,-0.0588 0,-0.0115 0.022,-0.0209 0.0488,-0.0209 0.0268,0 0.0488,-0.0123 0.0488,-0.0273 0,-0.015 0.0138,-0.0273 0.0308,-0.0273 0.0169,0 0.0604,-0.0308 0.0966,-0.0683 0.0362,-0.0376 0.0719,-0.0683 0.0794,-0.0683 0.0222,0 0.15412,-0.17211 0.18855,-0.246 0.0175,-0.0376 0.0511,-0.0922 0.0746,-0.12131 0.0235,-0.0291 0.0427,-0.0745 0.0427,-0.10089 0,-0.0264 0.011,-0.0555 0.0244,-0.0648 0.0134,-0.009 0.0244,-0.0445 0.0244,-0.0781 0,-0.0337 0.0124,-0.0751 0.0275,-0.0921 0.0384,-0.043 0.039,-0.8186 6.6e-4,-0.8615 -0.0155,-0.0174 -0.0282,-0.0514 -0.0282,-0.0756 0,-0.11506 -0.21262,-0.49721 -0.34716,-0.62399 -0.0402,-0.0379 -0.0857,-0.0823 -0.10098,-0.0985 -0.0621,-0.0661 -0.29364,-0.17914 -0.3669,-0.17914 -0.0431,0 -0.0905,-0.0136 -0.10534,-0.0303 -0.0574,-0.0643 -0.59292,0.0611 -0.59292,0.13894 0,0.0154 -0.0164,0.028 -0.0363,0.028 -0.0439,0 -0.10877,0.0562 -0.24956,0.21605 -0.21779,0.24733 -0.39682,0.81212 -0.36448,1.14985 0.017,0.17712 0.0783,0.45017 0.12288,0.54741 0.0637,0.13873 0.13483,0.26996 0.17801,0.32824 0.0905,0.12208 0.17427,0.21842 0.19004,0.21842 0.009,0 0.0523,0.0308 0.0962,0.0683 0.044,0.0376 0.0982,0.0683 0.12041,0.0683 0.0222,0 0.0404,0.0123 0.0404,0.0273 0,0.015 0.0262,0.0273 0.0582,0.0273 0.032,0 0.0897,0.0189 0.12814,0.042 0.0801,0.0481 0.24364,0.0419 0.44214,-0.017 z m -0.44138,-1.08192 c -0.009,-0.01 -0.0163,-0.28062 -0.0163,-0.60132 v -0.58311 h 0.10983 0.10984 v 0.451 0.45099 h 0.3173 0.31731 v 0.13374 c 0,0.0967 -0.0107,0.13833 -0.0386,0.15033 -0.0526,0.0226 -0.77906,0.0212 -0.7994,-0.002 z m 9.53948,-1.8601 c -0.0268,-0.04 -0.0653,-0.1047 -0.0854,-0.14389 -0.15675,-0.30507 -0.70528,-0.99364 -1.05077,-1.31903 -0.0597,-0.0563 -0.14705,-0.13881 -0.19404,-0.18344 -0.047,-0.0446 -0.11288,-0.097 -0.14645,-0.11637 -0.0336,-0.0194 -0.0872,-0.0617 -0.11926,-0.0941 -0.032,-0.0324 -0.087,-0.0752 -0.12204,-0.0951 -0.0351,-0.0199 -0.0967,-0.0622 -0.13702,-0.0939 -0.0403,-0.0317 -0.11402,-0.0784 -0.16388,-0.10387 -0.12092,-0.0617 -0.16579,-0.14059 -0.16486,-0.28987 5.7e-4,-0.0912 0.0163,-0.14354 0.0598,-0.19891 0.0731,-0.0931 0.13249,-0.0946 0.25669,-0.007 0.0532,0.0376 0.11244,0.0683 0.13172,0.0683 0.0193,0 0.0387,0.009 0.0432,0.0205 0.0117,0.0295 0.20986,0.17083 0.23949,0.17083 0.0137,0 0.0249,0.0123 0.0249,0.0273 0,0.015 0.0146,0.0273 0.0324,0.0273 0.0178,0 0.0581,0.0307 0.0897,0.0683 0.0315,0.0376 0.0669,0.0683 0.0785,0.0683 0.0225,0 0.0586,0.0305 0.15343,0.12983 0.0323,0.0338 0.065,0.0615 0.0727,0.0615 0.0165,0 0.13395,0.11457 0.3504,0.34166 0.23265,0.2441 0.25147,0.26552 0.36191,0.41192 0.0559,0.0741 0.13041,0.17164 0.16556,0.21674 0.0981,0.12591 0.33954,0.50396 0.41542,0.65055 0.0542,0.10478 0.0653,0.15341 0.0547,0.24129 -0.0184,0.15377 -0.0753,0.21534 -0.19806,0.21429 -0.0792,-6.8e-4 -0.1101,-0.016 -0.14877,-0.0735 z m -8.28653,-0.75931 c -0.018,-0.0376 -0.0418,-0.0683 -0.0529,-0.0683 -0.0323,0 -0.0235,-0.24616 0.0102,-0.28574 0.0168,-0.0197 0.0662,-0.085 0.10977,-0.1452 0.0983,-0.13566 0.47298,-0.55305 0.49644,-0.55305 0.009,0 0.051,-0.043 0.0922,-0.0957 0.0413,-0.0526 0.0821,-0.0957 0.0908,-0.0957 0.009,0 0.0514,-0.0338 0.0949,-0.0752 0.14507,-0.13792 0.18409,-0.17083 0.2025,-0.17083 0.01,0 0.0479,-0.0308 0.0841,-0.0683 0.0362,-0.0376 0.0773,-0.0683 0.0913,-0.0683 0.014,0 0.0255,-0.009 0.0255,-0.0208 0,-0.0209 0.0723,-0.0702 0.15255,-0.10415 0.0235,-0.01 0.0427,-0.0289 0.0427,-0.0422 0,-0.0133 0.022,-0.0241 0.0488,-0.0241 0.0268,0 0.0488,-0.0123 0.0488,-0.0273 0,-0.015 0.0208,-0.0273 0.0462,-0.0273 0.0254,0 0.0525,-0.0184 0.0602,-0.041 0.01,-0.0287 0.0498,-0.041 0.13347,-0.041 0.11589,0 0.12106,0.003 0.17536,0.11811 0.0382,0.0807 0.0509,0.1406 0.04,0.18922 -0.0198,0.0884 -0.13076,0.23933 -0.17591,0.23933 -0.0412,0 -0.26407,0.1361 -0.27532,0.16815 -0.004,0.0128 -0.0237,0.0232 -0.0427,0.0232 -0.019,0 -0.0346,0.0123 -0.0346,0.0273 0,0.015 -0.0117,0.0273 -0.026,0.0273 -0.0284,0 -0.2008,0.13765 -0.21397,0.17083 -0.004,0.0113 -0.0222,0.0205 -0.0393,0.0205 -0.0171,0 -0.0518,0.0308 -0.077,0.0683 -0.0252,0.0376 -0.0586,0.0683 -0.0741,0.0683 -0.0156,0 -0.062,0.043 -0.10329,0.0957 -0.0413,0.0526 -0.0833,0.0957 -0.0935,0.0957 -0.0102,0 -0.15834,0.15989 -0.32928,0.35532 -0.27679,0.31644 -0.31982,0.35533 -0.39308,0.35533 -0.0628,0 -0.09,-0.0162 -0.11493,-0.0683 z m 2.7459,-0.96127 c -0.0268,-0.008 -0.0681,-0.0339 -0.0917,-0.0573 -0.0867,-0.0861 -0.15241,-0.30709 -0.0914,-0.30709 0.0134,0 0.0244,-0.024 0.0244,-0.0533 0,-0.0634 0.19428,-0.30205 0.24594,-0.30205 0.0198,0 0.0608,-0.0194 0.0909,-0.043 0.0358,-0.0281 0.0949,-0.0403 0.17018,-0.0351 l 0.11534,0.008 0.006,-1.0168 0.006,-1.01681 0.0668,-0.0158 c 0.0368,-0.009 0.0859,-0.0273 0.10921,-0.0414 0.0233,-0.0141 0.0748,-0.0257 0.11449,-0.0257 0.0397,0 0.0789,-0.0123 0.0872,-0.0273 0.008,-0.015 0.0461,-0.0273 0.0839,-0.0273 0.0378,0 0.10824,-0.0185 0.15643,-0.041 0.0482,-0.0225 0.11544,-0.041 0.14943,-0.041 0.034,0 0.0618,-0.0123 0.0618,-0.0273 0,-0.015 0.0439,-0.0273 0.0976,-0.0273 0.0537,0 0.0976,-0.0123 0.0976,-0.0273 0,-0.015 0.0372,-0.0273 0.0826,-0.0273 0.0455,0 0.11409,-0.0184 0.15255,-0.0408 0.0384,-0.0224 0.0995,-0.0409 0.13559,-0.041 0.0361,-1e-4 0.0725,-0.0125 0.0808,-0.0275 0.008,-0.015 0.0419,-0.0273 0.0747,-0.0273 h 0.0596 v 1.21374 c 0,1.19571 -7.9e-4,1.21539 -0.0533,1.32565 -0.0324,0.0679 -0.0708,0.11191 -0.0976,0.11191 -0.0244,0 -0.0443,0.01 -0.0443,0.0214 0,0.0118 -0.0496,0.0378 -0.11022,0.0578 -0.19196,0.0635 -0.35195,-0.0506 -0.35299,-0.25177 -4.7e-4,-0.0896 0.0167,-0.12312 0.12176,-0.23768 0.10671,-0.1164 0.13705,-0.13447 0.23798,-0.14173 l 0.11567,-0.008 0.007,-0.72249 c 0.006,-0.71738 -0.004,-0.82222 -0.0724,-0.74529 -0.0161,0.018 -0.0594,0.0328 -0.0962,0.0328 -0.0368,0 -0.0731,0.0112 -0.0807,0.025 -0.008,0.0137 -0.0576,0.0332 -0.11127,0.0434 -0.0536,0.0102 -0.0975,0.0297 -0.0975,0.0434 0,0.0137 -0.0384,0.0249 -0.0854,0.0249 -0.047,0 -0.0854,0.0123 -0.0854,0.0273 0,0.015 -0.0247,0.0277 -0.0549,0.0282 -0.0585,9.5e-4 -0.30149,0.0884 -0.32796,0.11808 -0.009,0.01 -0.0463,0.0177 -0.0836,0.0177 -0.13863,0 -0.14377,0.0348 -0.14377,0.97298 0,0.46832 -0.007,0.89121 -0.0158,0.93974 -0.0178,0.0995 -0.19762,0.32858 -0.25798,0.32858 -0.0217,0 -0.0431,0.0114 -0.0476,0.0254 -0.01,0.03 -0.27935,0.0595 -0.34985,0.0383 z"
         id="path160"
         inkscape:connector-curvature="0" />
    </g>
  </g>
</svg>
