<?xml version="1.0" encoding="UTF-8" standalone="no"?>
<!-- Created with Inkscape (http://www.inkscape.org/) -->

<svg
   xmlns:dc="http://purl.org/dc/elements/1.1/"
   xmlns:cc="http://creativecommons.org/ns#"
   xmlns:rdf="http://www.w3.org/1999/02/22-rdf-syntax-ns#"
   xmlns:svg="http://www.w3.org/2000/svg"
   xmlns="http://www.w3.org/2000/svg"
   xmlns:sodipodi="http://sodipodi.sourceforge.net/DTD/sodipodi-0.dtd"
   xmlns:inkscape="http://www.inkscape.org/namespaces/inkscape"
   width="50mm"
   height="50mm"
   viewBox="0 0 50 50"
   version="1.1"
   id="svg2416"
   inkscape:version="0.92.3 (2405546, 2018-03-11)"
   sodipodi:docname="jenkinsIcon.svg">
  <defs
     id="defs2410" />
  <sodipodi:namedview
     id="base"
     pagecolor="#ffffff"
     bordercolor="#666666"
     borderopacity="1.0"
     inkscape:pageopacity="0.0"
     inkscape:pageshadow="2"
     inkscape:zoom="1.4"
     inkscape:cx="169.88229"
     inkscape:cy="70.994875"
     inkscape:document-units="mm"
     inkscape:current-layer="layer1"
     showgrid="false"
     fit-margin-top="0"
     fit-margin-left="0"
     fit-margin-right="0"
     fit-margin-bottom="0"
     inkscape:window-width="1920"
     inkscape:window-height="1027"
     inkscape:window-x="-8"
     inkscape:window-y="-8"
     inkscape:window-maximized="1" />
  <metadata
     id="metadata2413">
    <rdf:RDF>
      <cc:Work
         rdf:about="">
        <dc:format>image/svg+xml</dc:format>
        <dc:type
           rdf:resource="http://purl.org/dc/dcmitype/StillImage" />
        <dc:title></dc:title>
      </cc:Work>
    </rdf:RDF>
  </metadata>
  <g
     inkscape:label="Ebene 1"
     inkscape:groupmode="layer"
     id="layer1"
     transform="translate(-83.230354,-127.31384)">
    <g
       id="g2429"
       transform="matrix(0.82512085,0,0,0.73450249,18.90198,47.839173)">
      <path
         style="fill:#eed4b5;stroke-width:0.26458332"
         d="m 105.34378,175.70698 c -0.57069,-0.14071 -1.17693,-0.37145 -1.3472,-0.51276 -0.17027,-0.14132 -0.76601,-1.74627 -1.32387,-3.56657 -0.99353,-3.24191 -1.02998,-3.30964 -1.78115,-3.30964 -1.406219,0 -7.535124,-2.39177 -8.783227,-3.4276 -0.213398,-0.17711 -0.434463,-1.17489 -0.547171,-2.46968 -0.18515,-2.12701 -0.215187,-2.20022 -1.433943,-3.49543 -3.070036,-3.26261 -5.01631,-6.64578 -6.219577,-10.81137 -0.616428,-2.13401 -0.677288,-2.77922 -0.677288,-7.1803 0,-4.37758 0.06288,-5.05258 0.663872,-7.12648 1.145918,-3.95432 3.173032,-7.44726 6.075239,-10.46831 1.490644,-1.55168 1.694489,-1.90083 2.085381,-3.57187 0.333313,-1.4249 0.631885,-2.04099 1.294478,-2.6711 0.473681,-0.45046 1.155033,-1.39083 1.514115,-2.08972 0.813024,-1.58242 2.204896,-2.637 5.936631,-4.49805 3.79184,-1.89102 5.92675,-2.36597 9.78732,-2.17739 4.60931,0.22516 6.80847,1.22117 9.77787,4.42848 0.82958,0.89605 1.80367,2.212 2.16464,2.92435 0.74289,1.46602 1.43654,4.14348 1.44238,5.56749 0.003,0.79235 0.31986,1.33285 1.85991,3.175 2.23795,2.67698 4.48383,7.03181 5.30673,10.28989 1.41759,5.61259 0.70743,12.61794 -1.77767,17.53575 l -0.63867,1.26386 0.63605,0.8528 c 0.88409,1.18538 1.8369,4.25012 1.8369,5.90846 0,1.67402 -0.9541,3.78596 -1.92768,4.26701 -1.01877,0.50337 -4.87669,0.43776 -5.31502,-0.0904 -0.27135,-0.32696 -0.68778,-0.39723 -1.805,-0.30458 -0.79875,0.0662 -1.49867,0.25962 -1.55537,0.42974 -0.13413,0.40238 -0.75334,1.01742 -1.16119,1.15337 -0.2456,0.0819 -0.21242,0.71512 0.14123,2.69504 0.41848,2.3429 0.42357,2.64709 0.0537,3.21154 -0.23946,0.36546 -0.78687,0.69449 -1.32268,0.795 -0.84528,0.15858 -0.92017,0.25219 -0.99419,1.24269 -0.0609,0.81449 -0.25897,1.20434 -0.82667,1.62681 -0.6852,0.5099 -1.13144,0.5599 -5.42396,0.6077 -2.57254,0.0286 -5.14426,-0.063 -5.71495,-0.20374 z m 7.32737,-1.8329 c 2.33445,-0.87344 2.30485,-0.81705 1.88601,-3.59231 -0.19936,-1.32103 -0.45359,-4.77384 -0.56496,-7.67292 l -0.20247,-5.27105 -2.77813,-0.0812 c -2.51121,-0.0734 -7.09282,0.27646 -8.6957,0.66405 -0.60803,0.14703 -0.62064,0.20514 -0.44099,2.03322 0.26937,2.74105 1.0759,6.93338 2.02106,10.50551 l 0.827,3.12554 1.35838,0.26336 c 0.74711,0.14485 1.5965,0.31521 1.88754,0.37857 1.34076,0.29191 3.39016,0.13816 4.70226,-0.35275 z m 8.27204,-11.95864 c 0.64688,-0.29473 0.68388,-0.40224 0.52368,-1.52135 -0.33748,-2.35752 -0.6943,-3.18858 -1.36902,-3.18858 -0.43889,0 -0.61958,0.15117 -0.61958,0.51836 0,0.7151 0.57313,4.50872 0.68117,4.50872 0.0482,0 0.40091,-0.14271 0.78375,-0.31715 z m 7.91479,-0.80733 c 0.56655,-1.86326 0.60519,-2.39609 0.26681,-3.67884 -0.37742,-1.43074 -1.2603,-2.60501 -1.95859,-2.60501 -0.48156,0 -4.25584,1.5282 -4.62301,1.87186 -0.14638,0.13699 -0.10995,1.11697 0.092,2.47412 l 0.33434,2.24727 2.0247,0.0897 c 1.11359,0.0493 2.39777,0.11367 2.85374,0.14296 0.65431,0.042 0.86719,-0.0722 1.01005,-0.54207 z m -4.7495,-0.7276 c 0.19701,-0.31877 2.43318,-0.31877 3.175,0 0.36285,0.15592 -0.0786,0.23323 -1.40468,0.24598 -1.22621,0.0118 -1.87401,-0.0782 -1.77032,-0.24598 z m 0.0132,-1.56954 c 0.46727,-0.45848 3.44447,-0.47539 3.16177,-0.018 -0.0899,0.14552 -0.89469,0.26459 -1.78833,0.26459 -1.0077,0 -1.52933,-0.0937 -1.37344,-0.24663 z m -0.6627,-0.95845 c 0.48467,-0.58399 1.28845,-0.97574 2.43541,-1.18698 0.5457,-0.1005 0.99218,-0.15125 0.99218,-0.11278 0,0.0385 -0.7095,0.43921 -1.57666,0.89052 -1.76857,0.92044 -2.38904,1.05763 -1.85093,0.40924 z m -7.18704,-7.41756 c 0.0295,-1.76707 -0.008,-1.89356 -0.64261,-2.18281 -1.65196,-0.75269 -2.28105,-0.032 -1.55532,1.78177 0.39889,0.99691 0.90631,1.4569 0.90631,0.82159 0,-0.41161 0.71928,-0.31112 0.88618,0.12381 0.17908,0.46667 -0.23423,0.77367 -0.76656,0.5694 -0.50733,-0.19469 -0.48878,-0.0786 0.19753,1.23556 l 0.58173,1.11394 0.18072,-0.79375 c 0.0994,-0.43657 0.1948,-1.63785 0.21202,-2.66951 z m -1.78894,-1.26088 c -0.23057,-0.27781 -0.21573,-0.43741 0.0621,-0.66798 0.27782,-0.23057 0.43742,-0.21573 0.66798,0.0621 0.23057,0.27782 0.21574,0.43742 -0.0621,0.66799 -0.27781,0.23056 -0.43742,0.21573 -0.66798,-0.0621 z m -10.08601,-5.8675 c 0,-0.47267 -0.20988,-0.55407 -1.97369,-0.76551 -1.51676,-0.18183 -1.38131,0.18735 0.28692,0.78199 1.34153,0.47819 1.68677,0.47481 1.68677,-0.0165 z"
         id="path2443"
         inkscape:connector-curvature="0" />
      <path
         style="fill:#998877;stroke-width:0.26458332"
         d="m 105.34378,175.70698 c -0.57069,-0.14071 -1.17693,-0.37145 -1.3472,-0.51276 -0.17027,-0.14132 -0.76601,-1.74627 -1.32387,-3.56657 -0.99353,-3.24191 -1.02998,-3.30964 -1.78115,-3.30964 -1.406219,0 -7.535124,-2.39177 -8.783227,-3.4276 -0.213398,-0.17711 -0.434463,-1.17489 -0.547171,-2.46968 -0.18515,-2.12701 -0.215187,-2.20022 -1.433943,-3.49543 -3.070036,-3.26261 -5.01631,-6.64578 -6.219577,-10.81137 -0.616428,-2.13401 -0.677288,-2.77922 -0.677288,-7.1803 0,-4.37758 0.06288,-5.05258 0.663872,-7.12648 1.145918,-3.95432 3.173032,-7.44726 6.075239,-10.46831 1.490644,-1.55168 1.694489,-1.90083 2.085381,-3.57187 0.333313,-1.4249 0.631885,-2.04099 1.294478,-2.6711 0.473681,-0.45046 1.155033,-1.39083 1.514115,-2.08972 0.813024,-1.58242 2.204896,-2.637 5.936631,-4.49805 3.79184,-1.89102 5.92675,-2.36597 9.78732,-2.17739 4.60931,0.22516 6.80847,1.22117 9.77787,4.42848 0.82958,0.89605 1.80367,2.212 2.16464,2.92435 0.74289,1.46602 1.43654,4.14348 1.44238,5.56749 0.003,0.79235 0.31986,1.33285 1.85991,3.175 2.23795,2.67698 4.48383,7.03181 5.30673,10.28989 1.41759,5.61259 0.70743,12.61794 -1.77767,17.53575 l -0.63867,1.26386 0.63605,0.8528 c 0.88409,1.18538 1.8369,4.25012 1.8369,5.90846 0,1.67402 -0.9541,3.78596 -1.92768,4.26701 -1.01877,0.50337 -4.87669,0.43776 -5.31502,-0.0904 -0.27135,-0.32696 -0.68778,-0.39723 -1.805,-0.30458 -0.79875,0.0662 -1.49867,0.25962 -1.55537,0.42974 -0.13413,0.40238 -0.75334,1.01742 -1.16119,1.15337 -0.2456,0.0819 -0.21242,0.71512 0.14123,2.69504 0.41848,2.3429 0.42357,2.64709 0.0537,3.21154 -0.23946,0.36546 -0.78687,0.69449 -1.32268,0.795 -0.84528,0.15858 -0.92017,0.25219 -0.99419,1.24269 -0.0609,0.81449 -0.25897,1.20434 -0.82667,1.62681 -0.6852,0.5099 -1.13144,0.5599 -5.42396,0.6077 -2.57254,0.0286 -5.14426,-0.063 -5.71495,-0.20374 z m 9.21415,-1.60839 c 1.36614,-0.27436 1.50347,-0.36238 1.3735,-0.88023 -0.0794,-0.31646 -0.26418,-2.70936 -0.41057,-5.31755 -0.14639,-2.6082 -0.34453,-6.0173 -0.44032,-7.57578 l -0.17415,-2.83361 -1.20494,-0.18069 c -2.22592,-0.3338 -11.60965,0.25152 -12.10367,0.75498 -0.0355,0.0362 0.16792,1.65975 0.45212,3.60786 0.55103,3.77705 1.21612,6.90916 2.12832,10.02288 0.4834,1.65002 0.66112,1.94522 1.25102,2.07799 0.37816,0.0851 1.04476,0.25071 1.48132,0.36801 1.2124,0.32573 5.9421,0.2986 7.64737,-0.0439 z m 3.84596,-3.30395 c 0.0639,-0.0591 -0.0551,-1.14567 -0.26459,-2.4147 -0.3852,-2.33383 -0.68141,-2.76003 -1.53589,-2.20989 -0.28615,0.18423 -0.32135,0.7377 -0.1692,2.6601 l 0.19213,2.42747 0.83065,-0.1778 c 0.45686,-0.0978 0.88296,-0.22612 0.9469,-0.28518 z m 10.45941,-7.76109 c 0.36357,-0.34155 0.73673,-1.02451 0.82925,-1.51768 0.20184,-1.07587 -0.28168,-3.75121 -0.95656,-5.29268 -0.65602,-1.49841 -1.32572,-1.63774 -3.61916,-0.75293 -2.48034,0.95692 -3.13556,1.36821 -3.06487,1.9239 0.0331,0.26004 0.20291,1.58973 0.3774,2.95486 l 0.31725,2.48206 1.87156,-0.1349 c 1.02936,-0.0742 2.10968,-0.043 2.40072,0.0692 0.57318,0.22111 0.60093,0.20354 -1.19062,0.75395 -0.85368,0.26227 -0.7971,0.27867 0.72398,0.20985 1.3028,-0.0589 1.78912,-0.20533 2.31105,-0.69566 z m -4.62253,-2.65304 c 0.46513,-0.30059 1.70724,-0.30059 2.64583,0 0.47361,0.15167 0.13548,0.21817 -1.19062,0.23416 -1.28554,0.0155 -1.73068,-0.0561 -1.45521,-0.23416 z m -0.13229,-1.5875 c 0.0899,-0.14552 0.8411,-0.26276 1.66926,-0.26053 1.06978,0.003 1.39083,0.0783 1.10886,0.26053 -0.53452,0.34543 -2.99161,0.34543 -2.77812,0 z m -0.51248,-1.08533 c 0.22578,-0.36533 1.7931,-1.03179 2.42221,-1.02998 0.2947,7.9e-4 0.0747,0.24579 -0.58682,0.6532 -1.09904,0.67692 -2.15484,0.89366 -1.83539,0.37678 z m -2.29166,5.34034 c 0.28759,-0.18209 0.33614,-0.6713 0.21623,-2.17877 -0.23777,-2.98903 -0.82302,-4.17654 -1.86188,-3.77789 -0.28789,0.11047 -0.28458,0.6054 0.0189,2.83597 0.20223,1.48617 0.41496,2.85096 0.47274,3.03287 0.12221,0.38473 0.62462,0.42297 1.15398,0.0878 z m -4.99098,-11.69384 c 0.13209,-1.36567 0.24338,-2.66433 0.24732,-2.8859 0.004,-0.22157 -0.4071,-0.62596 -0.91344,-0.89864 -0.74676,-0.40215 -1.13397,-0.45077 -2.05052,-0.25742 -0.62145,0.1311 -1.08435,0.35689 -1.02867,0.50176 0.67192,1.74819 3.12583,6.40226 3.28946,6.23877 0.11863,-0.11853 0.32377,-1.33289 0.45585,-2.69857 z m -1.28626,-0.11577 c 0.11966,-0.57471 0.58923,-0.60987 0.69663,-0.0522 0.0558,0.28961 -0.074,0.46302 -0.3465,0.46302 -0.2542,0 -0.40004,-0.17115 -0.35013,-0.41085 z m -0.57591,-2.36728 c 0,-0.27251 0.1734,-0.40228 0.46302,-0.3465 0.5577,0.1074 0.52253,0.57697 -0.0522,0.69663 -0.23971,0.0499 -0.41085,-0.0959 -0.41085,-0.35013 z m -9.95019,-5.3133 c 0.29594,-0.77121 0.16626,-0.90441 -0.88051,-0.90441 -0.57261,0 -1.35675,-0.12 -1.74254,-0.26668 -1.1724,-0.44575 -0.65854,0.31669 0.67012,0.99429 1.38295,0.70528 1.73781,0.7374 1.95293,0.1768 z m 9.98702,-0.63934 0.62462,-0.52869 -1.19062,0.19094 c -0.65484,0.10502 -1.51805,0.1941 -1.91823,0.19796 -0.88307,0.009 -0.90823,0.0838 -0.13229,0.39565 0.98827,0.39723 1.95681,0.30252 2.61652,-0.25586 z m -8.79862,-1.48012 c 0.46449,-0.23171 0.9888,-0.36419 1.16513,-0.29439 0.17634,0.0698 -0.59098,-0.80639 -1.70514,-1.94708 -1.20499,-1.23368 -2.15367,-2.46159 -2.34147,-3.03063 -0.45201,-1.3696 -0.1714,-1.39995 0.73846,-0.0799 1.22045,1.77069 3.60827,3.88053 5.2343,4.62495 1.25207,0.57322 1.76737,0.66033 3.41411,0.57718 1.62592,-0.0821 2.27518,-0.26842 4.01616,-1.15246 1.86673,-0.94789 2.20288,-1.24176 3.32481,-2.90659 2.45759,-3.64681 3.38209,-7.08331 3.38209,-12.57169 0,-4.30086 -0.28774,-5.55006 -1.52953,-6.64037 -0.83718,-0.73506 -1.07431,-0.80992 -2.21749,-0.70008 -0.70403,0.0677 -1.28006,0.0346 -1.28006,-0.0734 0,-0.46777 0.99449,-1.3035 1.78308,-1.49842 l 0.85703,-0.21185 -1.46817,-1.64768 c -1.65242,-1.85446 -3.52196,-2.88772 -6.5959,-3.64543 -3.49967,-0.86266 -6.13513,-0.15714 -9.85308,2.6377 -2.49739,1.87732 -2.804471,2.43317 -2.8423,5.14489 -0.01744,1.25016 -0.131838,3.07359 -0.254217,4.05207 -0.155,1.23928 -0.117442,2.27414 0.123791,3.41088 0.32089,1.5121 0.310232,1.65822 -0.145245,1.99127 -0.27035,0.19769 -0.80713,0.35943 -1.192845,0.35943 -0.585375,0 -0.75216,-0.16976 -1.008981,-1.02695 -0.375447,-1.25313 -0.882821,-1.70708 -1.907988,-1.70708 -1.623087,0 -2.898668,1.39831 -2.89259,3.17089 0.0042,1.23566 1.179876,3.44567 2.080796,3.91155 1.019725,0.52732 1.392629,0.52042 2.376014,-0.044 1.020206,-0.58551 1.346676,-0.25904 0.761158,0.76116 -0.583436,1.01658 -0.576329,1.65153 0.03848,3.43852 1.040231,3.02348 2.003863,4.342 3.604507,4.93197 1.83723,0.67717 3.2048,0.72939 4.33509,0.16552 z m 6.46466,-3.82313 c -0.73176,-0.22537 -3.25912,-2.75231 -3.25912,-3.25857 0,-0.42027 0.72794,-0.10129 1.40438,0.61539 0.94383,1 2.14745,1.32804 4.87947,1.32989 1.24347,7.9e-4 2.18281,0.11271 2.18281,0.25996 0,0.88205 -3.47891,1.58573 -5.20754,1.05333 z m 2.29512,-2.62957 c -2.04994,-0.26218 -3.26131,-0.70947 -3.97298,-1.46701 -0.74813,-0.79634 -0.58716,-1.03346 0.43256,-0.63722 0.42037,0.16335 1.83586,0.37504 3.14555,0.47043 l 2.38125,0.17343 v 0.7717 c 0,0.9058 -0.0778,0.93276 -1.98638,0.68867 z m 2.52032,-0.51928 c -0.21082,-0.66424 0.25061,-1.33797 0.91638,-1.33797 0.25272,0 1.13111,-0.33877 1.95198,-0.75283 0.82087,-0.41405 1.49249,-0.7058 1.49249,-0.64831 0,0.0575 -0.17847,0.44963 -0.39659,0.87144 -0.50578,0.97806 -1.92718,2.06602 -2.9723,2.27505 -0.6741,0.13482 -0.84172,0.066 -0.99196,-0.40738 z m -3.5105,-2.15975 c -0.37641,-0.38967 -0.45355,-2.08863 -0.0948,-2.08863 0.12975,0 0.31061,0.29765 0.40191,0.66146 0.14337,0.5712 0.31426,0.66145 1.25238,0.66145 1.3601,0 4.10052,-1.19676 4.27587,-1.86731 0.0842,-0.32204 -0.38109,-1.16487 -1.33721,-2.42215 -1.58643,-2.08613 -2.70548,-4.22105 -2.7096,-5.16939 -0.004,-0.98578 0.42423,-0.67758 1.16607,0.83868 0.38588,0.7887 1.54066,2.40499 2.56618,3.59175 1.80698,2.0911 1.8575,2.18779 1.63526,3.13007 -0.20145,0.85412 -0.43919,1.07934 -1.95586,1.85276 -1.95044,0.99461 -4.62067,1.41121 -5.20017,0.81131 z M 94.458015,129.2937 c -0.09537,-0.50836 -0.09693,-1.22898 -0.0035,-1.60137 0.156305,-0.62276 0.125205,-0.65312 -0.387783,-0.37858 -0.509585,0.27272 -0.532874,0.25206 -0.269861,-0.23938 0.711927,-1.33025 2.327339,-1.14001 3.038085,0.35777 0.772203,1.6273 0.401185,2.39145 -0.441907,0.91016 -0.63012,-1.1071 -1.107403,-0.85372 -1.204829,0.63962 -0.09504,1.45672 -0.48427,1.62291 -0.730238,0.31178 z m 14.238485,-3.58185 c -0.36074,-0.145 -0.59531,-0.46533 -0.59531,-0.81295 0,-0.52315 0.0995,-0.56001 1.13041,-0.41871 1.6779,0.22998 1.90129,-0.022 1.26423,-1.42624 -0.29201,-0.64367 -0.53077,-1.46797 -0.53057,-1.83178 2.7e-4,-0.56626 0.10419,-0.48415 0.72179,0.57056 0.39679,0.67761 0.93966,1.53498 1.20639,1.90527 0.28053,0.38945 0.4178,0.88487 0.32564,1.17523 -0.30079,0.94773 -2.15368,1.38885 -3.52258,0.83862 z m 10.5358,-1.0153 c -0.34234,-0.63968 -0.12901,-0.82854 0.93591,-0.82854 1.0689,0 1.23465,-0.24219 0.87395,-1.27693 -0.15503,-0.4447 -0.2429,-1.07533 -0.19528,-1.40141 0.0684,-0.46801 0.26496,-0.24587 0.93356,1.05482 0.46582,0.90622 0.78669,1.8047 0.71304,1.99663 -0.35957,0.93705 -2.81956,1.28058 -3.26118,0.45543 z m -15.25691,-4.63412 c -0.40584,-1.0576 1.48646,-3.33213 3.10897,-3.73695 0.88639,-0.22115 1.81058,0.25725 1.81058,0.93725 0,0.42935 -0.18265,0.51986 -1.04913,0.51986 -0.7931,0 -1.27427,0.19768 -1.97172,0.81005 -0.50742,0.44552 -0.99584,1.04083 -1.08537,1.32291 -0.18956,0.59726 -0.61128,0.67342 -0.81333,0.14688 z m -10.245546,3.49138 c -0.08446,-0.21106 -0.147157,-0.14837 -0.159852,0.15986 -0.01149,0.27891 0.05105,0.43518 0.138964,0.34726 0.08792,-0.0879 0.09732,-0.31612 0.02089,-0.50712 z m 1.169353,-4.34937 c 0.69492,-0.74457 2.077864,-1.51316 3.213969,-1.78622 0.400182,-0.0962 0.727604,-0.29167 0.727604,-0.43442 0,-0.64052 -2.28325,-0.0247 -3.638299,0.9813 -1.127936,0.83738 -1.6575,1.90916 -1.63551,3.31008 l 0.01786,1.13762 0.340049,-1.26438 c 0.187027,-0.69542 0.625475,-1.57021 0.97433,-1.94398 z m 3.272499,-4.58995 c 0.799257,-0.72381 2.020904,-1.60729 2.714784,-1.96327 3.05925,-1.56954 2.71366,-2.05946 -0.40012,-0.56722 -1.747101,0.83728 -4.556006,3.06795 -4.556006,3.61813 0,0.56242 0.903334,0.12406 2.241342,-1.08764 z"
         id="path2441"
         inkscape:connector-curvature="0" />
      <path
         style="fill:#477089;stroke-width:0.26458332"
         d="m 105.34378,175.70698 c -0.57069,-0.14071 -1.17693,-0.37145 -1.3472,-0.51276 -0.17027,-0.14132 -0.76601,-1.74627 -1.32387,-3.56657 -0.99353,-3.24191 -1.02998,-3.30964 -1.78115,-3.30964 -1.406219,0 -7.535124,-2.39177 -8.783227,-3.4276 -0.213398,-0.17711 -0.434463,-1.17489 -0.547171,-2.46968 -0.18515,-2.12701 -0.215187,-2.20022 -1.433943,-3.49543 -3.070036,-3.26261 -5.01631,-6.64578 -6.219577,-10.81137 -0.616428,-2.13401 -0.677288,-2.77922 -0.677288,-7.1803 0,-4.37758 0.06288,-5.05258 0.663872,-7.12648 1.145918,-3.95432 3.173032,-7.44726 6.075239,-10.46831 1.490644,-1.55168 1.694489,-1.90083 2.085381,-3.57187 0.333313,-1.4249 0.631885,-2.04099 1.294478,-2.6711 0.473681,-0.45046 1.155033,-1.39083 1.514115,-2.08972 0.813024,-1.58242 2.204896,-2.637 5.936631,-4.49805 3.79184,-1.89102 5.92675,-2.36597 9.78732,-2.17739 4.60931,0.22516 6.80847,1.22117 9.77787,4.42848 0.82958,0.89605 1.80367,2.212 2.16464,2.92435 0.74289,1.46602 1.43654,4.14348 1.44238,5.56749 0.003,0.79235 0.31986,1.33285 1.85991,3.175 2.23795,2.67698 4.48383,7.03181 5.30673,10.28989 1.41759,5.61259 0.70743,12.61794 -1.77767,17.53575 l -0.63867,1.26386 0.63605,0.8528 c 0.88409,1.18538 1.8369,4.25012 1.8369,5.90846 0,1.67402 -0.9541,3.78596 -1.92768,4.26701 -1.01877,0.50337 -4.87669,0.43776 -5.31502,-0.0904 -0.27135,-0.32696 -0.68778,-0.39723 -1.805,-0.30458 -0.79875,0.0662 -1.49867,0.25962 -1.55537,0.42974 -0.13413,0.40238 -0.75334,1.01742 -1.16119,1.15337 -0.2456,0.0819 -0.21242,0.71512 0.14123,2.69504 0.41848,2.3429 0.42357,2.64709 0.0537,3.21154 -0.23946,0.36546 -0.78687,0.69449 -1.32268,0.795 -0.84528,0.15858 -0.92017,0.25219 -0.99419,1.24269 -0.0609,0.81449 -0.25897,1.20434 -0.82667,1.62681 -0.6852,0.5099 -1.13144,0.5599 -5.42396,0.6077 -2.57254,0.0286 -5.14426,-0.063 -5.71495,-0.20374 z m 8.58052,-1.43535 c 0.80162,-0.0852 1.59967,-0.24278 1.77345,-0.35018 0.2389,-0.14765 0.25722,-1.0322 0.0751,-3.62696 -0.13245,-1.88743 -0.37228,-5.51278 -0.53294,-8.05634 -0.17099,-2.70703 -0.41046,-4.69779 -0.57751,-4.80103 -0.94903,-0.58653 -5.62953,-0.55742 -10.2654,0.0638 -3.05918,0.40996 -2.96203,0.3477 -2.77266,1.777 0.68523,5.17213 2.31473,12.71711 3.03867,14.06979 0.15032,0.28087 0.87407,0.54719 2.03418,0.74849 3.24994,0.56395 3.51146,0.57029 7.22709,0.17539 z m 3.90032,-3.20997 c 0.69667,-0.1867 0.73396,-0.61161 0.28971,-3.30161 -0.29246,-1.7709 -0.33515,-1.84709 -0.99219,-1.77076 -0.57233,0.0665 -0.70137,0.23386 -0.77544,1.0058 -0.14321,1.49246 0.22811,4.23375 0.57294,4.22972 0.17032,-0.002 0.57756,-0.0754 0.90498,-0.16315 z m 10.61111,-7.6186 c 1.43675,-0.74297 1.72663,-2.6825 0.86523,-5.78899 -0.56666,-2.04354 -1.15073,-2.82981 -2.10212,-2.82981 -0.81835,0 -4.68926,1.5199 -5.08484,1.99655 -0.20476,0.24672 -0.20951,0.79421 -0.0164,1.88747 0.14962,0.84696 0.34314,2.10548 0.43005,2.79671 l 0.15803,1.25677 2.43118,0.027 c 2.08107,0.0231 2.29782,0.0648 1.50514,0.28949 -1.9433,0.55082 -2.03935,0.70537 -0.44988,0.72392 0.84607,0.01 1.86159,-0.15124 2.26359,-0.35912 z m -3.87643,-3.10142 c 0.46432,-0.16984 1.11434,-0.17245 1.85208,-0.007 1.10686,0.24756 1.0881,0.25442 -0.7154,0.26168 -1.52146,0.006 -1.72437,-0.0393 -1.13668,-0.25423 z m -0.31853,-1.54863 c 0.21828,-0.14107 0.93266,-0.24644 1.5875,-0.23416 0.98705,0.0185 1.07753,0.0585 0.52917,0.23416 -1.00024,0.32033 -2.61235,0.32033 -2.11667,0 z m -0.79375,-0.89561 c 0,-0.25883 1.28995,-0.90437 2.12055,-1.06121 l 0.92216,-0.17412 -1.19063,0.65664 c -1.08651,0.59922 -1.85208,0.83842 -1.85208,0.57869 z m -2.00734,3.01227 c -0.0277,-2.71438 -0.53366,-3.96875 -1.60078,-3.96875 -0.62657,0 -0.67133,0.0723 -0.53224,0.8599 0.0835,0.47294 0.29426,1.90778 0.4683,3.18852 0.31004,2.28145 0.33034,2.32702 1.00207,2.24896 0.67982,-0.079 0.68542,-0.0987 0.66265,-2.32863 z m -6.90803,-6.28385 c -0.49694,-1.37356 -2.18922,-4.78395 -2.65201,-5.34449 -0.50424,-0.61073 -0.57144,-0.62416 -1.1646,-0.23268 -0.9336,0.61615 -2.12131,1.866 -2.34561,2.46832 -0.16473,0.44235 0.025,0.65249 1.15641,1.2809 0.74441,0.41346 2.18691,1.08694 3.20555,1.49663 1.01865,0.40969 1.87812,0.75602 1.90993,0.76962 0.0318,0.0136 -0.0175,-0.18364 -0.10967,-0.4383 z m 1.60757,-1.05833 c 0.0934,-0.54571 0.24152,-2.06375 0.32922,-3.37344 l 0.15944,-2.38125 -1.17288,-0.46948 c -1.07469,-0.43017 -1.2544,-0.43541 -2.14668,-0.0626 -0.53559,0.22378 -0.9738,0.46068 -0.9738,0.52643 0,0.0658 0.32742,0.64181 0.7276,1.28013 0.40019,0.63832 1.14433,2.12936 1.65365,3.31342 0.50932,1.18406 0.99976,2.15421 1.08986,2.1559 0.0901,0.002 0.24022,-0.44342 0.33359,-0.98912 z m -1.15887,-2.31511 c 0,-0.21828 0.1786,-0.39687 0.39688,-0.39687 0.21828,0 0.39687,0.17859 0.39687,0.39687 0,0.21828 -0.17859,0.39688 -0.39687,0.39688 -0.21828,0 -0.39688,-0.1786 -0.39688,-0.39688 z m -0.52916,-2.38125 c 0,-0.21828 0.17859,-0.39687 0.39687,-0.39687 0.21828,0 0.39688,0.17859 0.39688,0.39687 0,0.21828 -0.1786,0.39688 -0.39688,0.39688 -0.21828,0 -0.39687,-0.1786 -0.39687,-0.39688 z m 4.37978,2.16747 c 1.18507,-1.98923 1.21347,-2.08491 0.76571,-2.57968 -0.45045,-0.49774 -2.22966,-0.74829 -2.23966,-0.31539 -0.0165,0.71336 -0.55905,5.32247 -0.67742,5.75469 -0.22172,0.80962 0.67761,-0.38578 2.15137,-2.85962 z m -14.21711,-7.78986 c 0.0706,-0.49688 -0.0391,-0.59532 -0.66321,-0.59532 -0.41126,0 -1.1558,-0.11702 -1.65452,-0.26005 -0.49872,-0.14304 -0.96139,-0.20545 -1.02814,-0.13869 -0.21669,0.21669 0.55886,0.95651 1.39113,1.32705 1.13858,0.50691 1.85273,0.38525 1.95474,-0.33299 z m 10.21762,-0.45585 0.77717,-0.63526 -1.04175,0.24158 c -0.57297,0.13288 -1.63707,0.24865 -2.36467,0.25728 -1.28163,0.0152 -1.30227,0.0275 -0.66146,0.39381 1.01507,0.58027 2.39827,0.47207 3.29071,-0.25741 z m -9.50842,-1.1978 c 0.0899,-0.14552 0.64987,-0.26458 1.24429,-0.26458 h 1.08077 l -1.17313,-0.89575 c -1.70191,-1.2995 -3.93005,-4.33546 -3.93005,-5.35488 0,-0.0719 0.72571,0.77135 1.61269,1.87393 1.81143,2.25174 3.31651,3.40261 5.41389,4.13978 1.79863,0.63217 2.55865,0.6292 4.65336,-0.0182 2.19955,-0.67977 3.97487,-1.82874 5.00303,-3.23791 1.1476,-1.57288 2.5096,-4.32878 2.98888,-6.0478 1.13859,-4.08373 1.17612,-10.59075 0.0735,-12.74437 -0.73568,-1.43692 -2.26515,-2.27906 -3.37697,-1.8594 -0.65857,0.24859 -0.75798,0.22398 -0.75798,-0.18768 0,-0.67581 0.51562,-1.01551 1.69117,-1.11417 l 1.02299,-0.0859 -1.747,-1.88397 c -2.49706,-2.69282 -5.7238,-4.07688 -9.47201,-4.06288 -2.8028,0.0105 -6.57272,1.97731 -8.93592,4.66204 -1.071306,1.21707 -1.100015,1.29755 -0.934733,2.62043 0.104492,0.83632 0.005,2.33645 -0.256938,3.87416 -0.382408,2.2449 -0.386398,2.70212 -0.03786,4.33833 0.355597,1.66936 0.351616,1.85783 -0.04562,2.1597 -0.673044,0.51146 -1.921374,0.42556 -1.922565,-0.13229 -0.0017,-0.78981 -1.007343,-2.16018 -1.715732,-2.33798 -0.948239,-0.23799 -2.225574,0.36385 -2.811499,1.3247 -1.728016,2.83375 1.479749,7.66756 3.882337,5.85034 1.135692,-0.859 1.528081,-0.3322 0.643627,0.86409 -0.50866,0.688 -0.513834,0.78631 -0.120805,2.29525 0.549726,2.11054 1.929323,4.85981 2.688188,5.35704 1.49346,0.97855 4.83014,1.53121 5.24008,0.86791 z m 6.16235,-4.36535 c -0.80985,-0.45502 -2.47207,-2.72041 -2.19754,-2.99495 0.0987,-0.0986 0.42842,0.16255 0.73283,0.58043 0.77883,1.06916 1.87984,1.44702 4.81826,1.65357 2.34127,0.16457 2.52016,0.2151 2.13291,0.60245 -0.6025,0.60266 -4.49577,0.71513 -5.48646,0.1585 z m 1.51057,-2.49664 c -1.1896,-0.2896 -2.46407,-1.01786 -2.76486,-1.57989 -0.25609,-0.4785 -0.21681,-0.48379 0.96025,-0.12955 0.67499,0.20314 2.08778,0.36935 3.13954,0.36935 h 1.9123 l 0.1165,0.79375 0.11649,0.79375 -1.34323,-0.0271 c -0.73879,-0.0149 -1.70043,-0.11404 -2.13699,-0.22032 z m 4.10104,-0.5413 c 0,-0.64155 0.13575,-0.8214 0.7276,-0.96389 0.40019,-0.0964 1.30499,-0.46382 2.01069,-0.81658 0.70569,-0.35277 1.33106,-0.59341 1.38971,-0.53476 0.2647,0.26469 -1.45619,2.08756 -2.4256,2.56933 -1.44008,0.71569 -1.7024,0.67653 -1.7024,-0.2541 z m -3.67657,-2.07015 c -0.36397,-0.68008 -0.3776,-1.55504 -0.0276,-1.77135 0.14552,-0.0899 0.26459,0.0136 0.26459,0.23007 0,0.21647 0.1903,0.58389 0.42288,0.81647 0.51666,0.51667 1.72699,0.34453 3.71819,-0.52882 2.02899,-0.88992 2.04361,-1.32347 0.12816,-3.79952 -1.71096,-2.21172 -2.51266,-3.84659 -2.37078,-4.8347 0.0757,-0.5272 0.17243,-0.44364 0.67921,0.58667 0.32502,0.66078 1.277,2.01181 2.1155,3.00229 2.75338,3.25243 2.54675,2.85918 2.08409,3.96648 -0.33564,0.80329 -0.71246,1.1192 -2.12152,1.77858 -0.94237,0.44099 -2.363,0.86884 -3.15697,0.95078 -1.27178,0.13126 -1.47835,0.084 -1.73575,-0.39695 z m -18.909033,-2.7975 c -0.10763,-0.41886 -0.11667,-1.12134 -0.02009,-1.56107 0.146192,-0.66561 0.104151,-0.7721 -0.25102,-0.63581 -0.501957,0.19262 -0.56067,-0.10896 -0.109122,-0.56051 0.929109,-0.92911 2.858682,0.20851 2.856186,1.68392 l -0.0013,0.7767 -0.640396,-0.79375 c -0.755463,-0.93637 -1.087035,-0.74932 -1.415148,0.79832 -0.223397,1.05372 -0.223413,1.05374 -0.419097,0.2922 z m 14.449663,-3.63279 c -0.61051,-0.17819 -0.85989,-0.409 -0.85989,-0.79584 0,-0.48811 0.10906,-0.52643 1.04717,-0.36794 0.57595,0.0973 1.28136,0.10259 1.5676,0.0118 0.50717,-0.16098 0.50356,-0.20199 -0.14207,-1.61223 -0.36437,-0.79588 -0.61055,-1.59437 -0.54708,-1.77443 0.0635,-0.18005 0.29838,0.0893 0.52203,0.59867 0.22365,0.50932 0.71217,1.32969 1.08561,1.82304 0.65174,0.86102 0.64126,1.57325 -0.029,1.96757 -0.50859,0.29923 -1.86796,0.37603 -2.64441,0.14941 z m 10.54478,-0.74237 c -0.64585,-0.40895 -0.11987,-1.08098 0.84605,-1.08098 1.17829,0 1.26869,-0.13853 0.80878,-1.23927 -0.21407,-0.51233 -0.35276,-1.16947 -0.30821,-1.46031 0.0562,-0.36683 0.34425,0.007 0.94047,1.22183 l 0.85947,1.75063 -0.85947,0.52403 c -0.92291,0.5627 -1.69549,0.65867 -2.28709,0.28407 z m -15.47244,-4.73132 c -0.3433,-0.55546 0.76864,-2.57979 1.75028,-3.18648 1.43407,-0.8863 3.11124,-0.66667 3.11124,0.40744 0,0.23238 -0.39484,0.34396 -1.21709,0.34396 -1.02885,0 -1.34598,0.13397 -2.05052,0.86625 -0.45839,0.47644 -0.96111,1.09461 -1.11716,1.3737 -0.19807,0.35425 -0.34201,0.41316 -0.47675,0.19513 z m -9.762735,0.19438 c 0.435874,-1.03374 2.082724,-2.33853 3.394363,-2.68934 1.3049,-0.349 1.599614,-1.00184 0.448118,-0.99264 -1.026579,0.008 -2.711688,0.84458 -3.593076,1.78337 -1.045767,1.11388 -1.595167,3.90385 -1.037132,5.26678 0.133694,0.32653 0.247946,-0.0333 0.350179,-1.10284 0.08346,-0.87312 0.280354,-1.89252 0.437548,-2.26533 z M 98.24519,114.674 c 0.574041,-0.57404 1.89538,-1.50371 2.93631,-2.06594 3.02038,-1.63138 2.32085,-2.06473 -0.86184,-0.53392 -1.753817,0.84355 -4.65389,3.22584 -4.65389,3.82298 0,0.53638 1.559335,-0.20303 2.57942,-1.22312 z"
         id="path2439"
         inkscape:connector-curvature="0" />
      <path
         style="fill:#d03833;stroke-width:0.26458332"
         d="m 105.34378,175.70698 c -0.57069,-0.14071 -1.17693,-0.37145 -1.3472,-0.51276 -0.17027,-0.14132 -0.76601,-1.74627 -1.32387,-3.56657 -0.99353,-3.24191 -1.02998,-3.30964 -1.78115,-3.30964 -1.406219,0 -7.535124,-2.39177 -8.783227,-3.4276 -0.213398,-0.17711 -0.434463,-1.17489 -0.547171,-2.46968 -0.18515,-2.12701 -0.215187,-2.20022 -1.433943,-3.49543 -3.070036,-3.26261 -5.01631,-6.64578 -6.219577,-10.81137 -0.616428,-2.13401 -0.677288,-2.77922 -0.677288,-7.1803 0,-4.37758 0.06288,-5.05258 0.663872,-7.12648 1.145918,-3.95432 3.173032,-7.44726 6.075239,-10.46831 1.490644,-1.55168 1.694489,-1.90083 2.085381,-3.57187 0.333313,-1.4249 0.631885,-2.04099 1.294478,-2.6711 0.473681,-0.45046 1.155033,-1.39083 1.514115,-2.08972 0.813024,-1.58242 2.204896,-2.637 5.936631,-4.49805 3.79184,-1.89102 5.92675,-2.36597 9.78732,-2.17739 4.60931,0.22516 6.80847,1.22117 9.77787,4.42848 0.82958,0.89605 1.80367,2.212 2.16464,2.92435 0.74289,1.46602 1.43654,4.14348 1.44238,5.56749 0.003,0.79235 0.31986,1.33285 1.85991,3.175 2.23795,2.67698 4.48383,7.03181 5.30673,10.28989 1.41759,5.61259 0.70743,12.61794 -1.77767,17.53575 l -0.63867,1.26386 0.63605,0.8528 c 0.88409,1.18538 1.8369,4.25012 1.8369,5.90846 0,1.67402 -0.9541,3.78596 -1.92768,4.26701 -1.01877,0.50337 -4.87669,0.43776 -5.31502,-0.0904 -0.27135,-0.32696 -0.68778,-0.39723 -1.805,-0.30458 -0.79875,0.0662 -1.49867,0.25962 -1.55537,0.42974 -0.13413,0.40238 -0.75334,1.01742 -1.16119,1.15337 -0.2456,0.0819 -0.21242,0.71512 0.14123,2.69504 0.41848,2.3429 0.42357,2.64709 0.0537,3.21154 -0.23946,0.36546 -0.78687,0.69449 -1.32268,0.795 -0.84528,0.15858 -0.92017,0.25219 -0.99419,1.24269 -0.0609,0.81449 -0.25897,1.20434 -0.82667,1.62681 -0.6852,0.5099 -1.13144,0.5599 -5.42396,0.6077 -2.57254,0.0286 -5.14426,-0.063 -5.71495,-0.20374 z m 8.58052,-1.43535 c 0.80162,-0.0852 1.59967,-0.24278 1.77345,-0.35018 0.2389,-0.14765 0.25722,-1.0322 0.0751,-3.62696 -0.13245,-1.88743 -0.37228,-5.51278 -0.53294,-8.05634 -0.17099,-2.70703 -0.41046,-4.69779 -0.57751,-4.80103 -0.94903,-0.58653 -5.62953,-0.55742 -10.2654,0.0638 -3.05918,0.40996 -2.96203,0.3477 -2.77266,1.777 0.68523,5.17213 2.31473,12.71711 3.03867,14.06979 0.15032,0.28087 0.87407,0.54719 2.03418,0.74849 3.24994,0.56395 3.51146,0.57029 7.22709,0.17539 z m 3.90032,-3.20997 c 0.69667,-0.1867 0.73396,-0.61161 0.28971,-3.30161 -0.29246,-1.7709 -0.33515,-1.84709 -0.99219,-1.77076 -0.57233,0.0665 -0.70137,0.23386 -0.77544,1.0058 -0.14321,1.49246 0.22811,4.23375 0.57294,4.22972 0.17032,-0.002 0.57756,-0.0754 0.90498,-0.16315 z m 10.61111,-7.6186 c 1.43675,-0.74297 1.72663,-2.6825 0.86523,-5.78899 -0.56666,-2.04354 -1.15073,-2.82981 -2.10212,-2.82981 -0.81835,0 -4.68926,1.5199 -5.08484,1.99655 -0.20476,0.24672 -0.20951,0.79421 -0.0164,1.88747 0.14962,0.84696 0.34314,2.10548 0.43005,2.79671 l 0.15803,1.25677 2.43118,0.027 c 2.08107,0.0231 2.29782,0.0648 1.50514,0.28949 -1.9433,0.55082 -2.03935,0.70537 -0.44988,0.72392 0.84607,0.01 1.86159,-0.15124 2.26359,-0.35912 z m -3.87643,-3.10142 c 0.46432,-0.16984 1.11434,-0.17245 1.85208,-0.007 1.10686,0.24756 1.0881,0.25442 -0.7154,0.26168 -1.52146,0.006 -1.72437,-0.0393 -1.13668,-0.25423 z m -0.31853,-1.54863 c 0.21828,-0.14107 0.93266,-0.24644 1.5875,-0.23416 0.98705,0.0185 1.07753,0.0585 0.52917,0.23416 -1.00024,0.32033 -2.61235,0.32033 -2.11667,0 z m -0.79375,-0.89561 c 0,-0.25883 1.28995,-0.90437 2.12055,-1.06121 l 0.92216,-0.17412 -1.19063,0.65664 c -1.08651,0.59922 -1.85208,0.83842 -1.85208,0.57869 z m -29.475677,4.40134 c 0.252359,-1.66856 -0.245643,-6.76119 -1.093147,-11.17865 -0.376902,-1.96453 -0.748646,-3.93261 -0.826098,-4.37351 l -0.140822,-0.80163 3.871707,-1.69741 3.871706,-1.69742 -0.919095,-0.91909 -0.919096,-0.9191 -1.67442,0.82431 c -0.920931,0.45338 -2.76392,1.60902 -4.095532,2.56811 l -2.421112,1.74379 0.623112,1.53348 c 1.345171,3.31049 2.771391,10.6628 2.771391,14.28681 0,0.84386 0.07937,1.61368 0.176389,1.71069 0.394022,0.39402 0.594233,0.11492 0.775017,-1.08038 z m 27.468337,-1.38907 c -0.0277,-2.71438 -0.53366,-3.96875 -1.60078,-3.96875 -0.62657,0 -0.67133,0.0723 -0.53224,0.8599 0.0835,0.47294 0.29426,1.90778 0.4683,3.18852 0.31004,2.28145 0.33034,2.32702 1.00207,2.24896 0.67982,-0.079 0.68542,-0.0987 0.66265,-2.32863 z m -4.14422,-1.75426 c 0.43918,-0.11769 0.59531,-0.35552 0.59531,-0.90681 0,-0.89998 -0.28419,-1.11466 -1.17846,-0.89021 -0.55613,0.13958 -0.67362,0.32558 -0.67362,1.06643 0,0.92576 0.16676,1.0227 1.25677,0.73059 z m -16.38743,-0.56084 c -0.0712,-0.37396 -0.4185,-0.47843 -1.805334,-0.54314 -1.336779,-0.0624 -1.646856,-0.01 -1.399858,0.2379 0.174502,0.17491 0.769814,0.40563 1.322916,0.51271 1.696216,0.32839 1.978436,0.29729 1.882276,-0.20747 z m 1.31609,-4.67875 c 0.0534,-1.81618 -0.0253,-2.70782 -0.26459,-2.99703 -0.29162,-0.35245 -0.36637,-0.24384 -0.51946,0.7547 -0.23322,1.52119 -0.26248,4.05005 -0.0532,4.59552 0.0907,0.23633 0.29905,0.38525 0.46302,0.33092 0.1868,-0.0619 0.32653,-1.06425 0.37419,-2.68411 z m 12.30753,0.71 c -0.49694,-1.37356 -2.18922,-4.78395 -2.65201,-5.34449 -0.50424,-0.61073 -0.57144,-0.62416 -1.1646,-0.23268 -0.9336,0.61615 -2.12131,1.866 -2.34561,2.46832 -0.16473,0.44235 0.025,0.65249 1.15641,1.2809 0.74441,0.41346 2.18691,1.08694 3.20555,1.49663 1.01865,0.40969 1.87812,0.75602 1.90993,0.76962 0.0318,0.0136 -0.0175,-0.18364 -0.10967,-0.4383 z m 1.60757,-1.05833 c 0.0934,-0.54571 0.24152,-2.06375 0.32922,-3.37344 l 0.15944,-2.38125 -1.17288,-0.46948 c -1.07469,-0.43017 -1.2544,-0.43541 -2.14668,-0.0626 -0.53559,0.22378 -0.9738,0.46068 -0.9738,0.52643 0,0.0658 0.32742,0.64181 0.7276,1.28013 0.40019,0.63832 1.14433,2.12936 1.65365,3.31342 0.50932,1.18406 0.99976,2.15421 1.08986,2.1559 0.0901,0.002 0.24022,-0.44342 0.33359,-0.98912 z m -1.15887,-2.31511 c 0,-0.21828 0.1786,-0.39687 0.39688,-0.39687 0.21828,0 0.39687,0.17859 0.39687,0.39687 0,0.21828 -0.17859,0.39688 -0.39687,0.39688 -0.21828,0 -0.39688,-0.1786 -0.39688,-0.39688 z m -0.52916,-2.38125 c 0,-0.21828 0.17859,-0.39687 0.39687,-0.39687 0.21828,0 0.39688,0.17859 0.39688,0.39687 0,0.21828 -0.1786,0.39688 -0.39688,0.39688 -0.21828,0 -0.39687,-0.1786 -0.39687,-0.39688 z m 4.46136,2.17816 c 0.60219,-0.98483 1.09489,-1.96404 1.09489,-2.17602 0,-0.80899 -2.63002,-1.51543 -2.65042,-0.71191 -0.0172,0.67665 -0.55439,5.24759 -0.68431,5.82253 -0.14944,0.66137 -0.11696,0.64699 0.49247,-0.21797 0.35887,-0.50932 1.14518,-1.73181 1.74737,-2.71663 z m 5.32822,-7.05003 c 0,-0.29355 -0.911,-1.35257 -2.16834,-2.52067 -2.15375,-2.00087 -2.17182,-2.01093 -2.68703,-1.49572 -0.51522,0.51522 -0.51276,0.52372 0.36605,1.2639 1.59191,1.3408 4.08814,3.22763 4.29088,3.24335 0.10914,0.008 0.19844,-0.21242 0.19844,-0.49086 z m -19.62691,-0.75052 c 0.0706,-0.49688 -0.0391,-0.59532 -0.66321,-0.59532 -0.41126,0 -1.1558,-0.11702 -1.65452,-0.26005 -0.49872,-0.14304 -0.96139,-0.20545 -1.02814,-0.13869 -0.21669,0.21669 0.55886,0.95651 1.39113,1.32705 1.13858,0.50691 1.85273,0.38525 1.95474,-0.33299 z m 10.21762,-0.45585 0.77717,-0.63526 -1.04175,0.24158 c -0.57297,0.13288 -1.63707,0.24865 -2.36467,0.25728 -1.28163,0.0152 -1.30227,0.0275 -0.66146,0.39381 1.01507,0.58027 2.39827,0.47207 3.29071,-0.25741 z m -9.50842,-1.1978 c 0.0899,-0.14552 0.64987,-0.26458 1.24429,-0.26458 h 1.08077 l -1.17313,-0.89575 c -1.70191,-1.2995 -3.93005,-4.33546 -3.93005,-5.35488 0,-0.0719 0.72571,0.77135 1.61269,1.87393 1.81143,2.25174 3.31651,3.40261 5.41389,4.13978 1.79863,0.63217 2.55865,0.6292 4.65336,-0.0182 2.19955,-0.67977 3.97487,-1.82874 5.00303,-3.23791 1.1476,-1.57288 2.5096,-4.32878 2.98888,-6.0478 1.13859,-4.08373 1.17612,-10.59075 0.0735,-12.74437 -0.73568,-1.43692 -2.26515,-2.27906 -3.37697,-1.8594 -0.65857,0.24859 -0.75798,0.22398 -0.75798,-0.18768 0,-0.67581 0.51562,-1.01551 1.69117,-1.11417 l 1.02299,-0.0859 -1.747,-1.88397 c -2.49706,-2.69282 -5.7238,-4.07688 -9.47201,-4.06288 -2.8028,0.0105 -6.57272,1.97731 -8.93592,4.66204 -1.071306,1.21707 -1.100015,1.29755 -0.934733,2.62043 0.104492,0.83632 0.005,2.33645 -0.256938,3.87416 -0.382408,2.2449 -0.386398,2.70212 -0.03786,4.33833 0.355597,1.66936 0.351616,1.85783 -0.04562,2.1597 -0.673044,0.51146 -1.921374,0.42556 -1.922565,-0.13229 -0.0017,-0.78981 -1.007343,-2.16018 -1.715732,-2.33798 -0.948239,-0.23799 -2.225574,0.36385 -2.811499,1.3247 -1.728016,2.83375 1.479749,7.66756 3.882337,5.85034 1.135692,-0.859 1.528081,-0.3322 0.643627,0.86409 -0.50866,0.688 -0.513834,0.78631 -0.120805,2.29525 0.549726,2.11054 1.929323,4.85981 2.688188,5.35704 1.49346,0.97855 4.83014,1.53121 5.24008,0.86791 z m 6.16235,-4.36535 c -0.80985,-0.45502 -2.47207,-2.72041 -2.19754,-2.99495 0.0987,-0.0986 0.42842,0.16255 0.73283,0.58043 0.77883,1.06916 1.87984,1.44702 4.81826,1.65357 2.34127,0.16457 2.52016,0.2151 2.13291,0.60245 -0.6025,0.60266 -4.49577,0.71513 -5.48646,0.1585 z m 1.51057,-2.49664 c -1.1896,-0.2896 -2.46407,-1.01786 -2.76486,-1.57989 -0.25609,-0.4785 -0.21681,-0.48379 0.96025,-0.12955 0.67499,0.20314 2.08778,0.36935 3.13954,0.36935 h 1.9123 l 0.1165,0.79375 0.11649,0.79375 -1.34323,-0.0271 c -0.73879,-0.0149 -1.70043,-0.11404 -2.13699,-0.22032 z m 4.10104,-0.5413 c 0,-0.64155 0.13575,-0.8214 0.7276,-0.96389 0.40019,-0.0964 1.30499,-0.46382 2.01069,-0.81658 0.70569,-0.35277 1.33106,-0.59341 1.38971,-0.53476 0.2647,0.26469 -1.45619,2.08756 -2.4256,2.56933 -1.44008,0.71569 -1.7024,0.67653 -1.7024,-0.2541 z m -3.67657,-2.07015 c -0.36397,-0.68008 -0.3776,-1.55504 -0.0276,-1.77135 0.14552,-0.0899 0.26459,0.0136 0.26459,0.23007 0,0.21647 0.1903,0.58389 0.42288,0.81647 0.51666,0.51667 1.72699,0.34453 3.71819,-0.52882 2.02899,-0.88992 2.04361,-1.32347 0.12816,-3.79952 -1.71096,-2.21172 -2.51266,-3.84659 -2.37078,-4.8347 0.0757,-0.5272 0.17243,-0.44364 0.67921,0.58667 0.32502,0.66078 1.277,2.01181 2.1155,3.00229 2.75338,3.25243 2.54675,2.85918 2.08409,3.96648 -0.33564,0.80329 -0.71246,1.1192 -2.12152,1.77858 -0.94237,0.44099 -2.363,0.86884 -3.15697,0.95078 -1.27178,0.13126 -1.47835,0.084 -1.73575,-0.39695 z m -18.909033,-2.7975 c -0.10763,-0.41886 -0.11667,-1.12134 -0.02009,-1.56107 0.146192,-0.66561 0.104151,-0.7721 -0.25102,-0.63581 -0.501957,0.19262 -0.56067,-0.10896 -0.109122,-0.56051 0.929109,-0.92911 2.858682,0.20851 2.856186,1.68392 l -0.0013,0.7767 -0.640396,-0.79375 c -0.755463,-0.93637 -1.087035,-0.74932 -1.415148,0.79832 -0.223397,1.05372 -0.223413,1.05374 -0.419097,0.2922 z m 14.449663,-3.63279 c -0.61051,-0.17819 -0.85989,-0.409 -0.85989,-0.79584 0,-0.48811 0.10906,-0.52643 1.04717,-0.36794 0.57595,0.0973 1.28136,0.10259 1.5676,0.0118 0.50717,-0.16098 0.50356,-0.20199 -0.14207,-1.61223 -0.36437,-0.79588 -0.61055,-1.59437 -0.54708,-1.77443 0.0635,-0.18005 0.29838,0.0893 0.52203,0.59867 0.22365,0.50932 0.71217,1.32969 1.08561,1.82304 0.65174,0.86102 0.64126,1.57325 -0.029,1.96757 -0.50859,0.29923 -1.86796,0.37603 -2.64441,0.14941 z m 10.54478,-0.74237 c -0.64585,-0.40895 -0.11987,-1.08098 0.84605,-1.08098 1.17829,0 1.26869,-0.13853 0.80878,-1.23927 -0.21407,-0.51233 -0.35276,-1.16947 -0.30821,-1.46031 0.0562,-0.36683 0.34425,0.007 0.94047,1.22183 l 0.85947,1.75063 -0.85947,0.52403 c -0.92291,0.5627 -1.69549,0.65867 -2.28709,0.28407 z m -15.47244,-4.73132 c -0.3433,-0.55546 0.76864,-2.57979 1.75028,-3.18648 1.43407,-0.8863 3.11124,-0.66667 3.11124,0.40744 0,0.23238 -0.39484,0.34396 -1.21709,0.34396 -1.02885,0 -1.34598,0.13397 -2.05052,0.86625 -0.45839,0.47644 -0.96111,1.09461 -1.11716,1.3737 -0.19807,0.35425 -0.34201,0.41316 -0.47675,0.19513 z m -9.762735,0.19438 c 0.435874,-1.03374 2.082724,-2.33853 3.394363,-2.68934 1.3049,-0.349 1.599614,-1.00184 0.448118,-0.99264 -1.026579,0.008 -2.711688,0.84458 -3.593076,1.78337 -1.045767,1.11388 -1.595167,3.90385 -1.037132,5.26678 0.133694,0.32653 0.247946,-0.0333 0.350179,-1.10284 0.08346,-0.87312 0.280354,-1.89252 0.437548,-2.26533 z M 98.24519,114.674 c 0.574041,-0.57404 1.89538,-1.50371 2.93631,-2.06594 3.02038,-1.63138 2.32085,-2.06473 -0.86184,-0.53392 -1.753817,0.84355 -4.65389,3.22584 -4.65389,3.82298 0,0.53638 1.559335,-0.20303 2.57942,-1.22312 z"
         id="path2437"
         inkscape:connector-curvature="0" />
      <path
         style="fill:#656262;stroke-width:0.26458332"
         d="m 105.34378,175.70698 c -0.57069,-0.14071 -1.17693,-0.37145 -1.3472,-0.51276 -0.17027,-0.14132 -0.76601,-1.74627 -1.32387,-3.56657 -0.99353,-3.24191 -1.02998,-3.30964 -1.78115,-3.30964 -1.406219,0 -7.535124,-2.39177 -8.783227,-3.4276 -0.213398,-0.17711 -0.434463,-1.17489 -0.547171,-2.46968 -0.18515,-2.12701 -0.215187,-2.20022 -1.433943,-3.49543 -3.070036,-3.26261 -5.01631,-6.64578 -6.219577,-10.81137 -0.616428,-2.13401 -0.677288,-2.77922 -0.677288,-7.1803 0,-4.37758 0.06288,-5.05258 0.663872,-7.12648 1.145918,-3.95432 3.173032,-7.44726 6.075239,-10.46831 1.490644,-1.55168 1.694489,-1.90083 2.085381,-3.57187 0.333313,-1.4249 0.631885,-2.04099 1.294478,-2.6711 0.473681,-0.45046 1.155033,-1.39083 1.514115,-2.08972 0.813024,-1.58242 2.204896,-2.637 5.936631,-4.49805 3.79184,-1.89102 5.92675,-2.36597 9.78732,-2.17739 4.60931,0.22516 6.80847,1.22117 9.77787,4.42848 0.82958,0.89605 1.80367,2.212 2.16464,2.92435 0.74289,1.46602 1.43654,4.14348 1.44238,5.56749 0.003,0.79235 0.31986,1.33285 1.85991,3.175 2.23795,2.67698 4.48383,7.03181 5.30673,10.28989 1.41759,5.61259 0.70743,12.61794 -1.77767,17.53575 l -0.63867,1.26386 0.63605,0.8528 c 0.88409,1.18538 1.8369,4.25012 1.8369,5.90846 0,1.67402 -0.9541,3.78596 -1.92768,4.26701 -1.01877,0.50337 -4.87669,0.43776 -5.31502,-0.0904 -0.27135,-0.32696 -0.68778,-0.39723 -1.805,-0.30458 -0.79875,0.0662 -1.49867,0.25962 -1.55537,0.42974 -0.13413,0.40238 -0.75334,1.01742 -1.16119,1.15337 -0.2456,0.0819 -0.21242,0.71512 0.14123,2.69504 0.41848,2.3429 0.42357,2.64709 0.0537,3.21154 -0.23946,0.36546 -0.78687,0.69449 -1.32268,0.795 -0.84528,0.15858 -0.92017,0.25219 -0.99419,1.24269 -0.0609,0.81449 -0.25897,1.20434 -0.82667,1.62681 -0.6852,0.5099 -1.13144,0.5599 -5.42396,0.6077 -2.57254,0.0286 -5.14426,-0.063 -5.71495,-0.20374 z m 8.58052,-1.43535 c 0.80162,-0.0852 1.59967,-0.24278 1.77345,-0.35018 0.2389,-0.14765 0.25722,-1.0322 0.0751,-3.62696 -0.13245,-1.88743 -0.37228,-5.51278 -0.53294,-8.05634 -0.17099,-2.70703 -0.41046,-4.69779 -0.57751,-4.80103 -0.94903,-0.58653 -5.62953,-0.55742 -10.2654,0.0638 -3.05918,0.40996 -2.96203,0.3477 -2.77266,1.777 0.68523,5.17213 2.31473,12.71711 3.03867,14.06979 0.15032,0.28087 0.87407,0.54719 2.03418,0.74849 3.24994,0.56395 3.51146,0.57029 7.22709,0.17539 z m 3.90032,-3.20997 c 0.69667,-0.1867 0.73396,-0.61161 0.28971,-3.30161 -0.29246,-1.7709 -0.33515,-1.84709 -0.99219,-1.77076 -0.57233,0.0665 -0.70137,0.23386 -0.77544,1.0058 -0.14321,1.49246 0.22811,4.23375 0.57294,4.22972 0.17032,-0.002 0.57756,-0.0754 0.90498,-0.16315 z m 10.61111,-7.6186 c 1.43675,-0.74297 1.72663,-2.6825 0.86523,-5.78899 -0.56666,-2.04354 -1.15073,-2.82981 -2.10212,-2.82981 -0.81835,0 -4.68926,1.5199 -5.08484,1.99655 -0.20476,0.24672 -0.20951,0.79421 -0.0164,1.88747 0.14962,0.84696 0.34314,2.10548 0.43005,2.79671 l 0.15803,1.25677 2.43118,0.027 c 2.08107,0.0231 2.29782,0.0648 1.50514,0.28949 -1.9433,0.55082 -2.03935,0.70537 -0.44988,0.72392 0.84607,0.01 1.86159,-0.15124 2.26359,-0.35912 z m -3.87643,-3.10142 c 0.46432,-0.16984 1.11434,-0.17245 1.85208,-0.007 1.10686,0.24756 1.0881,0.25442 -0.7154,0.26168 -1.52146,0.006 -1.72437,-0.0393 -1.13668,-0.25423 z m -0.31853,-1.54863 c 0.21828,-0.14107 0.93266,-0.24644 1.5875,-0.23416 0.98705,0.0185 1.07753,0.0585 0.52917,0.23416 -1.00024,0.32033 -2.61235,0.32033 -2.11667,0 z m -0.79375,-0.89561 c 0,-0.25883 1.28995,-0.90437 2.12055,-1.06121 l 0.92216,-0.17412 -1.19063,0.65664 c -1.08651,0.59922 -1.85208,0.83842 -1.85208,0.57869 z m -29.475677,4.40134 c 0.252359,-1.66856 -0.245643,-6.76119 -1.093147,-11.17865 -0.376902,-1.96453 -0.748646,-3.93261 -0.826098,-4.37351 l -0.140822,-0.80163 3.871707,-1.69741 3.871706,-1.69742 -0.919095,-0.91909 -0.919096,-0.9191 -1.67442,0.82431 c -0.920931,0.45338 -2.76392,1.60902 -4.095532,2.56811 l -2.421112,1.74379 0.623112,1.53348 c 1.345171,3.31049 2.771391,10.6628 2.771391,14.28681 0,0.84386 0.07937,1.61368 0.176389,1.71069 0.394022,0.39402 0.594233,0.11492 0.775017,-1.08038 z m 27.468337,-1.38907 c -0.0277,-2.71438 -0.53366,-3.96875 -1.60078,-3.96875 -0.62657,0 -0.67133,0.0723 -0.53224,0.8599 0.0835,0.47294 0.29426,1.90778 0.4683,3.18852 0.31004,2.28145 0.33034,2.32702 1.00207,2.24896 0.67982,-0.079 0.68542,-0.0987 0.66265,-2.32863 z m -4.14422,-1.75426 c 0.43918,-0.11769 0.59531,-0.35552 0.59531,-0.90681 0,-0.89998 -0.28419,-1.11466 -1.17846,-0.89021 -0.55613,0.13958 -0.67362,0.32558 -0.67362,1.06643 0,0.92576 0.16676,1.0227 1.25677,0.73059 z m -16.38743,-0.56084 c -0.0712,-0.37396 -0.4185,-0.47843 -1.805334,-0.54314 -1.336779,-0.0624 -1.646856,-0.01 -1.399858,0.2379 0.174502,0.17491 0.769814,0.40563 1.322916,0.51271 1.696216,0.32839 1.978436,0.29729 1.882276,-0.20747 z m -9.891152,-3.16989 c -0.207327,-1.19472 -0.794144,-3.28587 -1.304039,-4.64701 -1.321869,-3.52867 -1.771828,-5.16284 -1.584268,-5.75379 0.157336,-0.49572 0.899363,-0.98503 6.459093,-4.25924 1.393323,-0.82055 2.569959,-1.67414 2.614746,-1.89686 0.04479,-0.22272 -0.208434,-0.98012 -0.562713,-1.68309 -0.354279,-0.70298 -0.725851,-1.63533 -0.825715,-2.07189 -0.139747,-0.61092 -0.467212,-0.92933 -1.421662,-1.38234 -2.639456,-1.25279 -3.987315,-5.37761 -2.690832,-8.2347 0.326358,-0.7192 0.439277,-1.29821 0.301273,-1.54481 -0.171833,-0.30705 -0.532397,-0.0229 -1.627375,1.28266 -2.910488,3.47012 -4.61341,6.92813 -5.440812,11.04828 -0.939434,4.67803 -0.131619,11.12884 1.901462,15.18414 1.186942,2.36753 4.185722,6.50294 4.492869,6.19579 0.03571,-0.0357 -0.104701,-1.04242 -0.312027,-2.23714 z m 11.207242,-1.50886 c 0.0534,-1.81618 -0.0253,-2.70782 -0.26459,-2.99703 -0.29162,-0.35245 -0.36637,-0.24384 -0.51946,0.7547 -0.23322,1.52119 -0.26248,4.05005 -0.0532,4.59552 0.0907,0.23633 0.29905,0.38525 0.46302,0.33092 0.1868,-0.0619 0.32653,-1.06425 0.37419,-2.68411 z m 12.30753,0.71 c -0.49694,-1.37356 -2.18922,-4.78395 -2.65201,-5.34449 -0.50424,-0.61073 -0.57144,-0.62416 -1.1646,-0.23268 -0.9336,0.61615 -2.12131,1.866 -2.34561,2.46832 -0.16473,0.44235 0.025,0.65249 1.15641,1.2809 0.74441,0.41346 2.18691,1.08694 3.20555,1.49663 1.01865,0.40969 1.87812,0.75602 1.90993,0.76962 0.0318,0.0136 -0.0175,-0.18364 -0.10967,-0.4383 z m 11.39169,-1.00889 c 0.96753,-0.17561 1.07499,-0.29805 2.04783,-2.33327 1.73845,-3.63691 2.18823,-5.76933 2.18307,-10.35003 -0.004,-3.54339 -0.0812,-4.22396 -0.72052,-6.35 -0.892,-2.96636 -2.39063,-5.97518 -4.05114,-8.1335 l -1.2741,-1.65608 -0.18374,2.24896 c -0.2479,3.0342 -1.11635,6.68149 -2.07213,8.70248 -0.43276,0.91508 -0.78684,1.87382 -0.78684,2.13054 0,0.25671 0.8632,1.21504 1.91823,2.12962 2.54121,2.20292 2.82528,2.65267 2.5598,4.05282 -0.2328,1.22776 -1.7642,6.19918 -2.77102,8.99562 -0.35677,0.99094 -0.64868,1.84755 -0.64868,1.90359 0,0.056 0.62508,-0.18101 1.38907,-0.52677 0.76398,-0.34576 1.84856,-0.71205 2.41017,-0.81398 z m -9.78412,-0.0494 c 0.0934,-0.54571 0.24152,-2.06375 0.32922,-3.37344 l 0.15944,-2.38125 -1.17288,-0.46948 c -1.07469,-0.43017 -1.2544,-0.43541 -2.14668,-0.0626 -0.53559,0.22378 -0.9738,0.46068 -0.9738,0.52643 0,0.0658 0.32742,0.64181 0.7276,1.28013 0.40019,0.63832 1.14433,2.12936 1.65365,3.31342 0.50932,1.18406 0.99976,2.15421 1.08986,2.1559 0.0901,0.002 0.24022,-0.44342 0.33359,-0.98912 z m -1.15887,-2.31511 c 0,-0.21828 0.1786,-0.39687 0.39688,-0.39687 0.21828,0 0.39687,0.17859 0.39687,0.39687 0,0.21828 -0.17859,0.39688 -0.39687,0.39688 -0.21828,0 -0.39688,-0.1786 -0.39688,-0.39688 z m -0.52916,-2.38125 c 0,-0.21828 0.17859,-0.39687 0.39687,-0.39687 0.21828,0 0.39688,0.17859 0.39688,0.39687 0,0.21828 -0.1786,0.39688 -0.39688,0.39688 -0.21828,0 -0.39687,-0.1786 -0.39687,-0.39688 z m 4.46136,2.17816 c 0.60219,-0.98483 1.09489,-1.96404 1.09489,-2.17602 0,-0.80899 -2.63002,-1.51543 -2.65042,-0.71191 -0.0172,0.67665 -0.55439,5.24759 -0.68431,5.82253 -0.14944,0.66137 -0.11696,0.64699 0.49247,-0.21797 0.35887,-0.50932 1.14518,-1.73181 1.74737,-2.71663 z m -10.03801,-1.95088 c 1.30511,-0.53435 3.1954,-2.16173 3.1954,-2.75097 0,-0.34496 -0.2712,-0.57635 -0.8599,-0.73366 l -0.8599,-0.22977 0.8599,-0.19569 c 0.47294,-0.10763 0.85485,-0.27553 0.84868,-0.37311 -0.0222,-0.35057 -4.77831,-2.42637 -5.5594,-2.42637 -1.07211,0 -1.41195,3.03444 -0.60959,5.44297 0.7149,2.146 0.77482,2.17143 2.98481,1.2666 z m 10.85338,-3.7654 c -0.0218,-1.78944 -0.52099,-3.05864 -1.24328,-3.1612 -0.74453,-0.10572 -3.50429,1.44161 -3.50429,1.96477 0,0.21229 0.26789,0.49366 0.59532,0.62527 0.45611,0.18333 0.48704,0.2432 0.13229,0.25605 -0.33173,0.012 -0.46302,0.23644 -0.46302,0.79149 0,0.7473 0.0538,0.78064 1.52135,0.94232 0.83675,0.0922 1.69995,0.19853 1.91823,0.23632 0.72206,0.12502 1.0586,-0.40879 1.0434,-1.65502 z m -5.78851,0.75069 c 0.61954,-0.33157 0.66541,-1.12131 0.0927,-1.5966 -0.54181,-0.44966 -1.33375,0.0137 -1.22202,0.71496 0.19554,1.22733 0.3126,1.31872 1.1293,0.88164 z m 10.30136,-2.08444 c 0,-0.29355 -0.911,-1.35257 -2.16834,-2.52067 -2.15375,-2.00087 -2.17182,-2.01093 -2.68703,-1.49572 -0.51522,0.51522 -0.51276,0.52372 0.36605,1.2639 1.59191,1.3408 4.08814,3.22763 4.29088,3.24335 0.10914,0.008 0.19844,-0.21242 0.19844,-0.49086 z m -19.62691,-0.75052 c 0.0706,-0.49688 -0.0391,-0.59532 -0.66321,-0.59532 -0.41126,0 -1.1558,-0.11702 -1.65452,-0.26005 -0.49872,-0.14304 -0.96139,-0.20545 -1.02814,-0.13869 -0.21669,0.21669 0.55886,0.95651 1.39113,1.32705 1.13858,0.50691 1.85273,0.38525 1.95474,-0.33299 z m 10.21762,-0.45585 0.77717,-0.63526 -1.04175,0.24158 c -0.57297,0.13288 -1.63707,0.24865 -2.36467,0.25728 -1.28163,0.0152 -1.30227,0.0275 -0.66146,0.39381 1.01507,0.58027 2.39827,0.47207 3.29071,-0.25741 z m -9.50842,-1.1978 c 0.0899,-0.14552 0.64987,-0.26458 1.24429,-0.26458 h 1.08077 l -1.17313,-0.89575 c -1.70191,-1.2995 -3.93005,-4.33546 -3.93005,-5.35488 0,-0.0719 0.72571,0.77135 1.61269,1.87393 1.81143,2.25174 3.31651,3.40261 5.41389,4.13978 1.79863,0.63217 2.55865,0.6292 4.65336,-0.0182 2.19955,-0.67977 3.97487,-1.82874 5.00303,-3.23791 1.1476,-1.57288 2.5096,-4.32878 2.98888,-6.0478 1.13859,-4.08373 1.17612,-10.59075 0.0735,-12.74437 -0.73568,-1.43692 -2.26515,-2.27906 -3.37697,-1.8594 -0.65857,0.24859 -0.75798,0.22398 -0.75798,-0.18768 0,-0.67581 0.51562,-1.01551 1.69117,-1.11417 l 1.02299,-0.0859 -1.747,-1.88397 c -2.49706,-2.69282 -5.7238,-4.07688 -9.47201,-4.06288 -2.8028,0.0105 -6.57272,1.97731 -8.93592,4.66204 -1.071306,1.21707 -1.100015,1.29755 -0.934733,2.62043 0.104492,0.83632 0.005,2.33645 -0.256938,3.87416 -0.382408,2.2449 -0.386398,2.70212 -0.03786,4.33833 0.355597,1.66936 0.351616,1.85783 -0.04562,2.1597 -0.673044,0.51146 -1.921374,0.42556 -1.922565,-0.13229 -0.0017,-0.78981 -1.007343,-2.16018 -1.715732,-2.33798 -0.948239,-0.23799 -2.225574,0.36385 -2.811499,1.3247 -1.728016,2.83375 1.479749,7.66756 3.882337,5.85034 1.135692,-0.859 1.528081,-0.3322 0.643627,0.86409 -0.50866,0.688 -0.513834,0.78631 -0.120805,2.29525 0.549726,2.11054 1.929323,4.85981 2.688188,5.35704 1.49346,0.97855 4.83014,1.53121 5.24008,0.86791 z m 6.16235,-4.36535 c -0.80985,-0.45502 -2.47207,-2.72041 -2.19754,-2.99495 0.0987,-0.0986 0.42842,0.16255 0.73283,0.58043 0.77883,1.06916 1.87984,1.44702 4.81826,1.65357 2.34127,0.16457 2.52016,0.2151 2.13291,0.60245 -0.6025,0.60266 -4.49577,0.71513 -5.48646,0.1585 z m 1.51057,-2.49664 c -1.1896,-0.2896 -2.46407,-1.01786 -2.76486,-1.57989 -0.25609,-0.4785 -0.21681,-0.48379 0.96025,-0.12955 0.67499,0.20314 2.08778,0.36935 3.13954,0.36935 h 1.9123 l 0.1165,0.79375 0.11649,0.79375 -1.34323,-0.0271 c -0.73879,-0.0149 -1.70043,-0.11404 -2.13699,-0.22032 z m 4.10104,-0.5413 c 0,-0.64155 0.13575,-0.8214 0.7276,-0.96389 0.40019,-0.0964 1.30499,-0.46382 2.01069,-0.81658 0.70569,-0.35277 1.33106,-0.59341 1.38971,-0.53476 0.2647,0.26469 -1.45619,2.08756 -2.4256,2.56933 -1.44008,0.71569 -1.7024,0.67653 -1.7024,-0.2541 z m -3.67657,-2.07015 c -0.36397,-0.68008 -0.3776,-1.55504 -0.0276,-1.77135 0.14552,-0.0899 0.26459,0.0136 0.26459,0.23007 0,0.21647 0.1903,0.58389 0.42288,0.81647 0.51666,0.51667 1.72699,0.34453 3.71819,-0.52882 2.02899,-0.88992 2.04361,-1.32347 0.12816,-3.79952 -1.71096,-2.21172 -2.51266,-3.84659 -2.37078,-4.8347 0.0757,-0.5272 0.17243,-0.44364 0.67921,0.58667 0.32502,0.66078 1.277,2.01181 2.1155,3.00229 2.75338,3.25243 2.54675,2.85918 2.08409,3.96648 -0.33564,0.80329 -0.71246,1.1192 -2.12152,1.77858 -0.94237,0.44099 -2.363,0.86884 -3.15697,0.95078 -1.27178,0.13126 -1.47835,0.084 -1.73575,-0.39695 z m -18.909033,-2.7975 c -0.10763,-0.41886 -0.11667,-1.12134 -0.02009,-1.56107 0.146192,-0.66561 0.104151,-0.7721 -0.25102,-0.63581 -0.501957,0.19262 -0.56067,-0.10896 -0.109122,-0.56051 0.929109,-0.92911 2.858682,0.20851 2.856186,1.68392 l -0.0013,0.7767 -0.640396,-0.79375 c -0.755463,-0.93637 -1.087035,-0.74932 -1.415148,0.79832 -0.223397,1.05372 -0.223413,1.05374 -0.419097,0.2922 z m 14.449663,-3.63279 c -0.61051,-0.17819 -0.85989,-0.409 -0.85989,-0.79584 0,-0.48811 0.10906,-0.52643 1.04717,-0.36794 0.57595,0.0973 1.28136,0.10259 1.5676,0.0118 0.50717,-0.16098 0.50356,-0.20199 -0.14207,-1.61223 -0.36437,-0.79588 -0.61055,-1.59437 -0.54708,-1.77443 0.0635,-0.18005 0.29838,0.0893 0.52203,0.59867 0.22365,0.50932 0.71217,1.32969 1.08561,1.82304 0.65174,0.86102 0.64126,1.57325 -0.029,1.96757 -0.50859,0.29923 -1.86796,0.37603 -2.64441,0.14941 z m 10.54478,-0.74237 c -0.64585,-0.40895 -0.11987,-1.08098 0.84605,-1.08098 1.17829,0 1.26869,-0.13853 0.80878,-1.23927 -0.21407,-0.51233 -0.35276,-1.16947 -0.30821,-1.46031 0.0562,-0.36683 0.34425,0.007 0.94047,1.22183 l 0.85947,1.75063 -0.85947,0.52403 c -0.92291,0.5627 -1.69549,0.65867 -2.28709,0.28407 z m -15.47244,-4.73132 c -0.3433,-0.55546 0.76864,-2.57979 1.75028,-3.18648 1.43407,-0.8863 3.11124,-0.66667 3.11124,0.40744 0,0.23238 -0.39484,0.34396 -1.21709,0.34396 -1.02885,0 -1.34598,0.13397 -2.05052,0.86625 -0.45839,0.47644 -0.96111,1.09461 -1.11716,1.3737 -0.19807,0.35425 -0.34201,0.41316 -0.47675,0.19513 z m -9.762735,0.19438 c 0.435874,-1.03374 2.082724,-2.33853 3.394363,-2.68934 1.3049,-0.349 1.599614,-1.00184 0.448118,-0.99264 -1.026579,0.008 -2.711688,0.84458 -3.593076,1.78337 -1.045767,1.11388 -1.595167,3.90385 -1.037132,5.26678 0.133694,0.32653 0.247946,-0.0333 0.350179,-1.10284 0.08346,-0.87312 0.280354,-1.89252 0.437548,-2.26533 z M 98.24519,114.674 c 0.574041,-0.57404 1.89538,-1.50371 2.93631,-2.06594 3.02038,-1.63138 2.32085,-2.06473 -0.86184,-0.53392 -1.753817,0.84355 -4.65389,3.22584 -4.65389,3.82298 0,0.53638 1.559335,-0.20303 2.57942,-1.22312 z"
         id="path2435"
         inkscape:connector-curvature="0" />
      <path
         style="fill:#324e5f;stroke-width:0.26458332"
         d="m 105.34378,175.70698 c -0.57069,-0.14071 -1.17693,-0.37145 -1.3472,-0.51276 -0.17027,-0.14132 -0.76601,-1.74627 -1.32387,-3.56657 -0.99353,-3.24191 -1.02998,-3.30964 -1.78115,-3.30964 -1.406219,0 -7.535124,-2.39177 -8.783227,-3.4276 -0.213398,-0.17711 -0.434463,-1.17489 -0.547171,-2.46968 -0.18515,-2.12701 -0.215187,-2.20022 -1.433943,-3.49543 -3.070036,-3.26261 -5.01631,-6.64578 -6.219577,-10.81137 -0.616428,-2.13401 -0.677288,-2.77922 -0.677288,-7.1803 0,-4.37758 0.06288,-5.05258 0.663872,-7.12648 1.145918,-3.95432 3.173032,-7.44726 6.075239,-10.46831 1.490644,-1.55168 1.694489,-1.90083 2.085381,-3.57187 0.333313,-1.4249 0.631885,-2.04099 1.294478,-2.6711 0.473681,-0.45046 1.155033,-1.39083 1.514115,-2.08972 0.813024,-1.58242 2.204896,-2.637 5.936631,-4.49805 3.79184,-1.89102 5.92675,-2.36597 9.78732,-2.17739 4.60931,0.22516 6.80847,1.22117 9.77787,4.42848 0.82958,0.89605 1.80367,2.212 2.16464,2.92435 0.74289,1.46602 1.43654,4.14348 1.44238,5.56749 0.003,0.79235 0.31986,1.33285 1.85991,3.175 2.23795,2.67698 4.48383,7.03181 5.30673,10.28989 1.41759,5.61259 0.70743,12.61794 -1.77767,17.53575 l -0.63867,1.26386 0.63605,0.8528 c 0.88409,1.18538 1.8369,4.25012 1.8369,5.90846 0,1.67402 -0.9541,3.78596 -1.92768,4.26701 -1.01877,0.50337 -4.87669,0.43776 -5.31502,-0.0904 -0.27135,-0.32696 -0.68778,-0.39723 -1.805,-0.30458 -0.79875,0.0662 -1.49867,0.25962 -1.55537,0.42974 -0.13413,0.40238 -0.75334,1.01742 -1.16119,1.15337 -0.2456,0.0819 -0.21242,0.71512 0.14123,2.69504 0.41848,2.3429 0.42357,2.64709 0.0537,3.21154 -0.23946,0.36546 -0.78687,0.69449 -1.32268,0.795 -0.84528,0.15858 -0.92017,0.25219 -0.99419,1.24269 -0.0609,0.81449 -0.25897,1.20434 -0.82667,1.62681 -0.6852,0.5099 -1.13144,0.5599 -5.42396,0.6077 -2.57254,0.0286 -5.14426,-0.063 -5.71495,-0.20374 z m 9.63657,-1.52779 0.92604,-0.20011 -0.0823,-2.76439 c -0.15367,-5.16345 -0.831,-13.57307 -1.11614,-13.85788 -0.41062,-0.41013 -8.66798,-0.28464 -11.10472,0.16876 l -1.98437,0.36924 0.0729,1.44129 c 0.14441,2.8561 1.33084,8.96951 2.46709,12.71236 l 0.53007,1.74607 1.77227,0.30564 c 0.97475,0.1681 2.06993,0.35583 2.43374,0.41718 0.85626,0.1444 4.88944,-0.0797 6.08541,-0.33816 z m 3.02107,-3.11136 c 0.49927,-0.19159 0.53336,-1.12096 0.12677,-3.45575 -0.27945,-1.60476 -0.32403,-1.67532 -1.05833,-1.67532 h -0.76659 v 2.46944 c 0,1.3582 0.0794,2.54882 0.17639,2.64584 0.22007,0.22007 0.96916,0.22784 1.52176,0.0158 z m 10.53883,-7.55209 c 1.34202,-0.70556 1.66734,-2.82059 0.8816,-5.73148 -0.80095,-2.96724 -1.5994,-3.45271 -4.12152,-2.50597 -3.46661,1.30128 -3.52035,1.34263 -3.33544,2.56642 0.0898,0.59432 0.22953,1.6759 0.31051,2.40351 0.30032,2.69845 0.10035,2.51011 2.69801,2.54109 l 2.31007,0.0275 -1.29581,0.39573 c -0.95251,0.2909 -1.19785,0.46015 -0.92604,0.63888 0.41092,0.2702 2.75673,0.0438 3.47862,-0.33572 z m -3.56714,-3.0624 c 0.47555,-0.0589 1.18993,-0.0577 1.5875,0.003 0.39758,0.0604 0.008,0.10855 -0.86463,0.10707 -0.87313,-0.002 -1.19842,-0.0509 -0.72287,-0.10977 z m -0.005,-1.84706 c 0.32742,-0.0631 0.8632,-0.0631 1.19062,0 0.32742,0.0631 0.0595,0.11467 -0.59531,0.11467 -0.65485,0 -0.92274,-0.0516 -0.59531,-0.11467 z m -1.52136,-0.73252 c 0,-0.17656 1.32641,-0.83103 2.11667,-1.04438 0.47591,-0.12849 0.36459,0.0102 -0.39688,0.4943 -0.97354,0.61896 -1.71979,0.85765 -1.71979,0.55008 z m -29.475677,4.42498 c 0.252359,-1.66856 -0.245643,-6.76119 -1.093147,-11.17865 -0.376902,-1.96453 -0.748646,-3.93261 -0.826098,-4.37351 l -0.140822,-0.80163 3.871707,-1.69741 3.871706,-1.69742 -0.919095,-0.91909 -0.919096,-0.9191 -1.67442,0.82431 c -0.920931,0.45338 -2.76392,1.60902 -4.095532,2.56811 l -2.421112,1.74379 0.623112,1.53348 c 1.345171,3.31049 2.771391,10.6628 2.771391,14.28681 0,0.84386 0.07937,1.61368 0.176389,1.71069 0.394022,0.39402 0.594233,0.11492 0.775017,-1.08038 z m 27.720027,0.78898 c 0.2956,-0.16807 -0.006,-2.97218 -0.51158,-4.75773 -0.36133,-1.27588 -0.45746,-1.38907 -1.17974,-1.38907 -0.90877,0 -0.88942,-0.16567 -0.38624,3.3073 0.21083,1.4552 0.38565,2.79693 0.38848,2.9816 0.005,0.31467 1.03867,0.22769 1.68908,-0.1421 z m -4.39591,-3.93231 c 0.43918,-0.11769 0.59531,-0.35552 0.59531,-0.90681 0,-0.89998 -0.28419,-1.11466 -1.17846,-0.89021 -0.55613,0.13958 -0.67362,0.32558 -0.67362,1.06643 0,0.92576 0.16676,1.0227 1.25677,0.73059 z m -16.38743,-0.56084 c -0.0712,-0.37396 -0.4185,-0.47843 -1.805334,-0.54314 -1.336779,-0.0624 -1.646856,-0.01 -1.399858,0.2379 0.174502,0.17491 0.769814,0.40563 1.322916,0.51271 1.696216,0.32839 1.978436,0.29729 1.882276,-0.20747 z m -9.893601,-3.184 c -0.208674,-1.20248 -0.842479,-3.46343 -1.408458,-5.02434 -1.650282,-4.5513 -1.713389,-4.80301 -1.365344,-5.44566 0.168996,-0.31204 2.265976,-1.74098 4.659955,-3.1754 2.393978,-1.43444 4.352688,-2.77125 4.352688,-2.97071 0,-0.19945 -0.291391,-0.99036 -0.647535,-1.75757 -0.356144,-0.76721 -0.712296,-1.70918 -0.791447,-2.09327 -0.09192,-0.44605 -0.368177,-0.75463 -0.764683,-0.85414 -1.558517,-0.39117 -3.05604,-2.30807 -3.607401,-4.61765 -0.373505,-1.56457 -0.229558,-3.0083 0.43992,-4.41221 0.318163,-0.66719 0.363393,-1.01353 0.159047,-1.21788 -0.539437,-0.53944 -4.194154,4.324 -5.561631,7.40102 -1.223911,2.75397 -1.943344,6.22759 -1.95588,9.44352 -0.01851,4.74912 0.923537,8.40109 3.188088,12.35902 1.026969,1.79491 3.393568,4.84011 3.600616,4.63306 0.04481,-0.0448 -0.08926,-1.06531 -0.297935,-2.26779 z m 11.209691,-1.49475 c 0.0534,-1.81618 -0.0253,-2.70782 -0.26459,-2.99703 -0.29162,-0.35245 -0.36637,-0.24384 -0.51946,0.7547 -0.23322,1.52119 -0.26248,4.05005 -0.0532,4.59552 0.0907,0.23633 0.29905,0.38525 0.46302,0.33092 0.1868,-0.0619 0.32653,-1.06425 0.37419,-2.68411 z m 12.34535,0.57771 c -0.30393,-0.99435 -2.18963,-4.78865 -2.70211,-5.43702 l -0.48086,-0.60838 -1.24491,0.95056 c -1.04504,0.79795 -2.0404,2.08041 -2.0404,2.62893 0,0.25744 5.77675,2.99017 6.43397,3.04363 0.11895,0.01 0.13439,-0.2503 0.0343,-0.57772 z m 11.33765,-0.87356 c 0.92065,-0.16701 1.0813,-0.33402 1.91645,-1.9924 3.06028,-6.07692 3.28885,-13.78784 0.59349,-20.02216 -0.89478,-2.06963 -2.99827,-5.45555 -3.89132,-6.26375 -0.44548,-0.40315 -0.47811,-0.30554 -0.63453,1.89819 -0.1991,2.80498 -1.19831,6.89332 -2.13793,8.74758 -0.37813,0.74621 -0.68751,1.57356 -0.68751,1.83855 0,0.26682 1.00356,1.4003 2.24896,2.5401 2.06592,1.89075 2.24896,2.14003 2.24896,3.06282 0,0.7658 -2.34343,8.65587 -3.34983,11.2785 -0.10428,0.27175 0.25168,0.19789 1.27178,-0.26389 0.77912,-0.35268 1.86879,-0.72328 2.42148,-0.82354 z m -9.44825,-3.16134 0.15618,-2.64583 -1.0219,-0.45613 c -1.02362,-0.4569 -2.84029,-0.40359 -3.14679,0.0923 -0.0769,0.12449 0.66412,1.86462 1.6468,3.86694 1.7696,3.60578 1.78871,3.63173 1.99811,2.71455 0.11628,-0.50932 0.2817,-2.11667 0.3676,-3.57188 z m -1.30932,1.00705 c -0.29797,-0.29797 -0.18148,-0.61017 0.22768,-0.61017 0.21828,0 0.39687,0.11203 0.39687,0.24897 0,0.33363 -0.41317,0.57258 -0.62455,0.3612 z m -0.69836,-2.59455 c 0,-0.21828 0.17859,-0.39687 0.39687,-0.39687 0.21828,0 0.39688,0.17859 0.39688,0.39687 0,0.21828 -0.1786,0.39688 -0.39688,0.39688 -0.21828,0 -0.39687,-0.1786 -0.39687,-0.39688 z m 4.11953,2.71481 c 0.79019,-1.27175 1.43672,-2.48909 1.43672,-2.70518 0,-0.55565 -1.51331,-1.27624 -2.27746,-1.08445 -0.56637,0.14215 -0.63312,0.30447 -0.63449,1.54288 -0.002,1.32118 -0.33173,3.8321 -0.66392,5.04765 -0.1544,0.56495 -0.15212,0.56529 0.27337,0.0405 0.23599,-0.29104 1.07559,-1.56969 1.86578,-2.84144 z m -9.54551,-2.52731 c 1.32853,-0.6707 2.99588,-2.01192 3.13711,-2.52349 0.0979,-0.35481 -0.0907,-0.57834 -0.707,-0.83783 l -0.84059,-0.35391 0.7276,-0.18305 c 0.40018,-0.10067 0.72761,-0.2662 0.72761,-0.36783 0,-0.25624 -3.32236,-1.79037 -4.72841,-2.18338 -1.04389,-0.29178 -1.19206,-0.27467 -1.52135,0.17566 -0.74245,1.01535 -0.24258,5.45164 0.75257,6.67909 0.29887,0.36863 1.22152,0.21617 2.45246,-0.40526 z m 10.61427,-2.58977 c 0.22038,-0.87805 -0.0906,-3.54386 -0.46623,-3.99645 -0.45337,-0.54628 -1.29913,-0.4095 -2.80383,0.45343 -1.4898,0.85439 -1.7483,1.45233 -0.79375,1.83601 0.45611,0.18333 0.48704,0.2432 0.13229,0.25605 -0.33173,0.012 -0.46302,0.23644 -0.46302,0.79149 0,0.7473 0.0538,0.78064 1.52135,0.94232 0.83675,0.0922 1.69995,0.206 1.91823,0.25293 0.21828,0.0469 0.4839,0.0991 0.59027,0.11601 0.10637,0.0169 0.27048,-0.27642 0.36469,-0.65179 z m -5.50579,-0.42877 c 0.75239,-0.75239 0.0164,-1.99119 -0.99272,-1.6709 -0.61321,0.19462 -0.64755,0.35307 -0.28383,1.30972 0.27789,0.73092 0.76811,0.86962 1.27655,0.36118 z m 10.10708,-2.04083 c 0,-0.29355 -0.911,-1.35257 -2.16834,-2.52067 -2.15375,-2.00087 -2.17182,-2.01093 -2.68703,-1.49572 -0.51522,0.51522 -0.51276,0.52372 0.36605,1.2639 1.59191,1.3408 4.08814,3.22763 4.29088,3.24335 0.10914,0.008 0.19844,-0.21242 0.19844,-0.49086 z m -19.57917,-0.65434 c 0,-0.55198 -0.1581,-0.65373 -1.25677,-0.80882 -0.69122,-0.0976 -1.46513,-0.23817 -1.71979,-0.31245 -0.95244,-0.2778 -0.43851,0.65119 0.66146,1.19567 1.54246,0.7635 2.3151,0.73868 2.3151,-0.0744 z m 10.18646,-0.57239 0.79375,-0.67202 -0.92604,0.18295 c -0.50932,0.10062 -1.58089,0.26456 -2.38125,0.36432 -1.34364,0.16746 -1.4045,0.20377 -0.79375,0.47361 1.16684,0.51553 2.44564,0.38064 3.30729,-0.34886 z m -9.50942,-1.03673 c 0.28247,-0.21365 0.91014,-0.39225 1.39481,-0.39688 l 0.88121,-0.008 -1.47216,-1.34548 c -1.77907,-1.62597 -2.93261,-3.05505 -3.18533,-3.94619 -0.16474,-0.58092 -0.0971,-0.54871 0.55569,0.26458 3.44802,4.29591 6.65028,5.90035 10.06373,5.04227 3.09668,-0.77845 5.04008,-2.24725 6.739,-5.09326 2.14278,-3.58957 3.0454,-7.79414 2.785,-12.97314 -0.18168,-3.6134 -0.58277,-4.73977 -2.03482,-5.71442 -0.7006,-0.47025 -1.16758,-0.58995 -1.91823,-0.49169 -0.5457,0.0714 -0.99219,0.0406 -0.99219,-0.0685 0,-0.42859 0.96956,-1.0372 1.78366,-1.11962 l 0.85761,-0.0868 -1.19183,-1.49874 c -0.65551,-0.8243 -1.75012,-1.86852 -2.43246,-2.32049 -1.87926,-1.24476 -4.9904,-2.1339 -7.46667,-2.1339 -1.90417,0 -2.25201,0.0899 -4.28582,1.1075 -1.54529,0.77319 -2.76121,1.64327 -4.02806,2.88241 l -1.81462,1.77491 0.17842,1.29727 c 0.111899,0.8136 0.01542,2.22975 -0.258769,3.79832 -0.372224,2.1294 -0.388578,2.78805 -0.11005,4.4325 0.357356,2.10986 0.267258,2.35285 -0.920432,2.48236 -0.671741,0.0733 -0.800251,-0.0248 -0.99544,-0.75914 -0.268494,-1.0102 -1.357556,-1.93488 -2.278847,-1.93488 -1.017415,0 -2.378546,1.18274 -2.689317,2.33685 -0.530267,1.96927 0.787473,4.58377 2.671253,5.29998 0.547506,0.20816 0.90348,0.15512 1.652202,-0.24617 0.524887,-0.28132 1.014302,-0.51149 1.08759,-0.51149 0.296519,0 0.101319,0.59378 -0.432609,1.31596 l -0.565859,0.76536 0.687382,2.20049 c 1.275753,4.084 2.460726,5.3049 5.603706,5.77363 0.72761,0.10851 1.38946,0.21215 1.47079,0.2303 0.0813,0.0181 0.37898,-0.1418 0.66146,-0.35545 z m 6.33442,-4.52505 c -0.43656,-0.22195 -1.19138,-0.94277 -1.67738,-1.60184 -0.94101,-1.27611 -0.9614,-1.98909 -0.0227,-0.7958 0.89583,1.13887 1.95836,1.52445 4.64205,1.68456 1.36512,0.0814 2.48204,0.23801 2.48204,0.34791 0,0.75741 -4.10837,1.03401 -5.42396,0.36517 z m 1.0987,-2.61062 c -0.71662,-0.19258 -1.59222,-0.66771 -1.98437,-1.07678 -0.58082,-0.6059 -0.61059,-0.69704 -0.17266,-0.52861 0.29104,0.11194 1.66026,0.27711 3.04271,0.36704 2.49934,0.1626 2.51401,0.16763 2.59726,0.89112 0.0802,0.69657 0.035,0.72685 -1.05834,0.70975 -0.62812,-0.01 -1.71919,-0.17295 -2.4246,-0.36252 z m 4.32526,-0.4592 c 0,-0.4186 0.14562,-0.75069 0.33073,-0.7542 0.1819,-0.003 1.0389,-0.2974 1.90444,-0.6532 0.86554,-0.35581 1.63023,-0.5904 1.69932,-0.52131 0.28974,0.28974 -2.32735,2.44076 -3.10922,2.55551 -0.75791,0.11124 -0.82527,0.0601 -0.82527,-0.6268 z m -3.72339,-2.25369 c -0.14683,-0.38618 -0.19651,-0.88574 -0.1104,-1.11013 0.1233,-0.32133 0.22524,-0.26949 0.47995,0.24406 0.45451,0.91641 1.40946,0.9431 3.53382,0.0987 2.72281,-1.0822 2.81498,-1.51056 0.83654,-3.8879 -1.4855,-1.78501 -2.59918,-3.90734 -2.59828,-4.95151 5.3e-4,-0.52849 0.1728,-0.35518 0.85731,0.86211 0.47121,0.83796 1.61238,2.42487 2.53594,3.52647 1.53668,1.8329 1.66476,2.07988 1.50905,2.90988 -0.13961,0.74421 -0.41699,1.04795 -1.54568,1.69257 -0.75654,0.43208 -1.91186,0.85268 -2.56738,0.93468 -0.65552,0.082 -1.52307,0.20175 -1.92788,0.26613 -0.60517,0.0962 -0.78349,-0.008 -1.00299,-0.58511 z m -18.745305,-3.35119 c -0.01703,-1.26364 -0.09414,-1.52155 -0.417763,-1.39736 -0.476516,0.18285 -0.520102,-0.13121 -0.07937,-0.57193 0.89022,-0.89022 2.867189,0.30488 2.846906,1.72099 l -0.01059,0.73963 -0.394731,-0.7276 c -0.591821,-1.0909 -1.37334,-0.95987 -1.578136,0.26458 -0.270062,1.61468 -0.344239,1.60894 -0.366308,-0.0283 z m 13.747065,-3.20124 c -0.5044,-0.60777 -0.0999,-0.89939 1.03615,-0.74701 0.57513,0.0771 1.23411,0.0679 1.46441,-0.0204 0.37975,-0.14572 0.37785,-0.23975 -0.0204,-1.00987 -0.47337,-0.91542 -0.93358,-2.33532 -0.7569,-2.33532 0.0596,0 0.34029,0.45445 0.62366,1.00989 0.28336,0.55544 0.7025,1.16533 0.93141,1.35531 0.5759,0.47795 0.5219,1.52838 -0.0956,1.85883 -0.76696,0.41046 -2.80898,0.339 -3.18277,-0.11139 z m 11.1558,-0.46139 c -0.51691,-0.51691 -0.37401,-0.70665 0.67468,-0.89588 1.39463,-0.25165 1.40389,-0.26558 0.97803,-1.47258 -0.63889,-1.81082 -0.42966,-1.9791 0.40768,-0.32788 0.43472,0.85725 0.79191,1.71354 0.79375,1.90287 0.003,0.34178 -1.50891,1.11097 -2.18419,1.11097 -0.19385,0 -0.49533,-0.14287 -0.66995,-0.3175 z m -15.39875,-5.2841 c 0,-1.20351 2.01839,-3.12965 3.27954,-3.12965 0.84322,0 1.74258,0.62233 1.39773,0.96718 -0.0883,0.0883 -0.57375,0.18572 -1.07866,0.21637 -1.17319,0.0712 -2.17409,0.73067 -2.85141,1.87864 -0.29419,0.49861 -0.58266,0.90656 -0.64105,0.90656 -0.0584,0 -0.10615,-0.37759 -0.10615,-0.8391 z m -5.387871,4.08025 c -0.01279,-1.56435 0.01869,-3.77179 0.06994,-4.90542 0.05126,-1.13363 0.04514,-2.10921 -0.01359,-2.16794 -0.25128,-0.25128 -2.450329,0.45721 -3.428681,1.10465 -1.433741,0.94881 -1.889033,1.93516 -2.035783,4.41036 l -0.1233,2.07968 0.630996,-0.22598 c 1.810184,-0.64827 3.701005,0.0643 4.360812,1.64346 0.20808,0.498 0.419846,0.90546 0.470592,0.90546 0.05075,0 0.0818,-1.27992 0.06901,-2.84427 z m -0.875296,-7.92945 c 1.171884,-0.14018 1.364118,-0.27011 2.326007,-1.57217 0.5767,-0.78065 1.5247,-1.73447 2.10666,-2.11959 0.65795,-0.43541 0.96436,-0.79399 0.81021,-0.94814 -0.43669,-0.43669 -4.599055,1.72397 -6.090516,3.16154 -1.366364,1.317 -1.779068,2.15391 -0.892843,1.81056 0.254662,-0.0987 1.037878,-0.24815 1.740482,-0.3322 z"
         id="path2433"
         inkscape:connector-curvature="0" />
      <path
         style="fill:#211d1e;stroke-width:0.26458332"
         d="m 105.34378,175.70698 c -0.57069,-0.14071 -1.17693,-0.37145 -1.3472,-0.51276 -0.17027,-0.14132 -0.76601,-1.74627 -1.32387,-3.56657 -0.99353,-3.24191 -1.02998,-3.30964 -1.78115,-3.30964 -1.406219,0 -7.535124,-2.39177 -8.783227,-3.4276 -0.213398,-0.17711 -0.434463,-1.17489 -0.547171,-2.46968 -0.18515,-2.12701 -0.215187,-2.20022 -1.433943,-3.49543 -3.070036,-3.26261 -5.01631,-6.64578 -6.219577,-10.81137 -0.616428,-2.13401 -0.677288,-2.77922 -0.677288,-7.1803 0,-4.37758 0.06288,-5.05258 0.663872,-7.12648 1.145918,-3.95432 3.173032,-7.44726 6.075239,-10.46831 1.490644,-1.55168 1.694489,-1.90083 2.085381,-3.57187 0.333313,-1.4249 0.631885,-2.04099 1.294478,-2.6711 0.473681,-0.45046 1.155033,-1.39083 1.514115,-2.08972 0.813024,-1.58242 2.204896,-2.637 5.936631,-4.49805 3.79184,-1.89102 5.92675,-2.36597 9.78732,-2.17739 4.60931,0.22516 6.80847,1.22117 9.77787,4.42848 0.82958,0.89605 1.80367,2.212 2.16464,2.92435 0.74289,1.46602 1.43654,4.14348 1.44238,5.56749 0.003,0.79235 0.31986,1.33285 1.85991,3.175 2.23795,2.67698 4.48383,7.03181 5.30673,10.28989 1.41759,5.61259 0.70743,12.61794 -1.77767,17.53575 l -0.63867,1.26386 0.63605,0.8528 c 0.88409,1.18538 1.8369,4.25012 1.8369,5.90846 0,1.67402 -0.9541,3.78596 -1.92768,4.26701 -1.01877,0.50337 -4.87669,0.43776 -5.31502,-0.0904 -0.27135,-0.32696 -0.68778,-0.39723 -1.805,-0.30458 -0.79875,0.0662 -1.49867,0.25962 -1.55537,0.42974 -0.13413,0.40238 -0.75334,1.01742 -1.16119,1.15337 -0.2456,0.0819 -0.21242,0.71512 0.14123,2.69504 0.41848,2.3429 0.42357,2.64709 0.0537,3.21154 -0.23946,0.36546 -0.78687,0.69449 -1.32268,0.795 -0.84528,0.15858 -0.92017,0.25219 -0.99419,1.24269 -0.0609,0.81449 -0.25897,1.20434 -0.82667,1.62681 -0.6852,0.5099 -1.13144,0.5599 -5.42396,0.6077 -2.57254,0.0286 -5.14426,-0.063 -5.71495,-0.20374 z m 9.76886,-1.51873 0.79375,-0.22574 -0.0854,-3.02069 c -0.11912,-4.21596 -0.78697,-13.50621 -0.98517,-13.70441 -0.31478,-0.31477 -8.47267,-0.16145 -10.90187,0.2049 -2.13689,0.32227 -2.4474,0.43545 -2.4474,0.89209 0,2.00384 1.53019,9.94165 2.62539,13.61912 l 0.55816,1.87421 1.91396,0.31169 c 1.05267,0.17143 2.09255,0.35487 2.31083,0.40765 0.64946,0.15704 5.35963,-0.11478 6.2177,-0.35882 z m 2.88878,-3.12042 c 0.50642,-0.19433 0.54819,-1.48669 0.11741,-3.63174 -0.28183,-1.40332 -0.3496,-1.49933 -1.05834,-1.49933 h -0.75722 v 2.64583 c 0,2.62197 0.006,2.64584 0.63982,2.64584 0.3519,0 0.82815,-0.0723 1.05833,-0.1606 z m -16.06524,-4.69225 c -0.0749,-0.19522 -0.35008,-2.15892 -0.61149,-4.36378 l -0.4753,-4.00883 -0.87028,-0.16327 c -0.478653,-0.0898 -1.168717,-0.0884 -1.533476,0.003 -0.885459,0.22223 -0.864813,-0.30924 0.02516,-0.64761 0.457484,-0.17393 0.634964,-0.39359 0.529166,-0.65491 -0.541427,-1.33734 -0.56768,-1.27495 0.339181,-0.806 0.462049,0.23894 0.955649,0.36301 1.096899,0.27571 0.14125,-0.0873 0.25681,-1.46137 0.25681,-3.05351 0,-1.75348 0.10432,-2.8948 0.26459,-2.8948 0.16161,0 0.26458,1.22951 0.26458,3.15938 0,1.73766 0.0982,3.22007 0.21817,3.29423 0.12,0.0742 1.87617,-0.0352 3.90261,-0.24303 2.02643,-0.20782 4.45833,-0.4103 5.40422,-0.44995 l 1.71979,-0.0721 -2.58451,-1.2477 c -1.42148,-0.68624 -2.65876,-1.4412 -2.74951,-1.6777 -0.0908,-0.23649 0.0197,-0.81731 0.24544,-1.29071 0.40564,-0.85064 0.40314,-0.85933 -0.21373,-0.7414 -0.83044,0.15874 -1.54378,-1.01477 -2.13103,-3.50575 l -0.44169,-1.87352 -2.20692,-1.15614 c -1.52377,-0.79825 -2.538516,-1.54938 -3.278125,-2.42651 l -1.071201,-1.27038 -1.251026,0.53456 c -0.688065,0.29401 -2.38212,1.30186 -3.764568,2.23966 -3.958217,2.68511 -3.622116,2.16667 -2.815481,4.34286 1.41468,3.8166 2.281425,8.20233 2.69984,13.66119 l 0.164709,2.14888 2.555154,1.21882 c 3.464344,1.65252 6.626528,2.48871 6.312018,1.66912 z m 16.28558,-1.9317 c 0.36511,-0.10281 0.43719,-0.3369 0.34014,-1.10472 -0.0677,-0.53585 -0.19169,-1.74818 -0.27547,-2.69407 -0.29263,-3.30357 -0.34544,-3.43958 -1.33553,-3.43958 -0.48454,0 -0.95933,0.12676 -1.05508,0.28169 -0.0957,0.15493 -0.0881,1.88757 0.017,3.85031 l 0.19113,3.56862 0.82725,-0.1659 c 0.45498,-0.0912 1.03572,-0.2246 1.29052,-0.29635 z m 10.51675,-1.12515 c 0.3637,-0.26483 0.8298,-0.92432 1.03579,-1.46552 0.33166,-0.87142 0.32031,-1.21632 -0.0992,-3.01429 -0.56803,-2.43429 -0.9987,-3.34077 -1.8532,-3.90066 -0.60422,-0.3959 -0.76802,-0.36925 -2.83876,0.46189 -3.48544,1.39896 -3.29366,1.17709 -2.91684,3.37451 0.17733,1.03414 0.32243,2.22549 0.32243,2.64745 0,1.42822 0.0949,1.48218 2.45101,1.39367 1.56344,-0.0587 2.06705,-0.004 1.78232,0.19259 -0.21828,0.15095 -0.65774,0.27628 -0.97657,0.2785 -0.67405,0.005 -1.03172,0.42039 -0.54643,0.63505 0.61643,0.27267 2.97304,-0.1179 3.63949,-0.60319 z m -2.9733,-2.86077 c 0.32912,-0.0633 0.80537,-0.0609 1.05833,0.005 0.25297,0.0662 -0.0163,0.118 -0.5984,0.11506 -0.58208,-0.003 -0.78905,-0.0571 -0.45993,-0.1204 z m -0.52917,-1.85208 c 0.32912,-0.0633 0.80537,-0.0609 1.05834,0.005 0.25296,0.0662 -0.0163,0.11801 -0.5984,0.11507 -0.58209,-0.003 -0.78906,-0.0571 -0.45994,-0.12041 z m -1.03211,-1.14459 c 0.34355,-0.2862 0.8198,-0.51958 1.05834,-0.51862 0.28229,0.001 0.15659,0.18527 -0.36004,0.52742 -1.0209,0.67612 -1.51299,0.66991 -0.6983,-0.009 z m -2.49413,5.53509 c 0.30401,-0.27827 -0.20053,-4.31495 -0.66739,-5.33959 -0.24814,-0.54462 -0.51448,-0.71587 -1.11341,-0.71587 -0.88772,0 -0.87347,-0.41535 -0.15647,4.56156 0.29203,2.02708 0.30218,2.04634 0.99258,1.88407 0.38365,-0.0902 0.80876,-0.26575 0.94469,-0.39017 z m -30.695371,-7.58581 c -0.208674,-1.20248 -0.842479,-3.46343 -1.408458,-5.02434 -1.650282,-4.5513 -1.713389,-4.80301 -1.365344,-5.44566 0.168996,-0.31204 2.265976,-1.74098 4.659955,-3.1754 2.393978,-1.43444 4.352688,-2.77125 4.352688,-2.97071 0,-0.19945 -0.291391,-0.99036 -0.647535,-1.75757 -0.356144,-0.76721 -0.712296,-1.70918 -0.791447,-2.09327 -0.09192,-0.44605 -0.368177,-0.75463 -0.764683,-0.85414 -1.558517,-0.39117 -3.05604,-2.30807 -3.607401,-4.61765 -0.373505,-1.56457 -0.229558,-3.0083 0.43992,-4.41221 0.318163,-0.66719 0.363393,-1.01353 0.159047,-1.21788 -0.539437,-0.53944 -4.194154,4.324 -5.561631,7.40102 -1.223911,2.75397 -1.943344,6.22759 -1.95588,9.44352 -0.01851,4.74912 0.923537,8.40109 3.188088,12.35902 1.026969,1.79491 3.393568,4.84011 3.600616,4.63306 0.04481,-0.0448 -0.08926,-1.06531 -0.297935,-2.26779 z m 29.666441,-0.35631 c 0.87292,-0.88195 3.55789,-9.13933 3.55909,-10.94563 5.3e-4,-0.65415 -0.36833,-1.1311 -2.09683,-2.71198 -1.15354,-1.05502 -2.20429,-1.91823 -2.33499,-1.91823 -0.13069,0 -0.50349,0.283 -0.82843,0.62888 l -0.59081,0.62889 0.64547,0.162 c 1.11939,0.28095 1.59169,1.73812 1.43786,4.43617 -0.0937,1.64348 -0.0337,2.46609 0.20464,2.8064 0.29376,0.41942 0.069,0.92348 -1.74468,3.91319 -1.14503,1.88747 -2.08589,3.49748 -2.09081,3.57779 -0.0183,0.29921 3.49475,-0.22918 3.83949,-0.57748 z m -5.9651,-0.11221 c 0,-0.41245 -1.72283,-4.11645 -2.42191,-5.20696 -0.64257,-1.00238 -0.89195,-1.20513 -1.24793,-1.01462 -0.86012,0.46032 -2.64645,2.27374 -2.80902,2.8516 -0.14276,0.50744 0.055,0.6957 1.5036,1.43165 1.62807,0.82711 4.38035,2.01503 4.77682,2.06174 0.10914,0.0129 0.19844,-0.0427 0.19844,-0.12341 z m 11.19135,-1.32208 c 0.92065,-0.16701 1.0813,-0.33402 1.91645,-1.9924 3.06028,-6.07692 3.28885,-13.78784 0.59349,-20.02216 -0.89478,-2.06963 -2.99827,-5.45555 -3.89132,-6.26375 -0.44548,-0.40315 -0.47811,-0.30554 -0.63453,1.89819 -0.1991,2.80498 -1.19831,6.89332 -2.13793,8.74758 -0.37813,0.74621 -0.68751,1.57356 -0.68751,1.83855 0,0.26682 1.00356,1.4003 2.24896,2.5401 2.06592,1.89075 2.24896,2.14003 2.24896,3.06282 0,0.7658 -2.34343,8.65587 -3.34983,11.2785 -0.10428,0.27175 0.25168,0.19789 1.27178,-0.26389 0.77912,-0.35268 1.86879,-0.72328 2.42148,-0.82354 z m -9.43548,-3.02905 0.15079,-2.77812 -1.01948,-0.47136 c -0.70761,-0.32717 -1.30275,-0.41696 -1.94551,-0.2935 -1.46003,0.28042 -1.6702,0.56703 -1.05222,1.43491 0.29091,0.40855 1.138,2.03227 1.88242,3.60826 1.30796,2.76905 1.36156,2.83874 1.59335,2.07169 0.13193,-0.43656 0.30772,-2.04391 0.39065,-3.57188 z m -1.32209,0.87476 c -0.29797,-0.29797 -0.18148,-0.61017 0.22768,-0.61017 0.21828,0 0.39687,0.11203 0.39687,0.24897 0,0.33363 -0.41317,0.57258 -0.62455,0.3612 z m -0.51478,-2.36687 c -0.21139,-0.21138 0.0276,-0.62455 0.3612,-0.62455 0.13693,0 0.24897,0.17859 0.24897,0.39687 0,0.40916 -0.3122,0.52565 -0.61017,0.22768 z m 4.30878,2.03961 1.35354,-2.26729 -0.70551,-0.60972 c -0.48379,-0.41811 -0.96583,-0.58441 -1.53388,-0.52917 -0.76323,0.0742 -0.83371,0.16381 -0.89611,1.13889 -0.10375,1.62151 -0.54728,4.98487 -0.73404,5.56635 -0.29283,0.91171 1.06561,-0.8695 2.516,-3.29906 z m -9.91834,-2.07979 c 1.32853,-0.6707 2.99588,-2.01192 3.13711,-2.52349 0.0979,-0.35481 -0.0907,-0.57834 -0.707,-0.83783 l -0.84059,-0.35391 0.7276,-0.18305 c 0.40018,-0.10067 0.72761,-0.2662 0.72761,-0.36783 0,-0.25624 -3.32236,-1.79037 -4.72841,-2.18338 -1.04389,-0.29178 -1.19206,-0.27467 -1.52135,0.17566 -0.74245,1.01535 -0.24258,5.45164 0.75257,6.67909 0.29887,0.36863 1.22152,0.21617 2.45246,-0.40526 z m 10.61427,-2.58977 c 0.22038,-0.87805 -0.0906,-3.54386 -0.46623,-3.99645 -0.45337,-0.54628 -1.29913,-0.4095 -2.80383,0.45343 -1.4898,0.85439 -1.7483,1.45233 -0.79375,1.83601 0.45611,0.18333 0.48704,0.2432 0.13229,0.25605 -0.33173,0.012 -0.46302,0.23644 -0.46302,0.79149 0,0.7473 0.0538,0.78064 1.52135,0.94232 0.83675,0.0922 1.69995,0.206 1.91823,0.25293 0.21828,0.0469 0.4839,0.0991 0.59027,0.11601 0.10637,0.0169 0.27048,-0.27642 0.36469,-0.65179 z m -5.50579,-0.42877 c 0.75239,-0.75239 0.0164,-1.99119 -0.99272,-1.6709 -0.61321,0.19462 -0.64755,0.35307 -0.28383,1.30972 0.27789,0.73092 0.76811,0.86962 1.27655,0.36118 z m -9.47209,-2.72461 c 0,-0.55079 -0.15737,-0.65101 -1.25677,-0.80038 -0.69122,-0.0939 -1.46513,-0.22829 -1.71979,-0.29862 -0.82279,-0.22724 -0.5121,0.66256 0.39516,1.13172 1.0414,0.53853 2.11392,0.85685 2.38297,0.70725 0.10914,-0.0607 0.19843,-0.39367 0.19843,-0.73997 z m 10.23785,-0.54334 0.74236,-0.67503 -0.92604,0.18465 c -0.50932,0.10155 -1.58089,0.26626 -2.38125,0.36602 -1.34364,0.16746 -1.4045,0.20377 -0.79375,0.47361 1.19555,0.52821 2.54841,0.38754 3.35868,-0.34925 z m -9.32738,-1.05317 c 0.28247,-0.21365 0.93732,-0.38891 1.45521,-0.38945 l 0.94161,-0.001 -0.79375,-0.48437 c -1.5042,-0.9179 -4.70475,-4.81896 -4.29214,-5.23157 0.0619,-0.0619 0.44177,0.36265 0.84422,0.94338 1.89643,2.73655 4.94519,4.73257 7.59571,4.97291 2.93441,0.26608 6.44803,-1.49442 8.30334,-4.16038 2.56733,-3.68911 3.71747,-8.25729 3.50004,-13.90159 -0.1424,-3.69636 -0.56104,-4.89548 -2.06054,-5.90197 -0.7006,-0.47025 -1.16758,-0.58995 -1.91823,-0.49169 -0.5457,0.0714 -0.99219,0.0406 -0.99219,-0.0685 0,-0.44186 0.98083,-1.03799 1.84216,-1.11962 l 0.91612,-0.0868 -1.44529,-1.69526 c -2.40696,-2.82326 -5.7539,-4.25787 -9.93359,-4.25787 -1.74294,0 -2.25586,0.115 -3.63196,0.81428 -2.28225,1.15976 -3.5691,2.09725 -5.04422,3.67481 -1.248302,1.33499 -1.28418,1.41781 -1.123152,2.59264 0.09729,0.70978 -0.01602,2.30823 -0.272936,3.85037 -0.374132,2.24573 -0.38971,2.88614 -0.105043,4.3183 0.402558,2.02526 0.29824,2.37469 -0.755095,2.52928 -0.716757,0.1052 -0.84127,0.0229 -1.085622,-0.71748 -0.668279,-2.02491 -2.401739,-2.59649 -3.942539,-1.29999 -1.209636,1.01784 -1.544914,2.4227 -0.956223,4.00669 0.544613,1.46539 1.768237,2.87237 2.701816,3.10669 0.429352,0.10776 0.959981,-0.0296 1.569567,-0.40637 1.16461,-0.71977 1.429347,-0.47707 0.641701,0.58828 -0.568571,0.76903 -0.589324,0.9214 -0.300973,2.20989 0.432955,1.93465 1.937133,4.96182 2.804509,5.6441 0.71869,0.56532 1.89264,0.96834 3.4364,1.17971 1.4152,0.19377 1.58013,0.17671 2.10109,-0.21732 z m 6.25943,-4.42726 c -0.78525,-0.40396 -2.82298,-2.77756 -2.58706,-3.01348 0.0947,-0.0947 0.42256,0.14595 0.72849,0.53488 0.9122,1.15968 2.01288,1.55965 4.67525,1.69891 1.34686,0.0704 2.44884,0.21928 2.44884,0.33074 0,0.70609 -4.08812,1.05465 -5.26552,0.44895 z m 1.03219,-2.73509 c -0.83851,-0.22418 -1.73553,-0.6807 -2.11667,-1.07723 -0.56884,-0.59181 -0.58736,-0.65985 -0.13229,-0.48589 0.42173,0.16121 3.62124,0.54655 5.35781,0.64529 0.1819,0.0103 0.33073,0.31646 0.33073,0.68026 0,0.59106 -0.1056,0.65961 -0.99219,0.64405 -0.5457,-0.01 -1.64703,-0.19249 -2.44739,-0.40648 z m 4.23333,-0.38833 c 0,-0.56099 0.12798,-0.776 0.46302,-0.77787 0.25466,-0.001 1.1054,-0.30161 1.89054,-0.6671 0.78513,-0.36548 1.47463,-0.6174 1.53222,-0.5598 0.16481,0.1648 -1.23854,1.73928 -1.83453,2.05825 -0.29563,0.15821 -0.8781,0.38534 -1.29438,0.50473 -0.70996,0.20361 -0.75687,0.16902 -0.75687,-0.55821 z m -3.69959,-2.35422 c -0.17045,-0.3185 -0.23515,-0.7739 -0.14378,-1.01201 0.13789,-0.35932 0.2211,-0.32206 0.48943,0.21911 0.45952,0.92678 1.62606,0.96119 3.65761,0.10788 2.57559,-1.08182 2.66366,-1.54125 0.74803,-3.90245 -1.53984,-1.89801 -2.64225,-3.96362 -2.63215,-4.9319 0.006,-0.54927 0.16118,-0.39157 0.83105,0.84306 0.45321,0.83529 1.59943,2.42388 2.54718,3.5302 1.65683,1.93405 1.71397,2.04778 1.48405,2.95417 -0.20311,0.80072 -0.4782,1.06422 -1.82662,1.7497 -1.10593,0.56221 -2.08157,0.83952 -3.21619,0.91416 -1.46231,0.0962 -1.66036,0.048 -1.93861,-0.47192 z m -18.717805,-3.26361 c 0.05254,-1.34204 0.0024,-1.52012 -0.398327,-1.41503 -0.377956,0.0991 -0.411157,0.0319 -0.189129,-0.38298 0.640061,-1.19596 2.907764,0.0105 2.885924,1.5353 l -0.01059,0.73963 -0.394731,-0.7276 c -0.591821,-1.0909 -1.37334,-0.95987 -1.578136,0.26458 -0.27135,1.62238 -0.37888,1.61764 -0.315008,-0.0139 z m 13.803275,-3.20561 c -0.7328,-0.53584 -0.3046,-0.79424 1.1851,-0.71517 0.70944,0.0377 1.36601,-0.0547 1.45904,-0.20524 0.093,-0.15054 -0.0735,-0.74929 -0.37001,-1.33057 -0.29655,-0.58128 -0.53391,-1.21044 -0.52748,-1.39813 0.006,-0.1877 0.23648,0.0839 0.51123,0.60363 0.27474,0.5197 0.6862,1.09982 0.91435,1.28917 0.57469,0.47695 0.51985,1.52755 -0.097,1.85766 -0.73674,0.39429 -2.47581,0.33698 -3.07526,-0.10135 z m 11.19381,-0.4397 c -0.76027,-0.44282 -0.53312,-0.72962 0.7276,-0.91868 0.65484,-0.0982 1.19063,-0.21681 1.19063,-0.26357 0,-0.0468 -0.10163,-0.36067 -0.22584,-0.69756 -0.12422,-0.3369 -0.30228,-0.96973 -0.3957,-1.40629 -0.12405,-0.57974 0.0405,-0.4014 0.61024,0.66146 0.42904,0.80036 0.7857,1.61011 0.79256,1.79944 0.007,0.18932 -0.40041,0.51674 -0.90506,0.7276 -1.0735,0.44854 -1.18179,0.45443 -1.79443,0.0976 z m -15.5354,-5.31632 c -0.0226,-1.80595 3.32198,-3.9258 4.43613,-2.81166 0.51657,0.51658 0.36842,0.74084 -0.48939,0.74084 -1.11388,0 -2.15085,0.59019 -3.11845,1.77487 -0.81643,0.9996 -0.81945,1.00067 -0.82829,0.29595 z m -5.176636,6.674 c 0.08532,-0.13806 0.01779,-0.79647 -0.150083,-1.46314 -0.231837,-0.9207 -0.229443,-1.89829 0.01,-4.06622 0.173346,-1.56976 0.233427,-3.17981 0.133513,-3.5779 -0.162659,-0.64809 -0.268251,-0.70609 -1.009373,-0.55447 -1.469602,0.30066 -3.07346,1.21259 -3.793937,2.15718 -0.599065,0.78542 -0.720072,1.24909 -0.819284,3.13933 l -0.116405,2.2178 1.346718,-0.1595 c 0.829501,-0.0982 1.65004,-0.0339 2.136497,0.16764 0.833133,0.3451 1.609324,1.30205 1.609324,1.98411 0,0.44977 0.410689,0.54735 0.653071,0.15517 z m -0.799925,-10.56292 c 0.861206,-0.13719 1.23143,-0.40997 2.116671,-1.55956 0.59009,-0.7663 1.52218,-1.71004 2.07131,-2.09721 1.34775,-0.95022 0.88084,-1.29914 -0.83398,-0.62322 -2.248425,0.88625 -4.568782,2.5495 -5.623893,4.03127 l -0.590608,0.82943 0.908364,-0.20721 c 0.499601,-0.11397 1.378062,-0.28204 1.952136,-0.3735 z"
         id="path2431"
         inkscape:connector-curvature="0" />
    </g>
  </g>
</svg>
