<?xml version="1.0" encoding="UTF-8" standalone="no"?>
<!-- Created with Inkscape (http://www.inkscape.org/) -->

<svg
   xmlns:dc="http://purl.org/dc/elements/1.1/"
   xmlns:cc="http://creativecommons.org/ns#"
   xmlns:rdf="http://www.w3.org/1999/02/22-rdf-syntax-ns#"
   xmlns:svg="http://www.w3.org/2000/svg"
   xmlns="http://www.w3.org/2000/svg"
   xmlns:sodipodi="http://sodipodi.sourceforge.net/DTD/sodipodi-0.dtd"
   xmlns:inkscape="http://www.inkscape.org/namespaces/inkscape"
   width="13.229166mm"
   height="13.229166mm"
   viewBox="0 0 13.229166 13.229166"
   version="1.1"
   id="svg180"
   inkscape:version="0.92.3 (2405546, 2018-03-11)"
   sodipodi:docname="offerIcon.svg">
  <defs
     id="defs174" />
  <sodipodi:namedview
     id="base"
     pagecolor="#ffffff"
     bordercolor="#666666"
     borderopacity="1.0"
     inkscape:pageopacity="0.0"
     inkscape:pageshadow="2"
     inkscape:zoom="5.6"
     inkscape:cx="15.440925"
     inkscape:cy="40.544165"
     inkscape:document-units="mm"
     inkscape:current-layer="layer1"
     showgrid="false"
     fit-margin-top="0"
     fit-margin-left="0"
     fit-margin-right="0"
     fit-margin-bottom="0"
     inkscape:window-width="1920"
     inkscape:window-height="1027"
     inkscape:window-x="-8"
     inkscape:window-y="-8"
     inkscape:window-maximized="1" />
  <metadata
     id="metadata177">
    <rdf:RDF>
      <cc:Work
         rdf:about="">
        <dc:format>image/svg+xml</dc:format>
        <dc:type
           rdf:resource="http://purl.org/dc/dcmitype/StillImage" />
        <dc:title></dc:title>
      </cc:Work>
    </rdf:RDF>
  </metadata>
  <g
     inkscape:label="Ebene 1"
     inkscape:groupmode="layer"
     id="layer1"
     transform="translate(5.7032102,-246.83732)">
    <path
       style="fill:#ffffff;stroke-width:2.85714293"
       d="m 358.86346,774.49363 c -8.14891,-2.32802 -32.86232,-12.92821 -34.28572,-14.706 -3.05091,-3.81052 -94.72052,-49.87949 -99.2519,-49.87949 -1.98288,0 -3.60524,-0.98821 -3.60524,-2.19601 0,-1.20781 -4.5,-3.82324 -10,-5.81206 -5.5,-1.98883 -10,-4.5041 -10,-5.58949 0,-2.05647 -14.11924,-6.73628 -17.85714,-5.91874 -1.17857,0.25778 -2.14286,-0.73381 -2.14286,-2.20352 0,-1.46972 -4.5,-4.29943 -10,-6.28825 -5.5,-1.98883 -10,-4.5041 -10,-5.58949 0,-2.05647 -14.11924,-6.73628 -17.85714,-5.91874 -1.17857,0.25778 -2.14286,-0.66105 -2.14286,-2.04183 0,-1.38078 -4.17857,-4.20064 -9.28571,-6.26636 -5.10715,-2.06572 -9.92858,-4.4717 -10.71429,-5.34663 -0.78571,-0.87493 -9.78571,-5.40889 -20,-10.07546 -10.214285,-4.66657 -19.061169,-8.79917 -19.659741,-9.18355 -0.598571,-0.38438 0.917567,-4.92595 3.369197,-10.09238 2.45163,-5.16642 7.068925,-15.48569 10.260655,-22.93169 5.352099,-12.48595 6.344289,-13.33245 12.765599,-10.89107 3.82934,1.45591 7.7375,1.87206 8.6848,0.92477 0.94729,-0.9473 1.72235,-0.37834 1.72235,1.26435 0,1.64269 4.17857,4.67683 9.28571,6.74255 5.10714,2.06571 9.92857,4.60011 10.71429,5.63198 0.78571,1.03187 9.78571,5.55415 20,10.0495 10.21428,4.49535 19.21428,8.99535 20,10 0.78571,1.00465 9.78571,5.50465 20,10 10.21428,4.49535 19.21428,8.99535 20,10 0.78571,1.00465 9.78571,5.50465 20,10 10.21428,4.49535 19.21428,8.99535 20,10 0.78571,1.00465 9.78571,5.50465 20,10 10.21428,4.49535 19.21428,8.99535 20,10 0.78571,1.00465 9.78571,5.51991 20,10.03391 10.21428,4.514 20.26847,9.84794 22.34265,11.85321 6.20548,5.99935 17.18918,7.39318 26.99852,3.42611 5.07666,-2.05308 9.87311,-4.52172 10.65883,-5.48587 0.78571,-0.96415 5.60714,-3.44313 10.71428,-5.50884 5.10715,-2.06572 9.28572,-4.88558 9.28572,-6.26636 0,-1.38078 0.96428,-2.29961 2.14285,-2.04183 3.73792,0.81754 17.85715,-3.86228 17.85715,-5.91874 0,-1.08539 4.5,-3.60066 10,-5.58949 5.5,-1.98882 10,-4.81853 10,-6.28825 0,-1.46971 0.96428,-2.41747 2.14285,-2.10613 2.78075,0.73457 16.00543,-3.67276 17.85715,-5.95116 0.78571,-0.96678 9.78571,-5.61491 20,-10.3292 10.21428,-4.71429 19.21428,-9.34269 20,-10.28535 0.78571,-0.94266 9.78571,-5.39194 20,-9.88729 10.21428,-4.49535 19.21428,-8.99535 20,-10 0.78571,-1.00465 9.78571,-5.50465 20,-10 10.21428,-4.49535 19.21428,-8.97669 20,-9.95853 1.92234,-2.4022 34.93385,-17.31592 35.99031,-16.25947 1.31629,1.3163 21.15254,41.80577 21.15254,43.17628 0,0.6764 -35.67857,18.92949 -79.28571,40.56242 -43.60714,21.63293 -79.92857,40.14717 -80.71429,41.14275 -0.78571,0.99558 -8.30294,4.72453 -16.70497,8.28657 -8.40203,3.56203 -20.61631,9.65794 -27.14285,13.54646 -6.52655,3.88852 -14.11646,7.80637 -16.86646,8.70633 -2.75,0.89996 -5,2.84793 -5,4.32882 0,1.4809 -1.28572,1.89792 -2.85714,0.92672 -1.57143,-0.97119 -2.85715,-0.40421 -2.85715,1.25996 0,1.66416 -1.00023,2.70433 -2.22274,2.31147 -2.87094,-0.92258 -29.98283,12.68456 -32.73351,16.42857 -1.3994,1.90477 -2.12826,1.90477 -2.1866,0 -0.0509,-1.66432 -0.96386,-1.54497 -2.1866,0.28588 -1.15452,1.72866 -4.02769,2.59205 -6.38483,1.91866 z"
       id="path242"
       inkscape:connector-curvature="0"
       transform="scale(0.26458333)" />
    <path
       style="fill:#ffffff;stroke-width:2.85714293"
       d="m 346.7206,507.79776 c -2.75,-1.61451 -5.01969,-1.90729 -5.04375,-0.65064 -0.024,1.25666 -0.98835,0.82943 -2.14286,-0.94939 -2.89296,-4.45737 -38.35551,-21.05369 -41.21314,-19.28757 -1.273,0.78675 -2.31454,0.29805 -2.31454,-1.086 0,-2.80247 -27.51552,-15.91602 -33.3958,-15.91602 -2.06088,0 -3.74705,-1.14731 -3.74705,-2.54957 0,-1.40226 -1.1759,-1.82283 -2.61312,-0.93458 -1.43721,0.88825 -3.04435,0.6427 -3.57143,-0.54566 -1.18871,-2.68013 -28.20047,-16.44638 -32.27062,-16.44638 -9.31321,0 -9.1794,-6.26589 0.54914,-25.71428 5.50245,-11 10.24746,-20.28658 10.54447,-20.63685 0.297,-0.35026 4.96771,0.58571 10.37935,2.07993 5.41164,1.49423 11.12506,2.97469 12.69649,3.28991 1.57143,0.31522 4.55613,2.27211 6.63266,4.34864 2.07653,2.07653 5.82071,3.77551 8.3204,3.77551 2.4997,0 10.12215,3.26848 16.93878,7.26329 6.81663,3.99482 12.39388,6.47441 12.39388,5.51021 0,-0.9642 2.01847,0.2654 4.4855,2.73241 2.46703,2.46703 7.93132,5.29546 12.14286,6.28539 4.21154,0.98994 11.83592,4.31102 16.94307,7.38018 5.10714,3.06916 9.28571,4.74073 9.28571,3.71461 0,-1.02613 2.02041,0.15471 4.4898,2.62411 4.95688,4.95689 18.36734,6.14893 18.36734,1.63266 0,-1.57143 0.96429,-2.70489 2.14286,-2.5188 6.27962,0.99152 11.95198,-0.93112 17.85714,-6.05263 3.62375,-3.14286 8.21388,-5.71429 10.2003,-5.71429 4.89041,0 30.74331,-11.20536 32.59951,-14.12952 0.81725,-1.28746 7.50758,-4.37644 14.86741,-6.86441 7.35983,-2.48798 20.13617,-7.78215 28.39187,-11.76483 8.2557,-3.98268 15.49625,-7.24124 16.09012,-7.24124 1.43757,0 20.70794,41.80068 20.70794,44.91902 0,1.34001 -2.66912,2.63744 -5.93135,2.88318 -3.26223,0.24574 -14.51224,4.85705 -25,10.24736 -10.48776,5.39031 -22.02941,10.7139 -25.6481,11.83021 -3.6187,1.11631 -13.94582,6.19337 -22.94917,11.28236 -9.00334,5.08899 -17.78622,8.78055 -19.51749,8.20345 -1.73127,-0.57709 -4.90415,0.68776 -7.05083,2.81077 -2.14669,2.12301 -10.00539,6.35898 -17.46378,9.41326 -7.4584,3.05429 -13.56554,6.25475 -13.57143,7.11214 -0.0197,2.88964 -18.5373,2.62585 -23.58214,-0.33594 z"
       id="path244"
       inkscape:connector-curvature="0"
       transform="scale(0.26458333)" />
    <g
       transform="matrix(0.26458333,0,0,0.26458333,27.01459,234.85855)"
       id="layer1-2"
       inkscape:label="Ebene 1">
      <g
         transform="matrix(0.83872361,0,0,0.84181875,-11.30436,14.831936)"
         id="g161">
        <path
           inkscape:connector-curvature="0"
           id="path175"
           d="m -109.37354,92.378603 c -3.82769,-3.561617 -3.37235,-3.392265 -7.46306,-2.775698 -3.61137,0.544322 -5.06283,0.526423 -5.23751,-0.06459 -0.0753,-0.254662 -0.49277,-2.032506 -0.92778,-3.950766 -0.43501,-1.918261 -0.97407,-3.841907 -1.19791,-4.27477 -0.3228,-0.624226 -1.20179,-1.176033 -4.24943,-2.667685 -2.11334,-1.034365 -3.84244,-1.981044 -3.84244,-2.103732 0,-0.122684 0.6581,-2.150234 1.46245,-4.505661 l 1.46245,-4.282593 -0.49582,-1.112867 c -0.2727,-0.612074 -1.28799,-2.355273 -2.2562,-3.873772 -0.96821,-1.518498 -1.76038,-2.833788 -1.76038,-2.922865 0,-0.300814 1.97232,-2.046248 3.96875,-3.512196 2.96143,-2.174538 3.24786,-2.556207 3.47919,-4.636037 0.10879,-0.978126 0.20392,-3.002538 0.21139,-4.498693 0.0101,-2.014243 0.10524,-2.755453 0.3667,-2.855786 0.19421,-0.07453 2.21951,-0.289324 4.50067,-0.477329 4.84493,-0.399302 4.56527,-0.242244 7.1006,-3.987788 2.08272,-3.076902 2.55285,-3.584856 3.3179,-3.584856 0.34538,0 2.02299,0.771274 3.72803,1.713943 1.70503,0.942668 3.47015,1.787963 3.9225,1.878432 0.6492,0.12984 1.61236,-0.179047 4.572462,-1.466405 2.062512,-0.896991 3.933664,-1.593457 4.15812,-1.547702 0.224457,0.04575 1.33872,1.747787 2.476143,3.782293 1.137423,2.034507 2.326447,3.870677 2.642275,4.080379 0.315825,0.209701 2.311582,0.6604 4.435012,1.001552 2.123427,0.341153 4.023886,0.755645 4.223239,0.921093 0.294325,0.244268 0.329467,1.17602 0.186942,4.956636 l -0.175522,4.655821 3.208425,2.998211 c 1.764633,1.649017 3.208424,3.149308 3.208424,3.33398 0,0.184673 -0.57623,1.097666 -1.280512,2.028872 -2.876192,3.802923 -3.746571,5.262375 -3.746571,6.282248 0,0.541102 0.423066,2.453339 0.940147,4.24941 0.517077,1.796073 0.904031,3.515754 0.859895,3.821512 -0.07867,0.544994 -1.789684,1.336968 -6.232956,2.88504 -2.210657,0.770213 -2.408097,1.050825 -3.880339,5.514933 -1.183998,3.590107 -1.417183,4.085741 -1.958309,4.162409 -0.337846,0.04787 -2.335609,-0.291592 -4.439473,-0.754354 -2.10386,-0.462764 -4.089627,-0.77049 -4.412813,-0.683839 -0.323186,0.08665 -2.012299,1.348843 -3.753579,2.804874 -1.74128,1.456032 -3.28909,2.645535 -3.43958,2.643341 -0.15049,-0.0021 -1.80718,-1.430943 -3.68153,-3.175 z m 2.48187,-4.315518 c 0,-0.04739 -0.32742,-0.374814 -0.7276,-0.727604 l -0.72761,-0.641432 0.64143,0.727604 c 0.59952,0.680056 0.81378,0.84894 0.81378,0.641432 z m 0.79375,-1.5875 c 0,-0.04739 -0.32742,-0.374814 -0.7276,-0.727604 l -0.72761,-0.641432 0.64143,0.727604 c 0.59952,0.680056 0.81378,0.84894 0.81378,0.641432 z m 7.072093,-3.248681 c -0.08792,-0.08792 -0.316124,-0.09732 -0.507119,-0.02088 -0.211066,0.08446 -0.148373,0.147156 0.159853,0.159851 0.278914,0.01148 0.435184,-0.05105 0.347266,-0.138964 z m -12.435413,-0.529167 c -0.0879,-0.08792 -0.31613,-0.09732 -0.50712,-0.02088 -0.21107,0.08446 -0.14837,0.147156 0.15985,0.15985 0.27891,0.01148 0.43518,-0.05105 0.34727,-0.138964 z m 1.45318,-12.978656 c 0.0405,-0.896022 -0.0156,-1.573607 -0.12476,-1.505739 -0.10914,0.06787 -0.17938,1.158166 -0.15609,2.422885 0.0432,2.345849 0.1489,2.000681 0.28085,-0.917146 z m -0.13144,-5.708314 c -0.0589,-0.475549 -0.10828,-0.15026 -0.10977,0.722865 -0.001,0.873125 0.0467,1.262211 0.10707,0.864635 0.0604,-0.397576 0.0616,-1.111951 0.003,-1.5875 z m 13.741808,-5.296406 c -0.0734,-0.181901 -0.133453,-0.03307 -0.133453,0.33073 0,0.363802 0.06005,0.51263 0.133453,0.330729 0.0734,-0.181901 0.0734,-0.479557 0,-0.661459 z m -25.394488,-3.952213 c -0.0845,-0.211067 -0.14716,-0.148372 -0.15985,0.159852 -0.0115,0.278915 0.051,0.435185 0.13896,0.347266 0.0879,-0.08792 0.0973,-0.316122 0.0209,-0.507118 z m 34.660416,-0.529167 c -0.08446,-0.211067 -0.147156,-0.148372 -0.15985,0.159853 -0.01148,0.278915 0.05104,0.435184 0.138964,0.347265 0.08792,-0.08792 0.09732,-0.316122 0.02088,-0.507118 z m -28.298226,-5.931076 c -0.0879,-0.08792 -0.31613,-0.09732 -0.50712,-0.02089 -0.21107,0.08446 -0.14837,0.147157 0.15985,0.159852 0.27891,0.01149 0.43518,-0.05105 0.34727,-0.138964 z"
           style="fill:#cecece;stroke-width:0.26458332" />
        <path
           inkscape:connector-curvature="0"
           id="path173"
           d="m -109.30499,92.352944 -3.46709,-3.204644 -1.49157,0.134975 c -0.82036,0.07423 -2.77122,0.290248 -4.33524,0.480025 -2.1443,0.260192 -2.91857,0.270166 -3.14818,0.04056 -0.16748,-0.167476 -0.70274,-2.05672 -1.18947,-4.198319 -0.48673,-2.141601 -1.07503,-4.183901 -1.30734,-4.538445 -0.26461,-0.403844 -1.72295,-1.261346 -3.90435,-2.29574 -1.91509,-0.908113 -3.62956,-1.829416 -3.80993,-2.04734 -0.26787,-0.323649 -0.0592,-1.165492 1.13902,-4.595995 0.99859,-2.858842 1.41495,-4.414097 1.30404,-4.871038 -0.0896,-0.369194 -1.12185,-2.194599 -2.29387,-4.056454 -2.51088,-3.988753 -2.67808,-3.345269 1.72017,-6.620251 3.82082,-2.84502 3.88255,-2.973686 3.88255,-8.092361 0,-2.180022 0.0971,-4.023663 0.21569,-4.09698 0.11863,-0.07332 2.05339,-0.270102 4.29948,-0.4373 2.61883,-0.194945 4.29791,-0.440025 4.68068,-0.683197 0.63327,-0.402309 1.617,-1.639623 3.86622,-4.862845 0.87586,-1.255133 1.59328,-2.014756 1.95221,-2.067045 0.3189,-0.04646 2.16084,0.747332 4.20511,1.812209 4.2669,2.222655 4.00295,2.213367 8.346949,0.293726 4.673388,-2.065202 4.05289,-2.248014 6.313239,1.860015 2.65186,4.819572 2.590181,4.768694 6.469377,5.336404 4.374491,0.640195 5.123495,0.862328 5.299118,1.571568 0.07979,0.322207 0.04733,2.193175 -0.07213,4.157706 -0.119459,1.964531 -0.170627,3.895211 -0.113704,4.2904 0.07347,0.510104 1.016135,1.572642 3.249792,3.663059 1.730468,1.619494 3.146303,3.07238 3.146303,3.228636 0,0.156255 -0.617683,1.127253 -1.372626,2.157773 -3.536686,4.827673 -3.767892,5.223211 -3.714949,6.355387 0.02764,0.590995 0.469271,2.492777 0.981411,4.226182 0.512141,1.733404 0.931164,3.357118 0.931164,3.60825 0,0.47036 -1.005512,0.954841 -5.468067,2.63466 -1.188429,0.447355 -2.464578,1.05234 -2.835889,1.344411 -0.640815,0.504066 -1.576527,2.928946 -2.543429,6.591242 -0.32341,1.224976 -0.92057,2.111401 -1.430602,2.123591 -0.159345,0.0038 -2.029222,-0.37047 -4.155278,-0.831731 -2.126057,-0.461261 -4.155612,-0.765858 -4.510122,-0.676881 -0.35451,0.08898 -2.067827,1.35382 -3.807367,2.810761 -1.73953,1.456944 -3.25312,2.651393 -3.36352,2.654332 -0.11039,0.0029 -1.76091,-1.436746 -3.6678,-3.199302 z m 2.94249,-3.754908 c 0,-0.04421 -0.44649,-0.490699 -0.99219,-0.992188 l -0.99219,-0.911799 0.9118,0.992188 c 0.84868,0.923506 1.07258,1.11384 1.07258,0.911799 z m 4.79625,-1.970133 c 0.3291,-0.419645 0.31975,-0.429003 -0.0999,-0.0999 -0.25466,0.199721 -0.46302,0.40808 -0.46302,0.463021 0,0.217763 0.21727,0.07761 0.56292,-0.363125 z m -2.38125,-0.264583 c 0.3291,-0.419645 0.31975,-0.429004 -0.0999,-0.0999 -0.25466,0.19972 -0.46302,0.40808 -0.46302,0.463021 0,0.217762 0.21727,0.07761 0.56292,-0.363125 z m -2.15042,0.12401 c 0,-0.04094 -0.74414,-0.785077 -1.65365,-1.653646 l -1.65364,-1.579218 1.57922,1.653645 c 1.46696,1.536097 1.72807,1.77472 1.72807,1.579219 z m 4.0025,-1.71151 c 0.32911,-0.419645 0.31975,-0.429004 -0.0999,-0.0999 -0.25466,0.19972 -0.46302,0.40808 -0.46302,0.463021 0,0.217762 0.21728,0.0776 0.56292,-0.363125 z m -12.54082,0.03858 c -0.0879,-0.08792 -0.31613,-0.09732 -0.50712,-0.02088 -0.21107,0.08446 -0.14837,0.147156 0.15985,0.159851 0.27891,0.01148 0.43518,-0.05105 0.34727,-0.138964 z m 21.309501,-0.542864 c -0.179131,-0.07247 -0.536318,-0.07689 -0.79375,-0.0098 -0.257432,0.06708 -0.110868,0.126381 0.325694,0.131773 0.436563,0.0054 0.647187,-0.04949 0.468056,-0.12197 z m -5.55625,-1.058333 c -0.179131,-0.07247 -0.536318,-0.07689 -0.79375,-0.0098 -0.257432,0.06708 -0.110868,0.126381 0.325694,0.131774 0.436563,0.0054 0.647187,-0.04949 0.468056,-0.121971 z M -111.58299,82.68404 c -0.17913,-0.07247 -0.53632,-0.07688 -0.79375,-0.0098 -0.25743,0.06708 -0.11087,0.126381 0.3257,0.131773 0.43656,0.0054 0.64718,-0.04949 0.46805,-0.12197 z m 26.567893,-7.813559 c -0.08446,-0.211066 -0.147156,-0.148373 -0.159851,0.159854 -0.01148,0.278913 0.05104,0.435184 0.138965,0.347265 0.08792,-0.08792 0.09732,-0.316124 0.02088,-0.507119 z m -28.888033,-1.273307 c 0.26339,-0.291042 0.41936,-0.529167 0.3466,-0.529167 -0.0728,0 -0.34779,0.238125 -0.61118,0.529167 -0.26339,0.291042 -0.41936,0.529167 -0.3466,0.529167 0.0728,0 0.34779,-0.238125 0.61118,-0.529167 z m 4.17882,-5.369531 c 0.22641,-0.161068 0.20382,-0.195739 -0.0778,-0.119364 -0.31328,0.08497 -0.40065,0.604689 -0.41479,2.467539 l -0.0179,2.359898 0.0957,-2.240534 c 0.0574,-1.34416 0.22336,-2.33135 0.41479,-2.467539 z m -6.77456,3.054427 c -0.0666,-0.254662 -0.121,-0.0463 -0.121,0.463021 0,0.509323 0.0545,0.717682 0.121,0.46302 0.0665,-0.254661 0.0665,-0.67138 0,-0.926041 z m 3.45226,-4.365625 c -0.0534,-0.763985 -0.0972,-0.138906 -0.0972,1.389062 0,1.527969 0.0437,2.153047 0.0972,1.389063 0.0534,-0.763985 0.0534,-2.014141 0,-2.778125 z m 26.703085,2.116666 c -0.0734,-0.181901 -0.133453,-0.03307 -0.133453,0.33073 0,0.363802 0.06006,0.51263 0.133453,0.330729 0.0734,-0.181901 0.0734,-0.479557 0,-0.661459 z m -10.018456,-0.763232 c -0.08331,-0.529614 -0.120578,-0.492348 -0.242382,0.242379 -0.08716,0.525785 -0.04834,0.772612 0.09845,0.625827 0.133308,-0.133308 0.198078,-0.524002 0.143932,-0.868206 z m -20.132139,-1.879516 c -0.0633,-0.329118 -0.11747,-0.122147 -0.12041,0.459936 -0.003,0.582083 0.0488,0.851363 0.11507,0.598398 0.0662,-0.252966 0.0686,-0.729216 0.005,-1.058334 z m 6.35462,-2.379596 c -0.0589,-0.475549 -0.10828,-0.15026 -0.10977,0.722865 -0.001,0.873125 0.0467,1.262211 0.10707,0.864635 0.0604,-0.397576 0.0616,-1.111951 0.003,-1.5875 z m -4.50893,1.334714 c -0.0845,-0.211066 -0.14716,-0.148373 -0.15985,0.159854 -0.0115,0.278913 0.051,0.435184 0.13896,0.347265 0.0879,-0.08792 0.0973,-0.316124 0.0209,-0.507119 z m 24.341666,-1.5875 c -0.08446,-0.211066 -0.147156,-0.148373 -0.15985,0.159854 -0.01148,0.278913 0.05104,0.435184 0.138964,0.347265 0.08792,-0.08792 0.09732,-0.316124 0.02088,-0.507119 z m -2.10448,-0.110244 c -0.08792,-0.08792 -0.316124,-0.09732 -0.507118,-0.02087 -0.211067,0.08446 -0.148374,0.147156 0.159853,0.15985 0.278913,0.01148 0.435184,-0.05104 0.347265,-0.138964 z m -14.834366,-2.287542 c -0.0734,-0.181901 -0.13345,-0.03307 -0.13345,0.330729 0,0.363802 0.06,0.51263 0.13345,0.330729 0.0734,-0.181901 0.0734,-0.479557 0,-0.661458 z m 23.37269,0.760001 c 0,-0.05494 -0.208359,-0.263302 -0.463021,-0.463021 -0.419645,-0.329107 -0.429003,-0.319749 -0.0999,0.09989 0.345644,0.440729 0.562917,0.580887 0.562917,0.363126 z m -41.43863,-0.839889 c 0.0904,-0.235459 0.046,-0.341662 -0.10398,-0.248968 -0.14386,0.08891 -0.26156,0.273684 -0.26156,0.410617 0,0.380585 0.18965,0.29672 0.36554,-0.161649 z m 23.36312,-0.697326 c -0.0845,-0.211067 -0.14716,-0.148372 -0.15985,0.159853 -0.0115,0.278915 0.051,0.435184 0.13896,0.347265 0.0879,-0.08792 0.0973,-0.316122 0.0209,-0.507118 z m 11.641666,-0.264583 c -0.08446,-0.211067 -0.147156,-0.148372 -0.15985,0.159852 -0.01148,0.278915 0.05104,0.435185 0.138964,0.347266 0.08792,-0.08792 0.09732,-0.316122 0.02088,-0.507118 z m 4.581761,0.231402 c 0,-0.04554 -0.386953,-0.432488 -0.859896,-0.859896 l -0.859896,-0.777105 0.777105,0.859896 c 0.724371,0.801543 0.942687,0.981512 0.942687,0.777105 z m 2.645833,-0.01711 c 0,-0.05494 -0.208359,-0.263302 -0.463021,-0.463021 -0.419645,-0.329106 -0.429003,-0.319748 -0.0999,0.0999 0.345644,0.440729 0.562917,0.580887 0.562917,0.363126 z M -96.389566,58.5871 c -0.06708,-0.257431 -0.126381,-0.110869 -0.131773,0.325694 -0.0054,0.436562 0.04949,0.647188 0.12197,0.468056 0.07247,-0.179131 0.07688,-0.536319 0.0098,-0.79375 z m 8.995833,-0.79375 c -0.06708,-0.257431 -0.126381,-0.110869 -0.131773,0.325694 -0.0054,0.436562 0.04949,0.647188 0.12197,0.468056 0.07247,-0.179131 0.07689,-0.536319 0.0098,-0.79375 z m -7.187811,-0.284666 c -0.08146,-0.08146 -0.294955,-1.68e-4 -0.474432,0.180653 -0.259361,0.261307 -0.228971,0.291698 0.148114,0.148113 0.260937,-0.09936 0.407781,-0.247304 0.326318,-0.328766 z m 9.038926,-2.630786 c -0.06655,-0.254661 -0.121002,-0.0463 -0.121002,0.463021 0,0.509323 0.05445,0.717682 0.121002,0.463021 0.06655,-0.254662 0.06655,-0.67138 0,-0.926042 z M -121.78117,53.16285 c -0.0589,-0.475549 -0.10828,-0.150259 -0.10976,0.722866 -0.001,0.873125 0.0467,1.26221 0.10706,0.864634 0.0604,-0.397576 0.0616,-1.111951 0.003,-1.5875 z m 34.550817,-1.021416 c -0.117943,-0.118387 -0.156813,0.46377 -0.08638,1.293683 l 0.128066,1.508932 0.08638,-1.293683 c 0.04751,-0.711526 -0.01013,-1.390545 -0.128066,-1.508932 z m -32.264567,-1.649299 c 0.1983,-0.144424 0.16548,-0.182275 -0.0968,-0.111567 -0.21828,0.05886 -0.41886,0.395343 -0.44573,0.747747 -0.0385,0.50522 -0.0181,0.528816 0.0968,0.111567 0.0801,-0.291041 0.28067,-0.627528 0.44573,-0.747747 z m 2.47743,-0.338147 c -0.0879,-0.08792 -0.31613,-0.09732 -0.50712,-0.02089 -0.21107,0.08446 -0.14837,0.147157 0.15985,0.159853 0.27891,0.01149 0.43518,-0.05105 0.34727,-0.138965 z m -1.5875,-1.5875 c -0.0879,-0.08792 -0.31613,-0.09732 -0.50712,-0.02089 -0.21107,0.08446 -0.14837,0.147157 0.15985,0.159853 0.27891,0.01149 0.43518,-0.05105 0.34727,-0.138965 z m 3.05325,-0.278281 c -0.17913,-0.07247 -0.53632,-0.07689 -0.79375,-0.0098 -0.25743,0.06708 -0.11087,0.12638 0.3257,0.131772 0.43656,0.0054 0.64718,-0.04949 0.46805,-0.12197 z m 20.037154,-4.151067 c 0,-0.05021 -0.267891,-0.318098 -0.595313,-0.595313 l -0.595312,-0.504028 0.504028,0.595312 c 0.473663,0.559447 0.686597,0.715762 0.686597,0.504029 z m -15.047504,-0.900904 c 0.32911,-0.419643 0.31975,-0.429002 -0.0999,-0.09989 -0.25466,0.199719 -0.46302,0.408078 -0.46302,0.463021 0,0.217761 0.21727,0.0776 0.56291,-0.363127 z"
           style="fill:#b0b0b0;stroke-width:0.26458332" />
        <path
           inkscape:connector-curvature="0"
           id="path171"
           d="m -107.74479,93.776328 c -1.05875,-0.98594 -2.61668,-2.430669 -3.46205,-3.210504 l -1.53705,-1.417881 -1.63795,0.13059 c -0.90088,0.07183 -2.86007,0.285928 -4.35377,0.475779 -2.03288,0.258385 -2.79167,0.269338 -3.01744,0.04356 -0.16589,-0.165894 -0.63676,-1.867712 -1.04636,-3.781822 -1.10784,-5.17702 -1.04429,-5.089273 -5.16157,-7.127213 -1.91098,-0.945886 -3.6575,-1.875187 -3.88115,-2.065116 -0.36076,-0.306358 -0.24134,-0.835144 1.05832,-4.686315 0.91502,-2.7114 1.40699,-4.568241 1.31053,-4.946344 -0.0849,-0.332943 -1.12868,-2.147736 -2.31942,-4.032877 l -2.16498,-3.427526 1.16373,-1.019199 c 0.64006,-0.560559 2.13752,-1.728831 3.3277,-2.596159 3.16964,-2.309833 3.26,-2.512774 3.26,-7.321651 0,-2.855655 0.0929,-4.04763 0.33073,-4.243091 0.1819,-0.149502 2.10853,-0.409596 4.28141,-0.577987 2.17288,-0.168391 4.13741,-0.407591 4.36563,-0.531556 0.74188,-0.402984 1.80615,-1.675789 3.65566,-4.371971 1.23977,-1.807317 2.00013,-2.672762 2.39921,-2.730805 0.33808,-0.04917 1.78126,0.563332 3.42528,1.453724 3.49907,1.895083 4.19322,2.203123 4.96462,2.203123 0.3342,0 2.26667,-0.714375 4.294387,-1.5875 2.027716,-0.873125 3.802589,-1.5875 3.944162,-1.5875 0.141573,0 1.179465,1.664111 2.306428,3.698024 1.126961,2.033913 2.331059,3.919875 2.675774,4.191026 0.429977,0.338222 1.823283,0.679862 4.437904,1.08818 2.096135,0.327348 3.979516,0.6992 4.18529,0.826339 0.439838,0.271755 0.473038,1.612536 0.153297,6.190987 l -0.22084,3.162265 3.334325,3.187735 c 1.83388,1.753254 3.332241,3.290375 3.329694,3.415824 -0.0026,0.125449 -0.934064,1.494669 -2.07004,3.042709 -1.135972,1.54804 -2.336424,3.261291 -2.667669,3.807222 -0.690425,1.137909 -0.66231,1.378114 0.749977,6.407724 0.444455,1.582849 0.808101,3.021187 0.808101,3.19631 0,0.354978 -1.232053,0.913481 -5.195231,2.355064 -1.47493,0.536495 -2.930626,1.207365 -3.234878,1.490818 -0.337084,0.314045 -1.026483,2.004433 -1.764752,4.327144 -0.666361,2.096474 -1.374532,3.947023 -1.573713,4.112327 -0.409069,0.339497 -1.078291,0.24992 -5.122071,-0.685607 -4.186545,-0.968553 -3.992142,-1.01794 -7.472745,1.898369 -1.66154,1.392166 -3.22629,2.644878 -3.47723,2.783806 -0.36634,0.202824 -0.83554,-0.100621 -2.38125,-1.540029 z m 1.38229,-5.178292 c 0,-0.04421 -0.44649,-0.490699 -0.99219,-0.992188 l -0.99219,-0.911799 0.9118,0.992188 c 0.84868,0.923506 1.07258,1.11384 1.07258,0.911799 z m 4.79625,-1.970133 c 0.3291,-0.419645 0.31975,-0.429003 -0.0999,-0.0999 -0.25466,0.199721 -0.46302,0.40808 -0.46302,0.463021 0,0.217763 0.21727,0.07761 0.56292,-0.363125 z m -2.28271,-0.330729 c 0.26339,-0.291042 0.41936,-0.529167 0.3466,-0.529167 -0.0728,0 -0.34779,0.238125 -0.61118,0.529167 -0.26339,0.291042 -0.41936,0.529167 -0.3466,0.529167 0.0728,0 0.34779,-0.238125 0.61118,-0.529167 z m -2.24896,0.190794 c 0,-0.04058 -0.80367,-0.844257 -1.78594,-1.785938 l -1.78593,-1.712148 1.71214,1.785938 c 1.59032,1.658855 1.85973,1.906886 1.85973,1.712148 z m 14.056667,-0.918398 c 0.329107,-0.419645 0.319749,-0.429004 -0.0999,-0.0999 -0.254661,0.19972 -0.463021,0.40808 -0.463021,0.463021 0,0.217762 0.217273,0.07761 0.562917,-0.363125 z m -3.809574,0.03858 c -0.08792,-0.08792 -0.316124,-0.09732 -0.507119,-0.02088 -0.211066,0.08446 -0.148373,0.147156 0.159853,0.159851 0.278914,0.01148 0.435185,-0.05105 0.347266,-0.138964 z m -1.322917,-0.264583 c -0.08792,-0.08792 -0.316124,-0.09732 -0.507119,-0.02088 -0.211066,0.08446 -0.148373,0.147156 0.159854,0.159851 0.278913,0.01148 0.435184,-0.05105 0.347265,-0.138965 z m -4.823136,-0.633897 c 0.26339,-0.291042 0.41936,-0.529167 0.3466,-0.529167 -0.0728,0 -0.34779,0.238125 -0.61118,0.529167 -0.26339,0.291042 -0.41936,0.529167 -0.3466,0.529167 0.0728,0 0.34779,-0.238125 0.61118,-0.529167 z m -12.50156,0.08935 c -0.1819,-0.0734 -0.47956,-0.0734 -0.66146,0 -0.1819,0.0734 -0.0331,0.133453 0.33073,0.133453 0.3638,0 0.51263,-0.06005 0.33073,-0.133453 z m 1.71428,-0.249208 c -0.0879,-0.08792 -0.31612,-0.09732 -0.50712,-0.02088 -0.21107,0.08446 -0.14837,0.147156 0.15985,0.159851 0.27892,0.01148 0.43519,-0.05105 0.34727,-0.138965 z m 19.650824,-0.332624 c 0,-0.125341 -0.297657,-0.170992 -0.661459,-0.101446 -0.363802,0.06954 -0.661458,0.172095 -0.661458,0.227893 0,0.0558 0.297656,0.101447 0.661458,0.101447 0.363802,0 0.661459,-0.102553 0.661459,-0.227894 z m -5.88698,-1.012825 c -0.254661,-0.06655 -0.67138,-0.06655 -0.926041,0 -0.254663,0.06655 -0.0463,0.121002 0.463021,0.121002 0.509322,0 0.717682,-0.05445 0.46302,-0.121002 z m -15.478124,-0.257426 c -0.1819,-0.0734 -0.47956,-0.0734 -0.66146,0 -0.1819,0.0734 -0.0331,0.133453 0.33073,0.133453 0.3638,0 0.51263,-0.06006 0.33073,-0.133453 z m 2.77812,-0.271741 c -0.25466,-0.06655 -0.67138,-0.06655 -0.92604,0 -0.25466,0.06655 -0.0463,0.121002 0.46302,0.121002 0.50933,0 0.71769,-0.05445 0.46302,-0.121002 z m 26.753631,-7.72048 c -0.05327,-0.155057 -0.247271,0.03895 -0.431112,0.431114 -0.308917,0.658977 -0.301575,0.68035 0.09686,0.281919 0.237112,-0.237111 0.387528,-0.557977 0.334256,-0.713033 z m 1.803675,0.444923 c -0.08446,-0.211066 -0.147155,-0.148373 -0.15985,0.159853 -0.01148,0.278913 0.05104,0.435184 0.138964,0.347266 0.08792,-0.08792 0.09732,-0.316124 0.02088,-0.507119 z m -34.485266,-1.41701 c -0.0862,-0.224558 -0.21342,-0.351542 -0.28278,-0.282187 -0.0694,0.06936 -0.0476,0.253085 0.0483,0.408287 0.26089,0.422132 0.41338,0.340124 0.23448,-0.1261 z m 3.74515,-0.385464 c 0.26339,-0.291042 0.41936,-0.529167 0.3466,-0.529167 -0.0728,0 -0.34779,0.238125 -0.61118,0.529167 -0.26339,0.291042 -0.41936,0.529167 -0.3466,0.529167 0.0728,0 0.34779,-0.238125 0.61118,-0.529167 z m -10.2703,-0.314193 c -0.0845,-0.211066 -0.14716,-0.148373 -0.15985,0.159854 -0.0115,0.278913 0.051,0.435184 0.13896,0.347265 0.0879,-0.08792 0.0973,-0.316124 0.0209,-0.507119 z m 12.44777,-2.524178 c -0.0573,-0.548947 -0.1051,-0.16465 -0.10627,0.853996 -0.001,1.018646 0.0457,1.467787 0.10414,0.998088 0.0584,-0.469697 0.0594,-1.303134 0.002,-1.852084 z m 2.00086,-2.530853 c 0.22718,-0.161589 0.20484,-0.196175 -0.0773,-0.119621 -0.31545,0.0856 -0.40039,0.618966 -0.41401,2.59983 l -0.0171,2.49214 0.0944,-2.372519 c 0.0578,-1.451501 0.21848,-2.460762 0.41401,-2.59983 z m -6.77407,3.05412 c -0.0666,-0.254662 -0.121,-0.0463 -0.121,0.463021 0,0.509323 0.0545,0.717682 0.121,0.46302 0.0665,-0.254661 0.0665,-0.67138 0,-0.926041 z m -1.57482,-3.042709 c -0.0534,-0.763984 -0.0972,-0.138906 -0.0972,1.389063 0,1.527969 0.0437,2.153047 0.0972,1.389062 0.0534,-0.763984 0.0534,-2.01414 0,-2.778125 z m 5.02871,-1.840507 c -0.0504,-1.061392 -0.0919,-0.26293 -0.0923,1.774362 -4.2e-4,2.037291 0.0408,2.905704 0.0915,1.929804 0.0508,-0.975899 0.0511,-2.642774 7.4e-4,-3.704166 z m 26.838859,2.851256 c 0.05827,-0.499116 0.01177,-0.849279 -0.103344,-0.778137 -0.207166,0.128037 -0.305065,1.685618 -0.105944,1.685618 0.05684,0 0.151021,-0.408366 0.209288,-0.907481 z m -10.15586,-0.980231 c -0.08331,-0.529614 -0.120578,-0.492348 -0.242382,0.242379 -0.08716,0.525785 -0.04834,0.772612 0.09845,0.625827 0.133308,-0.133308 0.198078,-0.524002 0.143932,-0.868206 z m -20.132139,-1.879516 c -0.0633,-0.329118 -0.11747,-0.122147 -0.12041,0.459936 -0.003,0.582083 0.0488,0.851363 0.11507,0.598398 0.0662,-0.252966 0.0686,-0.729216 0.005,-1.058334 z m 1.85168,-0.796835 c -0.0631,-0.327422 -0.11467,-0.05953 -0.11467,0.595313 0,0.654843 0.0516,0.922734 0.11467,0.595312 0.0631,-0.327422 0.0631,-0.863203 0,-1.190625 z m 6.62078,0.700043 c -0.0879,-0.08792 -0.31612,-0.09732 -0.50712,-0.02088 -0.21107,0.08446 -0.14837,0.147156 0.15985,0.159851 0.27892,0.01148 0.43519,-0.05104 0.34727,-0.138965 z m 5.54447,-0.654622 c 0.0385,-0.505219 0.0181,-0.528815 -0.0968,-0.111567 -0.0801,0.291042 -0.28067,0.627528 -0.44573,0.747747 -0.19831,0.144426 -0.16548,0.182274 0.0968,0.111567 0.21828,-0.05886 0.41886,-0.395343 0.44573,-0.747747 z m -7.66231,-1.628182 c -0.0589,-0.475549 -0.10828,-0.15026 -0.10977,0.722865 -0.001,0.873125 0.0467,1.262211 0.10707,0.864635 0.0604,-0.397576 0.0616,-1.111951 0.003,-1.5875 z m -4.88811,0.679929 c -0.1819,-0.0734 -0.47955,-0.0734 -0.66146,0 -0.1819,0.0734 -0.0331,0.133453 0.33073,0.133453 0.36381,0 0.51263,-0.06006 0.33073,-0.133453 z m 24.715335,-1.213835 c -0.0734,-0.181901 -0.133453,-0.03307 -0.133453,0.33073 0,0.363802 0.06006,0.51263 0.133453,0.330729 0.0734,-0.181901 0.0734,-0.479557 0,-0.661459 z m -2.098969,0.170876 c -0.08792,-0.08792 -0.316124,-0.09732 -0.507118,-0.02087 -0.211067,0.08446 -0.148374,0.147156 0.159853,0.15985 0.278913,0.01148 0.435184,-0.05104 0.347265,-0.138964 z m 11.62948,-0.418922 c -0.08446,-0.211066 -0.147155,-0.148373 -0.15985,0.159853 -0.01148,0.278913 0.05104,0.435184 0.138964,0.347266 0.08792,-0.08792 0.09732,-0.316125 0.02088,-0.507119 z m -18.520833,-0.264584 c -0.08446,-0.211066 -0.147156,-0.148373 -0.159851,0.159854 -0.01148,0.278913 0.05104,0.435184 0.138965,0.347265 0.08792,-0.08792 0.09732,-0.316124 0.02087,-0.507119 z m 16.752594,0.500182 c 0,-0.04323 -0.506016,-0.549243 -1.124479,-1.12448 l -1.124479,-1.045884 1.045884,1.124479 c 0.972662,1.045755 1.203074,1.246063 1.203074,1.045885 z m -24.659897,-1.80911 c -0.0833,-0.529611 -0.12058,-0.492347 -0.24238,0.24238 -0.0872,0.525785 -0.0483,0.772613 0.0984,0.625829 0.13331,-0.13331 0.19808,-0.524004 0.14393,-0.868209 z m -18.05141,-0.225173 c 0,-0.310727 -0.0971,-0.428248 -0.23775,-0.287638 -0.13077,0.130763 -0.15776,0.367187 -0.06,0.525387 0.24878,0.402534 0.29773,0.363445 0.29773,-0.237749 z m 43.76964,0.425492 c 0,-0.05494 -0.208359,-0.263302 -0.463021,-0.463021 -0.419645,-0.329108 -0.429003,-0.319749 -0.0999,0.09989 0.345644,0.44073 0.562917,0.580888 0.562917,0.363127 z m -20.45676,-1.272632 c -0.0845,-0.211067 -0.14716,-0.148372 -0.15985,0.159853 -0.0115,0.278915 0.051,0.435184 0.13896,0.347265 0.0879,-0.08792 0.0973,-0.316122 0.0209,-0.507118 z m 11.641666,-0.264583 c -0.08446,-0.211067 -0.147156,-0.148372 -0.15985,0.159852 -0.01148,0.278915 0.05104,0.435185 0.138964,0.347266 0.08792,-0.08792 0.09732,-0.316122 0.02088,-0.507118 z m 4.846344,0.498387 c 0,-0.04421 -0.446484,-0.490699 -0.992187,-0.992188 l -0.992188,-0.911798 0.911799,0.992187 c 0.848681,0.923507 1.072576,1.11384 1.072576,0.911799 z m 2.38125,-0.275479 c 0,-0.05021 -0.26789,-0.318097 -0.595312,-0.595312 l -0.595313,-0.504028 0.504029,0.595312 c 0.473662,0.559447 0.686596,0.715762 0.686596,0.504028 z m -13.272913,-1.48131 c 0.0487,-0.332807 -0.02582,-0.719462 -0.165581,-0.859233 -0.162449,-0.162449 -0.205187,0.0019 -0.118467,0.455534 0.08381,0.43845 -0.0046,0.807722 -0.231294,0.966247 -0.303572,0.212264 -0.298402,0.238099 0.02992,0.14957 0.218281,-0.05886 0.436721,-0.37931 0.48542,-0.712118 z m 4.309912,-0.350044 c -0.261308,-0.259363 -0.291698,-0.228972 -0.148114,0.148112 0.09936,0.260938 0.247304,0.407782 0.328766,0.326319 0.08146,-0.08146 1.7e-4,-0.294955 -0.180652,-0.474431 z m 4.651809,-1.583091 c -0.06306,-0.327421 -0.114662,-0.05953 -0.114662,0.595313 0,0.654844 0.0516,0.922734 0.114662,0.595312 0.06307,-0.327421 0.06307,-0.863203 0,-1.190625 z m -2.916402,0.810287 c -0.08446,-0.211067 -0.147156,-0.148372 -0.15985,0.159852 -0.01148,0.278915 0.05104,0.435185 0.138964,0.347266 0.08792,-0.08792 0.09732,-0.316122 0.02088,-0.507118 z m -4.27478,-0.428459 c -0.08146,-0.08146 -0.294955,-1.68e-4 -0.474432,0.180653 -0.259361,0.261307 -0.228971,0.291698 0.148114,0.148113 0.260937,-0.09936 0.407781,-0.247304 0.326318,-0.328766 z m 9.046401,-2.362564 c -0.06081,-0.402184 -0.1122,-0.13593 -0.114187,0.591674 -0.0019,0.727604 0.04777,1.056663 0.110575,0.731242 0.0628,-0.325421 0.06443,-0.920733 0.0036,-1.322916 z m -36.243707,-2.77477 c -0.0559,-0.62231 -0.10241,-0.178973 -0.10337,0.985194 -9.5e-4,1.164167 0.0448,1.67333 0.10162,1.131473 0.0569,-0.541857 0.0576,-1.494357 0.002,-2.116667 z m 34.548497,-0.229921 c -0.117943,-0.118387 -0.156813,0.46377 -0.08638,1.293683 l 0.128066,1.508932 0.08638,-1.293683 c 0.04751,-0.711526 -0.01013,-1.390545 -0.128066,-1.508932 z m -32.208297,-1.651963 c 0.24597,-0.07749 0.21627,-0.10672 -0.0817,-0.08039 -0.32746,0.02894 -0.48809,0.299209 -0.53435,0.89911 -0.0631,0.818352 -0.0594,0.822043 0.0817,0.08039 0.0813,-0.427539 0.32177,-0.832138 0.53436,-0.899111 z m 31.26074,1.252017 c -0.08792,-0.08792 -0.316124,-0.09732 -0.507119,-0.02089 -0.211066,0.08446 -0.148373,0.147157 0.159853,0.159853 0.278913,0.01149 0.435184,-0.05105 0.347266,-0.138965 z m -1.5875,-0.264583 c -0.08792,-0.08792 -0.316124,-0.09732 -0.507119,-0.02089 -0.211066,0.08446 -0.148373,0.147157 0.159853,0.159852 0.278913,0.01149 0.435184,-0.05105 0.347266,-0.138964 z m -1.5875,-0.264584 c -0.08792,-0.08792 -0.316124,-0.09732 -0.507119,-0.02089 -0.211066,0.08446 -0.148373,0.147156 0.159853,0.159852 0.278913,0.01149 0.435184,-0.05104 0.347266,-0.138964 z m 5.89249,0.05996 c 0,-0.05494 -0.208359,-0.263301 -0.463021,-0.463021 -0.419645,-0.329107 -0.429003,-0.319749 -0.0999,0.0999 0.345644,0.440729 0.562917,0.580887 0.562917,0.363126 z m -31.14965,-1.131988 c -0.17913,-0.07248 -0.53632,-0.07689 -0.79375,-0.0098 -0.25743,0.06708 -0.11087,0.12638 0.32569,0.131772 0.43656,0.0054 0.64719,-0.04949 0.46806,-0.121969 z m -4.56038,-0.752492 c 0.35904,-0.489481 0.35343,-0.501933 -0.0749,-0.166041 -0.25466,0.19972 -0.46302,0.487454 -0.46302,0.63941 0,0.151956 0.0337,0.226674 0.0749,0.166041 0.0412,-0.06063 0.24954,-0.348368 0.46302,-0.63941 z m 6.79879,0.501606 c -0.0879,-0.08792 -0.31612,-0.09732 -0.50712,-0.02089 -0.21107,0.08446 -0.14837,0.147157 0.15985,0.159852 0.27892,0.01149 0.43519,-0.05105 0.34727,-0.138964 z m 22.754166,-0.529167 c -0.08792,-0.08792 -0.316124,-0.09732 -0.507118,-0.02089 -0.211067,0.08446 -0.148374,0.147157 0.159853,0.159853 0.278913,0.01149 0.435184,-0.05105 0.347265,-0.138965 z m -26.987496,-0.79375 c -0.0879,-0.08792 -0.31613,-0.09732 -0.50712,-0.02089 -0.21107,0.08446 -0.14837,0.147157 0.15985,0.159853 0.27891,0.01149 0.43518,-0.05105 0.34727,-0.138965 z m 2.91901,-0.286521 c -0.25297,-0.06622 -0.72922,-0.06863 -1.05833,-0.0053 -0.32912,0.06329 -0.12215,0.117469 0.45993,0.120406 0.58209,0.0029 0.85136,-0.04884 0.5984,-0.115067 z m 12.6914,-1.036396 c -0.0879,-0.08792 -0.31612,-0.09732 -0.50712,-0.02089 -0.21106,0.08446 -0.14837,0.147156 0.15986,0.159852 0.27891,0.01149 0.43518,-0.05104 0.34726,-0.138964 z m 7.744577,-2.836735 c 0,-0.04739 -0.327422,-0.374816 -0.727604,-0.727604 l -0.727604,-0.641433 0.641432,0.727604 c 0.599516,0.680056 0.813776,0.848939 0.813776,0.641433 z m -15.345837,-1.104454 c 0.34178,-0.363802 0.56188,-0.661458 0.48912,-0.661458 -0.0728,0 -0.41193,0.297656 -0.7537,0.661458 -0.34177,0.363802 -0.56188,0.661459 -0.48912,0.661459 0.0728,0 0.41193,-0.297657 0.7537,-0.661459 z"
           style="fill:#fec80d;stroke-width:0.26458332" />
        <path
           inkscape:connector-curvature="0"
           id="path169"
           d="m -107.74479,93.776328 c -1.05875,-0.98594 -2.61668,-2.430669 -3.46205,-3.210504 l -1.53705,-1.417881 -1.63795,0.13059 c -0.90088,0.07183 -2.86007,0.285928 -4.35377,0.475779 -2.03288,0.258385 -2.79167,0.269338 -3.01744,0.04356 -0.16589,-0.165894 -0.63676,-1.867712 -1.04636,-3.781822 -1.10784,-5.17702 -1.04429,-5.089273 -5.16157,-7.127213 -1.91098,-0.945886 -3.6575,-1.875187 -3.88115,-2.065116 -0.36076,-0.306358 -0.24134,-0.835144 1.05832,-4.686315 0.91502,-2.7114 1.40699,-4.568241 1.31053,-4.946344 -0.0849,-0.332943 -1.12868,-2.147736 -2.31942,-4.032877 l -2.16498,-3.427526 1.16373,-1.019199 c 0.64006,-0.560559 2.13752,-1.728831 3.3277,-2.596159 3.16964,-2.309833 3.26,-2.512774 3.26,-7.321651 0,-2.855655 0.0929,-4.04763 0.33073,-4.243091 0.1819,-0.149502 2.10853,-0.409596 4.28141,-0.577987 2.17288,-0.168391 4.13741,-0.407591 4.36563,-0.531556 0.74188,-0.402984 1.80615,-1.675789 3.65566,-4.371971 1.23977,-1.807317 2.00013,-2.672762 2.39921,-2.730805 0.33808,-0.04917 1.78126,0.563332 3.42528,1.453724 3.49907,1.895083 4.19322,2.203123 4.96462,2.203123 0.3342,0 2.26667,-0.714375 4.294387,-1.5875 2.027716,-0.873125 3.802589,-1.5875 3.944162,-1.5875 0.141573,0 1.179465,1.664111 2.306428,3.698024 1.126961,2.033913 2.331059,3.919875 2.675774,4.191026 0.429977,0.338222 1.823283,0.679862 4.437904,1.08818 2.096135,0.327348 3.979516,0.6992 4.18529,0.826339 0.439838,0.271755 0.473038,1.612536 0.153297,6.190987 l -0.22084,3.162265 3.334325,3.187735 c 1.83388,1.753254 3.332241,3.290375 3.329694,3.415824 -0.0026,0.125449 -0.934064,1.494669 -2.07004,3.042709 -1.135972,1.54804 -2.336424,3.261291 -2.667669,3.807222 -0.690425,1.137909 -0.66231,1.378114 0.749977,6.407724 0.444455,1.582849 0.808101,3.021187 0.808101,3.19631 0,0.354978 -1.232053,0.913481 -5.195231,2.355064 -1.47493,0.536495 -2.930626,1.207365 -3.234878,1.490818 -0.337084,0.314045 -1.026483,2.004433 -1.764752,4.327144 -0.666361,2.096474 -1.374532,3.947023 -1.573713,4.112327 -0.409069,0.339497 -1.078291,0.24992 -5.122071,-0.685607 -4.186545,-0.968553 -3.992142,-1.01794 -7.472745,1.898369 -1.66154,1.392166 -3.22629,2.644878 -3.47723,2.783806 -0.36634,0.202824 -0.83554,-0.100621 -2.38125,-1.540029 z m 4.47087,-5.790737 c 0.70237,-0.526579 1.75643,-1.418203 2.34235,-1.98139 l 1.06531,-1.023977 2.768203,0.536617 c 3.5291,0.684115 4.410702,0.712327 4.964174,0.158856 0.243998,-0.243999 0.871968,-1.76934 1.395489,-3.389649 l 0.951852,-2.946013 2.862463,-1.103482 c 1.671571,-0.644393 3.066288,-1.355193 3.352382,-1.708507 0.578985,-0.715016 0.486892,-1.66143 -0.478134,-4.91372 l -0.62761,-2.115138 0.853861,-1.192154 c 1.899314,-2.65181 3.12566,-4.557972 3.12566,-4.858345 0,-0.59163 -1.18332,-1.971257 -3.063711,-3.571967 l -1.873088,-1.594493 0.120711,-3.559229 c 0.120308,-3.547344 0.118541,-3.560651 -0.529387,-3.98519 -0.357555,-0.234279 -1.993336,-0.693404 -3.63507,-1.020278 l -2.984971,-0.594316 -1.310744,-2.38125 c -1.534866,-2.788419 -2.200846,-3.571875 -3.036284,-3.571875 -0.335439,0 -1.791129,0.47625 -3.234866,1.058333 -1.44375,0.582083 -2.77099,1.058333 -2.94944,1.058333 -0.17846,0 -1.18697,-0.476114 -2.24115,-1.058032 -1.05417,-0.581917 -2.4271,-1.238121 -3.05096,-1.45823 -1.02122,-0.360305 -1.19782,-0.358568 -1.77166,0.01743 -0.35056,0.229696 -1.31401,1.477762 -2.14099,2.77348 -0.88876,1.392523 -1.71998,2.403692 -2.03276,2.472845 -0.29105,0.06435 -1.77269,0.24785 -3.29255,0.407786 -1.51985,0.159937 -3.02027,0.459123 -3.33426,0.664858 -0.65002,0.425907 -0.90773,1.895269 -0.91152,5.19699 l -0.002,2.005668 -1.17506,0.843866 c -2.38834,1.715173 -4.1167,3.493241 -4.11498,4.233325 9e-4,0.385795 0.71724,1.887915 1.59295,3.340324 0.95484,1.583653 1.52566,2.800633 1.42718,3.042708 -0.0903,0.221893 -0.59459,1.609572 -1.12069,3.083735 -1.24403,3.485843 -1.21179,3.558966 2.37641,5.390134 1.50369,0.767379 2.78414,1.438894 2.84544,1.492258 0.0613,0.05336 0.44905,1.428287 0.86167,3.055382 0.41262,1.627097 0.94121,3.249856 1.17465,3.60613 0.40936,0.624753 0.50096,0.641964 2.57791,0.484323 1.18441,-0.08989 2.70303,-0.238599 3.3747,-0.330452 l 1.22123,-0.167002 2.40515,2.279362 c 2.83709,2.688706 3.28054,2.800313 5.25244,1.321945 z m -4.50189,-3.185474 -2.33934,-2.276052 -2.55545,0.210965 c -4.60591,0.380241 -4.01868,0.708062 -4.93449,-2.754656 -0.92361,-3.492175 -1.27569,-3.909272 -4.53805,-5.376037 -1.32509,-0.595765 -1.94596,-1.020157 -1.94616,-1.330275 -1.6e-4,-0.25047 0.3569,-1.434118 0.79346,-2.630329 1.15284,-3.158844 1.08389,-3.859982 -0.65984,-6.709611 -0.79948,-1.30652 -1.45432,-2.450279 -1.45521,-2.541689 -9e-4,-0.09141 1.12738,-1.014803 2.50725,-2.051984 1.55255,-1.166969 2.55506,-2.112145 2.63003,-2.479634 0.0666,-0.326617 0.17707,-1.823348 0.2454,-3.326069 0.0683,-1.502721 0.17543,-2.783407 0.23799,-2.845969 0.0626,-0.06256 1.51476,-0.287546 3.2271,-0.499964 1.71233,-0.212417 3.28721,-0.530512 3.49971,-0.706876 0.21251,-0.176365 1.10578,-1.371023 1.98506,-2.654796 0.87927,-1.283774 1.70889,-2.334134 1.8436,-2.334134 0.13471,0 1.4804,0.659753 2.99042,1.466117 3.1402,1.676897 2.9324,1.67495 6.618174,0.06201 2.751521,-1.204104 2.355088,-1.400264 4.273389,2.114533 0.656624,1.203096 1.454383,2.35639 1.772793,2.562874 0.31841,0.206485 1.829085,0.591864 3.357054,0.856398 l 2.778125,0.480971 v 3.51609 3.516092 l 2.371619,2.193661 2.371622,2.193661 -1.908601,2.654814 c -1.049729,1.460148 -1.908598,2.860656 -1.908598,3.11224 0,0.251585 0.322508,1.683621 0.716687,3.182306 0.559674,2.127906 0.648349,2.807221 0.404763,3.100723 -0.171559,0.206716 -1.245497,0.700834 -2.386529,1.09804 -3.475786,1.209955 -3.585228,1.3169 -4.551865,4.447915 -0.463926,1.502699 -0.949555,2.842599 -1.079175,2.977555 -0.144134,0.150069 -1.459256,0.0019 -3.385912,-0.381299 -3.634756,-0.723061 -3.213646,-0.845545 -6.326216,1.840021 -1.02196,0.881758 -1.95966,1.599874 -2.08378,1.595816 -0.12413,-0.004 -1.27839,-1.031603 -2.56503,-2.283428 z m -6.76176,-10.749595 c 1.35417,-0.911265 1.61437,-2.027629 1.51368,-6.494235 -0.0773,-3.427818 -0.1363,-3.829897 -0.61465,-4.187341 -0.87224,-0.651766 -2.43776,-0.289772 -3.54796,0.820388 l -0.94996,0.949939 v 4.382495 c 0,4.032797 0.041,4.412467 0.51359,4.758116 0.75803,0.554402 2.06499,0.457242 3.0853,-0.229362 z m -1.70271,-1.158904 c -0.22048,-0.220475 -0.23462,-7.036909 -0.0158,-7.607179 0.0883,-0.230185 0.4283,-0.418515 0.75549,-0.418515 0.54138,0 0.61006,0.160631 0.76356,1.785937 0.0928,0.982266 0.16952,2.642389 0.17055,3.689165 0.002,1.667968 -0.0708,1.954139 -0.58615,2.315104 -0.65208,0.456727 -0.82827,0.494877 -1.08766,0.235488 z m 5.5783,0.274208 c 0.56046,-0.150198 0.59531,-0.296521 0.59531,-2.49973 v -2.340192 l 1.05833,-0.28498 c 0.94301,-0.253923 1.05834,-0.373494 1.05834,-1.097214 0,-0.725908 -0.0677,-0.795245 -0.63688,-0.652388 -0.35028,0.08792 -0.82653,0.232621 -1.05833,0.321572 -0.35876,0.137668 -0.42146,-0.09263 -0.42146,-1.548093 v -1.709825 l 1.38906,-0.369962 c 1.20864,-0.321906 1.39994,-0.464346 1.47278,-1.096609 0.0601,-0.521458 -0.0344,-0.726648 -0.33472,-0.726648 -0.53889,0 -3.66633,0.835317 -3.8824,1.036964 -0.0906,0.08451 -0.23688,2.624208 -0.32516,5.643765 -0.17038,5.828144 -0.20292,5.668524 1.08513,5.32334 z m 5.88698,-3.911406 0.13229,-2.35838 1.05833,-0.295931 c 0.8689,-0.242962 1.05834,-0.412811 1.05834,-0.948912 0,-0.602954 -0.0862,-0.647547 -1.12448,-0.582036 l -1.12448,0.07095 v -1.600605 c 0,-1.044935 0.11481,-1.639113 0.33073,-1.711529 0.1819,-0.06101 0.83674,-0.240455 1.4552,-0.398769 1.00499,-0.257256 1.12448,-0.371112 1.12448,-1.071397 0,-0.430953 -0.075,-0.783552 -0.16661,-0.783552 -0.0916,0 -1.10366,0.256804 -2.24896,0.570676 l -2.08234,0.570676 v 5.532316 5.532313 l 0.7276,-0.08372 c 0.72157,-0.08303 0.7287,-0.103277 0.8599,-2.442098 z m 6.349997,0.545899 c 1.82382,-0.535554 1.991439,-0.644018 2.071685,-1.340538 0.08544,-0.741651 0.06566,-0.754224 -0.926042,-0.588489 -0.557342,0.09314 -1.281242,0.242832 -1.608664,0.332642 -0.569341,0.156167 -0.595312,0.09406 -0.595312,-1.423657 v -1.58695 l 1.190625,-0.299802 c 1.078306,-0.27152 1.190625,-0.374322 1.190625,-1.089744 0,-0.874176 -0.04173,-0.892797 -1.234306,-0.55077 -0.733253,0.210293 -0.852394,0.170365 -0.986827,-0.330729 -0.252804,-0.942317 -0.17966,-2.246384 0.136975,-2.442075 0.163402,-0.100987 0.847871,-0.324118 1.521045,-0.495846 1.212569,-0.309329 1.578565,-0.773643 1.261377,-1.600219 -0.115308,-0.300489 -0.530841,-0.259233 -2.33748,0.232075 l -2.197238,0.597532 -0.0714,5.604211 c -0.0561,4.399275 7.9e-4,5.600004 0.26458,5.584635 0.1848,-0.01077 1.228961,-0.281792 2.320367,-0.602276 z m 4.167187,-1.132409 c 0.560713,-0.150265 0.595313,-0.296146 0.595313,-2.509928 v -2.350391 h 0.762892 c 0.892312,0 1.08006,0.449191 1.08558,2.597261 0.0035,1.37769 0.01857,1.404913 0.731215,1.322916 0.720633,-0.08292 0.72834,-0.104536 0.804281,-2.256001 0.06429,-1.821363 -0.0019,-2.250834 -0.40958,-2.658539 -0.468599,-0.468599 -0.469033,-0.514611 -0.01193,-1.2673 0.530585,-0.873674 0.649308,-3.272218 0.203226,-4.105731 -0.32635,-0.609809 -1.364326,-0.659795 -3.297973,-0.158821 l -1.322916,0.342744 -0.07141,5.605277 c -0.03928,3.082904 0.02027,5.603652 0.132292,5.601665 0.112035,-0.0021 0.471591,-0.07541 0.799012,-0.163152 z m 0.595313,-8.136752 c 0,-1.52798 0.05673,-1.704088 0.595312,-1.847955 0.856017,-0.228662 1.329368,0.507648 1.162183,1.807813 -0.131292,1.021019 -0.709171,1.729075 -1.41119,1.729075 -0.249185,0 -0.346305,-0.473661 -0.346305,-1.688933 z"
           style="fill:#929292;stroke-width:0.26458332" />
        <path
           inkscape:connector-curvature="0"
           id="path167"
           d="m -109.17811,92.364805 -3.4021,-3.180717 -1.98438,0.122526 c -1.0914,0.06739 -3.09507,0.265707 -4.4526,0.440708 -1.45039,0.186973 -2.56577,0.220641 -2.70477,0.08165 -0.1301,-0.130095 -0.598,-1.841174 -1.0398,-3.802396 -0.44179,-1.961221 -0.93873,-3.900524 -1.10431,-4.309567 -0.41879,-1.034548 -1.53734,-1.812494 -4.43774,-3.086418 -1.37194,-0.602588 -2.82633,-1.331949 -3.23199,-1.620803 l -0.73756,-0.52519 1.44605,-4.139901 c 0.79533,-2.276946 1.44606,-4.395893 1.44606,-4.708771 0,-0.516718 -0.49514,-1.404398 -3.52501,-6.319616 -0.76831,-1.246399 -0.90123,-1.64191 -0.6525,-1.941601 0.17179,-0.206996 1.65848,-1.382403 3.30376,-2.612016 1.64528,-1.229612 3.19955,-2.552511 3.45393,-2.939775 0.37397,-0.569308 0.48785,-1.506454 0.59482,-4.894827 0.0993,-3.145911 0.22243,-4.246309 0.49385,-4.413712 0.19886,-0.12265 1.32995,-0.298406 2.51354,-0.390567 6.41484,-0.499501 5.96508,-0.405453 6.93668,-1.450501 0.49008,-0.527133 1.70404,-2.149049 2.69769,-3.604257 1.26103,-1.846778 1.98736,-2.672055 2.40503,-2.732659 0.36629,-0.05315 1.8283,0.598705 3.76936,1.680614 1.74403,0.972091 3.62293,1.82806 4.17533,1.902153 0.82186,0.110233 1.67997,-0.159109 4.72219,-1.482177 2.0448,-0.889289 3.820358,-1.616889 3.945686,-1.616889 0.125325,0 0.932913,1.279922 1.79464,2.84427 2.170834,3.940872 2.702142,4.756742 3.388325,5.203083 0.327919,0.213303 1.786843,0.574899 3.242051,0.803548 1.455208,0.228649 3.289043,0.545596 4.075189,0.704327 l 1.429356,0.288601 -0.179038,4.768978 -0.179036,4.768978 1.789303,1.620045 c 0.984118,0.891024 2.490539,2.28401 3.347604,3.095524 1.831671,1.734317 1.908072,1.35025 -1.062678,5.341989 -1.080259,1.45152 -2.148864,2.996406 -2.374675,3.433077 -0.493935,0.955165 -0.407855,1.548488 0.865306,5.964402 0.717511,2.48866 0.866471,3.335491 0.635641,3.613624 -0.165812,0.199792 -1.694995,0.869113 -3.398184,1.487381 -4.582166,1.663354 -4.915914,1.864567 -5.543354,3.342037 -0.296908,0.699148 -0.866146,2.431169 -1.264973,3.848939 -0.398825,1.417767 -0.874795,2.782427 -1.057709,3.032574 -0.427943,0.585246 -1.518849,0.515909 -5.199576,-0.33048 -4.331997,-0.996146 -4.136189,-1.044168 -7.639228,1.873483 -1.66615,1.387724 -3.22482,2.635165 -3.46372,2.772092 -0.34645,0.198578 -1.12284,-0.394726 -3.83646,-2.931758 z m 5.70105,-4.146486 c 0.52306,-0.398579 1.56752,-1.282642 2.32103,-1.964587 0.85936,-0.777748 1.549694,-1.199695 1.852081,-1.132036 3.470696,0.776558 6.262701,1.14481 6.740591,0.889053 0.63427,-0.339452 1.542754,-2.31672 2.204974,-4.799017 l 0.474372,-1.778154 3.096408,-1.204534 c 4.037941,-1.570805 4.03819,-1.571239 3.089947,-5.36216 -0.390927,-1.562872 -0.709351,-3.063954 -0.707604,-3.335739 0.0019,-0.271786 0.640789,-1.343348 1.420095,-2.38125 2.067348,-2.753358 2.4012,-3.486769 2.013381,-4.423045 -0.173553,-0.418999 -1.254498,-1.566365 -2.402094,-2.549701 -1.147598,-0.983338 -2.098555,-1.908216 -2.11324,-2.055285 -0.01468,-0.147069 -0.0045,-1.776005 0.0227,-3.619859 0.04788,-3.249255 0.03038,-3.364661 -0.568613,-3.748776 -0.727898,-0.466777 -2.018953,-0.809596 -4.652005,-1.235265 l -1.917321,-0.309961 -1.220955,-2.239869 c -1.534427,-2.814956 -2.351529,-3.798043 -3.156772,-3.798043 -0.343588,0 -1.880566,0.495943 -3.415505,1.102096 l -2.79079,1.102097 -2.71254,-1.356243 c -1.4919,-0.745934 -2.96877,-1.424793 -3.28194,-1.508575 -0.78856,-0.210968 -1.64678,0.602043 -3.49029,3.306458 l -1.53304,2.248958 -2.00749,0.164679 c -5.56633,0.456615 -5.53574,0.431344 -5.73922,4.74147 l -0.15431,3.268778 -2.36435,1.917624 c -1.30039,1.054693 -2.51047,2.190646 -2.68906,2.524339 -0.40041,0.748172 -0.18544,1.311216 1.68041,4.401407 l 1.32933,2.201629 -1.09483,3.150569 c -1.38357,3.981458 -1.34042,4.099962 2.11499,5.80763 1.32505,0.654844 2.581,1.335421 2.79099,1.512396 0.21,0.176974 0.66531,1.52265 1.01179,2.990392 0.34649,1.467742 0.85318,3.035644 1.12598,3.484226 l 0.496,0.815602 2.29729,-0.157437 c 1.26351,-0.08659 2.79358,-0.236083 3.40015,-0.332206 1.10098,-0.174466 1.10686,-0.170878 3.43958,2.098752 2.69881,2.625804 3.40944,2.844107 5.08988,1.563587 z m -4.27809,-3.419822 -2.31868,-2.28483 -2.57611,0.204374 c -4.39197,0.348436 -4.09334,0.393274 -4.357,-0.6542 -0.98657,-3.919416 -1.39636,-5.132883 -1.89213,-5.602931 -0.30817,-0.292182 -1.61541,-1.063929 -2.90498,-1.714995 -2.69399,-1.360111 -2.65265,-1.217287 -1.31136,-4.531148 1.06847,-2.639838 0.9902,-3.239053 -0.81917,-6.27108 -1.47293,-2.468237 -1.5274,-2.620562 -1.05938,-2.962785 0.27136,-0.198424 1.45978,-1.117852 2.64092,-2.043175 l 2.14753,-1.682404 0.17477,-3.2504 c 0.0961,-1.787721 0.21641,-3.292037 0.2673,-3.342926 0.0509,-0.05089 1.4849,-0.253348 3.18668,-0.449909 3.58614,-0.414209 3.57595,-0.407795 5.74011,-3.613305 0.78193,-1.158177 1.50659,-2.105776 1.61037,-2.105776 0.10378,0 1.44876,0.666916 2.98884,1.482035 3.19534,1.691201 2.98778,1.688459 6.556029,0.08659 1.273505,-0.571704 2.3681,-1.039462 2.432433,-1.039462 0.06433,0 0.796041,1.199346 1.626021,2.665212 0.829982,1.465867 1.761926,2.830898 2.070986,3.033402 0.30906,0.202504 1.80961,0.583037 3.334552,0.845628 l 2.772624,0.477438 v 3.519325 3.519325 l 2.361549,2.181991 2.361547,2.181992 -1.898526,2.659155 c -1.044191,1.462535 -1.898528,2.884073 -1.898528,3.158975 0,0.274899 0.296177,1.570545 0.658172,2.879209 0.361992,1.308663 0.659649,2.585328 0.661458,2.837034 0.0035,0.485698 -1.242004,1.219962 -3.039422,1.791856 -0.582083,0.185203 -1.548961,0.56438 -2.148615,0.842616 -1.074393,0.498512 -1.103212,0.548558 -1.977705,3.434366 -0.488085,1.610664 -1.04817,2.990165 -1.244637,3.065555 -0.196466,0.07539 -1.587378,-0.132895 -3.090918,-0.462859 -1.503537,-0.329965 -3.012667,-0.529574 -3.35362,-0.443574 -0.34096,0.086 -1.61012,0.994656 -2.82036,2.019234 -1.21024,1.024577 -2.28181,1.861161 -2.38125,1.859071 -0.0994,-0.0021 -1.22422,-1.031971 -2.4995,-2.288628 z m -7.1264,-10.512777 c 1.70607,-0.882242 1.77217,-1.107127 1.77217,-6.028788 0,-4.140596 -0.0401,-4.520819 -0.51359,-4.867277 -0.72029,-0.527069 -1.92137,-0.467535 -2.91136,0.144309 -1.44802,0.894927 -1.60213,1.487133 -1.60213,6.156645 0,3.86616 0.0424,4.245076 0.51359,4.589489 0.65371,0.47783 1.82353,0.480229 2.74132,0.0056 z m -1.35873,-1.394102 c -0.097,-0.09701 -0.17639,-1.799606 -0.17639,-3.783542 0,-3.724008 0.13573,-4.242152 1.11125,-4.242152 0.43666,0 0.47625,0.318135 0.47625,3.82715 0,3.513 -0.042,3.84963 -0.51177,4.101042 -0.60278,0.322596 -0.66726,0.329586 -0.89934,0.0975 z m 5.5783,0.274208 c 0.56007,-0.150092 0.59531,-0.297116 0.59531,-2.483643 v -2.324108 l 0.99219,-0.233127 c 0.87513,-0.205627 1.00226,-0.337535 1.07759,-1.118135 0.0796,-0.824322 0.0404,-0.873715 -0.57073,-0.720328 -0.36088,0.09058 -0.84579,0.237458 -1.07759,0.326409 -0.35876,0.137668 -0.42146,-0.09263 -0.42146,-1.548093 v -1.709825 l 1.38906,-0.369962 c 1.20864,-0.321906 1.39994,-0.464346 1.47278,-1.096609 0.10244,-0.889107 -0.19708,-0.916673 -2.59726,-0.239037 l -1.71979,0.485544 -0.17882,1.167068 c -0.0984,0.641887 -0.18765,3.161366 -0.19844,5.59884 -0.0207,4.687615 -0.0438,4.608279 1.23716,4.265006 z m 5.88698,-3.929446 0.13229,-2.34034 1.05833,-0.295931 c 0.93053,-0.260194 1.05834,-0.390763 1.05834,-1.081204 0,-0.4319 -0.11907,-0.768556 -0.26459,-0.748123 -0.14552,0.02043 -0.65153,0.11919 -1.12448,0.219459 l -0.85989,0.182311 V 63.571421 61.97029 l 1.45521,-0.423041 c 1.33638,-0.388499 1.4552,-0.486318 1.4552,-1.198016 0,-0.926623 -0.0414,-0.92997 -2.53638,-0.205027 l -1.96153,0.569949 v 5.624876 5.624878 l 0.7276,-0.193593 c 0.71044,-0.189029 0.73072,-0.24879 0.8599,-2.533936 z m 6.283851,0.620125 c 2.116799,-0.55549 2.182813,-0.59663 2.182813,-1.360305 0,-0.767625 -0.02612,-0.783314 -1.035204,-0.621956 -0.569362,0.09105 -1.224206,0.238062 -1.455208,0.326708 -0.355182,0.136295 -0.420005,-0.08664 -0.420005,-1.44444 v -1.605608 l 1.058333,-0.28498 c 0.941041,-0.253397 1.058334,-0.374396 1.058334,-1.091787 0,-0.79469 -0.0159,-0.804122 -1.058334,-0.628005 l -1.058333,0.178806 v -1.44458 -1.444579 l 1.389062,-0.385142 c 1.102471,-0.30568 1.407332,-0.510028 1.477608,-0.990443 0.149135,-1.01948 -0.271579,-1.098468 -2.48073,-0.46575 l -2.105727,0.603099 -0.0714,5.612316 c -0.0393,3.086772 0.0203,5.613924 0.13229,5.61589 0.11203,0.0019 1.185964,-0.254194 2.386511,-0.569244 z m 4.410131,-1.18243 c 0.338216,-0.129787 0.418515,-0.612043 0.418515,-2.513542 v -2.352942 h 0.760677 c 0.640292,0 0.786847,0.130855 0.926042,0.826823 0.09095,0.454752 0.165364,1.355629 0.165364,2.001948 0,1.125863 0.0305,1.171618 0.727604,1.091406 0.717233,-0.08253 0.728713,-0.113355 0.805395,-2.162907 0.05813,-1.553557 -0.02811,-2.240825 -0.34113,-2.718549 -0.377862,-0.576689 -0.379005,-0.69635 -0.01164,-1.220827 0.516922,-0.738009 0.550376,-3.606475 0.05004,-4.290723 -0.29835,-0.408018 -0.592746,-0.463677 -1.785938,-0.337653 -0.785786,0.08299 -1.756121,0.277139 -2.156304,0.431433 l -0.727604,0.280535 v 5.562799 c 0,5.857046 -0.0013,5.85126 1.168985,5.402199 z m 0.566126,-6.65915 c -0.08118,-0.08119 -0.147611,-0.828263 -0.147611,-1.660171 0,-1.414613 0.04407,-1.520982 0.680566,-1.642657 0.917702,-0.175429 1.338721,0.834471 0.925815,2.220754 -0.2622,0.880307 -1.065025,1.475819 -1.45877,1.082074 z"
           style="fill:#707070;stroke-width:0.26458332" />
        <path
           inkscape:connector-curvature="0"
           id="path165"
           d="m -109.17353,92.382591 c -3.93267,-3.666935 -3.31199,-3.477221 -8.99258,-2.748587 -2.02796,0.26012 -3.4195,0.331308 -3.56827,0.182546 -0.13412,-0.134125 -0.59255,-1.868008 -1.01873,-3.853074 -1.14091,-5.314212 -1.11201,-5.275765 -5.54592,-7.376461 -1.80588,-0.855584 -3.42989,-1.677173 -3.60891,-1.825752 -0.25138,-0.208627 -7.5e-4,-1.205812 1.10059,-4.378884 0.78435,-2.259806 1.4261,-4.345606 1.4261,-4.635111 0,-0.694227 -0.51167,-1.676947 -2.54442,-4.886822 -0.9289,-1.466817 -1.68892,-2.840589 -1.68892,-3.052827 0,-0.426494 1.20783,-1.481999 4.29005,-3.749026 2.9643,-2.180289 2.96183,-2.174648 3.11829,-7.130204 0.0961,-3.04499 0.22671,-4.248602 0.47774,-4.403688 0.19,-0.117379 2.14798,-0.352638 4.35106,-0.522797 2.44185,-0.1886 4.21788,-0.449727 4.54934,-0.668882 0.29905,-0.197725 0.99363,-0.999882 1.54352,-1.782571 3.34195,-4.756863 3.74508,-5.259527 4.21799,-5.259527 0.2745,0 1.92861,0.786193 3.67579,1.747095 1.74717,0.960903 3.63136,1.80808 4.18707,1.882616 0.81804,0.109722 1.65868,-0.141499 4.415914,-1.319663 1.873041,-0.800352 3.643656,-1.525745 3.934698,-1.611986 0.45266,-0.134131 0.773866,0.291803 2.221653,2.946006 1.919941,3.519796 2.721785,4.688414 3.504279,5.107193 0.299779,0.160436 1.693924,0.460894 3.098099,0.667685 1.404179,0.206791 3.195495,0.505889 3.980702,0.664662 l 1.427646,0.28868 -0.18243,4.551692 c -0.100338,2.50343 -0.107783,4.746218 -0.01654,4.983972 0.09123,0.237754 1.468651,1.584161 3.06093,2.992016 1.592276,1.407854 3.010336,2.775158 3.151248,3.038452 0.205367,0.383733 -0.06801,0.915902 -1.377831,2.682128 -2.402996,3.240304 -3.654218,5.255736 -3.654218,5.88609 0,0.306861 0.475683,2.279015 1.057074,4.382559 0.838882,3.03518 0.98907,3.888951 0.727604,4.136247 -0.181208,0.171391 -1.698689,0.817848 -3.372178,1.436573 -4.537057,1.677445 -4.864034,1.876611 -5.494994,3.347014 -0.300008,0.699148 -0.867873,2.402271 -1.261925,3.784719 -0.394049,1.382448 -0.825074,2.721901 -0.957829,2.976562 -0.335682,0.643938 -1.608875,0.593927 -5.112718,-0.200834 -4.581388,-1.039175 -4.335156,-1.102802 -8.200714,2.119064 -1.83324,1.527968 -3.37367,2.778125 -3.42317,2.778125 -0.0495,0 -1.62229,-1.42875 -3.49509,-3.175 z m 5.51003,-4.006612 c 0.43798,-0.311867 1.45715,-1.145305 2.26483,-1.852084 0.80767,-0.706781 1.706895,-1.285054 1.998265,-1.285054 0.291372,0 1.814245,0.245747 3.384163,0.546105 2.171303,0.415414 2.984238,0.476615 3.396954,0.255736 0.713385,-0.381794 1.461217,-1.885778 2.120326,-4.264253 0.294007,-1.060963 0.659834,-2.055402 0.812948,-2.209869 0.153114,-0.154463 1.6115,-0.816626 3.24086,-1.471469 3.666514,-1.473581 3.730662,-1.58513 2.844922,-4.947187 -1.029129,-3.906317 -1.052264,-3.707953 0.709559,-6.084123 1.994726,-2.690286 2.386344,-3.590708 1.931411,-4.440759 -0.1851,-0.345861 -1.273582,-1.479058 -2.41885,-2.518216 l -2.082308,-1.889377 v -3.512912 c 0,-4.484098 0.09129,-4.390915 -5.094134,-5.199869 l -2.051426,-0.320034 -1.110707,-2.084572 c -1.499637,-2.814519 -2.445626,-3.927749 -3.338515,-3.928729 -0.389589,-4.24e-4 -1.924299,0.498181 -3.410468,1.10802 l -2.70212,1.108799 -2.92518,-1.504896 c -1.60885,-0.827692 -3.08551,-1.504895 -3.28147,-1.504895 -0.66925,0 -1.69969,1.056257 -3.23406,3.31511 -0.92612,1.363395 -1.74839,2.297074 -2.07563,2.356846 -0.29805,0.05444 -1.78001,0.220522 -3.29324,0.369066 -3.79462,0.372494 -3.83651,0.420745 -3.95162,4.551575 l -0.0884,3.171021 -2.43354,1.957307 c -1.33845,1.076519 -2.58966,2.249023 -2.78048,2.605565 -0.39747,0.742682 -0.18338,1.266129 1.89426,4.631437 l 1.18754,1.923553 -1.02834,2.919404 c -0.56558,1.605672 -1.02833,3.20456 -1.02833,3.553087 0,0.808387 1.14097,1.689407 3.74752,2.893706 1.09438,0.505637 2.10955,1.073245 2.25593,1.261353 0.14638,0.188106 0.57659,1.636464 0.95602,3.218572 0.93287,3.889782 1.02436,3.975809 4.02074,3.780525 1.30968,-0.08536 2.8011,-0.230391 3.31425,-0.322299 0.8894,-0.159298 1.04393,-0.06141 3.30729,2.094918 2.64893,2.52368 3.42945,2.795211 4.941,1.718892 z m -4.02192,-3.534013 -2.33777,-2.248959 -1.67539,0.01932 c -0.92146,0.01062 -2.33023,0.113273 -3.13059,0.228108 -0.80036,0.114834 -1.5816,0.161546 -1.73607,0.103804 -0.15448,-0.05774 -0.55701,-1.261719 -0.89453,-2.675504 -0.33751,-1.413782 -0.77306,-2.88504 -0.96788,-3.269459 -0.2414,-0.476335 -1.19946,-1.133115 -3.00808,-2.062139 -1.56931,-0.806098 -2.65386,-1.524714 -2.65386,-1.758426 0,-0.217376 0.41672,-1.474253 0.92605,-2.793058 0.50932,-1.318805 0.92604,-2.629916 0.92604,-2.913581 0,-0.623448 -0.48538,-1.60637 -2.01652,-4.083558 -0.63716,-1.03086 -1.15848,-1.928898 -1.15848,-1.99564 0,-0.06674 1.126,-0.949718 2.50223,-1.962168 1.37624,-1.01245 2.56358,-1.990829 2.63854,-2.174176 0.075,-0.183346 0.21662,-1.754544 0.31479,-3.49155 l 0.17848,-3.158194 1.48246,-0.160752 c 5.20256,-0.564147 5.23715,-0.579885 6.97642,-3.174897 0.58521,-0.873125 1.30138,-1.850617 1.59149,-2.172205 l 0.52748,-0.584706 2.88626,1.470272 c 3.26182,1.661581 3.05222,1.655844 6.496485,0.177811 1.198457,-0.514293 2.345111,-0.87134 2.54812,-0.793438 0.203007,0.0779 0.990425,1.227378 1.749819,2.554393 0.759391,1.327014 1.658155,2.594541 1.997253,2.816726 0.339097,0.222185 1.607216,0.572996 2.818042,0.779581 1.210826,0.206585 2.485163,0.442753 2.831859,0.524819 l 0.630354,0.149211 -0.191391,3.359494 -0.191392,3.359493 2.454193,2.272162 2.454196,2.272162 -1.900971,2.606421 c -1.166391,1.599239 -1.90097,2.864194 -1.90097,3.273496 0,0.366892 0.312415,1.767956 0.694253,3.113476 0.381842,1.345518 0.629026,2.616383 0.549299,2.824144 -0.07972,0.207762 -1.017217,0.704115 -2.083316,1.103009 -4.417634,1.652905 -3.993681,1.258676 -5.087109,4.730445 -0.532244,1.689937 -1.101349,3.072609 -1.264685,3.072609 -0.163332,0 -1.512808,-0.255116 -2.998832,-0.566925 -1.486025,-0.311811 -2.989292,-0.494787 -3.340597,-0.406617 -0.3513,0.08817 -1.63065,0.998133 -2.84301,2.022136 -1.21235,1.024001 -2.26067,1.861823 -2.32959,1.861823 -0.0689,0 -1.17731,-1.012031 -2.46308,-2.248958 z m -6.25927,-11.212682 0.83531,-0.834597 0.0846,-4.247237 c 0.0997,-5.005123 -0.0695,-5.533609 -1.77137,-5.533609 -1.40713,0 -2.72171,0.940014 -3.15861,2.258631 -0.49182,1.48436 -0.33565,8.324723 0.2049,8.97473 0.64149,0.77139 2.75877,0.427567 3.80516,-0.617918 z m -2.47198,-4.459536 c 0,-3.793874 0.13251,-4.303824 1.11832,-4.303824 0.44951,0 0.4782,0.273055 0.41011,3.902604 l -0.0732,3.902604 -0.72761,0.08372 -0.7276,0.08372 z m 5.51677,4.136958 0.83323,-0.290464 v -2.329085 -2.329082 l 0.99219,-0.233127 c 0.86505,-0.203256 1.00281,-0.342236 1.07509,-1.084617 0.0911,-0.935911 0.0373,-0.962853 -1.20913,-0.605378 l -0.85815,0.246116 v -1.638604 -1.638607 l 1.38906,-0.394063 c 1.20149,-0.340849 1.40037,-0.492233 1.47278,-1.12105 0.10169,-0.88295 -0.13768,-0.904104 -2.72955,-0.24123 l -1.85208,0.473673 -0.0713,5.737994 c -0.0392,3.155894 -0.0272,5.737992 0.0267,5.737992 0.0539,0 0.47292,-0.130709 0.9312,-0.290468 z m 5.74966,-1.561615 c 0.27434,0 0.37934,-0.373499 0.39048,-1.389063 0.008,-0.763984 0.098,-1.854795 0.19913,-2.424022 0.15671,-0.88205 0.3206,-1.08099 1.10923,-1.346523 0.77412,-0.260644 0.92536,-0.43743 0.92536,-1.081707 0,-0.423579 -0.11907,-0.753427 -0.26459,-0.732994 -0.14552,0.02043 -0.65153,0.11919 -1.12448,0.219459 l -0.85989,0.182311 v -1.589749 -1.589747 l 1.45521,-0.42304 c 1.35778,-0.394719 1.4552,-0.477658 1.4552,-1.238846 0,-0.780924 -0.0376,-0.808745 -0.88002,-0.650711 -0.48401,0.0908 -1.52581,0.371943 -2.3151,0.624758 l -1.43508,0.459665 -0.0873,1.852084 c -0.048,1.018645 -0.005,3.556561 0.0945,5.639813 0.1527,3.181329 0.24426,3.763764 0.57194,3.638021 0.21457,-0.08234 0.55899,-0.149709 0.76537,-0.149709 z m 6.759556,-1.893594 c 2.074021,-0.568394 2.082348,-0.574233 2.082348,-1.460249 0,-0.836739 -0.04322,-0.879115 -0.727605,-0.713499 -0.400182,0.09684 -1.003244,0.277704 -1.340141,0.401918 -0.336894,0.124211 -0.664316,0.22584 -0.727604,0.22584 -0.06329,0 -0.115067,-0.70898 -0.115067,-1.575511 v -1.575509 l 0.916614,-0.171958 c 1.140881,-0.214033 1.572379,-0.709634 1.358789,-1.560651 -0.14569,-0.580472 -0.243781,-0.627189 -0.84052,-0.400309 -1.283256,0.487892 -1.434883,0.365305 -1.434883,-1.160077 V 60.44456 l 1.389062,-0.370427 c 1.126191,-0.300326 1.405819,-0.488593 1.477608,-0.994834 0.0487,-0.343423 -0.01082,-0.723535 -0.132291,-0.844691 -0.12146,-0.121157 -1.203103,0.04045 -2.40365,0.359122 l -2.182816,0.579407 v 5.624519 c 0,4.003807 0.0861,5.624518 0.29891,5.624518 0.16439,0 1.235955,-0.256805 2.381246,-0.570677 z m 4.385818,-1.227738 c 0.196818,-0.125093 0.348903,-1.061395 0.396875,-2.443343 0.07612,-2.192774 0.09188,-2.240534 0.739238,-2.240534 0.622342,0 0.671833,0.104902 0.836874,1.773952 0.215657,2.180929 0.302763,2.330477 1.214911,2.085872 l 0.72634,-0.194778 -0.09238,-2.229398 c -0.06204,-1.497203 -0.222761,-2.376146 -0.489368,-2.676221 -0.353471,-0.397838 -0.350594,-0.513064 0.02625,-1.051059 0.286483,-0.409033 0.423209,-1.181575 0.423209,-2.391348 0,-1.573192 -0.07289,-1.834873 -0.608944,-2.186108 -0.54607,-0.3578 -0.798761,-0.3516 -2.447395,0.06005 l -1.838452,0.459041 -0.07141,5.622396 c -0.06643,5.230516 -0.03877,5.622113 0.396875,5.618345 0.257556,-0.0021 0.611876,-0.09532 0.787379,-0.206864 z m 0.469093,-7.266305 c -0.09347,-0.49823 -0.130455,-1.252099 -0.08219,-1.675264 0.07073,-0.620191 0.231658,-0.785897 0.829842,-0.854509 0.737565,-0.0846 0.741598,-0.07672 0.661458,1.292285 -0.06263,1.069883 -0.20996,1.462907 -0.6599,1.760382 -0.55199,0.364944 -0.587269,0.340321 -0.74921,-0.522894 z"
           style="fill:#4f4f4f;stroke-width:0.26458332" />
        <path
           inkscape:connector-curvature="0"
           id="path163"
           d="m -109.16174,92.351748 c -1.73216,-1.617691 -3.42407,-3.04569 -3.75979,-3.173333 -0.38055,-0.144682 -1.57698,-0.09048 -3.17725,0.143939 -1.41177,0.206809 -3.27757,0.414417 -4.14623,0.461354 l -1.57939,0.08534 -0.84178,-3.716046 c -1.30598,-5.765187 -1.0006,-5.34823 -5.5083,-7.520962 -2.2813,-1.099595 -3.85261,-2.010291 -3.85261,-2.232885 0,-0.206748 0.59532,-2.099299 1.32292,-4.205663 0.7276,-2.106366 1.3222,-4.17028 1.32133,-4.586475 -0.001,-0.485688 -0.75913,-1.967365 -2.11667,-4.136856 -1.16329,-1.859075 -2.11508,-3.472828 -2.11508,-3.586118 0,-0.34856 1.61262,-1.788987 3.95948,-3.536688 3.13192,-2.332342 3.44839,-2.871065 3.45074,-5.874205 10e-4,-1.324548 0.0776,-3.209737 0.17009,-4.189309 0.19716,-2.087523 -0.23054,-1.899234 5.24015,-2.30692 2.66937,-0.198926 3.57671,-0.366262 4.10104,-0.756329 0.37031,-0.275488 1.4821,-1.679473 2.47065,-3.119966 0.98854,-1.440493 2.09173,-2.91589 2.45153,-3.27866 l 0.65418,-0.659583 4.04369,2.083365 c 3.23266,1.665509 4.17376,2.042674 4.69222,1.88049 0.35669,-0.11158 2.11627,-0.841579 3.910184,-1.622219 1.793912,-0.78064 3.478543,-1.419346 3.743624,-1.419346 0.343649,0 1.025462,0.981072 2.37576,3.418526 1.041588,1.88019 2.193372,3.718105 2.559524,4.084257 0.727781,0.727782 0.775829,0.741031 4.970362,1.370554 1.588407,0.238391 3.179598,0.544299 3.535979,0.679795 l 0.647967,0.246355 -0.191527,4.721409 -0.191524,4.721408 3.006741,2.679879 c 1.653707,1.473934 3.148288,2.906534 3.321291,3.183557 0.273553,0.438027 0.03846,0.878 -1.803651,3.375531 -3.150788,4.271828 -3.23686,4.43524 -3.050876,5.79214 0.08763,0.639315 0.583798,2.623047 1.1026,4.408289 0.873266,3.004981 0.910067,3.270178 0.495824,3.573081 -0.411826,0.301133 -1.453367,0.722278 -5.395211,2.181537 -3.147894,1.165342 -3.068257,1.050801 -4.884285,7.02514 -0.796539,2.620442 -0.81275,2.646649 -1.689267,2.730617 -0.486754,0.04663 -2.541225,-0.283517 -4.565488,-0.733663 -4.368795,-0.971505 -3.846278,-1.125477 -7.984837,2.352884 -1.5686,1.318371 -3.00787,2.397037 -3.19837,2.397037 -0.1905,0 -1.76358,-1.323565 -3.49574,-2.941258 z m 5.6117,-4.004053 c 0.43923,-0.327422 1.48235,-1.182114 2.31803,-1.899314 l 1.519415,-1.303999 3.427084,0.617667 3.427085,0.617664 0.663458,-0.623286 c 0.437544,-0.411052 0.944819,-1.528737 1.48976,-3.282416 0.454467,-1.462521 0.95726,-2.791272 1.117317,-2.952779 0.160057,-0.16151 1.466961,-0.742146 2.904231,-1.290302 1.43727,-0.548158 2.836254,-1.219686 3.108854,-1.492287 0.661676,-0.661675 0.6271,-1.370189 -0.224951,-4.609735 l -0.72059,-2.739712 0.646824,-0.872575 c 2.041287,-2.753728 3.175603,-4.617021 3.175603,-5.216438 0,-0.511947 -0.592222,-1.234992 -2.420625,-2.955346 l -2.420628,-2.27758 0.142015,-2.996244 c 0.183478,-3.870959 0.01095,-4.371474 -1.6798,-4.873576 -0.7162,-0.212689 -2.246606,-0.531282 -3.400898,-0.707984 l -2.098718,-0.321277 -1.246452,-2.347077 c -0.685548,-1.290892 -1.640245,-2.692832 -2.121548,-3.115422 -1.010486,-0.88722 -1.005181,-0.887918 -4.805116,0.632408 l -2.41524,0.96632 -2.59097,-1.329222 c -1.42504,-0.731072 -2.89955,-1.398062 -3.27669,-1.482201 -0.94921,-0.211763 -1.95237,0.691566 -3.66508,3.300346 -1.31366,2.000949 -1.44712,2.120995 -2.48742,2.2374 -6.94438,0.777042 -6.78783,0.6637 -6.78783,4.914389 0,3.308704 0.1345,3.058918 -2.99794,5.567782 -1.13954,0.912696 -2.19235,1.923821 -2.33957,2.246945 -0.29537,0.648271 0.3075,2.056655 2.03914,4.763633 0.50442,0.788533 0.91712,1.603804 0.91712,1.811716 0,0.207912 -0.41672,1.529228 -0.92604,2.936253 -1.48137,4.092358 -1.39565,4.29351 2.70101,6.337639 2.7032,1.348827 2.40066,0.900065 3.40982,5.057881 0.87821,3.618309 1.12354,3.762359 5.38824,3.163874 l 2.70874,-0.38013 2.42109,2.245416 c 2.09346,1.94155 2.54841,2.245516 3.36188,2.246148 0.56356,5.3e-4 1.26101,-0.237971 1.73939,-0.594579 z m -4.12185,-3.521554 -2.39396,-2.307791 -3.37385,0.17852 -3.37384,0.178519 -0.71076,-2.938052 c -0.39092,-1.615927 -0.86084,-3.11889 -1.04428,-3.339918 -0.18343,-0.221025 -1.5007,-0.987586 -2.92726,-1.703467 -1.42656,-0.715883 -2.59375,-1.413674 -2.59375,-1.550646 0,-0.136974 0.42504,-1.415812 0.94452,-2.84186 0.65988,-1.811436 0.90303,-2.858551 0.80684,-3.474596 -0.0757,-0.484981 -0.80801,-1.960308 -1.62729,-3.27851 -0.81928,-1.318199 -1.3804,-2.469209 -1.24695,-2.5578 0.13346,-0.08859 1.27561,-0.930799 2.53811,-1.871573 2.68735,-2.002516 2.81441,-2.280449 2.81663,-6.160856 9.2e-4,-1.607669 0.1051,-2.579687 0.27649,-2.579687 1.11077,0 5.55206,-0.602951 6.13504,-0.832896 0.408,-0.160929 1.14606,-0.932783 1.69859,-1.776365 0.5374,-0.820479 1.32622,-1.940992 1.75292,-2.490028 l 0.77583,-0.998247 2.78004,1.49119 c 3.22511,1.729934 3.35298,1.734396 6.640272,0.231736 1.180875,-0.539793 2.307273,-0.919957 2.503104,-0.84481 0.327888,0.125823 2.839191,4.292131 2.839191,4.710283 0,0.481067 1.569191,1.106306 3.652922,1.455494 1.265111,0.212006 2.578613,0.447902 2.918894,0.524213 l 0.618691,0.138747 -0.186743,3.37659 -0.186745,3.376589 2.423025,2.235424 2.423025,2.235422 -1.862783,2.611094 c -1.173515,1.64493 -1.862717,2.868506 -1.862598,3.306765 1.06e-4,0.382622 0.30558,1.809819 0.678836,3.171552 0.373258,1.361734 0.620654,2.627008 0.549772,2.811725 -0.07088,0.184716 -1.155454,0.707305 -2.410158,1.161309 -3.890441,1.407729 -3.687924,1.209598 -4.765863,4.662625 -0.629285,2.015831 -1.077637,3.043671 -1.327674,3.043671 -0.207639,0 -1.398778,-0.238125 -2.646976,-0.529166 -3.515852,-0.819791 -3.721562,-0.781116 -5.980992,1.124479 -1.07839,0.909505 -2.16221,1.81215 -2.4085,2.00588 -0.39515,0.310819 -0.72926,0.0809 -2.84177,-1.955559 z m -6.3324,-11.197839 1.0272,-1.027208 v -4.205589 c 0,-4.885002 -0.16645,-5.382328 -1.80094,-5.380675 -0.53745,5.29e-4 -1.3713,0.241276 -1.853,0.534959 -1.43456,0.87463 -1.68703,1.881145 -1.59009,6.339284 0.0982,4.517668 0.20263,4.766434 2.00027,4.766434 1.02879,0 1.32802,-0.138668 2.21656,-1.027205 z m -2.23599,-1.001268 c -0.28701,-0.287009 -0.20087,-6.691828 0.0975,-7.249337 0.15064,-0.281474 0.50783,-0.511773 0.79375,-0.511773 0.49164,0 0.51986,0.198183 0.51986,3.65125 0,2.487083 -0.10123,3.752482 -0.3175,3.96875 -0.35129,0.351295 -0.82261,0.41211 -1.09361,0.14111 z m 5.34038,0.679672 0.83323,-0.290464 V 70.68413 68.352021 l 1.03105,-0.174196 c 0.84632,-0.142984 1.056,-0.301223 1.17028,-0.883153 0.19567,-0.996434 -0.16048,-1.252551 -1.26877,-0.912408 l -0.93256,0.286213 v -1.665581 -1.665581 l 0.98732,-0.185222 c 1.4228,-0.266919 1.9231,-0.603578 1.9231,-1.294089 0,-0.334429 -0.0681,-0.676147 -0.15133,-0.759375 -0.0832,-0.08323 -1.12502,0.113474 -2.3151,0.437114 l -2.16378,0.588435 -0.0713,5.736499 c -0.0392,3.155074 -0.0272,5.736497 0.0267,5.736497 0.0539,0 0.47292,-0.130709 0.9312,-0.290468 z m 6.1793,-1.795697 c 0.10268,-0.09117 0.22174,-1.172978 0.26458,-2.404021 l 0.0779,-2.238261 0.99219,-0.233934 c 0.91413,-0.215532 0.99219,-0.307152 0.99219,-1.164553 0,-0.837649 -0.0595,-0.914111 -0.59532,-0.765397 -1.79077,0.496996 -1.65364,0.586809 -1.65364,-1.083104 v -1.53394 l 1.32292,-0.427617 c 1.23158,-0.398093 1.32852,-0.493007 1.40417,-1.37471 l 0.0813,-0.947093 -1.80105,0.520764 c -0.99058,0.286421 -2.06894,0.590526 -2.39636,0.675789 -0.5914,0.154004 -0.59529,0.188381 -0.5917,5.219571 0.004,6.00433 0.0559,6.312496 1.01877,6.086182 0.38357,-0.09015 0.78142,-0.238506 0.8841,-0.329676 z m 7.816951,-2.049511 c 0.469871,-0.122356 0.595313,-0.344109 0.595313,-1.052382 0,-0.493546 -0.02977,-0.895946 -0.06615,-0.894218 -0.03638,0.0019 -0.691224,0.169545 -1.455209,0.372927 l -1.389062,0.369787 v -1.532143 -1.532142 l 1.206801,-0.303876 c 1.148184,-0.289116 1.202802,-0.345258 1.12448,-1.155888 -0.04528,-0.468609 -0.201385,-0.835298 -0.346906,-0.814864 -0.145521,0.02043 -0.651537,0.11919 -1.124479,0.219459 l -0.859896,0.182311 v -1.433973 -1.433973 l 1.455208,-0.349099 c 1.403779,-0.336761 1.455209,-0.380334 1.455209,-1.232883 0,-0.486081 -0.0893,-0.886404 -0.198438,-0.889608 -0.109141,-0.0032 -1.180703,0.262387 -2.38125,0.590199 l -2.182812,0.596023 v 5.741126 5.741125 l 1.785937,-0.51644 c 0.982266,-0.284044 2.053828,-0.586203 2.38125,-0.671468 z m 3.437837,-0.891407 c 0.03734,0 0.06789,-1.079844 0.06789,-2.399652 0,-2.337192 0.01551,-2.397451 0.595313,-2.315104 0.52484,0.07454 0.603432,0.256812 0.6639,1.539756 0.113615,2.410542 0.228521,2.679234 1.061823,2.482934 0.39692,-0.0935 0.815375,-0.254285 0.929897,-0.357298 0.339278,-0.305173 -0.112289,-4.505447 -0.529198,-4.922354 -0.321879,-0.321878 -0.31636,-0.455563 0.03978,-0.964029 0.275844,-0.393824 0.413483,-1.185215 0.413483,-2.377442 0,-1.590945 -0.06921,-1.832465 -0.630568,-2.200278 -0.571997,-0.374786 -0.802473,-0.374066 -2.48117,0.0077 -1.828345,0.415848 -1.852546,0.432676 -2.012352,1.399253 -0.212376,1.284526 -0.21273,6.951002 -5.29e-4,8.980896 l 0.16701,1.597885 0.823428,-0.236157 c 0.452853,-0.129885 0.853948,-0.236155 0.891289,-0.236155 z m 0.06789,-8.03752 c 0,-1.702046 0.01928,-1.752064 0.675286,-1.752064 0.646692,0 0.671898,0.05752 0.595312,1.358431 -0.06257,1.062896 -0.209486,1.444068 -0.675285,1.752064 l -0.595313,0.393632 z"
           style="fill:#000000;stroke-width:0.26458332" />
      </g>
    </g>
  </g>
</svg>
