<?xml version="1.0" encoding="UTF-8" standalone="no"?>
<!-- Created with Inkscape (http://www.inkscape.org/) -->

<svg
   xmlns:dc="http://purl.org/dc/elements/1.1/"
   xmlns:cc="http://creativecommons.org/ns#"
   xmlns:rdf="http://www.w3.org/1999/02/22-rdf-syntax-ns#"
   xmlns:svg="http://www.w3.org/2000/svg"
   xmlns="http://www.w3.org/2000/svg"
   xmlns:sodipodi="http://sodipodi.sourceforge.net/DTD/sodipodi-0.dtd"
   xmlns:inkscape="http://www.inkscape.org/namespaces/inkscape"
   width="479.79663"
   height="100"
   viewBox="0 0 126.94619 26.458333"
   version="1.1"
   id="svg8"
   inkscape:export-filename="C:\Users\Rapha\Desktop\solarmax.png"
   inkscape:export-xdpi="96"
   inkscape:export-ydpi="96"
   inkscape:version="0.92.3 (2405546, 2018-03-11)"
   sodipodi:docname="solarmax.svg">
  <defs
     id="defs2" />
  <sodipodi:namedview
     id="base"
     pagecolor="#ffffff"
     bordercolor="#666666"
     borderopacity="1.0"
     inkscape:pageopacity="0.0"
     inkscape:pageshadow="2"
     inkscape:zoom="0.49497475"
     inkscape:cx="1181.5214"
     inkscape:cy="-687.26691"
     inkscape:document-units="mm"
     inkscape:current-layer="layer1"
     showgrid="false"
     fit-margin-top="0"
     fit-margin-left="0"
     fit-margin-right="0"
     fit-margin-bottom="0"
     units="px"
     inkscape:window-width="1920"
     inkscape:window-height="1027"
     inkscape:window-x="1912"
     inkscape:window-y="-8"
     inkscape:window-maximized="1" />
  <metadata
     id="metadata5">
    <rdf:RDF>
      <cc:Work
         rdf:about="">
        <dc:format>image/svg+xml</dc:format>
        <dc:type
           rdf:resource="http://purl.org/dc/dcmitype/StillImage" />
        <dc:title></dc:title>
      </cc:Work>
    </rdf:RDF>
  </metadata>
  <g
     inkscape:label="Ebene 1"
     inkscape:groupmode="layer"
     id="layer1"
     transform="translate(-35.271629,-184.35004)">
    <g
       id="g361"
       transform="matrix(0.27048625,0,0,0.19223444,39.90404,142.77642)">
      <path
         style="fill:#fdb801;stroke-width:0.26458335"
         d="m 279.2964,346.70026 c 0,-1.0914 0.0467,-1.53789 0.10379,-0.99218 0.0571,0.5457 0.0571,1.43867 0,1.98437 -0.0571,0.5457 -0.10379,0.0992 -0.10379,-0.99219 z m -0.003,-7.27604 c 0,-1.01864 0.049,-1.40294 0.10628,-0.85399 0.0573,0.54894 0.0563,1.38238 -0.003,1.85208 -0.0584,0.4697 -0.10531,0.0206 -0.10414,-0.99809 z m -144.38506,-12.7116 c -6.74425,-1.2687 -11.37402,-5.28095 -12.72998,-11.03204 -0.259,-1.09853 -0.39184,-3.10157 -0.39444,-5.94766 l -0.004,-4.29131 6.51187,0.058 6.51187,0.058 0.0804,3.06987 c 0.0442,1.68843 0.23472,3.5849 0.42332,4.21439 0.68902,2.29973 2.89626,3.62393 5.60647,3.36351 1.65215,-0.15875 2.51825,-0.81077 3.44237,-2.59149 0.67889,-1.30817 0.73861,-1.63998 0.64493,-3.58273 -0.17785,-3.68823 -1.31326,-5.02339 -7.34624,-8.63864 -9.66205,-5.78995 -12.71546,-8.87807 -14.45603,-14.62032 -0.60848,-2.00744 -0.68654,-8.48596 -0.12911,-10.71563 0.73689,-2.94752 2.00577,-5.2091 4.06161,-7.23919 2.11805,-2.09153 3.70734,-2.98488 6.98369,-3.92559 2.76106,-0.79276 9.05158,-0.8553 11.74193,-0.11674 7.64154,2.09779 12.0543,7.97474 12.24546,16.3086 l 0.0577,2.51354 -6.50898,0.0707 -6.50898,0.0707 -0.15207,-2.34718 c -0.28417,-4.38623 -1.86452,-6.40088 -5.01157,-6.38879 -2.57728,0.01 -4.309,1.98154 -4.29535,4.89044 0.0168,3.57843 1.1279,4.64929 10.70299,10.31534 7.18388,4.25105 9.76296,7.07318 11.15024,12.20102 0.82205,3.03854 0.82814,9.90196 0.0114,12.88858 -1.23193,4.50509 -3.88187,7.90892 -7.55785,9.70802 -1.18174,0.57836 -2.86299,1.24453 -3.73611,1.48037 -2.25244,0.6084 -8.63746,0.73576 -11.34563,0.22632 z m 42.30188,0.0277 c -6.0695,-1.19239 -9.81568,-4.24063 -11.1472,-9.0704 -0.44974,-1.63134 -0.49447,-2.89446 -0.49447,-13.96441 0,-13.3595 0.0238,-13.61 1.60962,-16.9647 1.02523,-2.16876 3.22124,-4.40199 5.28044,-5.36993 2.78671,-1.30991 4.97181,-1.69353 9.6464,-1.69353 4.80412,0 7.05226,0.41605 9.81609,1.81659 2.05814,1.04294 4.34211,3.34416 5.28969,5.32963 1.45246,3.04334 1.55333,4.12057 1.55838,16.64118 0.004,10.41542 -0.0396,11.5739 -0.50726,13.40223 -1.29459,5.06179 -4.02271,7.88165 -9.1027,9.40877 -1.7815,0.53555 -2.85396,0.66484 -6.12816,0.73878 -2.64155,0.0597 -4.5881,-0.032 -5.82083,-0.27421 z m 6.87009,-9.25563 c 1.84855,-0.77237 1.85207,-0.79684 1.93811,-13.47996 0.0861,-12.69516 0.0134,-13.35391 -1.60142,-14.50375 -1.1215,-0.79858 -3.29436,-0.83155 -4.3424,-0.0659 -1.68947,1.23425 -1.68967,1.23594 -1.69082,14.10492 -0.001,12.89387 -0.0168,12.76549 1.68356,13.80226 1.00515,0.61288 2.73968,0.67444 4.01297,0.14243 z m 53.64809,9.22624 c -5.29733,-1.42618 -8.12155,-5.62435 -8.08968,-12.02521 0.0243,-4.89117 1.20422,-8.05421 4.04645,-10.84792 2.07635,-2.04091 3.91604,-3.00274 8.34797,-4.36452 6.57053,-2.0189 8.37837,-2.94222 9.21567,-4.7067 0.87426,-1.84235 0.38433,-4.48255 -1.06849,-5.75815 -0.90038,-0.79055 -1.23886,-0.87926 -3.09027,-0.80992 -2.51391,0.0942 -3.71146,1.57772 -4.02868,4.99089 l -0.17818,1.91715 h -6.2837 c -7.21923,0 -6.73951,0.1957 -6.47031,-2.63951 0.52752,-5.55566 3.41746,-9.67038 7.99476,-11.38297 3.21382,-1.20244 4.75842,-1.43342 9.59774,-1.43525 8.4346,-0.003 12.66735,1.53129 15.00391,5.43929 1.77435,2.96769 1.76236,2.83179 1.85208,20.99865 0.0671,13.58468 0.14894,16.63854 0.47607,17.76781 0.21725,0.75 0.39502,1.49414 0.39502,1.65364 0,0.20202 -1.87746,0.29001 -6.18826,0.29001 h -6.18826 l -0.17791,-0.99219 c -0.0978,-0.5457 -0.29167,-1.42903 -0.43074,-1.96296 l -0.25286,-0.97077 -1.43634,1.36914 c -1.86211,1.77498 -3.85311,2.96256 -5.82028,3.47162 -1.93853,0.50165 -5.35822,0.50064 -7.22571,-0.002 z m 12.0007,-9.91647 c 1.5226,-1.40095 1.80805,-2.57336 1.91458,-7.86343 0.0535,-2.65576 0.03,-4.82865 -0.0521,-4.82865 -0.0821,0 -1.40878,0.61845 -2.9481,1.37433 -4.39664,2.159 -5.8304,3.72226 -6.13681,6.69115 -0.23263,2.25392 0.47725,3.87183 2.17235,4.95108 1.19407,0.76025 4.0722,0.57533 5.05013,-0.32448 z m -41.10073,-21.02139 0.0673,-30.02514 6.2895,-0.0556 6.28951,-0.0556 -0.003,29.75004 c -0.002,16.36252 -0.004,29.89886 -0.006,30.08076 -0.002,0.25532 -1.45095,0.33073 -6.35396,0.33073 h -6.35112 l 0.0673,-30.02515 z m 63.96414,7.53556 v -22.48958 h 5.95313 5.95312 l 0.003,3.37344 0.003,3.37344 1.04955,-2.15052 c 1.70767,-3.49903 4.15552,-5.33966 7.74285,-5.82216 l 1.25677,-0.16904 v 7.24586 l 2e-5,7.24586 -3.10888,-0.0801 c -3.69858,-0.0953 -4.64248,0.23691 -5.4901,1.93217 -0.50697,1.01395 -0.53187,1.65752 -0.59378,15.34583 -0.0355,7.85813 -0.0653,14.3768 -0.0661,14.48594 0,0.10914 -2.85904,0.19844 -6.35154,0.19844 h -6.35 v -22.48959 z m -282.354376,9.19428 c -1.682681,-2.9277 -1.954141,-3.46316 -3.051588,-6.01928 -2.878419,-6.70426 -4.31278,-13.68088 -4.31278,-20.97703 0,-16.63332 7.8586713,-32.59386 20.958753,-42.56611 13.337403,-10.1529 30.84538,-13.5438 46.836497,-9.07117 5.17321,1.44692 12.143473,4.64923 15.823808,7.26987 1.083477,0.7715 0.822378,0.9509 -0.448106,0.30788 -2.77264,-1.40328 -8.298328,-2.96092 -12.431392,-3.50429 -3.480512,-0.45758 -11.181633,-0.18745 -14.251019,0.49988 -7.410979,1.65955 -14.020961,4.89183 -19.624315,9.59628 -7.370638,6.18822 -12.5261571,15.01166 -14.6700956,25.10719 -0.7974729,3.7552 -0.8650375,11.73895 -0.1332267,15.74271 0.265984,1.45521 0.5605454,2.78198 0.654581,2.94838 0.1080048,0.19113 21.9011653,-13.66883 59.1730553,-37.63271 l 59.002084,-37.93527 26.70969,-0.004 c 15.13824,-0.002 26.60079,0.0953 26.45833,0.22566 -0.13825,0.12645 -3.16839,1.75061 -6.73365,3.60923 -3.56526,1.85862 -7.19666,3.7631 -8.06979,4.23217 -1.60094,0.86007 -4.18237,2.22389 -9.525,5.03222 -1.60073,0.84142 -4.75588,2.50823 -7.01146,3.70402 -2.25557,1.19579 -6.48229,3.42462 -9.39271,4.95294 -2.91041,1.52832 -9.69697,5.09978 -15.08124,7.93657 -10.0867,5.31435 -22.499904,11.85203 -27.384379,14.42257 -2.711784,1.42712 -4.394878,2.31616 -9.525,5.03127 -1.382448,0.73166 -4.656667,2.45627 -7.276042,3.83247 -14.421598,7.57699 -42.752197,22.50609 -53.842707,28.37296 -2.546614,1.34716 -8.321146,4.38397 -12.832291,6.74847 -4.511146,2.3645 -9.0355209,4.74423 -10.05416671,5.28829 -5.45272059,2.91228 -8.55029019,4.50273 -8.76957229,4.50273 -0.1352135,0 -0.6735342,-0.74414 -1.196268,-1.65364 z"
         id="path367"
         inkscape:connector-curvature="0" />
      <path
         style="fill:#6b6d6f;stroke-width:0.26458335"
         d="m 370.57942,352.91954 c -0.99283,-1.18776 -1.00291,-1.19219 -2.70905,-1.19219 -2.29846,0 -3.80542,-0.72417 -4.60041,-2.2107 -0.55102,-1.03032 -0.58648,-1.42555 -0.58648,-6.53958 v -5.44298 l 0.70401,-1.06411 c 1.24666,-1.88436 3.92692,-2.62705 6.63723,-1.83915 2.89205,0.84075 3.48938,2.50662 3.32102,9.26211 -0.0808,3.24184 -0.21325,4.50643 -0.55314,5.2811 l -0.44688,1.01856 0.78746,0.95532 0.78745,0.95531 -0.72377,0.76087 c -1.30408,1.37087 -1.51413,1.37532 -2.61744,0.0554 z m -2.02552,-4.31048 c 0.66262,-0.42133 0.87633,-1.81644 0.87257,-5.69633 -0.005,-4.58798 -0.209,-5.34059 -1.45132,-5.34059 -1.24232,0 -1.44685,0.75261 -1.45132,5.34059 -0.004,4.59526 0.31575,5.8961 1.45132,5.8961 0.14552,0 0.40595,-0.0899 0.57875,-0.19977 z m -66.19542,2.75829 c -1.62679,-0.7507 -2.51354,-2.25461 -2.51354,-4.26295 v -1.14891 l 1.42119,-0.0906 c 2.14598,-0.13685 2.28298,-0.07 2.28298,1.1133 0,0.80422 0.14354,1.12688 0.64849,1.45775 0.83347,0.54609 1.62042,0.29311 1.93474,-0.62197 0.43339,-1.26166 -0.0694,-2.03458 -2.17858,-3.34919 -3.25694,-2.02996 -4.06132,-3.34972 -3.78626,-6.21221 0.24553,-2.5554 1.85652,-3.83718 4.83682,-3.84841 1.49201,-0.006 2.04658,0.11394 2.8525,0.61499 1.20552,0.7495 2.04229,2.27903 2.04229,3.73311 v 1.06888 h -1.71474 c -1.65714,0 -1.7199,-0.0245 -1.86785,-0.72761 -0.23522,-1.11794 -0.51946,-1.51349 -1.15536,-1.60781 -0.80105,-0.11882 -1.34747,0.40402 -1.34747,1.28936 0,0.81867 0.40942,1.20559 3.15929,2.98566 2.07761,1.34491 2.61511,2.04707 2.87406,3.7544 0.38978,2.57018 -0.18905,4.25561 -1.90037,5.53329 -0.924,0.68986 -4.35949,0.88595 -5.58819,0.31896 z m 34.25952,-0.23532 c -0.64598,-0.32742 -1.37445,-0.9525 -1.61885,-1.38906 -0.5229,-0.93406 -0.79941,-3.77934 -0.37851,-3.89479 0.15488,-0.0425 0.99597,-0.017 1.86909,0.0567 l 1.5875,0.13392 0.0502,1.0502 c 0.0841,1.76076 1.64092,2.32475 2.44581,0.88604 0.67196,-1.20115 0.16362,-2.017 -2.23285,-3.58339 -2.51431,-1.64344 -3.17677,-2.40048 -3.58325,-4.09487 -0.86976,-3.62556 1.87648,-6.48705 5.67859,-5.91689 2.24944,0.33733 3.70459,1.85779 4.02664,4.20741 l 0.1691,1.2338 h -1.83721 -1.83724 l -0.24924,-1.12448 c -0.22458,-1.01309 -0.33425,-1.13268 -1.10726,-1.20725 -0.70487,-0.068 -0.91313,0.0382 -1.16694,0.59531 -0.49715,1.09112 0.0479,1.81257 2.43906,3.22845 2.94103,1.74145 3.55462,2.66804 3.55462,5.36781 0,2.40326 -0.55012,3.55092 -2.1314,4.44659 -1.45923,0.82653 -4.05201,0.82858 -5.67783,0.005 z m 11.38299,0.17384 c -1.79113,-0.77674 -2.38448,-1.72488 -2.50667,-4.00558 -0.0674,-1.25823 0.14529,-1.42278 1.909,-1.47693 l 1.60091,-0.0491 0.13203,1.17454 c 0.19669,1.7495 1.26857,2.37287 2.30243,1.339 1.20603,-1.20603 0.47469,-2.41635 -2.61276,-4.32396 -2.31672,-1.4314 -3.07999,-2.66163 -3.06149,-4.93451 0.0172,-2.12548 0.69673,-3.41823 2.16207,-4.11358 3.72618,-1.76818 7.73451,0.46272 7.74403,4.31007 0.003,0.55921 -0.10776,0.59532 -1.79977,0.59532 h -1.80129 l -0.24923,-1.12448 c -0.22336,-1.0076 -0.33682,-1.13297 -1.09159,-1.20608 -0.64154,-0.0622 -0.91493,0.0541 -1.14697,0.48766 -0.52777,0.98615 -0.0879,1.79147 1.53326,2.80734 4.11445,2.57821 4.40256,2.96409 4.41584,5.91472 0.0108,2.38228 -0.53993,3.53089 -2.12246,4.42727 -1.25841,0.71279 -3.96878,0.80218 -5.40734,0.17834 z m 29.36285,-0.17384 c -2.15067,-1.09009 -2.2328,-1.42166 -2.32709,-9.3927 l -0.0822,-6.94532 h 2.00041 2.00038 v 6.57358 c 0,6.03235 0.0398,6.60963 0.48384,7.01146 0.62889,0.56913 1.18076,0.55442 1.72411,-0.046 0.38256,-0.42271 0.43788,-1.30876 0.43788,-7.01146 v -6.52761 h 1.98438 1.98437 v 6.5751 c 0,6.64838 -0.13639,7.82391 -1.02965,8.87425 -1.29257,1.51987 -5.02044,1.9815 -7.17645,0.88867 z m -63.86441,-0.39687 c -0.0803,-0.40018 -0.68826,-4.00182 -1.35112,-8.00365 -0.66286,-4.00182 -1.25778,-7.42487 -1.32202,-7.60677 -0.0867,-0.24549 0.39248,-0.33073 1.85925,-0.33073 1.6973,0 1.97914,0.0653 1.99782,0.46302 0.0119,0.25466 0.0654,0.76068 0.11872,1.12448 0.0533,0.3638 0.28792,2.5628 0.52131,4.88667 0.23341,2.32386 0.45619,4.257 0.49506,4.29585 0.0388,0.0389 0.33948,-1.92201 0.66807,-4.35749 0.32859,-2.43549 0.66294,-4.87464 0.743,-5.42034 l 0.14555,-0.99219 h 1.92574 1.92572 l 0.17388,1.38906 c 0.4934,3.94202 1.24402,9.3278 1.30908,9.39284 0.0407,0.0407 0.27406,-1.92207 0.51853,-4.36175 0.24448,-2.43967 0.51113,-4.88226 0.59251,-5.42796 l 0.14801,-0.99219 h 1.82883 c 1.00586,0 1.82882,0.0906 1.82882,0.2014 0,0.11077 -0.59531,3.75875 -1.32291,8.10661 -0.72761,4.34787 -1.32292,8.00771 -1.32292,8.13298 0,0.12527 -1.00473,0.22776 -2.23274,0.22776 h -2.23277 l -0.15012,-1.12448 c -0.17314,-1.29673 -0.92641,-8.72314 -0.96962,-9.5592 -0.0531,-1.02753 -0.4305,1.50402 -0.91236,6.11962 l -0.47649,4.56406 h -2.18046 c -2.16694,0 -2.18138,-0.005 -2.32637,-0.7276 z m 15.44968,-7.60677 v -8.33438 h 1.98437 1.98438 v 8.33438 8.33437 h -1.98438 -1.98437 z m 57.67916,8.21248 c 0,-0.067 0.3515,-1.70414 0.78108,-3.63802 1.91736,-8.63116 2.65851,-12.11527 2.65851,-12.49762 0,-0.34305 0.41669,-0.41122 2.51354,-0.41122 1.38245,0 2.51354,0.075 2.51354,0.16658 0,0.0916 0.29385,1.49061 0.65299,3.10886 1.2935,5.8282 2.78659,12.86027 2.78659,13.12408 0,0.1583 -0.80549,0.26923 -1.95492,0.26923 h -1.95493 l -0.17079,-0.99218 c -0.45238,-2.62819 -0.31408,-2.4474 -1.87248,-2.4474 -1.5584,0 -1.4201,-0.18079 -1.87248,2.4474 l -0.17079,0.99218 h -1.95493 c -1.07521,0 -1.95493,-0.0548 -1.95493,-0.12189 z m 6.57456,-9.46925 c -0.27094,-1.78263 -0.52912,-3.35297 -0.57373,-3.48964 -0.0757,-0.23203 -0.97477,5.67528 -0.97406,6.40005 1.9e-4,0.20734 0.38089,0.33073 1.02037,0.33073 h 1.02007 z m 6.39003,1.25677 v -8.33438 h 1.98437 1.98438 v 6.61459 6.61458 h 2.38125 2.38125 v 1.71979 1.71979 h -4.36563 -4.36562 z m 10.05416,0 v -8.33438 h 1.98438 1.98437 v 8.33438 8.33437 h -1.98437 -1.98438 z m 8.66966,1.65364 -0.0707,-6.68073 -1.05833,-0.0361 c -2.12887,-0.0726 -1.98438,0.05 -1.98438,-1.6837 v -1.5875 h 5.172 5.17199 l -0.0788,1.65365 -0.0788,1.65364 -0.98613,-0.0859 c -2.17109,-0.18911 -2.05658,-0.57054 -2.05658,6.8506 v 6.59675 h -1.97982 -1.97985 z m 11.70326,3.15195 v -3.52879 l -1.94548,-4.80559 -1.94548,-4.80559 h 2.01911 2.01912 l 0.88921,2.52965 c 0.48908,1.3913 0.97917,2.4331 1.0891,2.3151 0.10994,-0.118 0.49959,-1.04798 0.86588,-2.06662 0.36629,-1.01865 0.74877,-2.06045 0.84995,-2.31511 0.15203,-0.38263 0.52358,-0.46302 2.14003,-0.46302 1.07582,0 1.95606,0.0427 1.95606,0.0949 0,0.0522 -0.89297,2.22399 -1.98437,4.82626 l -1.98438,4.7314 v 3.50811 3.50811 h -1.98437 -1.98438 z M 33.774247,339.81117 C 21.887468,338.8986 9.7481386,333.4306 1.2520642,325.16197 l -2.3706565,-2.30719 2.11666658,1.43099 c 10.25037872,6.92985 22.21702772,9.31002 33.99895772,6.76242 3.73049,-0.80665 6.897841,-1.92373 10.451041,-3.68595 4.349496,-2.15714 7.623651,-4.54447 11.388675,-8.304 6.235631,-6.22652 10.131739,-13.53831 12.057829,-22.62881 0.480206,-2.26642 0.59249,-3.67972 0.609603,-7.67292 0.01154,-2.69214 -0.06532,-5.37326 -0.170799,-5.95805 l -0.191775,-1.06327 10.168077,-5.08199 c 5.592445,-2.7951 10.2192,-4.99553 10.281679,-4.88986 0.228568,0.38657 1.260793,5.28467 1.601721,7.60046 0.501616,3.4073 0.520526,10.25071 0.03838,13.89063 -2.656483,20.05492 -16.311496,36.99854 -35.162341,43.63068 -6.951271,2.44561 -14.92377,3.49195 -22.294876,2.92606 z M 134.47996,327.85072 c -4.79404,-0.48158 -8.17208,-1.95189 -10.95148,-4.7667 -3.26951,-3.31117 -4.1193,-5.87225 -4.12546,-12.43324 l -0.004,-4.16719 h 1.19063 1.19062 l 0.004,3.77032 c 0.002,2.38625 0.14727,4.37835 0.39444,5.42667 1.23,5.21688 5.33348,9.14095 11.16381,10.6757 2.62208,0.69023 8.24843,0.96314 10.77729,0.52276 0.98975,-0.17236 1.84944,-0.26349 1.91042,-0.20252 0.061,0.061 -0.6971,0.32225 -1.68461,0.5806 -2.15531,0.56387 -7.16244,0.86514 -9.86566,0.5936 z m 42.23596,0.0168 c -5.48648,-0.54224 -9.97737,-2.99446 -11.86248,-6.47744 -1.64103,-3.03202 -1.66579,-3.28105 -1.66579,-16.75854 0,-11.10298 0.047,-12.46882 0.48193,-14.00176 1.11109,-3.91626 3.20849,-6.68035 6.22427,-8.20271 2.00653,-1.01289 2.26988,-1.03078 0.94027,-0.0639 -1.61721,1.17604 -3.01986,2.88697 -3.80872,4.64582 -1.42259,3.17185 -1.4565,3.56047 -1.4565,16.6965 0,13.73113 0.0691,14.33482 1.97922,17.29013 1.68982,2.61449 4.52247,4.45584 8.47183,5.50708 1.85006,0.49246 8.79997,0.67267 11.1125,0.28815 1.98385,-0.32986 0.59433,0.24738 -1.72656,0.71726 -2.36935,0.47969 -5.96733,0.6285 -8.68997,0.35941 z m 59.90113,-0.008 c -2.18829,-0.33448 -4.84705,-1.67316 -6.20373,-3.12356 -2.25422,-2.40995 -3.1267,-4.9891 -3.10163,-9.16889 0.0384,-6.3996 2.31792,-10.6101 7.10664,-13.12651 2.27652,-1.19627 2.70719,-1.26523 1.05113,-0.1683 -3.87905,2.56937 -5.82409,6.76288 -5.8192,12.54621 0.004,4.53001 1.33093,7.74855 4.09626,9.93442 2.18639,1.72824 3.81595,2.20814 7.54952,2.2233 l 3.23129,0.0131 -1.28001,0.43568 c -1.55788,0.53024 -4.66982,0.7342 -6.63027,0.43454 z m 135.9129,-0.21926 c -1.91915,-0.32267 -4.51829,-1.65885 -5.88468,-3.02524 -4.7005,-4.7005 -4.23674,-15.26384 0.88623,-20.1862 1.88174,-1.80804 4.57557,-3.11374 9.57177,-4.63945 2.11006,-0.64436 4.26183,-1.35128 4.78174,-1.57094 1.30167,-0.54995 2.89806,-2.00489 3.32748,-3.03264 1.08437,-2.59526 -0.47488,-5.84964 -3.03258,-6.32946 -1.35678,-0.25454 -3.22606,0.29969 -4.05677,1.20282 -0.73843,0.80279 -1.28445,2.72922 -1.28445,4.53172 v 1.04531 l -5.55625,0.0265 c -3.05594,0.0145 -5.8539,0.0265 -6.21771,0.0265 -0.3638,0 -0.79809,-0.0119 -0.96506,-0.0265 -0.44096,-0.0384 -0.0834,-4.08381 0.53713,-6.07769 0.69868,-2.24487 1.62853,-3.71715 3.32949,-5.27171 1.6756,-1.53142 3.41008,-2.42342 6.39008,-3.28627 1.85367,-0.53672 2.65882,-0.60386 7.24482,-0.60408 4.01185,-2e-4 5.60327,0.10404 7.15521,0.46865 5.43832,1.27768 8.339,4.04699 9.23523,8.81702 0.18912,1.00646 0.31887,7.30209 0.36486,17.70158 0.0636,14.39198 0.12012,16.28022 0.52157,17.4384 0.55996,1.61547 0.55917,1.71792 -0.0127,1.60843 -0.25466,-0.0488 -3.0398,-0.0978 -6.18921,-0.10888 l -5.7263,-0.0202 -0.45461,-1.85508 -0.45461,-1.85507 -1.67356,1.56555 c -3.30862,3.09503 -7.21112,4.23476 -11.83712,3.457 z m 10.78362,-9.88218 c 0.39527,-0.25899 1.03363,-1.14542 1.41859,-1.96983 0.65887,-1.41101 0.70546,-1.77446 0.79455,-6.1953 0.0578,-2.87042 -0.003,-4.69635 -0.15785,-4.69635 -0.4313,0 -5.11323,2.3714 -6.31674,3.19945 -0.62847,0.4324 -1.47289,1.34793 -1.87648,2.03451 -0.63844,1.08609 -0.73382,1.5261 -0.73382,3.38559 0,1.94715 0.0678,2.2261 0.76176,3.13599 0.41897,0.5493 1.13334,1.167 1.5875,1.37265 1.08841,0.49288 3.58822,0.34545 4.52249,-0.26671 z M 206.18244,296.56172 v -30.03021 h 1.19063 1.19062 v 29.63333 29.63334 h 5.13107 c 4.31687,0 5.15524,0.063 5.28337,0.39687 0.13281,0.34612 -0.67574,0.39688 -6.3217,0.39688 h -6.47399 z m 44.23466,28.70351 -0.30626,-1.3267 1.04651,-1.04652 1.04653,-1.04651 0.25646,0.98415 c 0.14105,0.54129 0.3365,1.43064 0.43434,1.97634 l 0.17791,0.99219 h 4.99764 c 4.26595,0 4.99763,0.0581 4.99763,0.39687 0,0.34144 -0.8622,0.39688 -6.17228,0.39688 h -6.17225 z m 19.79451,-21.16289 v -22.48958 h 1.19063 1.19062 v 22.09271 22.09271 h 5.29167 c 4.52731,0 5.29166,0.0573 5.29166,0.39687 0,0.34198 -0.89664,0.39688 -6.48229,0.39688 h -6.48229 z m 31.48338,22.2691 c -0.17161,-0.0577 -0.26255,-10.48248 -0.26255,-30.09954 v -30.01134 l 9.98493,0.0693 9.98492,0.0693 0.69472,3.30729 c 0.38208,1.81901 1.96744,9.55807 3.52301,17.19792 1.55559,7.63984 2.91332,14.10646 3.01722,14.37027 0.11663,0.29608 0.87681,-2.79236 1.98628,-8.06979 2.1957,-10.44417 5.40269,-25.53117 5.59957,-26.34267 l 0.14443,-0.59531 h 9.78456 9.78453 l 2e-5,30.09635 6e-5,30.09636 -6.28391,-0.0575 c -3.45612,-0.0316 -6.48327,-0.0614 -6.72695,-0.0661 -0.34076,-0.007 -0.4222,-0.20721 -0.35272,-0.86854 0.0497,-0.47294 0.16307,-3.65787 0.25191,-7.07761 0.0889,-3.41973 0.21503,-7.70599 0.28036,-9.525 0.0653,-1.81901 0.18221,-5.50994 0.25976,-8.20208 0.18966,-6.58297 0.37778,-12.82204 0.52658,-17.4625 0.0676,-2.11005 0.0696,-3.7174 0.004,-3.57188 -0.0653,0.14553 -2.26983,10.50396 -4.899,23.01876 -2.62919,12.51479 -4.84248,22.96252 -4.91842,23.21718 -0.12546,0.42076 -0.61685,0.46303 -5.38324,0.46303 h -5.24515 l -0.18343,-0.72761 c -0.10089,-0.40018 -0.70083,-3.28745 -1.33319,-6.41615 -0.63238,-3.12869 -1.93196,-9.46877 -2.88798,-14.08906 -0.95599,-4.62028 -2.51716,-12.17592 -3.46929,-16.7903 -0.95211,-4.61439 -1.78962,-8.44832 -1.86116,-8.51985 -0.0715,-0.0715 -0.0704,1.29286 0.003,3.03197 0.0729,1.73912 0.19871,6.07907 0.27954,9.64433 0.0808,3.56526 0.20127,8.26823 0.26757,10.45104 0.0663,2.18281 0.18463,6.29047 0.26292,9.12812 0.0783,2.83766 0.2106,7.20911 0.294,9.71434 l 0.15166,4.55495 -6.5079,0.0753 c -3.57937,0.0414 -6.62607,0.0356 -6.77048,-0.0129 z m 102.27783,-0.0441 c -0.0367,-0.0728 2.27611,-5.13292 5.13959,-11.2448 l 5.20634,-11.1125 -1.00264,-2.24896 c -0.55145,-1.23692 -2.78477,-6.23755 -4.9629,-11.1125 l -3.96026,-8.86354 6.23814,-0.071 c 3.43096,-0.0391 6.29462,-0.0145 6.36368,0.0545 0.0691,0.0691 0.93713,2.8223 1.92907,6.11833 0.99195,3.29603 1.84976,6.03898 1.90622,6.09544 0.0565,0.0565 0.98502,-2.69459 2.06349,-6.11345 l 1.9608,-6.21611 h 6.41593 6.41591 l -0.62206,1.38906 c -5.7354,12.80754 -9.23899,20.7556 -9.24296,20.96823 -0.003,0.14552 2.27616,5.20568 5.06423,11.24479 l 5.06918,10.98021 -5.62096,0.1323 c -3.09153,0.0728 -5.97527,0.0685 -6.40832,-0.01 -0.77592,-0.13977 -0.81605,-0.23272 -2.76646,-6.40575 -1.08852,-3.44516 -2.03668,-6.20637 -2.10703,-6.13602 -0.0703,0.0703 -0.99793,2.88309 -2.06132,6.25054 -1.06338,3.36746 -1.96662,6.15585 -2.00718,6.19643 -0.13578,0.13579 -12.94281,0.23849 -13.01049,0.10434 z m -220.7806,-9.44866 c 0.46846,-0.91886 0.50027,-1.71402 0.49483,-12.36927 -0.005,-10.51275 -0.0435,-11.47016 -0.49593,-12.46641 -0.57331,-1.26232 -1.69022,-2.22817 -2.57665,-2.22817 -0.93286,0 -0.75607,-0.44513 0.31751,-0.79944 1.13224,-0.37367 2.60111,-0.14411 3.59183,0.56135 1.49206,1.06244 1.57987,1.90993 1.49496,14.42794 -0.086,12.68312 -0.0896,12.70759 -1.93811,13.47996 -1.32687,0.5544 -1.44051,0.47689 -0.88844,-0.60596 z m 65.2286,-0.63751 c 0.72027,-1.38093 0.74525,-1.5669 0.84087,-6.25942 l 0.0986,-4.83621 1.02243,-0.5216 c 0.56234,-0.28688 1.09807,-0.52161 1.19049,-0.52161 0.0924,0 0.12433,2.17289 0.0709,4.82865 -0.0849,4.2165 -0.16741,4.97959 -0.65075,6.01927 -0.65431,1.40737 -1.53093,2.27124 -2.5654,2.52807 l -0.74938,0.18605 z m -107.14006,-0.52961 c 0.92548,-1.01054 1.40169,-2.46379 1.40169,-4.27755 0,-3.90341 -1.43433,-5.65063 -7.6856,-9.36218 -7.19747,-4.27334 -9.73775,-6.30644 -11.87815,-9.5066 -1.76121,-2.63322 -2.63015,-5.41401 -2.83574,-9.07488 -0.43583,-7.76099 2.3553,-13.52386 7.90695,-16.32549 2.16679,-1.09348 2.56359,-1.15403 0.98444,-0.15024 -2.7377,1.74023 -5.18498,5.36532 -6.10413,9.04188 -0.55743,2.22967 -0.47937,8.70819 0.12911,10.71563 1.74057,5.74225 4.79398,8.83037 14.45603,14.62032 6.03298,3.61525 7.16839,4.95041 7.34624,8.63864 0.0937,1.94275 0.034,2.27456 -0.64493,3.58273 -0.80465,1.55052 -1.60605,2.26452 -2.86485,2.55243 l -0.79375,0.18154 z m -149.1941602,-0.75269 -0.4448079,-0.78178 3.3552245,-1.76707 c 1.8453735,-0.97188 4.18866208,-2.2122 5.20730789,-2.75625 1.01864581,-0.54406 5.54302071,-2.92379 10.05416671,-5.28829 4.511145,-2.3645 10.285677,-5.40131 12.832291,-6.74847 11.09051,-5.86687 39.421109,-20.79597 53.842707,-28.37296 2.619375,-1.3762 5.893594,-3.10081 7.276042,-3.83247 5.130122,-2.71511 6.813216,-3.60415 9.525,-5.03127 4.884475,-2.57054 17.297679,-9.10822 27.384379,-14.42257 5.38427,-2.83679 12.17083,-6.40825 15.08124,-7.93657 2.91042,-1.52832 7.13714,-3.75768 9.39271,-4.95414 2.25558,-1.19645 5.52979,-2.92419 7.27604,-3.83943 1.74625,-0.91523 4.00844,-2.10706 5.02709,-2.6485 3.46175,-1.84004 6.86905,-3.64429 11.77396,-6.23464 4.63628,-2.44848 4.98911,-2.58879 6.68072,-2.65678 0.98227,-0.0395 1.78586,0.0102 1.78576,0.1105 -1.1e-4,0.10025 -1.69351,1.07524 -3.76311,2.16665 -2.06961,1.09141 -4.89726,2.58453 -6.28367,3.31806 -1.38641,0.73352 -4.42575,2.32675 -6.75408,3.54051 -2.32833,1.21376 -4.82864,2.53283 -5.55625,2.93126 -0.7276,0.39843 -2.75167,1.47095 -4.49792,2.38338 -1.74625,0.91243 -6.27062,3.29479 -10.05416,5.29412 -8.4007,4.43918 -24.93056,13.14831 -31.75,16.7282 -5.68755,2.9857 -8.79145,4.62332 -14.684376,7.74746 -2.255573,1.19579 -6.482292,3.42399 -9.392708,4.95156 -8.644797,4.53732 -15.455021,8.11979 -17.991666,9.46438 -1.309688,0.69422 -5.834063,3.07634 -10.054167,5.2936 -4.220104,2.21725 -9.399323,4.95156 -11.509375,6.07623 -2.110052,1.12467 -5.503333,2.91109 -7.540625,3.96983 -2.037291,1.05875 -4.299479,2.25126 -5.027083,2.65004 -0.727604,0.39878 -2.632604,1.41031 -4.233333,2.24784 -4.31378,2.25705 -7.924242,4.15492 -13.096875,6.88445 -2.546614,1.34383 -8.0830204,4.25799 -12.3031244,6.47592 -4.22010412,2.21793 -8.4211556,4.43529 -9.3356701,4.92746 -0.9145143,0.49218 -1.6884205,0.89412 -1.7197916,0.8932 -0.031371,-7.9e-4 -0.2572017,-0.35348 -0.5018461,-0.78346 z M 247.90295,296.89245 c 1.15091,-1.21593 1.40658,-1.82787 1.40658,-3.36659 0,-2.49088 -1.31866,-4.17217 -3.54005,-4.51356 l -1.09016,-0.16754 0.74143,-0.30742 c 0.69747,-0.28918 1.95089,-0.42035 3.28426,-0.34369 1.67859,0.0965 3.19299,2.77444 2.92311,5.16897 -0.17248,1.53005 -0.99626,2.63999 -2.67327,3.60181 -1.76662,1.01323 -2.06005,0.99315 -1.0519,-0.072 z m -20.11558,-2.91042 c 0.16683,-4.04514 1.40166,-7.07043 3.78367,-9.26984 1.38652,-1.28022 4.14185,-3.02592 4.3878,-2.77997 0.059,0.059 -0.49268,0.5553 -1.22604,1.1028 -2.48403,1.8545 -4.22188,5.41532 -4.60327,9.43198 -0.26602,2.80168 -0.59274,2.63951 5.31768,2.63951 4.38456,0 5.13107,0.0577 5.13107,0.39688 0,0.3419 -0.89139,0.39687 -6.43501,0.39687 h -6.43501 z m 61.07736,0.61294 c -2.0629,-0.14611 -2.09383,-0.15832 -1.21729,-0.48065 0.49466,-0.1819 1.71506,-0.33073 2.71198,-0.33073 1.63621,0 1.81261,0.0515 1.81261,0.52917 0,0.38675 -0.16021,0.51611 -0.59532,0.48065 -0.32742,-0.0267 -1.54781,-0.11598 -2.71198,-0.19844 z m 155.79365,-0.84248 c -1.55601,-0.28039 -2.53801,-0.84854 -3.5892,-2.07662 -2.08354,-2.43414 -2.03973,-5.89139 0.10551,-8.32852 1.2241,-1.39066 2.77908,-2.06871 4.72721,-2.06129 3.45125,0.0131 5.95275,2.35583 6.27173,5.87351 0.37275,4.11061 -3.3188,7.34909 -7.51525,6.59292 z m 3.23096,-1.29563 c 0.99039,-0.37655 2.30518,-1.67415 2.79993,-2.76336 1.63459,-3.59853 -1.32919,-7.74312 -5.28241,-7.38703 -3.55499,0.32022 -5.79252,4.15663 -4.30196,7.37608 1.20409,2.60074 4.11265,3.79012 6.78444,2.77431 z m -4.37565,-5.0065 v -3.98552 h 1.70503 c 1.39176,0 1.82909,0.10939 2.38019,0.59532 1.10191,0.97161 1.0138,2.9224 -0.16944,3.75118 -0.51438,0.36027 -0.50025,0.40962 0.56634,1.98024 l 1.09384,1.61076 -1.00203,-2.6e-4 c -0.92591,-2.5e-4 -1.05809,-0.10005 -1.73961,-1.31344 -0.40563,-0.72225 -0.82489,-1.36716 -0.93165,-1.43314 -0.10676,-0.066 -0.19158,0.4953 -0.18849,1.24729 0.006,1.3505 -0.005,1.36828 -0.85428,1.45018 l -0.8599,0.0829 v -3.98552 z m 3.1927,-1.10815 c 0.38031,-0.71065 -0.15243,-1.61034 -0.8908,-1.50436 -0.4228,0.0607 -0.5901,0.28995 -0.63918,0.87595 -0.0366,0.43656 -0.0161,0.93334 0.0452,1.10394 0.15844,0.43982 1.16788,0.11652 1.48474,-0.47553 z M 5.5306007,291.76258 C 4.2857854,287.73084 4.0434146,277.9719 5.0682464,273.14609 8.85217,255.32807 21.610094,242.41798 39.362657,238.44262 c 3.069386,-0.68733 10.770507,-0.95746 14.251019,-0.49988 5.1611,0.67852 10.762945,2.44414 13.582065,4.28087 1.946881,1.26844 2.03568,1.61678 0.17291,0.67828 -2.965386,-1.49402 -7.646807,-2.8603 -11.953898,-3.48876 -3.626962,-0.52922 -10.998912,-0.34758 -14.37232,0.35413 -18.981555,3.94839 -32.8345093,18.91002 -35.1690204,37.98365 -0.3506279,2.86474 -0.1846712,10.1912 0.2819945,12.44917 0.2164091,1.0471 0.1960883,1.38619 -0.1008647,1.68315 -0.3194415,0.31944 -0.3933134,0.30243 -0.5239417,-0.12065 z M 284.5016,285.67506 c -0.003,-1.80961 0.0351,-1.92378 0.87164,-2.65831 1.04458,-0.91716 2.46835,-1.80328 3.30475,-2.05682 0.43291,-0.13123 0.21992,0.17808 -0.74263,1.07843 -0.91906,0.85966 -1.68172,1.94283 -2.39046,3.39498 l -1.04079,2.13255 -0.003,-1.89083 z M 142.609,282.18053 c -0.26592,-4.10451 -1.57292,-5.99605 -4.27652,-6.18913 -0.51735,-0.0369 -0.94088,-0.0939 -0.94117,-0.12653 -0.002,-0.28123 1.78131,-0.86669 2.64066,-0.86669 3.09588,0 4.67631,2.03633 4.95828,6.3886 l 0.15177,2.34265 h 5.3848 c 4.61009,0 5.38479,0.0571 5.38479,0.39687 0,0.34213 -0.90699,0.39688 -6.57542,0.39688 h -6.57542 z"
         id="path365"
         inkscape:connector-curvature="0" />
      <path
         style="fill:#f10f0d;stroke-width:0.26458335"
         d="m 272.76926,351.28637 c -0.097,-0.097 -0.1764,-3.84748 -0.1764,-8.33437 v -8.15799 h 8.33437 8.33438 v 8.33438 8.33437 h -8.15798 c -4.48691,0 -8.23738,-0.0794 -8.33437,-0.17639 z m 9.87777,-4.58611 v -1.85208 h 1.98437 1.98438 v -1.7082 -1.7082 l -1.91823,-0.0777 -1.91823,-0.0777 -0.078,-1.93054 -0.078,-1.93055 -1.6418,0.0785 -1.64181,0.0785 -0.0777,1.91823 -0.0777,1.91823 h -1.8405 -1.84049 v 1.71979 1.71979 h 1.85208 1.85208 v 1.85208 1.85209 h 1.71979 1.7198 z"
         id="path363"
         inkscape:connector-curvature="0" />
    </g>
  </g>
</svg>
